<?xml version="1.0" encoding="UTF-8"?>
<svg width="56px" height="119px" viewBox="0 0 56 119" version="1.1" xmlns="http://www.w3.org/2000/svg" xmlns:xlink="http://www.w3.org/1999/xlink">
    <title>Group 18</title>
    <defs>
        <polygon id="path-1" points="0 0.259875 55.3498207 0.259875 55.3498207 76.9901825 0 76.9901825"></polygon>
    </defs>
    <g id="切圖" stroke="none" stroke-width="1" fill="none" fill-rule="evenodd">
        <g id="設計稿--v1-1" transform="translate(-1088.000000, -2902.000000)">
            <g id="Group-18" transform="translate(1088.000000, 2902.000000)">
                <path d="M31.9106009,90.0958203 C31.4728696,90.0958203 31.0629157,90.1647834 30.7190524,90.2921737 C30.2966465,90.4492564 29.5811427,90.8419632 29.5303774,91.7154964 C29.5045158,92.1359801 29.6165827,92.4214109 29.8598731,92.5612528 C30.3799783,92.8600931 31.4699961,92.5650841 32.5724658,91.8285194 C33.0485105,91.5105226 33.5398806,91.1024907 33.9862324,90.6216643 C33.3205361,90.2586499 32.5820442,90.0958203 31.9106009,90.0958203 M29.0265554,98.5620046 C29.0141036,98.5620046 29.0026095,98.5620046 28.9891998,98.5629624 C28.6185171,98.5754141 28.3436181,98.7832614 28.1482195,99.1989559 C27.8694891,99.788974 27.863742,100.24777 28.1309784,100.601207 C28.8541449,101.562859 31.3790017,101.575311 32.1902891,101.485276 C32.1347346,101.377042 32.0791801,101.268808 32.0178786,101.160574 C31.1701933,99.6462585 29.9202168,98.5620046 29.0265554,98.5620046 M27.8369226,119 C27.8273443,119 27.8187237,119 27.8091454,118.999042 C27.6693013,118.983717 27.5696863,118.858242 27.583096,118.719358 C27.7258136,117.392776 26.9892374,116.3794 26.277565,115.398591 C25.4212592,114.218555 24.5352605,112.997333 25.2785416,111.313482 C25.9959611,109.689017 27.2478532,109.303015 28.572541,108.893067 C29.8694515,108.492698 31.2123381,108.077003 32.2918198,106.443918 C33.0772456,105.261008 33.1088542,103.631754 32.4115493,101.96706 C32.4058023,101.968018 32.3990974,101.968976 32.3923926,101.969934 C31.939336,102.043686 28.7162165,102.224714 27.7248558,100.906752 C27.3398055,100.395275 27.3273537,99.7477876 27.6894158,98.9815304 C28.0399839,98.2401766 28.5792458,98.0687265 28.9719588,98.0562748 C28.9891998,98.055317 29.0064409,98.055317 29.0227241,98.055317 C30.1079528,98.055317 31.5130988,99.220028 32.460399,100.912499 C32.5494778,101.070539 32.6308939,101.22858 32.7065629,101.38662 C34.2793303,100.979546 35.5111079,99.7219264 36.1212497,97.87812 C36.9057177,95.5113431 36.4258417,92.8811652 34.9239542,91.3333257 C34.766869,91.170496 34.5982898,91.0249071 34.4210901,90.896559 C33.9278044,91.438686 33.3837533,91.8974825 32.8540697,92.2509187 C31.5562014,93.1167893 30.3110141,93.4041358 29.60892,93.0008929 C29.315822,92.8332741 28.976748,92.469302 29.0227241,91.685804 C29.0734894,90.8371741 29.6271189,90.156163 30.5428105,89.8161364 C31.582063,89.43205 33.0734143,89.4971818 34.32818,90.2289575 C35.2151365,89.1370409 35.8377302,87.7462841 35.645205,86.2367574 C35.0475151,81.5300225 31.3924114,79.9773938 28.431739,79.5032722 C28.2947684,79.4812423 28.1999426,79.3509786 28.221015,79.2130523 C28.2440031,79.0741681 28.3761845,78.9841329 28.5121973,79.0023315 C31.6443224,79.5032722 35.5120658,81.1535986 36.149027,86.1735412 C36.3578353,87.8200364 35.697886,89.3266896 34.7525015,90.5086413 C34.9402374,90.6484833 35.1203107,90.8046082 35.2888899,90.9798895 C36.9181696,92.6599084 37.4459375,95.4969758 36.6030414,98.0380762 C35.9469235,100.020767 34.6184044,101.385662 32.9144134,101.855953 C33.6414113,103.649952 33.5810676,105.418091 32.7151835,106.72456 C31.5341712,108.508981 30.0399464,108.970651 28.7229213,109.377725 C27.4585772,109.768516 26.3676016,110.105669 25.7430922,111.518456 C25.1176251,112.936032 25.8455807,113.938871 26.6884768,115.099751 C27.4212216,116.109295 28.2516658,117.252934 28.0888336,118.772996 C28.0744661,118.90326 27.9643149,119 27.8369226,119" id="Fill-1" fill="#395064"></path>
                <g id="Group-5" transform="translate(0.000000, 1.000000)">
                    <mask id="mask-2" fill="white">
                        <use xlink:href="#path-1"></use>
                    </mask>
                    <g id="Clip-4"></g>
                    <path d="M55.3498207,33.374495 C55.3498207,54.5639325 35.4582345,76.9901825 27.6752,76.9901825 C19.8912,76.9901825 -0.000386206897,54.5639325 -0.000386206897,33.374495 C-0.000386206897,12.18602 12.3900966,0.2596825 27.6752,0.2596825 C42.9593379,0.2596825 55.3498207,12.18602 55.3498207,33.374495" id="Fill-3" fill="#F35939" mask="url(#mask-2)"></path>
                </g>
                <path d="M32,82.7059567 C32,82.7059567 30.233117,84 28,84 C25.766883,84 24,82.7059567 24,82.7059567 L28,76 L32,82.7059567 Z" id="Fill-6" fill="#E0491F"></path>
                <path d="M56,34.2255773 C56,27.0588015 54.5773178,20.953663 52.1075725,16 C57.8197098,42.9060796 44.3927813,57.6453523 33.1602088,64.5754573 C18.2045294,73.8056153 3.98743808,49.4497834 1,41.725624 C4.76203114,60.4641488 21.1841826,78 28.1078379,78 C35.9520524,78 56,55.4921318 56,34.2255773" id="Fill-8" fill="#E0491F"></path>
                <path d="M37.6928445,4.14450196 C44.5376967,8.64730505 45.1258811,21.8020552 37.3141768,31.8959935 C29.5005503,41.9928627 11.5301704,50.3966623 4.70550111,43.4592778 C0.455580278,39.139166 0.818870661,20.6599904 8.63153606,10.5640982 C16.4451626,0.469182972 32.4578109,0.699745248 37.6928445,4.14450196" id="Fill-10" fill="#F56F53"></path>
                <path d="M30.4398253,6.99772898 C32.5573054,9.89096094 28.4002426,14.836624 22.5322861,19.1607427 C16.6643297,23.4848613 11.3065065,25.5506385 9.18902631,22.6574065 C7.07249613,19.7651279 7.0705962,13.2741834 15.201378,7.28276237 C22.4952374,1.90907257 28.3232951,4.10449702 30.4398253,6.99772898" id="Fill-12" fill="#F68871"></path>
                <path d="M6.37701141,32.9393949 C8.4756105,32.5280914 10.3053237,30.2268228 9.9572454,27.639165 C9.41579026,23.6063594 4.73883336,22.4821298 3.36493698,26.5454023 C2.44225322,29.2742235 3.20655215,33.5599046 6.37701141,32.9393949" id="Fill-14" fill="#F68871"></path>
                <path d="M27.6149749,78.9256412 C26.7954525,78.9256412 26.1719621,78.5966412 26.1338448,78.5766412 C26.014955,78.5126412 25.9668546,78.3546412 26.0240306,78.2226412 C26.0821141,78.0916412 26.227323,78.0376412 26.3453051,78.1006412 C26.3571034,78.1066412 27.5233118,78.7156412 28.6622936,78.1576412 C28.7811834,78.0986412 28.9245771,78.1586412 28.9790304,78.2926412 C29.0334837,78.4256412 28.9781229,78.5826412 28.8565105,78.6426412 C28.4272368,78.8536412 27.9988708,78.9256412 27.6149749,78.9256412" id="Fill-16" fill="#395064"></path>
            </g>
        </g>
    </g>
</svg>