<?xml version="1.0" encoding="UTF-8"?>
<svg width="111px" height="184px" viewBox="0 0 111 184" version="1.1" xmlns="http://www.w3.org/2000/svg" xmlns:xlink="http://www.w3.org/1999/xlink">
    <title>Group 49</title>
    <g id="切圖" stroke="none" stroke-width="1" fill="none" fill-rule="evenodd">
        <g id="設計稿--v1-1" transform="translate(-76.000000, -1094.000000)">
            <g id="Group-49" transform="translate(76.000000, 1094.000000)">
                <g id="Group" transform="translate(72.000000, 102.000000)">
                    <path d="M21.6073112,61.0445795 C21.3148371,61.0445795 21.0415206,61.0945776 20.8122669,61.186935 C20.5306488,61.3008194 20.0542608,61.5855303 20.0204155,62.2188386 C20.0031736,62.5236876 20.07725,62.7306239 20.2400904,62.8320088 C20.5855675,63.0486669 21.3129213,62.834092 22.0485767,62.3007798 C22.3659559,62.0702334 22.6929138,61.7744118 22.9911353,61.4258144 C22.5473154,61.1626304 22.0549626,61.0445795 21.6073112,61.0445795 M19.6838787,67.182531 C19.6762156,67.182531 19.667914,67.182531 19.6596123,67.1832254 C19.4124781,67.1922528 19.2292028,67.3429413 19.0982919,67.6443183 C18.9124622,68.0720791 18.9086307,68.4047048 19.0867973,68.6609447 C19.5689326,69.3588337 21.2516167,69.3664723 21.7931408,69.3018916 C21.7567412,69.2234224 21.7190644,69.1449533 21.6781947,69.0664842 C21.1136813,67.968611 20.279683,67.182531 19.6838787,67.182531 M18.8907502,82 C18.8843643,82 18.878617,82 18.8722311,81.9993056 C18.778997,81.9881949 18.7125836,81.8972263 18.7221625,81.7965358 C18.8166738,80.8347683 18.3262368,80.1000752 17.851126,79.3889922 C17.2808653,78.5334706 16.6901697,77.6480889 17.1857154,76.4273039 C17.6640192,75.2495728 18.4980175,74.9697227 19.3811872,74.6725123 C20.2464763,74.382246 21.1411406,74.080869 21.8614699,72.8968881 C22.384475,72.0392832 22.4055484,70.8580799 21.9406551,69.6511833 C21.9374621,69.6518777 21.9323534,69.6525721 21.9278833,69.6532665 C21.6258303,69.7074311 19.4776142,69.8386759 18.8160352,68.8824637 C18.5599607,68.5116451 18.551659,68.0422192 18.7924074,67.4866856 C19.0261312,66.9492069 19.3862959,66.8249063 19.6481177,66.8158788 C19.6589737,66.8151844 19.6704683,66.8151844 19.6813244,66.8151844 C20.4054852,66.8151844 21.3422964,67.6595955 21.9738617,68.8866302 C22.032612,69.001209 22.0868921,69.1157878 22.1373407,69.2303666 C23.1859052,68.9352394 24.0077702,68.0234699 24.4145519,66.6867173 C24.937557,64.970813 24.6169849,63.063944 23.6163147,61.9417662 C23.511586,61.8237154 23.3991942,61.718164 23.2810551,61.6251121 C22.9521813,62.0181521 22.5894623,62.3507778 22.2356836,62.6070177 C21.3697558,63.2347706 20.5402276,63.4430957 20.0721413,63.1507462 C19.8773714,63.0292232 19.6513106,62.7653447 19.6819629,62.1973117 C19.7158082,61.5820583 20.0849131,61.0883278 20.6947664,60.8418098 C21.3869977,60.5633486 22.3819206,60.6105689 23.2191118,61.1411035 C23.810446,60.3494682 24.2255294,59.3411747 24.0971728,58.2467736 C23.6980542,54.8344087 21.2618341,53.7087588 19.287953,53.3650224 C19.1959961,53.3490508 19.1327757,53.2546101 19.1474633,53.1546141 C19.1627894,53.0539236 19.2502762,52.987954 19.3415946,53.0018424 C21.4297832,53.3650224 24.0077702,54.5615028 24.433071,58.2009421 C24.5722836,59.3946448 24.1322953,60.4869627 23.5020071,61.3438732 C23.6271707,61.4452581 23.7472256,61.5584481 23.8596174,61.6855264 C24.9452201,62.9035337 25.297083,64.9603967 24.7357626,66.8026849 C24.29769,68.240128 23.411966,69.2296722 22.2765533,69.5706309 C22.7606044,70.8712739 22.7203732,72.1531676 22.1437266,73.1003523 C21.3563454,74.3940511 20.3601453,74.7287601 19.4814458,75.0238873 C18.6391458,75.3072094 17.9111534,75.5516442 17.4954315,76.5759092 C17.0777937,77.6036463 17.563122,78.3307008 18.1257196,79.1723342 C18.6142408,79.9042496 19.1678982,80.7333835 19.0586993,81.8354232 C19.049759,81.9298639 18.9763212,82 18.8907502,82" id="Fill-17" fill="#395064"></path>
                    <path d="M38,22.8733693 C38,37.5095334 24.3436775,53 19.0003314,53 C13.6556596,53 0,37.5095334 0,22.8733693 C0,8.23787005 8.5065327,0 19.0003314,0 C29.4934673,0 38,8.23787005 38,22.8733693" id="Fill-19" fill="#66E0A4"></path>
                    <path d="M22,56.0294676 C22,56.0294676 20.6742761,57 19.0003604,57 C17.325003,57 16,56.0294676 16,56.0294676 L19.0003604,51 L22,56.0294676 Z" id="Fill-21" fill="#4BCC8A"></path>
                    <path d="M39,23.3463588 C39,18.4914462 38.016401,14.3557072 36.3100617,11 C40.2565595,29.2266991 30.980609,39.2113677 23.2200598,43.9059549 C12.8865554,50.1586426 3.06401161,33.6595307 1,28.4270356 C3.59917553,41.120875 14.9451885,53 19.7293926,53 C25.1489358,53 39,37.7527344 39,23.3463588" id="Fill-23" fill="#4BCC8A"></path>
                    <path d="M25.3759044,2.41342175 C30.0498134,5.38117833 30.4521594,14.0513546 25.1166439,20.7041776 C19.7811283,27.3589322 7.50858928,32.8978001 2.84715104,28.3254331 C-0.0545975394,25.4780867 0.193504918,13.29863 5.52902047,6.64451928 C10.8651924,-0.00894758679 21.8007348,0.143013913 25.3759044,2.41342175" id="Fill-25" fill="#87E7B3"></path>
                    <path d="M22.5859443,4.09841028 C24.1510738,6.12367266 21.0783924,9.5856368 16.7418109,12.6125199 C12.4038251,15.6394029 8.44360491,17.0854469 6.87917752,15.0601846 C5.31404796,13.0355895 5.31334579,8.49192839 11.3231905,4.29793366 C16.7137242,0.536350799 21.0215169,2.07314791 22.5859443,4.09841028" id="Fill-27" fill="#A5F0C6"></path>
                    <path d="M4.41189452,21.9595966 C5.91031211,21.6853942 7.21863195,20.1512152 6.9693342,18.42611 C6.58256092,15.7375729 3.241708,14.9880865 2.26030368,17.6969349 C1.60186821,19.516149 2.1478237,22.3732698 4.41189452,21.9595966" id="Fill-29" fill="#A5F0C6"></path>
                    <path d="M19.0763063,53.925423 C18.5305646,53.925423 18.1143005,53.596423 18.0894941,53.576423 C18.0102345,53.512423 17.9775626,53.354423 18.0162848,53.222423 C18.0550071,53.091423 18.1518127,53.038423 18.2304672,53.100423 C18.2377277,53.107423 19.0158028,53.716423 19.7745168,53.157423 C19.8549865,53.097423 19.949977,53.158423 19.9862791,53.292423 C20.0219761,53.425423 19.985674,53.582423 19.9045993,53.642423 C19.6178127,53.853423 19.3328412,53.925423 19.0763063,53.925423" id="Fill-31" fill="#395064"></path>
                </g>
                <g id="Group-2">
                    <path d="M34.4864843,95.6506113 C34.0122754,95.6506113 33.5681586,95.7230226 33.1956401,95.8567824 C32.7380337,96.0217192 31.9629046,96.4340614 31.9079088,97.3512713 C31.8809298,97.7927791 32.0012979,98.0924814 32.2648626,98.2393155 C32.8272722,98.5530978 34.0091625,98.2433383 35.2035047,97.4699453 C35.7192197,97.1360488 36.2515373,96.7076152 36.7350851,96.2027475 C36.0139141,95.8215824 35.2138812,95.6506113 34.4864843,95.6506113 M31.3621017,104.540105 C31.3496499,104.540105 31.3361603,104.540105 31.3216331,104.541111 C30.9200602,104.554185 30.6222529,104.772424 30.4105711,105.208904 C30.1086132,105.828423 30.1023872,106.310159 30.3908556,106.681267 C31.1753236,107.691002 33.9085098,107.704077 34.7894799,107.60954 C34.7292958,107.495894 34.6691118,107.382249 34.6027018,107.268603 C33.6843761,105.678571 32.3302349,104.540105 31.3621017,104.540105 M30.0733328,126 C30.0629563,126 30.0536174,126 30.0432408,125.998994 C29.891743,125.982903 29.7838268,125.851155 29.798354,125.705326 C29.9529647,124.312414 29.1550072,123.24837 28.3840287,122.218521 C27.4563641,120.979483 26.4965322,119.697199 27.3017534,117.929156 C28.0789578,116.223468 29.4351743,115.818166 30.8702527,115.387721 C32.2752391,114.967333 33.7289953,114.530854 34.8994714,112.816114 C35.7503494,111.574059 35.7845921,109.863342 35.0291784,108.115413 C35.0229525,108.116419 35.0156889,108.117424 35.0084253,108.11843 C34.517614,108.19587 31.0259012,108.38595 29.9519271,107.002089 C29.5347893,106.465039 29.5212998,105.785177 29.9135338,104.980607 C30.2933159,104.202185 30.8775163,104.022163 31.3029553,104.009089 C31.3216331,104.008083 31.340311,104.008083 31.3579511,104.008083 C32.5336155,104.008083 34.055857,105.231029 35.0820989,107.008124 C35.1786009,107.174066 35.2668017,107.340009 35.3487765,107.505951 C37.0526078,107.078523 38.3870336,105.758023 39.0480205,103.822026 C39.8978609,101.33691 39.3779952,98.5752235 37.7519881,96.9499919 C37.5807748,96.7790208 37.3981473,96.6261525 37.2061809,96.491387 C36.671788,97.0606203 36.0823994,97.5423567 35.5085755,97.9134646 C34.1015139,98.8226288 32.7525609,99.1243426 31.9929967,98.7009376 C31.6754739,98.5249378 31.3081436,98.1427671 31.3579511,97.3200942 C31.4129469,96.4290328 32.0127121,95.7139712 33.0047114,95.3569432 C34.1295306,94.9536525 35.7451611,95.0220409 37.1055283,95.7904053 C38.0663979,94.643893 38.7408743,93.1835983 38.5323055,91.5985953 C37.884808,86.6565236 33.92615,85.0262635 30.7177173,84.5284358 C30.5682948,84.5053044 30.4666045,84.3685275 30.4894329,84.2237049 C30.5143367,84.0778765 30.6575332,83.9833396 30.8048804,84.0024481 C34.1990535,84.5284358 38.3880713,86.2612786 39.0781126,91.5322182 C39.3043216,93.2610382 38.5893765,94.8430241 37.56521,96.0840734 C37.7685906,96.2309074 37.9636699,96.3948386 38.1462974,96.578884 C39.9113504,98.3429039 40.4830989,101.321825 39.5699616,103.98998 C38.8591671,106.071805 37.4199381,107.504946 35.5739479,107.99875 C36.3615289,109.88245 36.2961565,111.738996 35.3581154,113.110787 C34.0786854,114.98443 32.4599419,115.469184 31.0331647,115.896611 C29.6634587,116.306942 28.4815684,116.660953 27.8050166,118.144379 C27.1274272,119.632834 27.9160458,120.685815 28.8291832,121.904738 C29.6229901,122.964759 30.5226379,124.16558 30.3462364,125.761646 C30.3306716,125.898423 30.2113411,126 30.0733328,126" id="Fill-1" fill="#395064"></path>
                    <path d="M59,35.3889865 C59,58.0336177 37.7963926,82 29.5,82 C21.2025782,82 0,58.0336177 0,35.3889865 C0,12.7453838 13.2067125,0 29.5,0 C45.7922583,0 59,12.7453838 59,35.3889865" id="Fill-3" fill="#FFD54D"></path>
                    <path d="M34,86.7059567 C34,86.7059567 32.233117,88 30,88 C27.766883,88 26,86.7059567 26,86.7059567 L30,80 L34,86.7059567 Z" id="Fill-5" fill="#FFC70C"></path>
                    <path d="M60,35.401421 C60,27.7722726 58.47385,21.2732542 55.8244869,16 C61.9520524,44.6419557 47.54862,60.3321492 35.4991331,67.7093578 C19.454724,77.5350098 4.2047063,51.607834 1,43.3853417 C5.0356334,63.3328036 22.6521231,82 30.0793171,82 C38.4940198,82 60,58.0400112 60,35.401421" id="Fill-7" fill="#FFC70C"></path>
                    <path d="M40.3053889,3.29071801 C47.6500942,8.1005304 48.2813202,22.1521954 39.89798,32.9343567 C31.512577,43.7196488 12.2271815,52.6964347 4.90310444,45.2860468 C0.342187834,40.6713819 0.733094075,20.9322625 9.11746565,10.148014 C17.5028686,-0.635190917 34.6862406,-0.388908485 40.3053889,3.29071801" id="Fill-9" fill="#FFE07B"></path>
                    <path d="M32.3911062,7.14761543 C34.6927463,10.185509 30.1741383,15.3784552 23.7958382,19.9187798 C17.4175381,24.4591044 11.5937381,26.6281704 9.29313056,23.5902769 C6.99149045,20.5533843 6.98942527,13.7378926 15.8283841,7.44690049 C23.7555672,1.8045262 30.0904986,4.10972187 32.3911062,7.14761543" id="Fill-11" fill="#FFEBAD"></path>
                    <path d="M7.37630139,33.9393949 C9.47478878,33.5280914 11.3053254,31.2268228 10.9572656,28.639165 C10.4158393,24.6063594 5.73913132,23.4821298 4.36438728,27.5454023 C3.44267342,30.2742235 4.20693166,34.5599046 7.37630139,33.9393949" id="Fill-13" fill="#FFEBAD"></path>
                    <path d="M29.6140673,82.9256412 C28.7954525,82.9256412 28.1719621,82.5966412 28.1338448,82.5766412 C28.014955,82.5126412 27.9668546,82.3546412 28.0240306,82.2226412 C28.0821141,82.0916412 28.227323,82.0376412 28.3453051,82.1006412 C28.3571034,82.1066412 29.5233118,82.7156412 30.6613861,82.1576412 C30.7820909,82.0986412 30.9245771,82.1586412 30.9790304,82.2926412 C31.0334837,82.4256412 30.9781229,82.5826412 30.8565105,82.6426412 C30.4272368,82.8536412 29.9988708,82.9256412 29.6140673,82.9256412" id="Fill-15" fill="#395064"></path>
                </g>
            </g>
        </g>
    </g>
</svg>