<?xml version="1.0" encoding="UTF-8"?>
<svg width="239px" height="188px" viewBox="0 0 239 188" version="1.1" xmlns="http://www.w3.org/2000/svg" xmlns:xlink="http://www.w3.org/1999/xlink">
    <title>Artboard Copy 10</title>
    <defs>
        <path d="M28.7389375,21.0387466 C-1.57948698,68.5477602 -12.4644062,105.932076 19.1176927,133.245253 L19.1176927,133.245253 C84.0112188,186.733275 147.075664,127.896621 149.200607,125.873297 L149.200607,125.873297 C167.985083,107.939673 163.775948,82.7803161 158.245409,67.4880654 L158.245409,67.4880654 C154.571117,57.326812 145.154047,34.4798256 129.480154,16.2478038 L129.480154,16.2478038 C119.320669,4.42070845 104.396406,0.209983523 89.0986016,0.209983523 L89.0986016,0.209983523 C61.900099,0.211683924 33.5317318,13.5290681 28.7389375,21.0387466" id="path-1"></path>
        <path d="M5.55526854,0.290938107 L5.69710505,0.292831146 C7.49234301,0.340331964 9.22993311,1.28011893 10.2202506,2.93408738 L10.2202506,2.93408738 L10.289388,3.05341563 C11.7285697,5.61043254 10.8830292,8.88081772 8.35943734,10.3915595 L8.35943734,10.3915595 L8.24012439,10.4614469 C5.68367902,11.9162613 2.42936738,11.0628306 0.912787724,8.52367718 L0.912787724,8.52367718 L0.80961485,8.34409718 C0.71024968,8.16325258 0.622287724,7.97875394 0.545549872,7.79185922 L0.545549872,7.79185922 L0.526869565,7.74628034 L0.478283359,7.62012089 C-0.412993977,5.21618581 0.509111562,2.42917235 2.78803581,1.06151942 C3.65497187,0.539279126 4.61063939,0.290938107 5.55526854,0.290938107" id="path-3"></path>
        <path d="M5.81212276,0.123105583 L5.95395845,0.124998628 C7.74917574,0.17249972 9.48636278,1.11229733 10.4766803,2.76668083 L10.4766803,2.76668083 L10.5748979,2.93844692 C10.6697455,3.11134451 10.7544437,3.28753671 10.8286343,3.466125 L10.8286343,3.466125 L10.8685422,3.56452427 L10.9164241,3.69067164 C11.7947043,6.09414927 10.8814398,8.86779555 8.61586701,10.2237269 L8.61586701,10.2237269 L8.49653506,10.293634 C5.9396971,11.7488677 2.68579705,10.89585 1.16921739,8.3566966 L1.16921739,8.3566966 L1.07138459,8.18716685 C0.976974744,8.01650561 0.89283376,7.84254976 0.818961637,7.66619782 L0.818961637,7.66619782 L0.766741688,7.53798058 L0.719475359,7.41225403 C-0.147097321,5.01681195 0.778482759,2.25338592 3.04489003,0.893686893 C3.91140153,0.371446602 4.86749361,0.123105583 5.81212276,0.123105583" id="path-5"></path>
        <polygon id="path-7" points="0.15328431 0.0816444444 22.5471396 0.0816444444 22.5471396 21.84336 0.15328431 21.84336"></polygon>
        <polygon id="path-9" points="0 0.211506658 21.5645147 0.211506658 21.5645147 21.7430213 0 21.7430213"></polygon>
    </defs>
    <g id="Artboard-Copy-10" stroke="none" stroke-width="1" fill="none" fill-rule="evenodd">
        <g id="Group" transform="translate(34.000000, 3.000000)">
            <g id="Group-20" transform="translate(0.000000, 29.000000)">
                <g id="Group-17" transform="translate(0.666641, 0.678017)">
                    <g id="Group-13" transform="translate(0.000000, 4.369278)">
                        <path d="M109.771374,22.575155 C109.771374,22.575155 111.189134,0.242596899 125.668118,0.0443410853 C125.668118,0.0443410853 142.66766,0.486046512 143.642689,11.8774419 C143.642689,11.8774419 151.071923,30.1915891 134.541007,35.2699225 L121.506525,38.8487597 L109.771374,22.575155 Z" id="Fill-1" fill="#130304"></path>
                        <path d="M48.3106107,35.1747597 C48.3106107,35.1747597 55.0097409,1.89549612 25.0304753,6.73293798 C25.0304753,6.73293798 15.4071081,8.14162016 14.4329284,18.0582481 C14.4329284,18.0582481 6.39966016,39.8361163 38.9266497,45.4623178 L48.3106107,35.1747597 Z" id="Fill-3" fill="#130304"></path>
                        <path d="M31.5888482,13.299 C31.5888482,13.299 36.818856,17.0262093 41.0250201,25.6633411 L27.9773794,36.4122171 C27.9773794,36.4122171 19.6159888,30.6785736 19.9542987,25.5738062 C20.3006737,20.4647752 21.8105461,11.2371395 31.5888482,13.299" id="Fill-5" fill="#3F3939"></path>
                        <path d="M138.008365,17.482624 C138.008365,17.482624 134.817979,22.5797171 127.013081,26.9737481 L116.344221,15.3043682 C116.344221,15.3043682 121.23507,7.16777907 125.995604,7.21766279 C130.760807,7.27607364 139.413391,8.2085155 138.008365,17.482624" id="Fill-7" fill="#3F3939"></path>
                        <g id="Group-12" transform="translate(0.000000, 8.100775)">
                            <path d="M19.1176927,133.648977 C-12.4644062,106.253434 -1.57948698,68.7557984 28.7389375,21.1023488 C36.2271745,9.33362791 101.258656,-16.6574961 129.480154,16.2973101 C145.154471,34.5841705 154.571117,57.5004109 158.245409,67.6924651 C163.775948,83.0310698 167.985083,108.26669 149.200607,126.254674 C147.075664,128.284132 84.0112188,187.299558 19.1176927,133.648977" id="Fill-9" fill="#000000"></path>
                            <path d="M19.1176927,133.648977 C-12.4644062,106.253434 -1.57948698,68.7557984 28.7389375,21.1023488 C36.2271745,9.33362791 101.258656,-16.6574961 129.480154,16.2973101 C145.154471,34.5841705 154.571117,57.5004109 158.245409,67.6924651 C163.775948,83.0310698 167.985083,108.26669 149.200607,126.254674 C147.075664,128.284132 84.0112188,187.299558 19.1176927,133.648977" id="Stroke-11" stroke="#D3EFE7" stroke-width="0.367"></path>
                        </g>
                    </g>
                    <g id="Group-16" transform="translate(0.000000, 13.369278)">
                        <mask id="mask-2" fill="white">
                            <use xlink:href="#path-1"></use>
                        </mask>
                        <g id="Clip-15"></g>
                        <path d="M17.4011414,131.214363 C24.9904044,92.1701559 -5.11747839,70.6077253 -55.7166685,52.915115 C-68.2133352,48.5466899 -132.096176,67.4673221 -133.916343,108.676826 C-134.935517,131.552717 -132.323273,154.620739 -127.635749,163.775006 C-121.05802,176.591235 -108.863158,199.973382 -84.2705331,202.328684 C-81.4931659,202.591377 0.265341927,209.469404 17.4011414,131.214363" id="Fill-14" fill="#130304" mask="url(#mask-2)"></path>
                    </g>
                    <path d="M70.7620486,84.3701541 C70.7620486,84.3701541 100.419159,82.2573386 101.334069,104.810367 C101.334069,104.810367 97.3933734,124.347521 72.7319719,123.705157 C72.7319719,123.705157 46.1715473,121.004927 46.7871483,100.965127 C46.7871483,100.965127 52.0936292,85.3558507 70.7620486,84.3701541" id="Fill-17" fill="#FFFFFF"></path>
                    <path d="M65.2930491,92.8400738 C64.0028343,93.6609197 62.7495555,95.6340167 63.1813253,96.8314209 C63.6232844,98.0420301 68.4771923,102.556043 71.0873407,102.485332 C73.8129673,102.411639 81.1547524,98.3713056 82.2373611,97.3293808 C83.3127524,96.2895859 82.6878113,91.6614124 81.4735913,91.3926248 C80.2576731,91.1238371 75.1575248,93.2950107 71.1387115,92.9874597 C68.215668,92.7612692 65.7859545,92.5257073 65.2930491,92.8400738" id="Fill-19" fill="#130304"></path>
                    <path d="M65.6280634,93.3176297 C64.5068205,94.0042948 63.4373729,95.6161686 63.8364522,96.5626758 C64.2410506,97.5194064 68.8291887,101.454099 71.1238946,101.332272 C73.5175212,101.205758 79.4969176,97.9044841 80.4288102,97.043597 C81.3598537,96.1848397 80.6792962,92.1743239 79.6612194,92.3097826 C78.1905698,92.5057292 74.410355,93.5276334 70.8729841,93.3815254 C68.2972246,93.2746067 66.0577105,93.0548057 65.6280634,93.3176297" id="Fill-21" fill="#2A1D1C"></path>
                    <path d="M65.9626107,93.7951857 C65.0150097,94.3549114 64.1255724,95.5991723 64.4919611,96.2939308 C64.8583499,96.9976347 69.1811427,100.351303 71.1608307,100.179211 C73.2224573,99.9985995 77.835644,97.4334029 78.6206414,96.7578131 C79.402667,96.0758337 78.6838997,92.8116189 77.847956,93.2260886 C76.1522936,94.0652512 73.6635673,93.7594041 70.6067898,93.776017 C68.3787386,93.7887961 66.3302731,93.585608 65.9626107,93.7951857" id="Fill-23" fill="#3F3939"></path>
                    <path d="M68.1193795,109.661365 C72.3462235,113.268913 76.6753847,119.666143 81.232955,106.73026 C81.5152824,105.929435 81.0249243,105.527318 80.4653642,105.935398 C77.1670164,108.382601 72.6582696,109.516109 68.6836097,108.706339 C68.0871136,108.589623 67.5712824,109.197909 68.1193795,109.661365" id="Fill-25" fill="#130304"></path>
                    <path d="M117.458273,76.1469142 C121.034703,80.6144967 121.344626,86.313987 118.161757,88.8715161 C114.978462,91.4354348 109.490698,89.9002358 105.930401,85.4454324 C102.35482,80.9855174 102.050416,75.2890089 105.227767,72.7195525 C108.419976,70.1552079 113.897976,71.689129 117.458273,76.1469142" id="Fill-27" fill="#FFFFFF"></path>
                    <path d="M116.535763,77.6790036 C118.358791,80.8925279 117.263446,84.971199 114.073784,86.8190607 C110.872234,88.6554211 106.806295,87.5513046 104.960341,84.3445959 C103.137313,81.139591 104.238177,77.0511226 107.436755,75.2028349 C110.632362,73.3762718 114.708065,74.4718689 116.535763,77.6790036" id="Fill-29" fill="#130304"></path>
                    <path d="M108.843255,79.4573468 C109.463102,80.5499621 109.090345,81.9518323 107.995424,82.569916 C106.89456,83.2003529 105.50882,82.8272024 104.87836,81.7264937 C104.257664,80.6262109 104.632544,79.2324342 105.725767,78.6032752 C106.820687,77.9711345 108.206427,78.3489706 108.843255,79.4573468" id="Fill-31" fill="#FFFFFF"></path>
                    <path d="M111.895957,83.4957637 C112.336642,84.2727346 112.071722,85.2686545 111.293517,85.7074045 C110.511916,86.1555258 109.527379,85.890146 109.079052,85.1084894 C108.637942,84.3268329 108.904136,83.3368766 109.681067,82.8896072 C110.458847,82.4397819 111.443384,82.7089955 111.895957,83.4957637" id="Fill-33" fill="#FFFFFF"></path>
                    <path d="M115.168407,76.088258 C115.447338,76.2914461 115.688908,76.4933563 115.875287,76.6829133 C119.097215,79.9552216 111.854351,82.6950663 109.478555,79.3337301 C108.472366,77.9105614 108.21721,75.2720978 110.132791,74.5854328 C111.500274,74.0955663 113.797527,75.094042 115.168407,76.088258" id="Fill-35" fill="#FFFFFF"></path>
                    <polygon id="Fill-37" fill="#FFFFFF" points="106.236631 83.3905063 106.912094 83.9885694 107.611756 84.1287138 107.368487 84.8021738 107.52727 85.6920269 106.852232 85.0939638 106.152994 84.9529675 106.395838 84.2803595"></polygon>
                    <path d="M41.0529309,86.0686278 C39.50289,91.5760052 35.0548542,95.1307322 31.1205269,94.0112807 C27.1811049,92.8943851 25.2600051,87.5245962 26.813867,82.0163669 C28.3740972,76.5179348 32.8200102,72.9602261 36.7547621,74.0809555 C40.6924859,75.1957212 42.6033964,80.5680659 41.0529309,86.0686278" id="Fill-39" fill="#FFFFFF"></path>
                    <path d="M38.5138951,82.0294016 C40.5008005,85.1441006 39.6164578,89.2734623 36.5265652,91.2848967 C33.4235115,93.28483 29.306202,92.3932729 27.2976445,89.2862414 C25.3111637,86.1796358 26.2001765,82.0396249 29.2994092,80.0286164 C32.3965192,78.0389064 36.5235934,78.9206661 38.5138951,82.0294016" id="Fill-41" fill="#130304"></path>
                    <path d="M30.9233647,84.2037699 C31.5992522,85.2631595 31.2986691,86.6824944 30.2364389,87.3559544 C29.1703877,88.0430454 27.7668174,87.741884 27.0807407,86.6756789 C26.4035795,85.6098998 26.70671,84.1978063 27.7659683,83.5132711 C28.8269248,82.8249022 30.2300706,83.1303233 30.9233647,84.2037699" id="Fill-43" fill="#FFFFFF"></path>
                    <path d="M34.1800639,88.0791251 C34.6602327,88.8326676 34.4471074,89.8409407 33.6922532,90.31888 C32.9348517,90.8070426 31.937578,90.5932052 31.4497673,89.835403 C30.9691739,89.0784528 31.184422,88.0748654 31.9371535,87.5884067 C32.6903095,87.0989661 33.6875831,87.3166373 34.1800639,88.0791251" id="Fill-45" fill="#FFFFFF"></path>
                    <path d="M37.0383207,79.6986167 C38.2262184,81.2197587 37.9740343,83.4343813 36.4481928,84.6202842 C34.9185304,85.8270597 32.7278399,85.5731811 31.5225355,84.0426677 C30.3320905,82.5121544 30.5897939,80.309033 32.1096916,79.1056653 C33.6312875,77.8971859 35.8211289,78.159158 37.0383207,79.6986167" id="Fill-47" fill="#FFFFFF"></path>
                    <polygon id="Fill-49" fill="#FFFFFF" points="29.0406445 87.1755983 29.7454015 87.7378799 30.4518568 87.8418167 30.2434015 88.5267779 30.4480358 89.4068337 29.7432788 88.8445522 29.036399 88.7406153 29.2452788 88.0556541"></polygon>
                    <g id="Group-53" transform="translate(52.322251, 96.409326)">
                        <mask id="mask-4" fill="white">
                            <use xlink:href="#path-3"></use>
                        </mask>
                        <g id="Clip-52"></g>
                        <path d="M2.78803581,1.06151942 C0.469130435,2.45316626 -0.444930946,5.31441262 0.526869565,7.74628034 L0.526869565,7.74628034 L0.545549872,7.79185922 C0.647867008,8.04105218 0.770138107,8.28598544 0.912787724,8.52367718 L0.912787724,8.52367718 C2.45306394,11.1025049 5.78580051,11.9425194 8.35943734,10.3915595 L8.35943734,10.3915595 C10.9224604,8.85721238 11.7545831,5.5078034 10.2202506,2.93408738 L10.2202506,2.93408738 C9.20387212,1.23659345 7.4003734,0.291364078 5.55526854,0.290938107 L5.55526854,0.290938107 C4.61063939,0.290938107 3.65497187,0.539279126 2.78803581,1.06151942" id="Fill-51" mask="url(#mask-4)"></path>
                    </g>
                    <g id="Group-56" transform="translate(81.616368, 95.131414)">
                        <mask id="mask-6" fill="white">
                            <use xlink:href="#path-5"></use>
                        </mask>
                        <g id="Clip-55"></g>
                        <path d="M3.04489003,0.893686893 C0.738721228,2.27724029 -0.179161125,5.11420631 0.766741688,7.53798058 L0.766741688,7.53798058 L0.818961637,7.66619782 C0.917457801,7.90133374 1.03420972,8.13220995 1.16921739,8.3566966 L1.16921739,8.3566966 C2.70949361,10.9355243 6.04180563,11.7751129 8.61586701,10.2237269 L8.61586701,10.2237269 C10.9211867,8.84400728 11.8263325,5.99639199 10.8685422,3.56452427 L10.8685422,3.56452427 L10.8286343,3.466125 C10.7297136,3.22800728 10.6121125,2.99414927 10.4766803,2.76668083 L10.4766803,2.76668083 C9.46030179,1.06876092 7.65722762,0.123531553 5.81212276,0.123105583 L5.81212276,0.123105583 C4.86749361,0.123105583 3.91140153,0.371446602 3.04489003,0.893686893" id="Fill-54" mask="url(#mask-6)"></path>
                    </g>
                    <path d="M64.0745412,164.387803 C64.1110527,166.423092 59.9360041,191.570708 69.6298097,205.906332 C71.7771959,209.081945 80.7331294,218.999825 97.981421,212.942945 C102.828536,211.247155 107.208643,206.413663 110.530766,202.723052 C117.969774,194.456235 123.272434,189.862991 118.05893,178.389466 C114.560618,170.65852 108.821094,164.044896 103.706086,157.510077 C102.865048,156.433649 100.621713,153.588589 98.4085207,152.084486 C81.1763621,171.869555 64.0745412,164.387803 64.0745412,164.387803" id="Fill-77" fill="#150301"></path>
                    <path d="M123.817432,0.751730822 C123.896823,1.23776359 123.566097,1.69653422 123.081258,1.77661674 C122.594296,1.85456941 122.137053,1.52316407 122.058936,1.03670534 C121.980393,0.548542715 122.310271,0.0889201423 122.795534,0.0118194142 C123.282496,-0.0678371392 123.739739,0.263568201 123.817432,0.751730822" id="Fill-100" fill="#FFFFFF"></path>
                </g>
            </g>
            <g id="Group-55" transform="translate(69.000000, 0.000000)">
                <path d="M17.9840007,16 C17.9840007,16 18.5098376,6.36118306 13.5323587,2.0965713 C8.55354852,-2.15687007 7,1.37794201 7,1.37794201 C7,1.37794201 9.93536803,2.64143875 11.4489796,5.25655429 C12.9559349,7.86918752 17.9840007,16 17.9840007,16" id="Fill-410" fill="#15679C"></path>
                <path d="M17.0028158,15 C17.0028158,15 18.0378916,9.35861658 21.1761673,7.47409221 C24.3184087,5.59200578 27.7950999,9.89740039 28,10.2496821 C28,10.2496821 23.4498969,11.507657 22.6289747,11.9099164 C21.8040868,12.306081 16.8653345,14.128438 17.0028158,15" id="Fill-412" fill="#15679C"></path>
                <path d="M17.9901408,16 C17.9901408,16 18.0868269,11.9331865 16.4135125,9.90043677 C14.7363306,7.86374504 10.4151057,9.58376405 10,12.060644 C10,12.060644 14.4913925,12.0842959 14.9438835,12.54945 C15.4015311,13.0211741 18.1860913,15.4376103 17.9901408,16" id="Fill-414" fill="#15679C"></path>
                <path d="M17.4588147,13.4115098 C17.4588147,13.4115098 15.2828645,3.59343957 20.408267,2.23412628 C25.5349375,0.872389978 28,5.89530698 28,5.89530698 C28,5.89530698 24.5306528,6.47319685 22.891082,7.17466066 C20.7189359,8.10388819 17.1697024,13.1134786 18.4022337,17 L17.4588147,13.4115098 Z" id="Fill-416" fill="#15679C"></path>
                <path d="M19,16.1078628 C19,16.1078628 16.1426654,10.9884278 13.3702403,12.1797907 C10.5913826,13.3787662 8.75296249,17.6024587 9.02698872,18.8369594 C9.29715544,20.0765351 13.8681189,13.7657371 19,16.1078628" id="Fill-418" fill="#15679C"></path>
                <path d="M18,14.855898 C18,14.855898 22.0759183,11.1704335 24.5960628,14.1865323 C27.1185311,17.1986781 25.4721297,20 25.4721297,20 C25.4721297,20 19.975217,14.0771674 18.2172739,15.5160402 L18,14.855898 Z" id="Fill-420" fill="#15679C"></path>
                <path d="M17.2959311,15 C16.0274954,14.942779 -2.03802578,54.6398859 0.190132661,57.6995443 C2.41441604,60.7666744 28.5878505,57.8352801 30.7423829,54.8179612 C32.8943318,51.8031329 20.9630278,15.1470052 17.2959311,15" id="Fill-422" fill="#1EAAE0"></path>
                <path d="M0.811473295,51.4233535 C0.811473295,51.4233535 23.9545885,50.6309119 29.4130042,47 L30,49.6637204 C30,49.6637204 7.86058313,57.495908 0,54.1829436 L0.811473295,51.4233535 Z" id="Fill-424" fill="#FFD04F"></path>
                <path d="M4,43 C4,43 23.2265758,42.4620775 28,40.4018961 L26.9867973,37 C26.9867973,37 10.0306644,40.4921682 5.31856899,39.6760099 L4,43 Z" id="Fill-426" fill="#FFD04F"></path>
                <path d="M9.12172775,30.2512492 C9.12172775,30.2512492 20.4842932,31.0691815 25.065445,29 L26,31.6486023 C26,31.6486023 9.79842932,33.6291225 8,32.7949563 L9.12172775,30.2512492 Z" id="Fill-428" fill="#FFD04F"></path>
                <path d="M13.1255151,22.8391657 C13.1255151,22.8391657 19.5133639,23.4471649 22.2371365,22 L23,23.5432204 C23,23.5432204 16.0668786,25.5139402 12,24.8711077 L13.1255151,22.8391657 Z" id="Fill-430" fill="#FFD04F"></path>
            </g>
        </g>
        <g id="Group-11" transform="translate(5.000000, -2.000000)">
            <g id="Group-5" transform="translate(50.000000, 0.000000)">
                <mask id="mask-8" fill="white">
                    <use xlink:href="#path-7"></use>
                </mask>
                <g id="Clip-4"></g>
            </g>
            <g id="Group-10" transform="translate(0.000000, 23.000000)">
                <mask id="mask-10" fill="white">
                    <use xlink:href="#path-9"></use>
                </mask>
                <g id="Clip-9"></g>
            </g>
        </g>
    </g>
</svg>