<?xml version="1.0" encoding="UTF-8"?>
<svg width="117px" height="17px" viewBox="0 0 117 17" version="1.1" xmlns="http://www.w3.org/2000/svg" xmlns:xlink="http://www.w3.org/1999/xlink">
    <title>Group 19</title>
    <defs>
        <polygon id="path-1" points="1.42108547e-13 0.105178349 24.6011959 0.105178349 24.6011959 15.5833828 1.42108547e-13 15.5833828"></polygon>
    </defs>
    <g id="切圖" stroke="none" stroke-width="1" fill="none" fill-rule="evenodd">
        <g id="設計稿--v1-1" transform="translate(-1014.000000, -2223.000000)">
            <g id="Group-11" transform="translate(1014.000000, 2223.000000)">
                <g id="Group-32" transform="translate(0.000000, 0.321983)">
                    <g id="Group-33" transform="translate(0.293689, 0.108084)" fill="#150301">
                        <path d="M103.465729,0.000553076712 C103.875081,-0.00115505726 104.274605,0.0014071437 104.657892,0.00396934465 C108.042095,0.0270291533 111.578416,0.490787526 114.066148,3.01925284 C116.156919,5.14374446 115.382654,8.53737963 114.086231,10.977022 C113.183349,12.6761882 111.647212,14.0977827 109.780772,14.5683737 C109.018899,14.7605387 108.226688,14.7925662 107.441313,14.8233126 C104.341691,14.9458713 98.4535187,14.8245937 97.0767633,11.322065 C96.7404794,10.4658629 96.7148415,9.5199837 96.7819274,8.60271576 C96.8161113,8.13212485 96.868669,7.63164159 96.6528833,7.2122947 C95.8841734,5.71853155 93.7784469,6.50982461 92.6016671,5.97560571 C91.4483887,5.45248968 90.6489134,3.60044542 91.975675,2.71477796 C92.2410273,2.53755906 92.5572281,2.45770379 92.8661648,2.38083777 C96.4285516,1.49474327 99.7264407,0.0176344164 103.465729,0.000553076712" id="Fill-1"></path>
                        <path d="M11.896194,0.000553076712 C11.4868422,-0.00115505726 11.0873182,0.0014071437 10.7040315,0.00396934465 C7.31982814,0.0270291533 3.78350656,0.490787526 1.29577526,3.01925284 C-0.795423122,5.14374446 -0.0207311173,8.53737963 1.27569224,10.977022 C2.17857376,12.6761882 3.71471152,14.0977827 5.58115094,14.5683737 C6.343024,14.7605387 7.13480794,14.7925662 7.9201824,14.8233126 C11.0202323,14.9458713 16.907977,14.8245937 18.2847325,11.322065 C18.6214436,10.4658629 18.6470815,9.5199837 18.5799957,8.60271576 C18.5458118,8.13212485 18.4932541,7.63164159 18.7090398,7.2122947 C19.4777496,5.71853155 21.5834761,6.50982461 22.7602559,5.97560571 C23.9135343,5.45248968 24.7130096,3.60044542 23.3858208,2.71477796 C23.1208958,2.53755906 22.804695,2.45770379 22.4953309,2.38083777 C18.9333714,1.49474327 15.6354824,0.0176344164 11.896194,0.000553076712" id="Fill-6"></path>
                    </g>
                    <mask id="mask-2" fill="white">
                        <use xlink:href="#path-1"></use>
                    </mask>
                    <g id="Clip-9"></g>
                </g>
                <g id="Group-5" transform="translate(91.014560, 0.105178)" fill="#FFFFFF">
                    <path d="M12.7448585,0.325442225 C11.409551,0.344658732 10.0836441,0.545364474 8.78764803,0.854963756 C7.49122468,1.16797931 6.2268487,1.59415873 4.95606325,2.00240275 C4.31981593,2.20310849 3.6878416,2.42046854 3.04603939,2.61177955 C2.72684749,2.71127835 2.4016734,2.80095538 2.0820542,2.89319462 C1.76542608,2.98372572 1.47101748,3.08108935 1.25651368,3.28478433 C0.781785158,3.66142787 0.698889268,4.30881065 0.926212018,4.85541352 C1.14199771,5.40158935 1.60219809,5.88200203 2.12307484,6.04683696 C2.66147083,6.21039079 3.33019283,6.1442006 4.02156165,6.16939557 C4.37066444,6.18306065 4.73899567,6.21380706 5.11758205,6.3329494 C5.49445924,6.44782141 5.8811643,6.68781423 6.14352552,7.02986806 C6.25761419,7.19982739 6.3887948,7.37747333 6.45588065,7.59910371 C6.52809408,7.81048529 6.55586847,8.0197317 6.56783283,8.214886 C6.58791586,8.60903792 6.5490317,8.94041591 6.54689521,9.25385849 C6.53407626,9.88928433 6.58535206,10.5084829 6.74772546,11.0696049 C6.90881696,11.6311539 7.22544507,12.1111396 7.62240529,12.524508 L7.9390334,12.8208693 L8.30394624,13.0732461 C8.41888951,13.1646312 8.5564796,13.2303944 8.6889421,13.302563 C8.8239684,13.3713154 8.94831223,13.454587 9.0910299,13.5130906 C10.2114063,14.0148549 11.4766369,14.2817508 12.759814,14.4064446 C14.0434184,14.5529171 15.353088,14.5759769 16.6653214,14.5341276 C17.330625,14.5097867 17.9724272,14.5033812 18.5736361,14.4000391 C19.16929,14.2979781 19.740588,14.105386 20.2742837,13.8064626 C21.3442389,13.2227078 22.2599394,12.3037317 22.9000324,11.2190666 C23.5448257,10.114758 24.0490378,8.89515036 24.2614051,7.63113122 C24.4776181,6.37693385 24.3455829,5.02537285 23.614048,3.96547572 C22.8577298,2.93461687 21.7595729,2.10788002 20.5695469,1.55230945 C19.3679838,0.998019976 18.060878,0.66835012 16.7396713,0.509066627 C15.4159009,0.341669498 14.0784569,0.333555861 12.7448585,0.325442225 M12.7448585,0.325442225 C14.0784569,0.317328589 15.4163282,0.309214952 16.7447989,0.460811842 C18.0715604,0.59874366 19.3996039,0.863931459 20.641333,1.38960969 C21.8787892,1.91870419 23.0418955,2.66174246 23.924694,3.74128313 C24.7946735,4.85285132 25.0433612,6.34661447 24.8938067,7.71226758 C24.7498072,9.09500203 24.3058441,10.4166707 23.6807066,11.6525056 C23.0286492,12.8956001 22.0697916,14.0105846 20.8225075,14.7600283 C20.2046341,15.1358178 19.5030101,15.4035678 18.7889944,15.5508944 C18.076688,15.6930965 17.3797643,15.7362269 16.7131788,15.7644111 C15.3590702,15.8237688 13.9934245,15.8182173 12.6222239,15.6790044 C11.2561509,15.5312508 9.87469517,15.2336085 8.56288907,14.628075 C8.39837919,14.5567604 8.24241527,14.4551264 8.08175107,14.3692927 C7.92194147,14.2813238 7.76384106,14.1912197 7.61770501,14.0729315 L7.17288737,13.7372831 L6.77122687,13.3375798 C6.26487826,12.7807281 5.86022668,12.0914961 5.68076135,11.3591336 C5.49317735,10.6297604 5.48890436,9.89953313 5.53889828,9.20560371 C5.56282699,8.85244701 5.61495739,8.52064199 5.6136755,8.24734055 C5.6132482,8.10983577 5.60128384,7.98471495 5.57137295,7.87838361 C5.55214453,7.77333337 5.4803584,7.67853194 5.42053662,7.5657951 C5.16159379,7.16822691 4.60781506,6.99784055 3.97071314,6.94147213 C3.3387388,6.86759533 2.64096051,6.91841232 1.90344347,6.65194342 C1.16720832,6.34960371 0.673678662,5.72357261 0.441228331,5.02451878 C0.328848851,4.67221615 0.292955785,4.28190754 0.388243329,3.9078262 C0.479685187,3.53331782 0.718544994,3.20236687 1.01423549,2.98287165 C1.3060803,2.73988959 1.67654801,2.64423409 2.0000129,2.57078433 C2.32646888,2.49562644 2.64907918,2.42516591 2.97211677,2.34402955 C3.61861925,2.18602715 4.26298525,2.01435969 4.90393285,1.83030825 C7.46345028,1.10990275 10.0609973,0.319890789 12.7448585,0.325442225" id="Fill-3"></path>
                </g>
                <g id="Group-10" transform="translate(0.000000, 0.105178)" fill="#FFFFFF">
                    <path d="M12.1896697,0.325442225 C14.873531,0.319890789 17.4715053,1.10990275 20.0305954,1.83030825 C20.6719703,2.01435969 21.3163363,2.18602715 21.9624115,2.34402955 C22.2854491,2.42516591 22.6080594,2.49562644 22.9345154,2.57078433 C23.2579803,2.64423409 23.6288753,2.73988959 23.9202928,2.98287165 C24.2164106,3.20236687 24.4548431,3.53331782 24.5462849,3.9078262 C24.6415725,4.28190754 24.6056794,4.67221615 24.4937272,5.02451878 C24.2608496,5.72357261 23.76732,6.34960371 23.0310848,6.65194342 C22.2939951,6.91841232 21.5962168,6.86759533 20.9638151,6.94147213 C20.3267132,6.99784055 19.7733618,7.16822691 19.5144189,7.5657951 C19.4541699,7.67853194 19.382811,7.77333337 19.3631553,7.87838361 C19.3332444,7.98471495 19.3212801,8.10983577 19.3208528,8.24734055 C19.3195709,8.52064199 19.3717013,8.85244701 19.3960573,9.20560371 C19.4456239,9.89953313 19.4413509,10.6297604 19.2541942,11.3591336 C19.0747289,12.0914961 18.66965,12.7807281 18.1633014,13.3375798 L17.7616409,13.7372831 L17.3168233,14.0729315 C17.1706872,14.1912197 17.0125868,14.2813238 16.8527772,14.3692927 C16.6925403,14.4551264 16.5365764,14.5567604 16.3716392,14.628075 C15.0598331,15.2336085 13.6788047,15.5312508 12.3123044,15.6790044 C10.9415311,15.8182173 9.5754581,15.8237688 8.22177676,15.7644111 C7.55519125,15.7362269 6.85784026,15.6930965 6.14596112,15.5508944 C5.43194549,15.4035678 4.72989421,15.1358178 4.11202072,14.7600283 C2.86473668,14.0105846 1.90587907,12.8956001 1.2538217,11.6525056 C0.62868414,10.4166707 0.1847211,9.09500203 0.0407215378,7.71226758 C-0.108832903,6.34661447 0.139854767,4.85285132 1.01026161,3.74128313 C1.89263282,2.66174246 3.05573907,1.91870419 4.29319524,1.38960969 C5.5349244,0.863931459 6.86339514,0.59874366 8.18972938,0.460811842 C9.51862741,0.309214952 10.8560714,0.317328589 12.1896697,0.325442225 M12.1896697,0.325442225 C10.8560714,0.333555861 9.51862741,0.341669498 8.19528426,0.509066627 C6.8736503,0.66835012 5.56654448,0.998019976 4.36540867,1.55230945 C3.17495532,2.10788002 2.07679843,2.93461687 1.32048025,3.96547572 C0.588945389,5.02537285 0.456910182,6.37693385 0.673123174,7.63113122 C0.88549048,8.89515036 1.3897026,10.114758 2.03449589,11.2190666 C2.67501619,12.3037317 3.59028937,13.2227078 4.66024457,13.8064626 C5.19436757,14.105386 5.76523824,14.2979781 6.36089221,14.4000391 C6.96252836,14.5033812 7.60390327,14.5097867 8.26920688,14.5341276 C9.58144028,14.5759769 10.8911099,14.5529171 12.1747143,14.4064446 C13.4578914,14.2817508 14.723122,14.0148549 15.8434984,13.5130906 C15.986216,13.454587 16.1105599,13.3713154 16.2455862,13.302563 C16.378476,13.2303944 16.5156388,13.1646312 16.630582,13.0732461 L16.9954949,12.8208693 L17.3125503,12.524508 C17.7095105,12.1111396 18.0257113,11.6311539 18.1868028,11.0696049 C18.3491762,10.5084829 18.4008793,9.88928433 18.3876331,9.25385849 C18.3854966,8.94041591 18.3466124,8.60903792 18.3666954,8.214886 C18.3786598,8.0197317 18.4064342,7.81048529 18.4786476,7.59910371 C18.5457335,7.37747333 18.6773414,7.19982739 18.79143,7.02986806 C19.053364,6.68781423 19.440069,6.44782141 19.8169462,6.3329494 C20.1959599,6.21380706 20.5638638,6.18306065 20.9129666,6.16939557 C21.6043354,6.1442006 22.2734847,6.21039079 22.8114534,6.04683696 C23.3323302,5.88200203 23.7929579,5.40158935 24.0083162,4.85541352 C24.2360663,4.30881065 24.1527431,3.66142787 23.6780146,3.28478433 C23.4639381,3.08108935 23.1691022,2.98372572 22.8524741,2.89319462 C22.5328549,2.80095538 22.2076808,2.71127835 21.8889162,2.61177955 C21.247114,2.42046854 20.6147123,2.20310849 19.978465,2.00240275 C18.7081069,1.59415873 17.4437309,1.16797931 16.1468802,0.854963756 C14.8508842,0.545364474 13.5249772,0.344658732 12.1896697,0.325442225" id="Fill-8"></path>
                </g>
            </g>
        </g>
    </g>
</svg>