<?xml version="1.0" encoding="UTF-8"?>
<svg width="239px" height="188px" viewBox="0 0 239 188" version="1.1" xmlns="http://www.w3.org/2000/svg" xmlns:xlink="http://www.w3.org/1999/xlink">
    <title>Artboard Copy 12</title>
    <defs>
        <path d="M28.7389375,21.0387466 C-1.57948698,68.5477602 -12.4644062,105.932076 19.1176927,133.245253 L19.1176927,133.245253 C84.0112188,186.733275 147.075664,127.896621 149.200607,125.873297 L149.200607,125.873297 C167.985083,107.939673 163.775948,82.7803161 158.245409,67.4880654 L158.245409,67.4880654 C154.571117,57.326812 145.154047,34.4798256 129.480154,16.2478038 L129.480154,16.2478038 C119.320669,4.42070845 104.396406,0.209983523 89.0986016,0.209983523 L89.0986016,0.209983523 C61.900099,0.211683924 33.5317318,13.5290681 28.7389375,21.0387466" id="path-1"></path>
        <path d="M5.55526854,0.290938107 L5.69710505,0.292831146 C7.49234301,0.340331964 9.22993311,1.28011893 10.2202506,2.93408738 L10.2202506,2.93408738 L10.289388,3.05341563 C11.7285697,5.61043254 10.8830292,8.88081772 8.35943734,10.3915595 L8.35943734,10.3915595 L8.24012439,10.4614469 C5.68367902,11.9162613 2.42936738,11.0628306 0.912787724,8.52367718 L0.912787724,8.52367718 L0.80961485,8.34409718 C0.71024968,8.16325258 0.622287724,7.97875394 0.545549872,7.79185922 L0.545549872,7.79185922 L0.526869565,7.74628034 L0.478283359,7.62012089 C-0.412993977,5.21618581 0.509111562,2.42917235 2.78803581,1.06151942 C3.65497187,0.539279126 4.61063939,0.290938107 5.55526854,0.290938107" id="path-3"></path>
        <path d="M5.81212276,0.123105583 L5.95395845,0.124998628 C7.74917574,0.17249972 9.48636278,1.11229733 10.4766803,2.76668083 L10.4766803,2.76668083 L10.5748979,2.93844692 C10.6697455,3.11134451 10.7544437,3.28753671 10.8286343,3.466125 L10.8286343,3.466125 L10.8685422,3.56452427 L10.9164241,3.69067164 C11.7947043,6.09414927 10.8814398,8.86779555 8.61586701,10.2237269 L8.61586701,10.2237269 L8.49653506,10.293634 C5.9396971,11.7488677 2.68579705,10.89585 1.16921739,8.3566966 L1.16921739,8.3566966 L1.07138459,8.18716685 C0.976974744,8.01650561 0.89283376,7.84254976 0.818961637,7.66619782 L0.818961637,7.66619782 L0.766741688,7.53798058 L0.719475359,7.41225403 C-0.147097321,5.01681195 0.778482759,2.25338592 3.04489003,0.893686893 C3.91140153,0.371446602 4.86749361,0.123105583 5.81212276,0.123105583" id="path-5"></path>
        <polygon id="path-7" points="0.0456656637 0.14156096 57.850521 0.14156096 57.850521 58.5480907 0.0456656637 58.5480907"></polygon>
        <polygon id="path-9" points="0.15328431 0.0816444444 22.5471396 0.0816444444 22.5471396 21.84336 0.15328431 21.84336"></polygon>
        <polygon id="path-11" points="0 0.211506658 21.5645147 0.211506658 21.5645147 21.7430213 0 21.7430213"></polygon>
    </defs>
    <g id="Artboard-Copy-12" stroke="none" stroke-width="1" fill="none" fill-rule="evenodd">
        <g id="Group" transform="translate(34.000000, 32.000000)">
            <g id="Group-17" transform="translate(0.666641, 0.678017)">
                <g id="Group-13" transform="translate(0.000000, 4.369278)">
                    <path d="M109.771374,22.575155 C109.771374,22.575155 111.189134,0.242596899 125.668118,0.0443410853 C125.668118,0.0443410853 142.66766,0.486046512 143.642689,11.8774419 C143.642689,11.8774419 151.071923,30.1915891 134.541007,35.2699225 L121.506525,38.8487597 L109.771374,22.575155 Z" id="Fill-1" fill="#130304"></path>
                    <path d="M48.3106107,35.1747597 C48.3106107,35.1747597 55.0097409,1.89549612 25.0304753,6.73293798 C25.0304753,6.73293798 15.4071081,8.14162016 14.4329284,18.0582481 C14.4329284,18.0582481 6.39966016,39.8361163 38.9266497,45.4623178 L48.3106107,35.1747597 Z" id="Fill-3" fill="#130304"></path>
                    <path d="M31.5888482,13.299 C31.5888482,13.299 36.818856,17.0262093 41.0250201,25.6633411 L27.9773794,36.4122171 C27.9773794,36.4122171 19.6159888,30.6785736 19.9542987,25.5738062 C20.3006737,20.4647752 21.8105461,11.2371395 31.5888482,13.299" id="Fill-5" fill="#3F3939"></path>
                    <path d="M138.008365,17.482624 C138.008365,17.482624 134.817979,22.5797171 127.013081,26.9737481 L116.344221,15.3043682 C116.344221,15.3043682 121.23507,7.16777907 125.995604,7.21766279 C130.760807,7.27607364 139.413391,8.2085155 138.008365,17.482624" id="Fill-7" fill="#3F3939"></path>
                    <g id="Group-12" transform="translate(0.000000, 8.100775)">
                        <path d="M19.1176927,133.648977 C-12.4644062,106.253434 -1.57948698,68.7557984 28.7389375,21.1023488 C36.2271745,9.33362791 101.258656,-16.6574961 129.480154,16.2973101 C145.154471,34.5841705 154.571117,57.5004109 158.245409,67.6924651 C163.775948,83.0310698 167.985083,108.26669 149.200607,126.254674 C147.075664,128.284132 84.0112188,187.299558 19.1176927,133.648977" id="Fill-9" fill="#000000"></path>
                        <path d="M19.1176927,133.648977 C-12.4644062,106.253434 -1.57948698,68.7557984 28.7389375,21.1023488 C36.2271745,9.33362791 101.258656,-16.6574961 129.480154,16.2973101 C145.154471,34.5841705 154.571117,57.5004109 158.245409,67.6924651 C163.775948,83.0310698 167.985083,108.26669 149.200607,126.254674 C147.075664,128.284132 84.0112188,187.299558 19.1176927,133.648977" id="Stroke-11" stroke="#D3EFE7" stroke-width="0.367"></path>
                    </g>
                </g>
                <g id="Group-16" transform="translate(0.000000, 13.369278)">
                    <mask id="mask-2" fill="white">
                        <use xlink:href="#path-1"></use>
                    </mask>
                    <g id="Clip-15"></g>
                    <path d="M17.4011414,131.214363 C24.9904044,92.1701559 -5.11747839,70.6077253 -55.7166685,52.915115 C-68.2133352,48.5466899 -132.096176,67.4673221 -133.916343,108.676826 C-134.935517,131.552717 -132.323273,154.620739 -127.635749,163.775006 C-121.05802,176.591235 -108.863158,199.973382 -84.2705331,202.328684 C-81.4931659,202.591377 0.265341927,209.469404 17.4011414,131.214363" id="Fill-14" fill="#130304" mask="url(#mask-2)"></path>
                </g>
                <path d="M70.7620486,84.3701541 C70.7620486,84.3701541 100.419159,82.2573386 101.334069,104.810367 C101.334069,104.810367 97.3933734,124.347521 72.7319719,123.705157 C72.7319719,123.705157 46.1715473,121.004927 46.7871483,100.965127 C46.7871483,100.965127 52.0936292,85.3558507 70.7620486,84.3701541" id="Fill-17" fill="#FFFFFF"></path>
                <path d="M65.2930491,92.8400738 C64.0028343,93.6609197 62.7495555,95.6340167 63.1813253,96.8314209 C63.6232844,98.0420301 68.4771923,102.556043 71.0873407,102.485332 C73.8129673,102.411639 81.1547524,98.3713056 82.2373611,97.3293808 C83.3127524,96.2895859 82.6878113,91.6614124 81.4735913,91.3926248 C80.2576731,91.1238371 75.1575248,93.2950107 71.1387115,92.9874597 C68.215668,92.7612692 65.7859545,92.5257073 65.2930491,92.8400738" id="Fill-19" fill="#130304"></path>
                <path d="M65.6280634,93.3176297 C64.5068205,94.0042948 63.4373729,95.6161686 63.8364522,96.5626758 C64.2410506,97.5194064 68.8291887,101.454099 71.1238946,101.332272 C73.5175212,101.205758 79.4969176,97.9044841 80.4288102,97.043597 C81.3598537,96.1848397 80.6792962,92.1743239 79.6612194,92.3097826 C78.1905698,92.5057292 74.410355,93.5276334 70.8729841,93.3815254 C68.2972246,93.2746067 66.0577105,93.0548057 65.6280634,93.3176297" id="Fill-21" fill="#2A1D1C"></path>
                <path d="M65.9626107,93.7951857 C65.0150097,94.3549114 64.1255724,95.5991723 64.4919611,96.2939308 C64.8583499,96.9976347 69.1811427,100.351303 71.1608307,100.179211 C73.2224573,99.9985995 77.835644,97.4334029 78.6206414,96.7578131 C79.402667,96.0758337 78.6838997,92.8116189 77.847956,93.2260886 C76.1522936,94.0652512 73.6635673,93.7594041 70.6067898,93.776017 C68.3787386,93.7887961 66.3302731,93.585608 65.9626107,93.7951857" id="Fill-23" fill="#3F3939"></path>
                <path d="M68.1193795,109.661365 C72.3462235,113.268913 76.6753847,119.666143 81.232955,106.73026 C81.5152824,105.929435 81.0249243,105.527318 80.4653642,105.935398 C77.1670164,108.382601 72.6582696,109.516109 68.6836097,108.706339 C68.0871136,108.589623 67.5712824,109.197909 68.1193795,109.661365" id="Fill-25" fill="#130304"></path>
                <path d="M117.458273,76.1469142 C121.034703,80.6144967 121.344626,86.313987 118.161757,88.8715161 C114.978462,91.4354348 109.490698,89.9002358 105.930401,85.4454324 C102.35482,80.9855174 102.050416,75.2890089 105.227767,72.7195525 C108.419976,70.1552079 113.897976,71.689129 117.458273,76.1469142" id="Fill-27" fill="#FFFFFF"></path>
                <path d="M108.843255,79.4573468 C109.463102,80.5499621 109.090345,81.9518323 107.995424,82.569916 C106.89456,83.2003529 105.50882,82.8272024 104.87836,81.7264937 C104.257664,80.6262109 104.632544,79.2324342 105.725767,78.6032752 C106.820687,77.9711345 108.206427,78.3489706 108.843255,79.4573468" id="Fill-31" fill="#FFFFFF"></path>
                <path d="M111.895957,83.4957637 C112.336642,84.2727346 112.071722,85.2686545 111.293517,85.7074045 C110.511916,86.1555258 109.527379,85.890146 109.079052,85.1084894 C108.637942,84.3268329 108.904136,83.3368766 109.681067,82.8896072 C110.458847,82.4397819 111.443384,82.7089955 111.895957,83.4957637" id="Fill-33" fill="#FFFFFF"></path>
                <path d="M115.168407,76.088258 C115.447338,76.2914461 115.688908,76.4933563 115.875287,76.6829133 C119.097215,79.9552216 111.854351,82.6950663 109.478555,79.3337301 C108.472366,77.9105614 108.21721,75.2720978 110.132791,74.5854328 C111.500274,74.0955663 113.797527,75.094042 115.168407,76.088258" id="Fill-35" fill="#FFFFFF"></path>
                <polygon id="Fill-37" fill="#FFFFFF" points="106.236631 83.3905063 106.912094 83.9885694 107.611756 84.1287138 107.368487 84.8021738 107.52727 85.6920269 106.852232 85.0939638 106.152994 84.9529675 106.395838 84.2803595"></polygon>
                <path d="M41.0529309,86.0686278 C39.50289,91.5760052 35.0548542,95.1307322 31.1205269,94.0112807 C27.1811049,92.8943851 25.2600051,87.5245962 26.813867,82.0163669 C28.3740972,76.5179348 32.8200102,72.9602261 36.7547621,74.0809555 C40.6924859,75.1957212 42.6033964,80.5680659 41.0529309,86.0686278" id="Fill-39" fill="#FFFFFF"></path>
                <path d="M30.9233647,84.2037699 C31.5992522,85.2631595 31.2986691,86.6824944 30.2364389,87.3559544 C29.1703877,88.0430454 27.7668174,87.741884 27.0807407,86.6756789 C26.4035795,85.6098998 26.70671,84.1978063 27.7659683,83.5132711 C28.8269248,82.8249022 30.2300706,83.1303233 30.9233647,84.2037699" id="Fill-43" fill="#FFFFFF"></path>
                <path d="M34.1800639,88.0791251 C34.6602327,88.8326676 34.4471074,89.8409407 33.6922532,90.31888 C32.9348517,90.8070426 31.937578,90.5932052 31.4497673,89.835403 C30.9691739,89.0784528 31.184422,88.0748654 31.9371535,87.5884067 C32.6903095,87.0989661 33.6875831,87.3166373 34.1800639,88.0791251" id="Fill-45" fill="#FFFFFF"></path>
                <path d="M37.0383207,79.6986167 C38.2262184,81.2197587 37.9740343,83.4343813 36.4481928,84.6202842 C34.9185304,85.8270597 32.7278399,85.5731811 31.5225355,84.0426677 C30.3320905,82.5121544 30.5897939,80.309033 32.1096916,79.1056653 C33.6312875,77.8971859 35.8211289,78.159158 37.0383207,79.6986167" id="Fill-47" fill="#FFFFFF"></path>
                <polygon id="Fill-49" fill="#FFFFFF" points="29.0406445 87.1755983 29.7454015 87.7378799 30.4518568 87.8418167 30.2434015 88.5267779 30.4480358 89.4068337 29.7432788 88.8445522 29.036399 88.7406153 29.2452788 88.0556541"></polygon>
                <g id="Group-53" transform="translate(52.322251, 96.409326)">
                    <mask id="mask-4" fill="white">
                        <use xlink:href="#path-3"></use>
                    </mask>
                    <g id="Clip-52"></g>
                    <path d="M2.78803581,1.06151942 C0.469130435,2.45316626 -0.444930946,5.31441262 0.526869565,7.74628034 L0.526869565,7.74628034 L0.545549872,7.79185922 C0.647867008,8.04105218 0.770138107,8.28598544 0.912787724,8.52367718 L0.912787724,8.52367718 C2.45306394,11.1025049 5.78580051,11.9425194 8.35943734,10.3915595 L8.35943734,10.3915595 C10.9224604,8.85721238 11.7545831,5.5078034 10.2202506,2.93408738 L10.2202506,2.93408738 C9.20387212,1.23659345 7.4003734,0.291364078 5.55526854,0.290938107 L5.55526854,0.290938107 C4.61063939,0.290938107 3.65497187,0.539279126 2.78803581,1.06151942" id="Fill-51" mask="url(#mask-4)"></path>
                </g>
                <g id="Group-56" transform="translate(81.616368, 95.131414)">
                    <mask id="mask-6" fill="white">
                        <use xlink:href="#path-5"></use>
                    </mask>
                    <g id="Clip-55"></g>
                    <path d="M3.04489003,0.893686893 C0.738721228,2.27724029 -0.179161125,5.11420631 0.766741688,7.53798058 L0.766741688,7.53798058 L0.818961637,7.66619782 C0.917457801,7.90133374 1.03420972,8.13220995 1.16921739,8.3566966 L1.16921739,8.3566966 C2.70949361,10.9355243 6.04180563,11.7751129 8.61586701,10.2237269 L8.61586701,10.2237269 C10.9211867,8.84400728 11.8263325,5.99639199 10.8685422,3.56452427 L10.8685422,3.56452427 L10.8286343,3.466125 C10.7297136,3.22800728 10.6121125,2.99414927 10.4766803,2.76668083 L10.4766803,2.76668083 C9.46030179,1.06876092 7.65722762,0.123531553 5.81212276,0.123105583 L5.81212276,0.123105583 C4.86749361,0.123105583 3.91140153,0.371446602 3.04489003,0.893686893" id="Fill-54" mask="url(#mask-6)"></path>
                </g>
                <path d="M64.0745412,164.387803 C64.1110527,166.423092 59.9360041,191.570708 69.6298097,205.906332 C71.7771959,209.081945 80.7331294,218.999825 97.981421,212.942945 C102.828536,211.247155 107.208643,206.413663 110.530766,202.723052 C117.969774,194.456235 123.272434,189.862991 118.05893,178.389466 C114.560618,170.65852 108.821094,164.044896 103.706086,157.510077 C102.865048,156.433649 100.621713,153.588589 98.4085207,152.084486 C81.1763621,171.869555 64.0745412,164.387803 64.0745412,164.387803" id="Fill-77" fill="#150301"></path>
                <path d="M123.817432,0.751730822 C123.896823,1.23776359 123.566097,1.69653422 123.081258,1.77661674 C122.594296,1.85456941 122.137053,1.52316407 122.058936,1.03670534 C121.980393,0.548542715 122.310271,0.0889201423 122.795534,0.0118194142 C123.282496,-0.0678371392 123.739739,0.263568201 123.817432,0.751730822" id="Fill-100" fill="#FFFFFF"></path>
            </g>
        </g>
        <path d="M73.9403009,117.432031 C73.5849281,115.923435 72.536388,114.526618 71.1163218,113.679672 C69.2586909,112.572623 66.8371194,112.906672 65.1049142,114.042526 C64.6193646,114.361098 64.2402369,114.712775 64.0753781,115.254476 C63.9276228,115.739428 63.9941364,116.386031 64.3010493,116.816813 C64.6093876,117.249744 65.0688068,117.630655 65.640349,117.748454 C66.1947877,117.862813 66.8865295,117.859374 67.366853,117.544241 C67.6908694,117.33186 68.0296139,117.146993 68.3973393,117.002969 C68.2187027,117.071327 68.0405411,117.139254 67.8619045,117.207612 C68.1441124,117.103571 68.4320214,117.027905 68.7341834,116.989642 L68.1388863,117.061869 C68.3830864,117.036503 68.6244359,117.036933 68.8681609,117.065738 L68.2723887,116.993511 C68.5004354,117.025755 68.7180301,117.082075 68.9313488,117.16161 C68.7531873,117.093683 68.5745506,117.025325 68.3963891,116.957397 C68.6225355,117.047251 68.8315783,117.160321 69.029694,117.293596 C68.878613,117.188266 68.727532,117.082505 68.5759759,116.976744 C68.8387048,117.160751 69.0691271,117.373562 69.2753193,117.609159 C69.1584454,117.472444 69.0415714,117.335299 68.9246974,117.198584 C69.1883765,117.508987 69.4021704,117.846906 69.5717801,118.206751 C69.4962396,118.0451 69.4211742,117.883879 69.3461089,117.722229 C69.4625077,117.978032 69.5551517,118.239855 69.6188148,118.510276 C69.7323631,118.990499 70.190357,119.47932 70.648826,119.721796 C71.1291495,119.97631 71.8370446,120.08379 72.37533,119.926439 C73.5863533,119.571753 74.2025547,118.545099 73.9403009,117.432031" id="Fill-27" fill="#140304"></path>
        <path d="M151.940301,114.432031 C151.584928,112.923435 150.536388,111.526618 149.116322,110.679672 C147.258691,109.572623 144.837119,109.906672 143.104914,111.042526 C142.619365,111.361098 142.240237,111.712775 142.075378,112.254476 C141.927623,112.739428 141.994136,113.386031 142.301049,113.816813 C142.609388,114.249744 143.068807,114.630655 143.640349,114.748454 C144.194788,114.862813 144.88653,114.859374 145.366853,114.544241 C145.690869,114.33186 146.029614,114.146993 146.397339,114.002969 C146.218703,114.071327 146.040541,114.139254 145.861905,114.207612 C146.144112,114.103571 146.432021,114.027905 146.734183,113.989642 L146.138886,114.061869 C146.383086,114.036503 146.624436,114.036933 146.868161,114.065738 L146.272389,113.993511 C146.500435,114.025755 146.71803,114.082075 146.931349,114.16161 C146.753187,114.093683 146.574551,114.025325 146.396389,113.957397 C146.622535,114.047251 146.831578,114.160321 147.029694,114.293596 C146.878613,114.188266 146.727532,114.082505 146.575976,113.976744 C146.838705,114.160751 147.069127,114.373562 147.275319,114.609159 C147.158445,114.472444 147.041571,114.335299 146.924697,114.198584 C147.188377,114.508987 147.40217,114.846906 147.57178,115.206751 C147.49624,115.0451 147.421174,114.883879 147.346109,114.722229 C147.462508,114.978032 147.555152,115.239855 147.618815,115.510276 C147.732363,115.990499 148.190357,116.47932 148.648826,116.721796 C149.129149,116.97631 149.837045,117.08379 150.37533,116.926439 C151.586353,116.571753 152.202555,115.545099 151.940301,114.432031" id="Fill-27" fill="#140304" transform="translate(147.000000, 113.500000) rotate(-15.000000) translate(-147.000000, -113.500000) "></path>
        <g id="Group-65" transform="translate(106.842609, 107.836678) scale(-1, 1) rotate(-20.000000) translate(-106.842609, -107.836678) translate(41.842609, 62.336678)">
            <g id="Group-64" transform="translate(0.532719, 0.548508)">
                <path d="M8.41727523,19.6155803 C5.41217307,29.5604228 10.583602,45.2062653 21.4641776,49.4719139 C26.1197837,51.2972087 32.2848637,51.7955411 36.6671031,50.8068932 C43.0218332,49.3715419 47.8158937,40.466335 50.2240324,34.3734675 C51.2643715,31.7413487 51.6456038,28.9995583 51.4514458,26.3010594 L58.5866718,27.4093199 L58.3104072,36.4132954 L47.7444126,56.260651 L44.7895404,58.5207842 C39.1000348,62.4577386 31.547836,62.2117792 23.7667047,60.5695911 C10.3987816,57.7485934 4.08429979,47.7537252 2.61507434,41.0102036 L1.44658449,32.9942347 L2.18683198,18.8709677 L8.41727523,19.6155803 Z" id="Fill-33" fill="#00A9D9"></path>
                <polygon id="Fill-35" fill="#0089AF" points="58.3217421 35.5645161 75.3272207 41.4503908 82.4553159 41.4851746 71.0199915 50.1357196 69.1412413 64.5967742 47.7372881 55.4837332"></polygon>
                <path d="M77.2268962,56.6129032 C76.8793673,65.5082324 82.1332246,74.0477225 90.9286286,77.4926709 C95.1616604,79.1509906 99.6022352,79.3895094 103.721914,78.4402822 C109.1268,77.1940376 113.691771,75.0522163 117.988462,67.2098604 L120.789805,75.7464418 L115.538871,82.6754452 C109.623734,88.6300121 102.05475,91.0672347 93.0485549,89.5695435 C75.2450072,86.6084199 70.0197317,75.1427113 68.7127632,67.9974896 L69.4568648,68.2886893 L77.2268962,56.6129032 Z" id="Fill-41" fill="#00A9D9"></path>
                <path d="M8.97671986,21.4137468 C11.3016157,15.413058 15.9565558,11.0474049 21.4729142,8.96576677 C26.2501326,7.16431774 31.6725297,7.07440876 36.7863351,9.11975633 C47.8074675,13.527585 53.2243943,26.1789228 48.8860905,37.3760238 C46.3179253,44.0050946 40.906147,48.63884 34.6323071,50.4020368 C30.3055875,51.6162985 25.5727754,51.4688478 21.0755098,49.6700143 C10.055021,45.2621856 4.63841601,32.6115017 8.97671986,21.4137468 M2.01812168,18.6304918 C-3.83321471,33.7329119 3.47226758,50.7950208 18.3364769,56.7401296 C33.2003644,62.6849113 49.9946394,55.261699 55.845654,40.1592789 C61.6966686,25.0578396 54.3895774,7.99540366 39.5256899,2.05029493 C24.6614806,-3.8948138 7.86881449,3.52905245 2.01812168,18.6304918" id="Fill-45" fill="#5FB6E0"></path>
                <g id="Group-49" transform="translate(70.159348, 27.580645)">
                    <mask id="mask-8" fill="white">
                        <use xlink:href="#path-7"></use>
                    </mask>
                    <g id="Clip-48"></g>
                    <path d="M9.01341078,21.4153007 C11.4687469,15.1133679 16.5243989,10.6274389 22.4480017,8.71756545 C26.9819189,7.25625241 32.0240695,7.30367443 36.796191,9.20185479 C47.8063063,13.5809218 53.2171752,26.1493833 48.8832081,37.2734218 C46.1983473,44.1652067 40.4036513,48.8853225 33.763507,50.4395308 C29.6860675,51.3938179 25.2910224,51.1541093 21.1013922,49.4875173 C10.0909555,45.1084503 4.67944365,32.539664 9.01341078,21.4153007 M2.06176865,18.6502067 C-3.78404,33.6540817 3.51542533,50.6051831 18.3647758,56.5114992 C33.213162,62.4171658 49.989363,55.042066 55.8348502,40.038191 C61.6800159,25.0356153 54.3808721,8.08451386 39.5324859,2.1785225 C24.6834569,-3.72779366 7.90661291,3.64730614 2.06176865,18.6502067" id="Fill-47" fill="#5FB6E0" mask="url(#mask-8)"></path>
                </g>
                <path d="M50.7800065,28.3064516 C55.4276268,32.1672932 60.7401232,35.3780399 66.6474914,37.7229783 C72.5558365,40.068245 78.6133066,41.3707332 84.6251926,41.7404337 C82.4244594,43.8627638 80.6287731,46.4825151 79.440006,49.527783 C78.2512389,52.573051 77.7918168,55.7243698 77.967641,58.7903226 C73.3200207,54.927511 68.0075244,51.7177493 62.0998305,49.3724826 C56.1914854,47.0272158 50.1330385,45.7237427 44.1208269,45.3556839 C46.3222113,43.2326971 48.1185488,40.6126175 49.3076415,37.5666928 C50.496083,34.5224099 50.9551796,31.3717477 50.7800065,28.3064516" id="Fill-50" fill="#5FB6E0"></path>
            </g>
            <path d="M79.9142025,44.0595755 L80.7401514,44.0637705 C79.6568306,45.5923829 78.744083,47.2978329 78.0542297,49.1688261 C77.2004568,51.4825586 76.7537609,53.8588942 76.6681719,56.2107049 L69.8624861,71.0595755 L68.7401514,67.5776823 L69.1877546,52.7265529 L79.9142025,44.0595755 Z" id="Fill-43" fill="#00A9D9"></path>
        </g>
        <g id="Group-11" transform="translate(5.000000, -2.000000)">
            <g id="Group-5" transform="translate(50.000000, 0.000000)">
                <mask id="mask-10" fill="white">
                    <use xlink:href="#path-9"></use>
                </mask>
                <g id="Clip-4"></g>
            </g>
            <g id="Group-10" transform="translate(0.000000, 23.000000)">
                <mask id="mask-12" fill="white">
                    <use xlink:href="#path-11"></use>
                </mask>
                <g id="Clip-9"></g>
            </g>
        </g>
        <g id="Group-63" transform="translate(119.500000, 33.000000) rotate(18.000000) translate(-119.500000, -33.000000) translate(103.000000, 2.000000)">
            <path d="M19.0245535,15.2217223 C19.0245535,15.2217223 17.0024954,7.51034778 21.2312797,2.94780547 C25.4623869,-1.6109703 27.5413553,0.925170447 27.5413553,0.925170447 C27.5413553,0.925170447 24.8491493,2.59877224 23.774822,5.05707104 C22.6946876,7.51285881 19.0245535,15.2217223 19.0245535,15.2217223" id="Fill-202" fill="#26DEBC"></path>
            <path d="M18.5922026,15.856511 C18.5922026,15.856511 16.4478192,10.9396964 12.6432261,9.98276052 C8.83993101,9.02443372 5.75445921,13.8244131 5.5922026,14.197173 C5.5922026,14.197173 10.8376345,14.2388998 11.8228566,14.4044164 C12.8054827,14.5657602 18.5883084,15.0219738 18.5922026,15.856511" id="Fill-204" fill="#26DEBC"></path>
            <path d="M20.1384309,15.1559851 C20.1384309,15.1559851 19.4097186,12.2283627 20.8683496,10.3951897 C22.3257741,8.55964519 27.1396184,8.88098405 27.9564035,10.5860958 C27.9564035,10.5860958 23.2258062,11.5655272 22.8216363,12.0042555 C22.4126405,12.4370551 19.8452569,14.7919591 20.1384309,15.1559851" id="Fill-206" fill="#26DEBC"></path>
            <path d="M18.587702,12.446771 C18.587702,12.446771 19.3168023,3.64362245 13.4003529,3.69454449 C7.48390349,3.74419349 5.61620813,8.56141895 5.61620813,8.56141895 C5.61620813,8.56141895 9.5563462,8.23806397 11.4927068,8.4455713 C14.0607879,8.7243695 18.8548723,12.1297813 18.1532381,15.6943244 L18.587702,12.446771 Z" id="Fill-208" fill="#26DEBC"></path>
            <path d="M18.1598555,15.3428027 C18.1598555,15.3428027 20.1667004,10.1039554 23.0141317,10.4576681 C25.8604627,10.8127734 28.2402903,14.0783494 28.157772,15.2411451 C28.0730532,16.3997632 22.7643763,11.9839245 18.1598555,15.3428027" id="Fill-210" fill="#26DEBC"></path>
            <path d="M16.8772141,14.4834092 C16.8772141,14.4834092 11.5274162,12.7863819 9.02647967,15.5615067 C6.52311857,18.3366315 8.88949187,19.969754 8.88949187,19.969754 C8.88949187,19.969754 14.4381039,14.3899189 16.7244666,15.0088486 L16.8772141,14.4834092 Z" id="Fill-212" fill="#26DEBC"></path>
            <path d="M0.711621547,60.6174492 C-1.40539857,60.1736796 12.1265535,19.5649283 17.7922111,14.1619049 C23.454068,8.75888156 34.0315671,53.960904 32.2996901,59.7936699 C31.4787272,62.5825328 6.59772295,61.8518431 0.711621547,60.6174492" id="Fill-214" fill="#15679C"></path>
            <path d="M12.6737051,22.4325474 C12.6737051,22.4325474 19.9647781,23.0588634 23.2058022,21.7567202 C23.2058022,21.7567202 24.2118496,24.39814 24.5295488,25.3388518 C24.8509421,26.2795637 13.0837587,28.7674989 10.5360083,27.3081578 L12.6737051,22.4325474 Z" id="Fill-216" fill="#FFB5CE"></path>
            <path d="M8.1750567,31.6062055 C8.1750567,31.6062055 20.1490563,33.1668915 27.1174994,30.3733166 C27.1174994,30.3733166 27.7166552,32.2299491 28.615389,35.989663 C29.5154253,39.7414143 8.10732603,39.9975473 5.64297194,38.5722269 L8.1750567,31.6062055 Z" id="Fill-218" fill="#FFB5CE"></path>
            <path d="M3.86264754,46.5833657 C3.86264754,46.5833657 22.98313,49.7057754 29.734754,46.4687945 C29.734754,46.4687945 30.7913291,52.1090094 30.7232414,53.0366219 C30.4606174,56.8326549 5.31194266,57.6360335 1.72639625,54.6599436 L3.86264754,46.5833657 Z" id="Fill-220" fill="#FFB5CE"></path>
        </g>
    </g>
</svg>