<?xml version="1.0" encoding="UTF-8"?>
<svg width="114px" height="114px" viewBox="0 0 114 114" version="1.1" xmlns="http://www.w3.org/2000/svg" xmlns:xlink="http://www.w3.org/1999/xlink">
    <title>ad_img</title>
    <defs>
        <circle id="path-1" cx="56" cy="56" r="56"></circle>
        <polygon id="path-3" points="0.206076709 0.115893419 15.8329863 0.115893419 15.8329863 15.2941895 0.206076709 15.2941895"></polygon>
    </defs>
    <g id="Page-1" stroke="none" stroke-width="1" fill="none" fill-rule="evenodd">
        <g id="設計稿-" transform="translate(-67.000000, -4509.000000)">
            <g id="ad_img" transform="translate(68.000000, 4510.000000)">
                <circle id="Oval" fill="#FFFFFF" cx="56" cy="56" r="56"></circle>
                <g id="Group-22">
                    <mask id="mask-2" fill="white">
                        <use xlink:href="#path-1"></use>
                    </mask>
                    <use id="Mask" stroke="#9AD2C6" fill="#FFFFFF" xlink:href="#path-1"></use>
                    <g mask="url(#mask-2)">
                        <g transform="translate(14.608696, 14.608696)">
                            <g id="Group-3" stroke-width="1" fill="none" transform="translate(51.478261, 2.782609)">
                                <mask id="mask-4" fill="white">
                                    <use xlink:href="#path-3"></use>
                                </mask>
                                <g id="Clip-2"></g>
                                <path d="M8.5292274,2.37167106 L4.52462466,7.60641391 C3.49251507,8.9256487 -1.36490959,11.2070897 0.721008219,13.1944686 C3.25755616,15.6086201 6.3602411,15.7129083 7.34106301,14.6531916 L14.3569534,6.90394435 C15.4127342,5.62778037 16.8950356,3.20247851 14.693611,1.10731329 C12.1557479,-1.30508919 9.50676164,1.31020522 8.5292274,2.37167106" id="Fill-1" fill="#FFD9BE" mask="url(#mask-4)"></path>
                            </g>
                            <path d="M20.3618591,23.6828416 C20.2082295,32.1463077 19.5033669,50.8136389 19.5033669,50.8136389 C19.5033669,50.8136389 19.1949895,54.6567446 20.7397835,56.3865716 C22.2848012,58.1177201 24.6010978,58.8780159 24.6010978,58.8780159 L20.7337457,66.7904217 L44.0646531,71.6521739 L55.6521739,55.3782767 L25.4600373,27.5840927 C25.4600373,27.5840927 26.2941545,23.247852 20.3618591,23.6828416" id="Fill-4" fill="#FFD9BE"></path>
                            <path d="M55.8398802,0 L29.0292398,0 C27.212656,0 25.7391304,1.4523415 25.7391304,3.24493833 L25.7391304,53.7985399 C25.7391304,55.5915758 27.212656,57.0434783 29.0292398,57.0434783 L55.8398802,57.0434783 C57.658245,57.0434783 59.1304348,55.5915758 59.1304348,53.7985399 L59.1304348,3.24493833 C59.1304348,1.4523415 57.658245,0 55.8398802,0" id="Fill-6" fill="#848484"></path>
                            <polygon id="Fill-8" fill="#9CE1FF" points="27.1304348 48.6956522 57.0434783 48.6956522 57.0434783 6.95652174 27.1304348 6.95652174"></polygon>
                            <rect id="Rectangle" fill="#FFFFFF" x="30.6086957" y="12.5217391" width="18.0869565" height="1.39130435" rx="0.695652174"></rect>
                            <rect id="Rectangle-Copy-5" fill="#FFFFFF" x="30.6086957" y="18.0869565" width="18.0869565" height="1.39130435" rx="0.695652174"></rect>
                            <rect id="Rectangle-Copy-8" fill="#FFFFFF" x="30.6086957" y="23.6521739" width="18.0869565" height="1.39130435" rx="0.695652174"></rect>
                            <rect id="Rectangle-Copy-10" fill="#FFFFFF" x="30.6086957" y="29.2173913" width="16.6956522" height="1.39130435" rx="0.695652174"></rect>
                            <rect id="Rectangle-Copy-12" fill="#FFFFFF" x="30.6086957" y="34.7826087" width="19.4782609" height="1.39130435" rx="0.695652174"></rect>
                            <path d="M42.4346566,2.7826087 C41.6670144,2.7826087 41.0434783,3.40614482 41.0434783,4.17328321 C41.0434783,4.9419332 41.6670144,5.56521739 42.4346566,5.56521739 C43.2035586,5.56521739 43.826087,4.9419332 43.826087,4.17328321 C43.826087,3.40614482 43.2035586,2.7826087 42.4346566,2.7826087" id="Fill-10" fill="#FFFFFF"></path>
                            <path d="M44.8475487,51.4782609 L40.5949573,51.4782609 C39.8497586,51.4782609 39.2433257,52.2579746 39.2433257,53.2189639 C39.2433257,54.1790954 39.8497586,54.9565217 40.5949573,54.9565217 L44.8475487,54.9565217 C45.5947488,54.9565217 46.1998474,54.1790954 46.1998474,53.2189639 C46.1998474,52.2579746 45.5947488,51.4782609 44.8475487,51.4782609" id="Fill-11" fill="#FFFFFF"></path>
                            <path d="M56.2946864,41.2096046 L54.9452473,42.8174799 C53.8561695,44.13492 52.5656932,46.4140717 54.7674339,48.3997311 C57.4429583,50.8112165 60.2366395,48.199047 61.2699916,47.1408148 L62.4430048,45.7368992 C63.5565926,44.4626968 65.1208414,42.0402928 62.7972441,39.9471943 C60.1210261,37.5368008 57.3259576,40.1496254 56.2946864,41.2096046" id="Fill-12" fill="#FFD9BE"></path>
                            <path d="M56.294363,30.0784852 L54.9461046,31.6877544 C53.8558905,33.004171 52.5659002,35.2830045 54.7671384,37.2692039 C57.4426139,39.6808146 60.2362441,37.0687277 61.2702711,36.0102221 L62.4434941,34.6062336 C63.5570617,33.3315281 65.120357,30.9092166 62.7974957,28.8162276 C60.1206329,26.4065824 57.3272339,29.0197612 56.294363,30.0784852" id="Fill-13" fill="#FFD9BE"></path>
                            <path d="M56.2939812,20.3405923 L54.9456648,21.9477395 C53.8567912,23.2655172 52.565358,25.5455303 54.7671533,27.5302773 C57.4432064,29.9413256 60.2360319,27.3300118 61.2705658,26.2714655 L62.4443017,24.8676413 C63.5569922,23.5926685 65.1203548,21.1704821 62.7973937,19.0774127 C60.1208781,16.6674563 57.3268965,19.2798621 56.2939812,20.3405923" id="Fill-14" fill="#FFD9BE"></path>
                            <polygon id="Fill-15" fill="#D4D4D4" points="18.7826087 65.875042 43.9192939 78.6086957 47.3043478 72.5610359 22.165848 59.826087"></polygon>
                            <polygon id="Fill-17" fill="#68A6A1" points="18.0878536 63.3043478 0 97.3913043 34.645659 97.3913043 45.2173913 77.4683514"></polygon>
                        </g>
                    </g>
                </g>
            </g>
        </g>
    </g>
</svg>