<?xml version="1.0" encoding="UTF-8"?>
<svg width="110px" height="90px" viewBox="0 0 110 90" version="1.1" xmlns="http://www.w3.org/2000/svg" xmlns:xlink="http://www.w3.org/1999/xlink">
    <title>Group 76</title>
    <defs>
        <ellipse id="path-1" cx="44.5" cy="44" rx="44.5" ry="44"></ellipse>
    </defs>
    <g id="web" stroke="none" stroke-width="1" fill="none" fill-rule="evenodd">
        <g id="設計稿--v2" transform="translate(-146.000000, -1756.000000)">
            <g id="Group-76" transform="translate(148.000000, 1757.000000)">
                <g id="Group-69">
                    <g id="Group-67" transform="translate(18.000000, 0.000000)">
                        <mask id="mask-2" fill="white">
                            <use xlink:href="#path-1"></use>
                        </mask>
                        <use id="Mask" stroke="#FFBEBE" stroke-width="2" fill="#FFFFFF" xlink:href="#path-1"></use>
                    </g>
                    <rect id="Rectangle" fill="#FFFFFF" x="18" y="30" width="19" height="18"></rect>
                    <text id="1" stroke="#FFBEBE" stroke-width="3" fill="#FFFFFF" fill-rule="nonzero" font-family="DFYuanStd-W14, DFYuan Std W14" font-size="45" font-weight="normal" letter-spacing="7.58039906">
                        <tspan x="0" y="47">1</tspan>
                    </text>
                </g>
                <g id="Group-75" transform="translate(35.000000, 18.000000)" fill-rule="nonzero">
                    <rect id="Rectangle" fill="#959595" x="24" y="0" width="27" height="45" rx="2.81"></rect>
                    <rect id="Rectangle" fill="#D8D7D7" x="27" y="4" width="21" height="37" rx="1"></rect>
                    <rect id="Rectangle" fill="#EFEFEF" transform="translate(37.500000, 2.500000) scale(1, -1) translate(-37.500000, -2.500000) " x="34" y="2" width="7" height="1" rx="0.5"></rect>
                    <path d="M42.2347736,47 L7.75689745,47 C6.23430503,47 5,45.74251 5,44.1913333 L5,17 L45,17 L45,44.1913333 C45,44.9377071 44.7084023,45.6533882 44.1895809,46.1803575 C43.6707595,46.7073269 42.9673903,47.0022421 42.2347736,47 Z" id="Path" fill="#739992"></path>
                    <polygon id="Path" fill="#D5E9E3" points="4.71072063 16 45 16 40.4953734 41 0 41"></polygon>
                    <polygon id="Path" fill="#A8CCC0" points="8.74595889 17 8 20.8679446 28.2708042 21 29 17"></polygon>
                    <path d="M34.4862017,24.0082474 L34.2247253,25.0886598 C34.9805517,25.0946237 35.7122912,25.3284078 36.3027742,25.7525773 C36.8394888,26.1649485 37.0596794,26.8824742 36.9862826,27.843299 L35.2064085,27.843299 C35.2962016,27.4150593 35.1371329,26.9751999 34.7843764,26.6762887 C34.530094,26.5107494 34.2302641,26.4109238 33.9173759,26.3876289 L33.2201056,29.2742268 C34.3623444,29.6865979 34.9816305,29.8804124 35.0550274,29.9340206 C35.9599946,30.3520419 36.4154861,31.2827882 36.1468059,32.1649485 C35.9452384,33.0714265 35.2927312,33.8449019 34.3761064,34.2639175 C33.6010184,34.617542 32.7493068,34.8145811 31.8806128,34.8412371 L31.6007872,36 L30.573231,36 L30.8530566,34.8412371 C29.8071512,34.7670103 29.0548333,34.5072165 28.6006901,34.0536082 C28.0731501,33.5216495 27.8942452,32.7175258 28.0593882,31.6329897 L29.8667861,31.6329897 C29.7658654,32.3175258 29.8667861,32.8206186 30.1374371,33.1134021 C30.4145646,33.3562539 30.7788467,33.5024449 31.1649933,33.5257732 L31.9035493,30.4412371 L30.2429451,29.8721649 C29.3293174,29.4637999 28.8715989,28.5262928 29.155754,27.6453608 C29.3486063,26.7930637 29.9586756,26.0643678 30.8163581,25.6618557 C31.5418011,25.3032374 32.351337,25.1039964 33.1788199,25.0804124 L33.435709,24 L34.4862017,24.0082474 Z M31.8576762,26.614433 C31.3967419,26.820321 31.0716762,27.2104504 30.9815011,27.6659794 C30.8622312,28.1690722 31.2919087,28.595189 32.2705336,28.9443299 L32.8898197,26.3587629 C32.5307328,26.3837812 32.1803355,26.4705774 31.8576762,26.614433 L31.8576762,26.614433 Z M33.4173597,33.2123711 C33.8806129,33.0213634 34.2193845,32.6483076 34.3348206,32.2020619 C34.4770271,31.6082474 34.0412331,31.142268 33.0412008,30.8164948 C32.9895685,30.7943554 32.9358356,30.7764144 32.8806451,30.7628866 L32.215486,33.5340206 C32.6337628,33.4951285 33.0408589,33.3889736 33.4173597,33.2206186 L33.4173597,33.2123711 Z" id="Shape" fill="#6D918C"></path>
                    <path d="M24.5910578,26 L24.5910578,26 L10.4089422,25.9090909 C10.1830897,25.9090909 10,25.705584 10,25.4545455 C10,25.2035069 10.1830897,25 10.4089422,25 L10.4089422,25 L24.5910578,25.0909091 C24.8169103,25.0909091 25,25.294416 25,25.5454545 C25,25.7964931 24.8169103,26 24.5910578,26 Z" id="Path" fill="#FFFFFF"></path>
                    <path d="M23.5672292,28 L23.5672292,28 L9.40827436,27.913242 C9.18279066,27.913242 9,27.7088058 9,27.456621 C9,27.2044362 9.18279066,27 9.40827436,27 L9.40827436,27 L23.5917256,27.086758 C23.8172093,27.086758 24,27.2911942 24,27.543379 C24,27.7955638 23.8172093,28 23.5917256,28 L23.5672292,28 Z" id="Path" fill="#FFFFFF"></path>
                    <path d="M23.5910578,32 L23.5910578,32 L9.4089422,31.913242 C9.18308966,31.913242 9,31.7088058 9,31.456621 C9,31.2044362 9.18308966,31 9.4089422,31 L9.4089422,31 L23.5910578,31.086758 C23.8169103,31.086758 24,31.2911942 24,31.543379 C24,31.7955638 23.8169103,32 23.5910578,32 Z" id="Path" fill="#FFFFFF"></path>
                </g>
            </g>
        </g>
    </g>
</svg>