<?xml version="1.0" encoding="UTF-8"?>
<svg width="108px" height="90px" viewBox="0 0 108 90" version="1.1" xmlns="http://www.w3.org/2000/svg" xmlns:xlink="http://www.w3.org/1999/xlink">
    <title>Group 78</title>
    <defs>
        <ellipse id="path-1" cx="44.5" cy="44" rx="44.5" ry="44"></ellipse>
        <polygon id="path-3" points="0.163757385 0.0910591152 12.5815695 0.0910591152 12.5815695 12.0168631 0.163757385 12.0168631"></polygon>
    </defs>
    <g id="web" stroke="none" stroke-width="1" fill="none" fill-rule="evenodd">
        <g id="設計稿--v2" transform="translate(-151.000000, -1892.000000)">
            <g id="Group-70" transform="translate(153.000000, 1893.000000)">
                <g id="ad_img" transform="translate(16.000000, 0.000000)">
                    <ellipse id="Oval" fill="#FFFFFF" cx="44.5" cy="44" rx="44.5" ry="44"></ellipse>
                    <g id="Group-22">
                        <mask id="mask-2" fill="white">
                            <use xlink:href="#path-1"></use>
                        </mask>
                        <use id="Mask" stroke="#9AD2C6" stroke-width="2" fill="#FFFFFF" xlink:href="#path-1"></use>
                        <g mask="url(#mask-2)">
                            <g transform="translate(11.608696, 11.478261)">
                                <g id="Group-3" stroke-width="1" fill="none" transform="translate(40.906832, 2.186335)">
                                    <mask id="mask-4" fill="white">
                                        <use xlink:href="#path-3"></use>
                                    </mask>
                                    <g id="Clip-2"></g>
                                    <path d="M6.77768963,1.86345583 L3.59546067,5.97646807 C2.77530215,7.01300969 -1.08461566,8.80557047 0.572944031,10.3670824 C2.58859374,12.2639158 5.05412016,12.3458565 5.83352329,11.5132219 L11.4086505,5.4245277 C12.2476192,4.42182744 13.4255194,2.51623311 11.676173,0.870031872 C9.65947828,-1.02542722 7.55448023,1.02944696 6.77768963,1.86345583" id="Fill-1" fill="#FFD9BE" mask="url(#mask-4)"></path>
                                </g>
                                <path d="M16.1804059,18.607947 C16.0583252,25.2578132 15.4982112,39.925002 15.4982112,39.925002 C15.4982112,39.925002 15.2531613,42.944585 16.4807208,44.3037348 C17.7084581,45.6639229 19.5490866,46.2612982 19.5490866,46.2612982 L16.4759229,52.4781885 L35.0156619,56.2981366 L44.2236025,43.5115031 L20.2316368,21.6732157 C20.2316368,21.6732157 20.8944621,18.2661694 16.1804059,18.607947" id="Fill-4" fill="#FFD9BE"></path>
                                <path d="M44.3727619,0 L23.0678781,0 C21.6243427,0 20.4534161,1.14112546 20.4534161,2.54959441 L20.4534161,42.2702814 C20.4534161,43.6790953 21.6243427,44.8198758 23.0678781,44.8198758 L44.3727619,44.8198758 C45.8177125,44.8198758 46.9875776,43.6790953 46.9875776,42.2702814 L46.9875776,2.54959441 C46.9875776,1.14112546 45.8177125,0 44.3727619,0" id="Fill-6" fill="#848484"></path>
                                <polygon id="Fill-8" fill="#9CE1FF" points="21.5590062 38.2608696 45.3291925 38.2608696 45.3291925 5.46583851 21.5590062 5.46583851"></polygon>
                                <rect id="Rectangle" fill="#FFFFFF" x="24.3229814" y="9.83850932" width="14.3726708" height="1.0931677" rx="0.546583851"></rect>
                                <rect id="Rectangle-Copy-5" fill="#FFFFFF" x="24.3229814" y="14.2111801" width="14.3726708" height="1.0931677" rx="0.546583851"></rect>
                                <rect id="Rectangle-Copy-8" fill="#FFFFFF" x="24.3229814" y="18.5838509" width="14.3726708" height="1.0931677" rx="0.546583851"></rect>
                                <rect id="Rectangle-Copy-10" fill="#FFFFFF" x="24.3229814" y="22.9565217" width="13.2670807" height="1.0931677" rx="0.546583851"></rect>
                                <rect id="Rectangle-Copy-12" fill="#FFFFFF" x="24.3229814" y="27.3291925" width="15.4782609" height="1.0931677" rx="0.546583851"></rect>
                                <path d="M33.7203968,2.1863354 C33.1103954,2.1863354 32.6149068,2.67625665 32.6149068,3.27900824 C32.6149068,3.88294751 33.1103954,4.37267081 33.7203968,4.37267081 C34.3313992,4.37267081 34.826087,3.88294751 34.826087,3.27900824 C34.826087,2.67625665 34.3313992,2.1863354 33.7203968,2.1863354" id="Fill-10" fill="#FFFFFF"></path>
                                <path d="M35.6377843,40.447205 L32.2584928,40.447205 C31.6663261,40.447205 31.1844285,41.0598372 31.1844285,41.8149002 C31.1844285,42.5692893 31.6663261,43.1801242 32.2584928,43.1801242 L35.6377843,43.1801242 C36.2315415,43.1801242 36.7123788,42.5692893 36.7123788,41.8149002 C36.7123788,41.0598372 36.2315415,40.447205 35.6377843,40.447205" id="Fill-11" fill="#FFFFFF"></path>
                                <path d="M44.7341704,32.378975 L43.6618483,33.6423056 C42.7964204,34.6774371 41.7709526,36.4681992 43.5205502,38.0283602 C45.6466365,39.9230987 47.8666153,37.8706798 48.6877612,37.0392116 L49.6198877,35.9361351 C50.5047924,34.9349761 51.7478114,33.0316586 49.9013815,31.3870812 C47.774744,29.4932006 45.5536627,31.5461342 44.7341704,32.378975" id="Fill-12" fill="#FFD9BE"></path>
                                <path d="M44.7339134,23.6330955 L43.6625295,24.8975213 C42.7961987,25.9318487 41.7711171,27.7223607 43.5203153,29.2829459 C45.6463628,31.1777829 47.8663011,29.1254289 48.6879833,28.2937459 L49.6202766,27.1906121 C50.5051651,26.1890578 51.7474265,24.2858131 49.9015814,22.6413217 C47.7744315,20.748029 45.5546769,22.801241 44.7339134,23.6330955" id="Fill-13" fill="#FFD9BE"></path>
                                <path d="M44.73361,15.981894 L43.66218,17.2446525 C42.7969144,18.2800492 41.7706863,20.0714881 43.5203272,21.6309322 C45.6468337,23.5253273 47.8661325,21.4735807 48.6882175,20.6418657 L49.6209183,19.538861 C50.5051099,18.5370967 51.7474248,16.6339503 49.9015003,14.9893957 C47.7746264,13.0958585 45.5544088,15.1484631 44.73361,15.981894" id="Fill-14" fill="#FFD9BE"></path>
                                <polygon id="Fill-15" fill="#D4D4D4" points="14.9254658 51.7589616 34.9001532 61.7639752 37.5900621 57.0122425 17.6139328 47.0062112"></polygon>
                                <polygon id="Fill-17" fill="#68A6A1" points="14.3733837 49.7391304 0 76.5217391 27.5309254 76.5217391 35.931677 60.8679904"></polygon>
                            </g>
                        </g>
                    </g>
                </g>
                <text id="2" stroke="#86D4C6" stroke-width="3" fill="#FFFFFF" fill-rule="nonzero" font-family="DFYuanStd-W14, DFYuan Std W14" font-size="41" font-weight="normal" letter-spacing="6.90658581">
                    <tspan x="0" y="43">2</tspan>
                </text>
            </g>
        </g>
    </g>
</svg>