<?xml version="1.0" encoding="UTF-8"?>
<svg width="88px" height="93px" viewBox="0 0 88 93" version="1.1" xmlns="http://www.w3.org/2000/svg" xmlns:xlink="http://www.w3.org/1999/xlink">
    <title>giftcard</title>
    <g id="Page-1" stroke="none" stroke-width="1" fill="none" fill-rule="evenodd">
        <g id="設計稿-" transform="translate(-893.000000, -1232.000000)">
            <g id="giftcard" transform="translate(894.000000, 1233.000000)">
                <ellipse id="Oval" stroke="#FFCDCD" stroke-width="2" fill="#FFFAFE" cx="43" cy="45.5" rx="43" ry="45.5"></ellipse>
                <g id="coupun" transform="translate(9.000000, 12.000000)">
                    <path d="M7.00427921,19.7265577 L46.1121511,1.32179388 C47.9298532,0.577280258 49.9868848,1.1529796 51.2358027,2.75574509 L64.7521024,35.6290766 C64.7521024,35.6290766 66.0863866,40.0026278 62.5638762,41.6588415 L20.000208,61.7341584 C20.000208,61.7341584 15.9373124,63.1681096 14.3895426,59.3753087 C12.8417729,55.5825077 1,26.272545 1,26.272545" id="Path" fill="#FFFFFF" transform="translate(33.000000, 31.500000) rotate(1.000000) translate(-33.000000, -31.500000) "></path>
                    <path d="M51.2986586,7.35105859 L60,26.7823052 L29.2619765,40 C30.6647619,38.5004647 30.7930228,36.2378788 29.5683732,34.5950096 C28.3437235,32.9521405 26.1069398,32.3861402 24.2250205,33.2429168 C22.9445027,33.80701 22.0108311,34.9313028 21.7065426,36.2755748 L14,19.0863951 L46.0224473,5.32516892 C48.0498942,4.46510498 50.4050401,5.36940268 51.2986586,7.35105859 Z M17.3118798,42.8784575 C15.984914,43.2983306 14.5582426,42.5954118 14.12532,41.3084444 C13.6923974,40.021477 14.4171626,38.6378094 15.7441284,38.2179363 C16.1645904,38.0376343 16.6264266,37.9673337 17.0836248,38.0140385 C17.8116655,38.0921201 18.4690311,38.4725254 18.885638,39.0568301 L21,42.0279124 L17.3118798,42.8784575 Z M23.8476626,41 L23.052756,37.2450879 C22.7936616,35.9064633 23.5108679,34.5719741 24.7219861,34.1391902 C25.9331043,33.7064063 27.2551042,34.3122006 27.7988161,35.5491192 C28.2698451,36.7225174 27.8912357,38.0887021 26.8987013,38.7971182 L23.8476626,41 Z M5.41551173,22.7820022 L12.0396432,20 L20,37.4269966 C19.3387512,36.910391 18.5361755,36.5877056 17.6885201,36.4976378 C16.9071452,36.4190292 16.1178116,36.5340588 15.3960387,36.831721 C13.1692828,37.7651598 12.1411257,40.2441449 13.0908916,42.3896513 C13.7865534,43.9054552 15.3475766,44.8861879 17.0742364,44.8922385 L12.0649745,47 L3.33834623,27.8904387 C2.44761917,25.9294868 3.37582408,23.6467242 5.41551173,22.7820022 Z M15.9744681,54.5977733 L13,47.8755407 L21.9361702,44 L20.0212766,48.8349579 C19.8450155,49.2759365 20.0636339,49.7747182 20.5095745,49.949018 C20.955515,50.1233179 21.4599091,49.907132 21.6361702,49.4661535 L23.7361702,44.1514869 L28,53.783531 L21.3425532,56.6617827 C19.2802656,57.5525463 16.8780822,56.6232663 15.9744681,54.5851494 L15.9744681,54.5977733 Z M61.5739556,39.5170578 L29.245248,53 L25,43.7694169 L32.2131085,46.4551173 C32.5003243,46.5631701 32.826287,46.517172 33.0682096,46.33445 C33.3101323,46.151728 33.431261,45.860042 33.3859677,45.5692673 C33.3406745,45.2784926 33.1358405,45.0328047 32.8486247,44.924752 L26.1121533,42.4265667 L60.6969433,28 L63.6584487,34.429954 C64.5560906,36.3826456 63.6235643,38.6584307 61.5739556,39.5170578 Z" id="Shape" fill="#1A9943" fill-rule="nonzero"></path>
                    <path d="M29.1113272,18.3541858 L26.3435424,19.7304508 L26,18.8472861 L29.8113758,17 L30.0576892,17.6402944 C29.409496,20.2897884 29.7854481,21.8647654 30.7058824,24.5289788 L29.7595203,25 C28.8974234,22.4682613 28.6705558,20.7166513 29.1113272,18.3541858 Z" id="Path" fill="#FFFFFF"></path>
                    <polygon id="Path" fill="#FFFFFF" points="31.6470588 21.1578947 34.120501 20 34.4705882 20.8502024 31.997146 22"></polygon>
                    <path d="M36.3374394,21.1161473 L37.6661592,20.4589235 L35.8192388,15.6694995 L34.7363322,16.2134089 L34.4705882,15.5335222 C34.9027972,15.2242627 35.2793179,14.8243293 35.5800692,14.3550519 L36.2975779,14 L38.596263,19.9754485 L39.7788235,19.3862134 L40.1176471,20.2700661 L36.676263,22 L36.3374394,21.1161473 Z" id="Path" fill="#FFFFFF"></path>
                    <path d="M41.0322178,19.1144749 L42.3625026,18.4560076 L40.5200582,13.6726585 L39.4358761,14.2100284 L39.1764706,13.5288553 C39.6091843,13.2221317 39.9862442,12.823909 40.2872584,12.3557237 L40.9989607,12 L43.3070048,17.986755 L44.4909582,17.3964049 L44.8235294,18.2592242 L41.3514862,20 L41.0322178,19.1144749 Z" id="Path" fill="#FFFFFF"></path>
                    <path d="M29.7647059,29.173189 L30.8020288,28.6860949 L34.5773196,31.683597 L35.8404543,32.8676103 L35.8898506,32.8676103 C35.5440763,32.1182348 35.1277358,31.3688593 34.8243012,30.6194838 L33.5117702,27.4421316 L34.4714703,27 L37.2941176,33.8043297 L36.2567948,34.2914238 L32.4744473,31.2939217 L31.2183693,30.1773522 L31.1760295,30.1773522 C31.5147472,30.8592839 31.8816914,31.6086595 32.2274657,32.3430475 L33.5470533,35.5578684 L32.5873532,36 L29.7647059,29.173189 Z" id="Path" fill="#FFFFFF"></path>
                    <polygon id="Path" fill="#FFFFFF" points="37.6272568 27.2352941 35.7821782 28.0882353 35.4117647 27.2058824 40.1502621 25 40.5136867 25.875 38.6406523 26.7426471 41.0588235 32.5367647 40.0594059 33"></polygon>
                    <path d="M43.853564,30.1144749 L45.1822837,29.4560076 L43.3420069,24.6726585 L42.2591003,25.2100284 L42,24.5288553 C42.4303589,24.2193891 42.8065577,23.821608 43.109481,23.3557237 L43.820346,23 L46.1256747,28.986755 L47.3082353,28.3964049 L47.6470588,29.28193 L44.2056747,31 L43.853564,30.1144749 Z" id="Path" fill="#FFFFFF"></path>
                    <path d="M47.2099111,25.4322829 C46.3426575,23.2037664 46.6380265,21.7676113 47.7629424,21.1874895 C48.8878584,20.6073678 50.0379121,21.3643559 50.9051657,23.5857978 C51.7724193,25.8072397 51.4833348,27.299992 50.3647033,27.8305912 C49.2460718,28.3611904 48.0771648,27.6678741 47.2099111,25.4322829 Z M50.0441965,24.0173518 C49.3277696,22.1779413 48.6553338,21.711014 48.0771648,21.9940003 C47.4989957,22.2769865 47.3418845,23.1542438 48.0771648,25.0007289 C48.812445,26.847214 49.4848808,27.3565893 50.0693343,27.0665284 C50.6537878,26.7764675 50.7731923,25.8921355 50.0441965,24.0315011 L50.0441965,24.0173518 Z" id="Shape" fill="#FFFFFF" fill-rule="nonzero"></path>
                    <path d="M51.9130914,23.4320018 C51.0467681,21.2032414 51.348098,19.766929 52.4718072,19.1867438 C53.5955164,18.6065585 54.7380587,19.370705 55.6106598,21.5853146 C56.4832608,23.7999242 56.1819309,25.2999154 55.0707771,25.8305726 C53.9596233,26.3612299 52.7856925,25.6678377 51.9130914,23.4320018 Z M54.7506142,22.0169158 C54.0349558,20.177304 53.3632413,19.7032502 52.7794147,19.9933428 C52.1955882,20.2834354 52.051201,21.1537133 52.7794147,22.9933252 C53.5076285,24.832937 54.1856207,25.3494434 54.7631696,25.0664262 C55.3407184,24.783409 55.4725502,23.8919048 54.7506142,22.0310667 L54.7506142,22.0169158 Z" id="Shape" fill="#FFFFFF" fill-rule="nonzero"></path>
                </g>
            </g>
        </g>
    </g>
</svg>