<?xml version="1.0" encoding="UTF-8"?>
<svg width="179px" height="234px" viewBox="0 0 179 234" version="1.1" xmlns="http://www.w3.org/2000/svg" xmlns:xlink="http://www.w3.org/1999/xlink">
    <title>Group 50</title>
    <defs>
        <path d="M5.82655616,42.8907066 C-4.78145826,94.2226549 -1.80996877,130.298055 34.8557748,143.497738 L34.8557748,143.497738 C109.315616,168.337931 144.716953,96.2761486 145.894042,93.8126305 L145.894042,93.8126305 C156.301701,71.9936695 142.77567,50.0398321 135.309041,38.0958493 L135.309041,38.0958493 C129.97119,29.5743561 111.882333,15.8203315 92.1256505,5.20960233 L92.1256505,5.20960233 C85.9403495,1.88422381 79.3787051,0.470718761 72.7419273,0.470718761 L72.7419273,0.470718761 C41.1981111,0.470718761 7.99120841,32.416877 5.82655616,42.8907066" id="path-1"></path>
        <path d="M5.82655616,42.8907066 C-4.78145826,94.2226549 -1.80996877,130.298055 34.8557748,143.497738 L34.8557748,143.497738 C109.315616,168.337931 144.716953,96.2761486 145.894042,93.8126305 L145.894042,93.8126305 C156.301701,71.9936695 142.77567,50.0398321 135.309041,38.0958493 L135.309041,38.0958493 C129.97119,29.5743561 111.882333,15.8203315 92.1256505,5.20960233 L92.1256505,5.20960233 C85.9403495,1.88422381 79.3787051,0.470718761 72.7419273,0.470718761 L72.7419273,0.470718761 C41.1981111,0.470718761 7.99120841,32.416877 5.82655616,42.8907066 L5.82655616,42.8907066 Z" id="path-3"></path>
        <polygon id="path-5" points="0.121038963 0.390949125 28.3381048 0.390949125 28.3381048 31.2693694 0.121038963 31.2693694"></polygon>
    </defs>
    <g id="切圖" stroke="none" stroke-width="1" fill="none" fill-rule="evenodd">
        <g id="設計稿--v1-1" transform="translate(-148.000000, -183.000000)">
            <g id="Group-50" transform="translate(148.000000, 183.000000)">
                <g id="Group-17" transform="translate(98.500000, 125.500000) scale(-1, 1) translate(-98.500000, -125.500000) translate(18.000000, 17.000000)">
                    <path d="M92.1430541,168.419147 C92.1430541,168.419147 83.133186,174.287199 77.258836,172.707988 C72.1270017,171.327146 71.7472677,171.567721 70.6643476,171.967272 C70.6643476,171.967272 69.7916374,172.250052 69.9333595,173.04634 C70.0737255,173.841925 70.1767962,173.57884 70.1767962,173.57884 C70.1767962,173.57884 69.1325276,174.007232 69.2884898,174.701522 C69.4430958,175.395109 69.6241475,175.689144 69.6241475,175.689144 C69.6241475,175.689144 68.8287403,176.543114 69.3440937,177.010195 C70.007272,177.610225 69.676361,178.266529 71.377027,178.649901 C72.7277952,178.955192 75.0970644,178.851083 77.2907065,178.694921 C77.2907065,178.694921 103.968379,177.050291 96.4604945,170.751737 C96.4604945,170.751737 95.1673645,167.050263 92.1430541,168.419147" id="Fill-66" fill="#150301"></path>
                    <path d="M73.3046901,176.29756 C72.6604802,175.955263 72.6173274,175.292225 72.9617793,174.849982 C73.1251435,174.464571 73.4480191,174.148403 73.9627705,174.084386 C74.5060336,174.017755 74.944497,174.408392 75.0762672,174.814054 C75.3791075,175.72075 74.4312868,176.89854 73.3046901,176.29756" id="Fill-68" fill="#FFFFFF"></path>
                    <path d="M70.6341651,176.423667 C70.3834191,176.314682 70.2770937,175.937071 70.442552,175.656166 C70.5983443,175.399053 70.8741081,175.26474 71.1157567,175.269345 C71.1504404,175.271648 71.1839869,175.275485 71.2169649,175.293138 C71.2857637,175.29851 71.3602483,175.323838 71.4148325,175.381401 C71.6382864,175.613186 71.5757421,176.023799 71.3665028,176.22949 C71.1754582,176.427505 70.8678536,176.518838 70.6341651,176.423667" id="Fill-70" fill="#FFFFFF"></path>
                    <path d="M70.418633,174.828029 L70.4128997,174.822518 C70.4028664,174.802046 70.3971331,174.783936 70.3956998,174.75559 C70.3519835,174.675277 70.3491169,174.557957 70.4050164,174.476857 C70.4401328,174.135133 70.9468117,173.963484 71.2026594,174.159542 C71.2549756,174.199698 71.2943919,174.254028 71.3244917,174.312294 C71.3474248,174.321743 71.3667746,174.324892 71.3918577,174.328829 C71.4785737,174.367411 71.5129733,174.437488 71.5215733,174.503628 C71.5617063,174.574492 71.5695895,174.65953 71.5273066,174.738268 C71.587506,174.942987 71.5022234,175.165816 71.2721755,175.240618 C70.9869446,175.329592 70.4415661,175.216209 70.418633,174.828029" id="Fill-72" fill="#FFFFFF"></path>
                    <path d="M70.4102439,173.814691 C70.3116984,173.624991 70.3793277,173.367541 70.5017045,173.191391 C70.5165185,173.143567 70.5577401,173.102917 70.6047586,173.057485 C70.6266576,173.047123 70.6459802,173.031182 70.6743201,173.016037 C70.6743201,173.016037 70.6762524,173.014443 70.6833373,173.012849 L70.6923546,173.011255 C70.7058804,173.002487 70.717474,172.992923 70.7342203,172.995314 C70.7567634,172.982561 70.7805947,172.970605 70.8031378,172.957055 C70.8508003,172.931549 70.9029714,172.910826 70.9532103,172.89329 C71.0665699,172.866987 71.1779971,172.901261 71.2758985,172.985749 C71.3911903,173.03437 71.4878036,173.130814 71.5296693,173.274285 C71.5876372,173.475144 71.5431952,173.632165 71.4465819,173.747738 C71.2449823,174.128733 70.6092672,174.214815 70.4102439,173.814691" id="Fill-74" fill="#FFFFFF"></path>
                    <path d="M35.7777778,57.3774203 C35.7777778,57.3774203 30.5483365,26.5812946 5.95918198,40.6357541 C5.95918198,40.6357541 -1.98227351,45.0243007 0.470065298,53.8636381 C0.470065298,53.8636381 0.70194251,75.2227488 31.0032768,69.3122325 L35.7777778,57.3774203 Z" id="Fill-76" fill="#150301"></path>
                    <path d="M14.935058,45.3076923 C14.935058,45.3076923 20.2482545,46.7277109 26.237037,52.5346834 L19.0866972,65.5769231 C19.0866972,65.5769231 10.6627548,63.4934475 9.37788146,59.163046 C8.09897505,54.8257479 6.49586686,46.7111589 14.935058,45.3076923" id="Fill-78" fill="#403A39"></path>
                    <path d="M85.0209717,26.6326776 C85.0209717,26.6326776 78.7690465,6.54228027 91.4629707,1.47673811 C91.4629707,1.47673811 106.594353,-3.87554576 111.278511,5.7990786 C111.278511,5.7990786 123.977221,19.3751696 111.114418,29.4166043 L100.828552,36.9615385 L85.0209717,26.6326776 Z" id="Fill-80" fill="#150301"></path>
                    <path d="M89.4444444,21.2027945 C89.4444444,21.2027945 90.1995288,9.95992653 97.6606855,9.54643062 C105.12448,9.14018903 110.174643,24.3821626 95.7053797,28.6153846 L89.4444444,21.2027945 Z" id="Fill-82" fill="#403A39"></path>
                    <path d="M46.2774306,160.500768 C9.64575094,147.228964 6.67634583,110.957128 17.274505,59.3433484 C19.8922611,46.5970456 67.9437413,2.22230932 103.493424,21.4570349 C123.231752,32.1257405 141.30448,45.9542382 146.636696,54.5229704 C154.096388,66.5322144 167.609852,88.6060063 157.212539,110.544185 C156.035867,113.021163 120.667419,185.476687 46.2774306,160.500768" id="Fill-84" fill="#150301"></path>
                    <g id="Group-89" transform="translate(10.733333, 16.692308)">
                        <mask id="mask-2" fill="white">
                            <use xlink:href="#path-1"></use>
                        </mask>
                        <g id="Clip-88"></g>
                        <path d="M110.908307,135.531193 C110.908307,135.531193 118.66667,128.305863 118.694422,122.270817 C118.719466,116.999171 119.040983,116.692327 119.688077,115.748867 C119.688077,115.748867 120.174074,114.978048 120.878703,115.310518 C121.583332,115.640965 121.311905,115.676033 121.311905,115.676033 C121.311905,115.676033 121.977274,114.775733 122.582402,115.09539 C123.188884,115.415047 123.416315,115.660523 123.416315,115.660523 C123.416315,115.660523 124.414031,115.104832 124.716595,115.715147 C125.106476,116.49878 125.800275,116.342323 125.723788,118.070764 C125.663546,119.444481 124.961625,121.696917 124.256996,123.768619 C124.256996,123.768619 115.92058,149.016139 111.977772,140.253892 C111.977772,140.253892 108.863462,138.103287 110.908307,135.531193" id="Fill-87" fill="#150301" mask="url(#mask-2)"></path>
                    </g>
                    <g id="Group-92" transform="translate(10.733333, 16.692308)">
                        <mask id="mask-4" fill="white">
                            <use xlink:href="#path-3"></use>
                        </mask>
                        <g id="Clip-91"></g>
                        <path d="M110.908307,135.531193 C110.908307,135.531193 118.66667,128.305863 118.694422,122.270817 C118.719466,116.999171 119.040983,116.692327 119.688077,115.748867 C119.688077,115.748867 120.174074,114.978048 120.878703,115.310518 C121.583332,115.640965 121.311905,115.676033 121.311905,115.676033 C121.311905,115.676033 121.977274,114.775733 122.582402,115.09539 C123.188884,115.415047 123.416315,115.660523 123.416315,115.660523 C123.416315,115.660523 124.414031,115.104832 124.716595,115.715147 C125.106476,116.49878 125.800275,116.342323 125.723788,118.070764 C125.663546,119.444481 124.961625,121.696917 124.256996,123.768619 C124.256996,123.768619 115.92058,149.016139 111.977772,140.253892 C111.977772,140.253892 108.863462,138.103287 110.908307,135.531193 Z" id="Stroke-90" stroke="#FFFFFF" stroke-width="1.86" stroke-linecap="round" stroke-linejoin="round" mask="url(#mask-4)"></path>
                    </g>
                    <path d="M101.572775,62.5402482 C104.416801,66.3272977 104.490032,71.0212441 101.743204,73.0194361 C98.9963751,75.0228778 94.4573839,73.5831296 91.625341,69.8065797 C88.7806491,66.0260924 88.7134097,61.3347708 91.4555782,59.3273917 C94.2090642,57.3232938 98.7407323,58.7617295 101.572775,62.5402482" id="Fill-94" fill="#FFFFFF"></path>
                    <path d="M39.6262975,101.324737 C36.0299466,101.663673 32.736099,97.9395101 32.2567259,93.0107751 C31.7850734,88.0861818 34.3061687,83.8187532 37.8997121,83.4832679 C41.4939574,83.1415698 44.7786807,86.8705652 45.2594576,91.7937779 C45.7416381,96.7211324 43.2184372,100.98718 39.6262975,101.324737 Z" id="Fill-96" fill="#FFFFFF"></path>
                    <path d="M65.4462914,83.4072483 C65.4462914,83.4072483 90.5541185,71.7102194 98.8369598,90.9456034 C98.8369598,90.9456034 101.895925,109.182123 80.2211625,116.830414 C80.2211625,116.830414 53.5629193,123.433978 50.0913648,105.762649 C50.0913648,105.762649 49.5268405,90.4741611 65.4462914,83.4072483" id="Fill-98" fill="#FFFFFF"></path>
                    <path d="M61.7717636,92.4024597 C60.8888777,93.5274344 60.4372827,95.6269433 61.2396516,96.5089501 C62.0553233,97.3989448 67.9897725,99.6642044 70.3205631,98.7469174 C72.7556757,97.7890248 77.9857766,91.9231806 78.6040068,90.6777205 C79.2159356,89.434923 77.0580813,85.6832324 75.8713315,85.8516458 C74.6803808,86.0207248 70.8288701,89.5520802 67.0963844,90.6084913 C64.381913,91.3753379 62.1071342,91.9717742 61.7717636,92.4024597" id="Fill-100" fill="#150301"></path>
                    <path d="M61.7175381,93.4825765 C60.929329,94.4290834 60.4802089,96.1602034 61.1431627,96.8601752 C61.8137287,97.568208 67.1955573,99.5861687 69.2245558,98.7706546 C71.3393647,97.9208809 75.6589447,93.1890183 76.2229399,92.1531677 C76.785551,91.117317 74.9004923,87.837795 74.0154006,88.2697353 C72.7386262,88.8931267 69.6944365,90.9540798 66.4606336,91.9214112 C64.1063863,92.6247417 62.0199503,93.1211708 61.7175381,93.4825765" id="Fill-102" fill="#2B1E1D"></path>
                    <path d="M62.8583938,93.3743254 C62.1652203,94.1417526 61.7199005,95.5031197 62.2448876,96.0201806 C62.7705555,96.5433646 67.5900865,98.3163394 69.3155303,97.6019789 C71.1104277,96.8597243 74.5204603,93.2675115 75.0331909,92.444296 C75.5418359,91.6142771 73.9791312,88.9044696 73.3465593,89.5106555 C72.0643925,90.7366342 69.7479126,91.1666112 67.0140307,92.0456148 C65.0209864,92.6858179 63.128037,93.0831384 62.8583938,93.3743254" id="Fill-104" fill="#403A39"></path>
                    <path d="M65.7681476,105.592066 C72.3847958,115.437838 85.6875045,105.568333 83.1681673,96.7790145 C82.938776,95.9754856 80.3539929,97.7913932 79.7339094,98.3297915 C76.0861259,101.531024 70.9727506,103.986364 66.3617884,104.579009 C65.6709704,104.669872 65.3754722,105.008236 65.7681476,105.592066" id="Fill-106" fill="#150301"></path>
                    <path d="M94.2284871,63.5462222 C93.9489101,63.9225722 93.7596882,64.3560054 93.6051679,64.7987311 C93.3255909,65.6051955 93.2483307,66.4806905 93.0597636,67.3117139 C92.8240546,68.3558032 93.7328436,69.4217964 94.8177595,69.0932369 C95.7337507,68.8164503 96.6654559,68.637236 97.6030537,68.4527117 C98.5367231,68.2701786 99.4402741,68.0119772 100.320254,67.6462473 C100.679056,67.496902 100.970418,67.3336179 101.174044,66.9804993 C101.353445,66.6698612 101.429396,66.2118691 101.318744,65.8640606 C101.103332,65.1903475 100.301267,64.545176 99.5607476,64.8524954 C98.679458,65.2182253 97.7772165,65.4764267 96.8435471,65.6589598 C95.9059492,65.8434841 96.0761835,66.5025945 96.305345,65.7412656 C96.3289159,65.6642698 96.354451,65.5879378 96.3812956,65.5129333 C96.3898073,65.4883743 96.4277827,65.4266449 96.4238542,65.4014222 C96.4258184,65.4133698 96.2654054,65.7498944 96.3505225,65.5832915 C96.4238542,65.4392563 96.4958764,65.2972124 96.5862315,65.161806 C96.5940884,65.1505221 96.6464682,65.0582599 96.6582536,65.0589237 C96.6621821,65.0595875 96.4179615,65.3509766 96.5528394,65.1996401 C96.6209331,65.1233081 96.6864078,65.0449848 96.75843,64.9713078 C96.8265237,64.9022771 96.8972363,64.8345739 96.9699133,64.7701895 C97.0517567,64.6971763 97.3699638,64.4529138 97.0236025,64.717089 C97.3332979,64.4814554 97.5735901,64.2444942 97.6803139,63.8515503 C97.7752522,63.5044055 97.7320389,63.0424309 97.5362695,62.7351115 C97.1565162,62.1377305 96.2208826,61.7288564 95.5811947,62.21539 C95.0541232,62.6162991 94.6239544,63.0118981 94.2284871,63.5462222 Z" id="Fill-108" fill="#150301"></path>
                    <path d="M38.0737929,91.5826244 C37.6919648,91.7587863 37.3059938,91.9271477 36.918642,92.0896586 C36.6949307,92.183915 36.4698386,92.2762213 36.2433654,92.3672274 C36.1763902,92.3945293 36.1087244,92.4218311 36.0403682,92.4491329 C35.8560136,92.5225879 36.0880104,92.4296316 36.1467001,92.4075301 C35.9941069,92.464734 35.8435852,92.5258381 35.6930634,92.5849921 C35.3133067,92.7332022 35.0074299,92.8898627 34.7920042,93.2369862 C34.6028163,93.5412068 34.5227222,93.9890871 34.6401015,94.3303601 C34.7581714,94.6735834 34.983954,95.0051058 35.3326397,95.1780175 C35.6654447,95.3437787 36.1280575,95.4640368 36.4940049,95.3210271 C37.5152053,94.9225502 38.5357152,94.5175728 39.5306779,94.061892 C40.433118,93.6491141 41.316225,93.1992837 42.199332,92.7540036 C43.2267466,92.2352685 43.1280099,90.8441744 42.199332,90.3033379 C40.5000932,89.314621 38.6144284,88.7932858 36.7115019,88.279751 C35.9533694,88.0756372 35.03712,88.5293679 34.8575986,89.270418 C34.6746249,90.0270692 35.0985715,90.7967212 35.90987,91.015786 C36.7294541,91.237451 38.1722834,91.5372811 38.0737929,91.5826244 Z" id="Fill-110" fill="#150301"></path>
                    <path d="M121.146898,153.114336 C121.146898,153.114336 128.898635,145.796075 128.926363,139.683408 C128.951386,134.34396 129.272628,134.033169 129.919169,133.077574 C129.919169,133.077574 130.404752,132.296841 131.108779,132.633588 C131.812806,132.968285 131.54161,133.003804 131.54161,133.003804 C131.54161,133.003804 132.206412,132.091924 132.811023,132.415693 C133.416987,132.739461 133.644223,132.988094 133.644223,132.988094 C133.644223,132.988094 134.641087,132.425256 134.943393,133.043421 C135.332941,133.837132 136.026147,133.678663 135.949726,135.429336 C135.889535,136.820721 135.188213,139.102127 134.484186,141.200475 C134.484186,141.200475 126.15489,166.772723 122.21545,157.897777 C122.21545,157.897777 119.103799,155.719512 121.146898,153.114336" id="Fill-112" fill="#150301"></path>
                    <path d="M133.517135,135.58876 C133.326236,134.843996 132.696857,134.594687 132.19648,134.799675 C131.788622,134.842414 131.413991,135.065605 131.241986,135.557893 C131.060209,136.075508 131.341671,136.631905 131.704574,136.889129 C132.513776,137.470852 133.853977,136.893087 133.517135,135.58876" id="Fill-114" fill="#FFFFFF"></path>
                    <path d="M134.762398,133.917127 C134.746986,133.642335 134.445736,133.459735 134.146588,133.57215 C133.870559,133.678617 133.665289,133.930213 133.592429,134.176455 C133.584022,134.211548 133.577716,134.24664 133.581219,134.282922 C133.565106,134.353702 133.564405,134.434593 133.596632,134.500615 C133.731844,134.772433 134.11296,134.791466 134.361666,134.620762 C134.596361,134.466117 134.774308,134.173481 134.762398,133.917127" id="Fill-116" fill="#FFFFFF"></path>
                    <path d="M133.283916,133.646746 L133.280716,133.639745 C133.263117,133.625742 133.246318,133.61594 133.219919,133.607539 C133.152723,133.548727 133.038329,133.518621 132.941534,133.552928 C132.595952,133.50952 132.283968,133.949205 132.403962,134.23486 C132.427961,134.293672 132.470358,134.341981 132.518356,134.384689 C132.521556,134.407794 132.519156,134.428098 132.515956,134.451202 C132.527955,134.54222 132.587952,134.59123 132.650349,134.614334 C132.707146,134.668244 132.790342,134.69485 132.878337,134.672445 C133.063127,134.776065 133.306315,134.74596 133.444708,134.547121 C133.613499,134.297873 133.658296,133.756667 133.283916,133.646746" id="Fill-118" fill="#FFFFFF"></path>
                    <path d="M132.244065,133.644146 C132.09966,133.504396 131.842772,133.517162 131.642125,133.601818 C131.594244,133.607193 131.544082,133.639443 131.48708,133.677068 C131.47112,133.696552 131.451359,133.713349 131.429318,133.73888 C131.429318,133.73888 131.427038,133.740224 131.423998,133.745599 L131.418678,133.755005 C131.406517,133.767099 131.395117,133.776505 131.390557,133.793974 C131.373076,133.81413 131.355596,133.83563 131.336595,133.855114 C131.297834,133.898114 131.262873,133.945145 131.230952,133.992848 C131.17319,134.102364 131.17091,134.220614 131.219551,134.338192 C131.230192,134.465176 131.288714,134.583426 131.408798,134.65666 C131.576003,134.757441 131.734848,134.747363 131.870893,134.6748 C132.281306,134.553863 132.554155,133.931036 132.244065,133.644146" id="Fill-120" fill="#FFFFFF"></path>
                    <path d="M93.3128563,157.873438 C93.3985629,159.369997 90.9967215,177.986111 98.6691752,188.253925 C100.368908,190.52883 107.36188,197.568401 120.105421,192.621986 C123.686585,191.236909 126.82756,187.557333 129.209518,184.747315 C134.542524,178.45501 138.380808,174.924752 134.146903,166.634558 C131.303501,161.047629 126.814533,156.346474 122.795237,151.685858 C122.134953,150.918323 120.372826,148.889354 118.671721,147.846154 C106.336144,162.89012 93.3128563,157.873438 93.3128563,157.873438" id="Fill-122" fill="#150301"></path>
                    <path d="M120.451852,158.576923 C119.05999,161.682814 111.913166,171.557572 106.266438,170.796311 C105.519148,170.695575 101.667571,169.963386 98.9851852,168.749154 C100.756897,170.935582 103.002214,174.513373 109.501708,175.244211 C111.459553,175.464612 113.491851,174.350439 118.574665,166.985949 C119.876218,164.846171 120.451852,158.576923 120.451852,158.576923" id="Fill-124" fill="#FFFFFF"></path>
                    <path d="M134.383184,175.269231 C134.383184,175.269231 139.796245,181.09218 137.100211,186.647485 C137.100211,186.647485 138.367977,187.521701 140.644131,184.661671 C143.024577,181.671853 143.569743,184.402768 144.106783,185.038928 C145.369808,186.53182 147.581626,187.525736 146.305056,188.264785 C144.414921,189.359572 143.243998,186.293764 141.887516,187.644764 C140.531711,188.996436 138.625999,190.309104 134.773265,194.115978 C130.922563,197.923524 127.195115,199.047227 124.118481,196.700967 C120.599619,194.017797 115.724275,190.379714 119.340657,185.239998 C122.95704,180.100282 134.383184,175.269231 134.383184,175.269231" id="Fill-126" fill="#150301"></path>
                    <g id="Group-130" transform="translate(96.600000, 184.807692)">
                        <mask id="mask-6" fill="white">
                            <use xlink:href="#path-5"></use>
                        </mask>
                        <g id="Clip-129"></g>
                        <path d="M0.121408107,0.516556388 C0.0789289726,1.13718539 3.7040435,15.6556896 10.277347,20.6805413 L17.5638889,26.2512474 C17.5638889,26.2512474 18.6114791,26.6808614 17.1315609,28.8003808 C15.946256,30.4991233 16.7012884,32.1591189 18.1544859,30.723447 C19.5679448,29.3278815 19.5974061,29.0559739 21.2109281,27.7508176 C22.8244501,26.4470209 21.0636214,24.814216 20.2380189,23.8693372 C19.4124164,22.9237787 17.2267964,19.754696 21.8131726,13.1609377 C26.3995489,6.5664996 30.6364999,4.82697099 26.9134094,3.14454296 C23.1903188,1.4627947 5.70398856,-0.0639662535 0.121408107,0.516556388" id="Fill-128" fill="#150301" mask="url(#mask-6)"></path>
                    </g>
                </g>
                <g id="Group-51" transform="translate(22.000000, 112.000000) scale(-1, 1) translate(-22.000000, -112.000000) translate(0.000000, 76.000000)">
                    <path d="M0,23.8277904 C0,23.8277904 24.3840309,70.5374131 25.9550006,71.6213153 C27.5312011,72.7138472 26.8564339,71.0948978 26.8564339,71.0948978 L0.939792109,22 L0,23.8277904 Z" id="Fill-97" fill="#1EAAE0" transform="translate(13.500000, 47.000000) scale(-1, 1) translate(-13.500000, -47.000000) "></path>
                    <path d="M25.8612855,25 C25.8612855,25 15.4081725,5.67276572 25.1584697,0.604577671 C31.5567969,-2.720854 32.337166,8.73102003 32.719199,9.27881248 C33.1014012,9.81858587 37.0656636,2.07989882 41.8246552,4.62677994 C45.3559432,6.52506118 47.2115095,17.0725782 25.8612855,25" id="Fill-29" fill="#26D6B6"></path>
                </g>
                <g id="Group-46" transform="translate(26.000000, 44.000000)">
                    <g id="Group-45" transform="translate(16.000000, 34.000000)" fill="#1EAAE0">
                        <path d="M1.03162442,1.47230003 C1.03162442,1.47230003 -0.671807487,68.8537037 0.299133117,71.0354629 C1.27163221,73.2275541 1.50228905,70.9975792 1.50228905,70.9975792 L3,0 L1.03162442,1.47230003 Z" id="Fill-101" transform="translate(1.500000, 36.000000) scale(-1, 1) translate(-1.500000, -36.000000) "></path>
                    </g>
                    <path d="M16.55353,37 C16.55353,37 -8.06880058,14.6759411 2.74558328,2.6302289 C9.86311954,-5.28218543 16.954881,10.6382722 17.7759935,11.2262135 C18.593424,11.8070711 20.0110398,-1.18076385 27.9275959,0.0872058547 C33.8153044,1.0293286 41.9380592,15.1292934 16.55353,37" id="Fill-1" fill="#FB7681"></path>
                </g>
                <g id="Group-63" transform="translate(131.500000, 29.000000) rotate(18.000000) translate(-131.500000, -29.000000) translate(118.000000, 3.000000)">
                    <path d="M15.4295095,13 C15.4295095,13 13.6321245,6.31680878 17.3910439,2.36260545 C21.1520281,-1.58833355 23,0.609655097 23,0.609655097 C23,0.609655097 20.606928,2.06010998 19.6519704,4.19063561 C18.691851,6.31898501 15.4295095,13 15.4295095,13" id="Fill-202" fill="#26DEBC"></path>
                    <path d="M16,13 C16,13 14.1855217,8.90265455 10.9662506,8.10520796 C7.74807788,7.3066023 5.13729406,11.3065851 5,11.6172184 C5,11.6172184 9.43844234,11.6519907 10.2720919,11.7899212 C11.1035447,11.9243744 15.9967049,12.3045524 16,13" id="Fill-204" fill="#26DEBC"></path>
                    <path d="M16.1592739,13 C16.1592739,13 15.5216507,10.5603147 16.7979528,9.03267052 C18.0731993,7.50305009 22.285313,7.77083248 23,9.19175895 C23,9.19175895 18.8607273,10.0079518 18.5070787,10.3735587 C18.1492074,10.734225 15.9027467,12.696645 16.1592739,13" id="Fill-206" fill="#26DEBC"></path>
                    <path d="M15.9758794,10.2937055 C15.9758794,10.2937055 16.5928104,2.95774835 11.586584,3.00018339 C6.58035761,3.04155755 5,7.05591211 5,7.05591211 C5,7.05591211 8.33396298,6.78644962 9.97242197,6.9593724 C12.1454137,7.19170423 16.2019466,10.0295474 15.6082561,13 L15.9758794,10.2937055 Z" id="Fill-208" fill="#26DEBC"></path>
                    <path d="M15,12.9218179 C15,12.9218179 16.8061604,8.73074005 19.3688486,9.01371022 C21.9305465,9.29779444 24.0723913,11.9102553 23.9981248,12.8404919 C23.9218779,13.7673863 19.1440687,10.2347154 15,12.9218179" id="Fill-210" fill="#26DEBC"></path>
                    <path d="M15,12.428046 C15,12.428046 10.2446241,11.0138566 8.02156943,13.3264606 C5.79635956,15.6390646 7.8998025,17 7.8998025,17 C7.8998025,17 12.8319021,12.3501374 14.8642245,12.8659122 L15,12.428046 Z" id="Fill-212" fill="#26DEBC"></path>
                    <path d="M0.187896288,51.0858049 C-1.59833943,50.7159968 9.81924509,16.8753708 14.5996437,12.3728513 C19.3768355,7.87033184 28.3016003,45.5386839 26.8403291,50.3993221 C26.1476416,52.7233745 5.15429435,52.1144664 0.187896288,51.0858049" id="Fill-214" fill="#15679C"></path>
                    <path d="M10.8323115,18.5631893 C10.8323115,18.5631893 17.0818027,19.0851194 19.8598234,18 C19.8598234,18 20.7221497,20.2011832 20.9944633,20.9851097 C21.2699433,21.7690362 11.183786,23.8423156 9,22.626198 L10.8323115,18.5631893 Z" id="Fill-216" fill="#FFB5CE"></path>
                    <path d="M7.09172219,26.9589136 C7.09172219,26.9589136 16.983287,28.1727805 22.739827,26 C22.739827,26 23.2347819,27.4440475 23.9772141,30.3682695 C24.7207224,33.2862982 7.03577077,33.4855128 5,32.3769302 L7.09172219,26.9589136 Z" id="Fill-218" fill="#FFB5CE"></path>
                    <path d="M2.84159593,39.0916569 C2.84159593,39.0916569 19.3247705,41.5895847 25.145136,39 C25.145136,39 26.0559766,43.5121719 25.9972803,44.2542619 C25.7708803,47.2910883 4.09098828,47.9337912 1,45.5529193 L2.84159593,39.0916569 Z" id="Fill-220" fill="#FFB5CE"></path>
                </g>
            </g>
        </g>
    </g>
</svg>