<?xml version="1.0" encoding="UTF-8"?>
<svg width="507px" height="80px" viewBox="0 0 507 80" version="1.1" xmlns="http://www.w3.org/2000/svg" xmlns:xlink="http://www.w3.org/1999/xlink">
    <title>Group 42</title>
    <defs>
        <polygon id="path-1" points="0 0.128779331 14.2037192 0.128779331 14.2037192 13.8352941 0 13.8352941"></polygon>
    </defs>
    <g id="切圖" stroke="none" stroke-width="1" fill="none" fill-rule="evenodd">
        <g id="設計稿--v1-1" transform="translate(0.000000, -62.000000)">
            <g id="Group-42" transform="translate(0.000000, 62.000000)">
                <path d="M76.9404979,59 C31.8451269,59 3.45002463,57.4339127 3,57.4090774 L3.12339385,55.2206458 C5.99774469,55.3842668 293.081519,70.7237409 506.317705,0 L507,2.08178577 C395.351793,39.1112762 264.25962,52.181969 173.948387,56.6260338 C137.211861,58.4331699 104.055208,59 76.9404979,59" id="Fill-1" fill="#DBDBDB"></path>
                <g id="Group-5" transform="translate(0.000000, 66.000000)">
                    <mask id="mask-2" fill="white">
                        <use xlink:href="#path-1"></use>
                    </mask>
                    <g id="Clip-4"></g>
                    <path d="M13.6475455,4.80601283 C13.5916364,4.62813048 13.533,4.44890053 13.4552727,4.26832299 C13.0161818,3.22798075 12.2634545,2.26445134 11.3757273,1.55965989 C10.6420909,0.978847059 9.86890909,0.66351016 8.99072727,0.420943316 C8.96209091,0.41151016 8.93209091,0.403424599 8.90345455,0.395339037 C8.65527273,0.326611765 8.40572727,0.259232086 8.15754545,0.190504813 C8.06481818,0.190504813 7.97209091,0.190504813 7.87936364,0.190504813 C6.123,-0.042628877 4.26981818,0.383210695 2.78754545,1.49228021 C1.83845455,2.20246203 1.04618182,3.23606631 0.568909091,4.31144599 C0.342545455,4.81948877 0.147545455,5.52158503 0.063,6.06331765 C0.0548181818,6.11722139 0.0507272727,6.16977754 0.0439090909,6.22368128 C-0.012,6.6818631 -0.0188181818,7.53084706 0.0466363636,7.98768128 C0.477545455,10.9645155 2.94436364,13.4602588 5.99890909,13.794462 C6.86481818,13.8901412 7.71845455,13.8133283 8.53254545,13.6138845 C8.54618182,13.6111893 8.55709091,13.6125369 8.57072727,13.6098417 C10.7320909,13.2567722 12.8007273,11.9549968 13.6543636,9.88509305 C13.8684545,9.36492193 14.073,8.75041925 14.1507273,8.1938631 C14.2789091,7.26267594 14.163,6.51071872 13.9270909,5.64152086 C13.8466364,5.34639786 13.7525455,5.07283636 13.6475455,4.80601283" id="Fill-3" fill="#FFF2A8" mask="url(#mask-2)"></path>
                </g>
                <path d="M37.9794359,67.3930888 C37.1571069,67.0448783 36.3033313,66.9288082 35.418109,67.0416983 C34.5328868,67.1609485 33.7372874,67.4948489 33.0313109,68.0433997 L32.932254,68.1387998 C32.2640134,68.7843407 31.7482889,69.2184113 31.4149548,70.1247126 C31.3033193,70.5301632 31.1916838,70.9372037 31.0800483,71.3442443 C30.9762745,71.7671849 30.9731298,72.2044355 31.0721867,72.6544061 C31.1838222,73.5145973 31.5171563,74.3270884 32.0423148,75.0123794 C32.6822534,75.8487205 33.1036381,76.0331608 34.001439,76.5340115 L34.1303701,76.6055616 C34.9526991,76.9537721 35.8064747,77.0714322 36.6932693,76.9585421 C37.5769192,76.8377019 38.3725186,76.5038014 39.0800675,75.9552507 C39.7593144,75.4178299 40.2703219,74.748439 40.6099454,73.9454879 C40.9542858,73.1139167 41.0706383,72.2505455 40.9590028,71.3553743 C40.8395057,70.4602031 40.5093162,69.6556619 39.9668621,68.9401609 C39.4354143,68.25328 38.773463,67.7365293 37.9794359,67.3930888" id="Fill-6" fill="#FFD75E"></path>
                <path d="M69.686812,70.9825646 C69.6219656,71.2174408 69.5571191,71.452317 69.4922726,71.6871932 L69.4545712,71.703755 C69.5435466,71.4673732 69.6355381,71.2340026 69.686812,70.9825646 M67.561959,64.3593568 C67.2905086,64.1560986 66.4459964,63.6547282 66.1293043,63.5162115 C65.8126122,63.3776948 64.8308668,63.1021669 64.4825055,63.0494703 C64.1326361,62.9952681 63.0483427,62.9817176 62.689425,63.0283917 C62.1329518,63.1774477 61.5779866,63.3280094 61.0200053,63.4770655 C60.4469435,63.6607507 59.9538087,63.9513347 59.543617,64.3503231 C59.333997,64.5520758 59.1289012,64.7568396 58.9283295,64.9661204 C58.4849606,65.3124122 58.153188,65.7445242 57.9315035,66.2594451 C57.5861583,66.7096245 57.3735222,67.2140061 57.2920871,67.7740955 C57.1111202,68.2077131 57.052306,68.6578925 57.0658785,69.1186112 C57.0055562,69.4438244 56.9889675,69.7750601 57.0161126,70.1123182 C56.9542822,70.7943626 57.0704026,71.452317 57.3644739,72.0861817 C57.6645773,73.039237 58.4864687,74.0284272 59.2661344,74.6291682 C60.119695,75.2871227 61.1044566,75.7207403 62.1691452,75.8893694 C62.3033623,75.910448 62.4390875,75.9134593 62.5733046,75.9255042 C63.0830281,76.0068075 63.6017999,76.0339086 64.1356522,75.9435716 C65.257647,75.7945156 66.2665375,75.3759541 67.1653398,74.6878873 C67.1668479,74.6863817 67.169864,74.6848761 67.1728801,74.6833704 C67.7007003,74.3340674 68.1847867,73.9290565 68.5904542,73.3644502 C69.2645559,72.4234398 69.7531666,71.3273509 69.9100046,70.1770597 L69.7245135,70.8455535 C69.9959638,70.0822059 70.0698587,69.2917571 69.9326254,68.4727016 C69.6491106,66.8631974 68.9011141,65.3620976 67.561959,64.3593568" id="Fill-8" fill="#FFF2A8"></path>
                <path d="M91.9465364,68.9502233 C91.5621092,68.4150354 91.0779071,68.0077634 90.4968646,67.7284071 C90.1476522,67.4622835 89.7588232,67.2976103 89.3245086,67.2343876 C88.6979804,67.0020808 88.0450412,66.9417987 87.3686255,67.0564818 C86.94018,67.1726352 86.5102672,67.2887886 86.0803544,67.4034717 C85.7091328,67.6210755 85.3379112,67.8386793 84.9666896,68.0562832 C84.2829375,68.591471 83.7693898,69.2589855 83.4260465,70.0588266 C83.4099064,70.0941137 83.3937664,70.1279305 83.376159,70.1617473 C83.0430867,70.9601182 82.9315735,71.7893652 83.0401521,72.6480182 C83.1531326,73.5052009 83.4744667,74.2785767 83.9982854,74.9637347 C84.0246964,74.9931406 84.0496401,75.0210762 84.0745839,75.0504822 C84.459011,75.58567 84.9432131,75.992942 85.5242557,76.270828 C85.8720008,76.5384219 86.2622971,76.7016248 86.6951444,76.7648475 C87.3231399,76.9986246 87.9760791,77.0574365 88.6510275,76.9442237 C89.0809402,76.8280703 89.510853,76.7119169 89.9407658,76.5957635 C90.3119874,76.3796299 90.683209,76.1620261 91.0544307,75.9444222 C91.5885203,75.5592046 91.9949566,75.0754772 92.2737396,74.4917696 C92.5393171,74.1433094 92.7036524,73.7522106 92.7667454,73.3184732 C92.9985755,72.6877162 93.0572667,72.0349047 92.9442862,71.3570981 C92.8283711,70.9277716 92.7124561,70.4969749 92.596541,70.0661781 C92.380851,69.6941931 92.1636937,69.3222082 91.9465364,68.9502233" id="Fill-10" fill="#FFF2A8"></path>
                <path d="M121.506638,63.3497501 C120.613634,62.6559187 119.609552,62.2265455 118.495854,62.0616305 C117.333925,61.9026584 116.209996,62.0512304 115.125529,62.5073466 C115.046605,62.5430039 114.96622,62.5771755 114.887297,62.6128328 C114.415217,62.8921482 113.943138,63.1729494 113.47252,63.4522648 C112.792901,63.9499812 112.276976,64.5739837 111.923282,65.3257583 C111.585664,65.7744459 111.376663,66.2781051 111.29774,66.8382217 C111.002508,67.649425 110.926507,68.4903428 111.0712,69.3639464 C111.217355,69.9181202 111.364971,70.4722939 111.512587,71.0264676 C111.787358,71.5063553 112.062128,71.986243 112.338361,72.4661307 C112.826517,73.1569907 113.440366,73.68145 114.18137,74.0395087 C114.858066,74.5238535 115.616608,74.8091118 116.456997,74.8982551 C116.543228,74.9116265 116.629459,74.924998 116.714229,74.9383695 C117.87762,75.0973416 119.001548,74.9487696 120.086015,74.4926534 C121.12079,74.0454515 121.983102,73.3694487 122.67149,72.4661307 C122.946261,71.986243 123.222493,71.5093267 123.497264,71.029439 C123.941574,69.9493203 124.092113,68.8276014 123.945958,67.6627965 C123.865573,66.7713643 123.577649,65.9675895 123.083646,65.2514723 C122.724106,64.4863262 122.199411,63.8519236 121.506638,63.3497501" id="Fill-12" fill="#FFD75E"></path>
                <path d="M147.453578,63.3498198 C146.976588,63.0705081 146.499598,62.7911965 146.022608,62.5118848 C144.944196,62.0587462 143.825788,61.9072048 142.664421,62.0542891 C141.77562,62.1360026 140.974218,62.4286856 140.260214,62.932338 C139.497327,63.2963346 138.866278,63.829701 138.365587,64.533923 C137.81453,65.1995167 137.460491,65.9497954 137.304951,66.7817876 C137.001277,67.6033798 136.925729,68.4546861 137.072381,69.3371921 C137.223477,69.8987869 137.374574,70.4603816 137.524188,71.0219763 C137.971552,72.0738522 138.645559,72.9489297 139.546211,73.6501802 C140.023201,73.9294919 140.500191,74.2088035 140.977181,74.4881152 C142.055593,74.9412538 143.174001,75.0927952 144.335367,74.9457109 C145.224168,74.8639974 146.025571,74.5713144 146.739574,74.067662 C147.502462,73.7036654 148.133511,73.170299 148.634202,72.466077 C149.185258,71.7989976 149.539298,71.0502046 149.694838,70.2182124 C149.998511,69.3966202 150.075541,68.5453139 149.925926,67.6628079 C149.776311,67.1012131 149.625215,66.5396184 149.4756,65.9795094 C149.028237,64.9276335 148.354229,64.0510703 147.453578,63.3498198" id="Fill-14" fill="#FFF2A8"></path>
                <path d="M172.334179,62.0493223 C165.739473,62.877651 167.059336,72.780484 173.666335,71.9506708 C180.261041,71.1238266 178.939641,61.2195091 172.334179,62.0493223" id="Fill-16" fill="#FFD75E"></path>
                <path d="M208.097127,60.3889293 C205.975549,59.6853029 203.525728,59.9562179 201.698769,61.0411321 C201.596293,61.1000812 201.493817,61.1590303 201.394543,61.2229963 C200.547513,61.74225 199.910239,62.3906901 199.485924,63.165808 C199.056805,63.9697733 198.911097,64.8038403 199.052001,65.6692632 C199.19771,66.534686 199.610817,67.3123124 200.28812,68.0033965 C200.952615,68.6681416 201.778829,69.1673275 202.768365,69.4997001 C202.88365,69.5410899 203.00374,69.5774627 203.122228,69.6150898 C205.242204,70.2973942 207.696829,70.067869 209.520585,68.9641413 C211.301109,67.8842441 212.237805,66.1069915 211.94799,64.3573322 C211.658174,62.6064187 210.17227,61.0762507 208.097127,60.3889293" id="Fill-18" fill="#FFF2A8"></path>
                <path d="M239.454028,58.3498172 C238.976859,58.070897 238.499689,57.790392 238.02252,57.5114718 C236.944939,57.0598112 235.826276,56.9060881 234.664953,57.0550569 C233.775396,57.1358804 232.97432,57.4274788 232.261726,57.9314369 C231.498571,58.2959349 230.864978,58.8300037 230.365688,59.5352281 C229.814258,60.1992484 229.460331,60.9488465 229.305487,61.7824376 C229.002121,62.6033505 228.9247,63.4543741 229.073223,64.3370932 C229.223326,64.8981032 229.375009,65.460698 229.525112,66.021708 C229.972261,67.0739979 230.645354,67.9503779 231.547552,68.650848 C232.023141,68.9297682 232.500311,69.2086884 232.97748,69.4891934 C234.055061,69.940854 235.175304,70.0929923 236.335047,69.9456083 C237.224604,69.8647848 238.02568,69.5716016 238.739854,69.0676435 C239.503009,68.7047303 240.135022,68.1706615 240.635892,67.465437 C241.185742,66.799832 241.539669,66.0502339 241.694513,65.2182276 C241.997879,64.3973147 242.0753,63.5447063 241.926777,62.6619872 C241.776674,62.1009772 241.626571,61.5399672 241.474888,60.9789572 C241.029319,59.9266673 240.354646,59.0502873 239.454028,58.3498172" id="Fill-20" fill="#FFF2A8"></path>
                <path d="M271.5195,59.6485 C271.7115,59.6245 271.6725,59.3275 271.4805,59.3515 C271.2885,59.3755 271.3275,59.6725 271.5195,59.6485" id="Fill-22" fill="#FFF2A8"></path>
                <path d="M262.334038,57.0491679 C255.738835,57.8775862 257.060415,67.7804556 263.66549,66.9506747 C270.260693,66.1236189 268.940524,56.2207495 262.334038,57.0491679" id="Fill-24" fill="#FFD75E"></path>
                <path d="M295.540491,53.3829483 C294.659297,52.7046371 293.668915,52.2849514 292.570884,52.1254399 C291.957278,51.967477 291.766583,51.9628311 290.742368,52.0882722 C290.720838,52.0882722 290.699308,52.0882722 290.67624,52.0898208 C289.795047,52.1703509 288.999973,52.4614982 288.292558,52.9632626 C287.771223,53.186269 287.339085,53.5223273 286.991528,53.9729861 C286.760849,54.1619221 286.554776,54.3740879 286.373309,54.6079349 C286.334862,54.6559432 286.296416,54.7055002 286.256431,54.7550572 C285.985768,55.2212025 285.715105,55.6904452 285.444441,56.1581392 C285.298345,56.6862308 285.152248,57.215871 285.007689,57.7439626 C285.004614,58.3123192 285.001538,58.8806758 285,59.4490324 C285.079969,60.3193769 285.362935,61.1045453 285.851974,61.8045377 C286.068813,62.3186913 286.396377,62.7461203 286.834667,63.0899219 C287.174534,63.5266427 287.597445,63.8534091 288.103401,64.0717695 C288.544767,64.4124738 289.03842,64.6215423 289.587436,64.7020724 C290.384047,64.9978656 291.211416,65.0737497 292.068003,64.9281761 C292.134131,64.9281761 292.200259,64.9281761 292.266387,64.9266274 C293.305981,64.9111409 293.916511,64.5224283 294.717736,64.0531857 C295.237532,63.8286306 295.671209,63.4925723 296.017227,63.0434622 C296.247906,62.8529775 296.455517,62.6423604 296.635447,62.4085134 C296.912262,61.9330761 297.186001,61.4591875 297.461278,60.9852988 C297.475118,60.9527771 297.488959,60.9202553 297.5028,60.8877335 C297.942628,59.8315504 298.090262,58.7351022 297.947241,57.5968403 C297.867273,56.7264958 297.584306,55.9397787 297.095267,55.2413351 C296.741559,54.4933344 296.223301,53.8738721 295.540491,53.3829483" id="Fill-26" fill="#FFDB75"></path>
                <path d="M330.479402,47.3817605 C329.576715,46.6899226 328.561006,46.261997 327.435249,46.0964927 C327.381712,46.0845645 327.329663,46.0726362 327.276126,46.060708 C326.114678,45.9041499 324.991895,46.0502708 323.909265,46.5005618 C322.875711,46.9419067 322.014663,47.606906 321.326122,48.4970509 C320.64353,49.3916689 320.222672,50.396623 320.060575,51.5119134 C319.904426,52.6764078 320.050165,53.8021354 320.497791,54.8876052 C320.523072,54.9353181 320.548353,54.9845221 320.573634,55.0322351 C321.019773,56.0819202 321.690469,56.9556637 322.590182,57.6549567 C323.492869,58.3467946 324.507091,58.7747202 325.634335,58.9387335 C326.809167,59.0967827 327.945334,58.9491707 329.042836,58.4944066 C330.088287,58.0470976 330.961232,57.3746431 331.657209,56.47257 C332.347237,55.5675148 332.774043,54.5506324 332.939114,53.4219228 C333.09675,52.2425181 332.948037,51.1033712 332.49595,50.0029911 C332.049811,48.9547971 331.377628,48.0810536 330.479402,47.3817605" id="Fill-28" fill="#FFF2A8"></path>
                <path d="M359.086476,43.5048845 C356.959432,42.591189 354.50317,42.9434571 352.671473,44.3525297 C352.586121,44.41858 352.498058,44.4818782 352.415415,44.5520566 C351.559178,45.231824 350.917001,46.0780932 350.488882,47.0922402 C350.056699,48.1435404 349.91038,49.234746 350.052635,50.365857 C350.200309,51.495592 350.616234,52.5124911 351.299056,53.4165542 C351.968329,54.2848402 352.80018,54.9384627 353.800026,55.3719176 C353.896217,55.4187033 353.997828,55.4586086 354.096729,55.4998901 C356.223773,56.3860646 358.686809,56.0888384 360.513086,54.6536209 C362.29872,53.2486764 363.238955,50.9396688 362.947671,48.6636864 C362.656388,46.3877039 361.166102,44.3993153 359.086476,43.5048845" id="Fill-30" fill="#FFD75E"></path>
                <path d="M388.453703,39.3501456 C387.976559,39.0715204 387.499415,38.7913211 387.022271,38.512696 C385.943989,38.0593398 384.824897,37.9066469 383.664998,38.0546174 C382.775062,38.1364733 381.97459,38.4292659 381.260443,38.9329949 C380.497641,39.2966243 379.865111,39.8302623 379.364424,40.5339089 C378.81351,41.1997758 378.460361,41.9490728 378.304975,42.7817999 C378.002052,43.6035079 377.925144,44.4551249 378.072682,45.3382249 C378.223359,45.8986235 378.374036,46.4605963 378.524713,47.0209949 C378.972035,48.0741035 379.645373,48.9493327 380.546297,49.649831 C381.023441,49.9300303 381.500585,50.2086554 381.977729,50.4888547 C383.056011,50.9406367 384.175103,51.0933296 385.335002,50.9453592 C386.224938,50.8635032 387.02541,50.5707107 387.739557,50.0669816 C388.502359,49.7033522 389.134889,49.1697142 389.634007,48.4660676 C390.18649,47.8002008 390.539639,47.0509038 390.695025,46.2181766 C390.997948,45.3964686 391.074856,44.5448516 390.927318,43.6617516 C390.775072,43.101353 390.625964,42.5393803 390.475287,41.9789817 C390.027965,40.9258731 389.354627,40.0506438 388.453703,39.3501456" id="Fill-32" fill="#FFF2A8"></path>
                <path d="M411.453977,34.3498175 C410.977001,34.0705063 410.500026,33.7911951 410.02305,33.5118839 C408.94467,33.0587461 407.824814,32.9072049 406.664963,33.054289 C405.776189,33.1360024 404.973329,33.4286848 404.260828,33.9323364 C403.497963,34.2963324 402.865452,34.8296979 402.364776,35.5339186 C401.813735,36.200997 401.461188,36.9497887 401.304171,37.7832651 C401.001988,38.6033703 400.924961,39.4546752 401.07309,40.3371796 C401.224182,40.8987734 401.373792,41.4603672 401.524884,42.021961 C401.972234,43.073835 402.646221,43.948911 403.546846,44.6501604 C404.023822,44.9294716 404.500797,45.2087828 404.977773,45.4895796 C406.054672,45.9412318 407.174528,46.092773 408.33586,45.9456889 C409.224634,45.8639755 410.026013,45.571293 410.739995,45.0676415 C411.50286,44.7036455 412.13389,44.17028 412.634566,43.4660592 C413.185606,42.8004666 413.539635,42.0516749 413.69517,41.2181984 C413.997354,40.3966076 414.075862,39.5453027 413.926252,38.6627982 C413.77516,38.1012045 413.62555,37.5396107 413.474458,36.9795026 C413.027108,35.9276286 412.354602,35.0510669 411.453977,34.3498175" id="Fill-34" fill="#FFDB75"></path>
                <path d="M444.474892,29.9787842 C444.0284,28.926744 443.354074,28.0510662 442.453444,27.3502173 C441.97637,27.0711046 441.499296,26.7904583 441.022222,26.5113456 C439.944219,26.0589376 438.82493,25.9071126 437.664356,26.0543369 C436.775959,26.1371505 435.97319,26.4300655 435.260638,26.9330818 C434.497625,27.2950082 433.866114,27.8302298 433.364575,28.5341459 C432.814105,29.1997223 432.460887,29.949646 432.30492,30.7823834 C432.002162,31.602852 431.924178,32.4539924 432.074028,33.3373381 C432.223879,33.8986307 432.373729,34.4599233 432.525108,35.0212158 C432.9716,36.073256 433.644397,36.9489338 434.545027,37.6497827 C435.022101,37.930429 435.499175,38.2095417 435.977778,38.4886544 C437.054252,38.9410624 438.173541,39.0928874 439.335644,38.9456631 C440.224041,38.8628495 441.025281,38.5714681 441.739362,38.0669182 C442.502375,37.7034582 443.133886,37.1697702 443.635425,36.4643205 C444.185895,35.8002777 444.539113,35.050354 444.69508,34.2176166 C444.997838,33.397148 445.075822,32.5460076 444.925972,31.6626619 C444.776121,31.1013693 444.624742,30.5400767 444.474892,29.9787842" id="Fill-36" fill="#FFF2A8"></path>
                <path d="M490.596254,19.0607381 C490.253229,18.2509365 489.73414,17.5766091 489.04202,17.0377562 L487.940093,16.3938725 C487.111371,16.0452925 486.250775,15.9280843 485.356788,16.0422481 C484.673775,16.1046576 484.057546,16.3299408 483.5081,16.7165754 C482.920709,16.9966572 482.435011,17.4076468 482.049488,17.9495441 C481.626021,18.4609978 481.354333,19.0379054 481.234427,19.6787447 C481.002202,20.3104508 480.94149,20.9649898 481.056843,21.6438837 L481.402903,22.9392619 C481.747445,23.7490635 482.265017,24.4218687 482.958654,24.9607217 C483.324445,25.1768717 483.691754,25.3914996 484.059063,25.6061275 C484.889303,25.9547075 485.749899,26.0719157 486.642369,25.9577519 C487.3269,25.8953424 487.943129,25.6700592 488.492575,25.2834246 C489.078448,25.0033428 489.565663,24.5923532 489.949668,24.0504559 C490.374654,23.5390022 490.646341,22.9620946 490.766248,22.3212553 C490.998472,21.6910713 491.057667,21.0350102 490.943831,20.3561163 C490.828478,19.9238162 490.713125,19.4930383 490.596254,19.0607381" id="Fill-38" fill="#FFF2A8"></path>
                <path d="M467.474892,24.9787911 C467.0284,23.9252155 466.354074,23.0495362 465.453444,22.3502197 C464.97637,22.0711065 464.499296,21.7904597 464.022222,21.5113465 C462.944219,21.0589377 461.82493,20.9071124 460.664356,21.054337 C459.775959,21.1356172 458.97319,21.4285327 458.260638,21.9315499 C457.497625,22.2950105 456.866114,22.830233 456.364575,23.5341503 C455.814105,24.1997279 455.460887,24.9481194 455.30492,25.7823918 C455.002162,26.6028619 454.924178,27.4540037 455.074028,28.337351 C455.223879,28.8986445 455.373729,29.4599381 455.525108,30.0212317 C455.9716,31.0732737 456.644397,31.948953 457.546556,32.6498032 L458.977778,33.4871427 C460.054252,33.9410851 461.17507,34.0929104 462.335644,33.9456858 C463.224041,33.862872 464.025281,33.5714901 464.739362,33.0669394 C465.502375,32.7034788 466.133886,32.1697898 466.635425,31.4643389 C467.185895,30.7987613 467.539113,30.0503699 467.69508,29.217631 C467.997838,28.3971609 468.075822,27.5444855 467.925972,26.6626718 C467.776121,26.0998447 467.626271,25.5400847 467.474892,24.9787911" id="Fill-40" fill="#FFD75E"></path>
            </g>
        </g>
    </g>
</svg>