<?xml version="1.0" encoding="UTF-8"?>
<svg width="241px" height="190px" viewBox="0 0 241 190" version="1.1" xmlns="http://www.w3.org/2000/svg" xmlns:xlink="http://www.w3.org/1999/xlink">
    <title>Group 44</title>
    <g id="切圖" stroke="none" stroke-width="1" fill="none" fill-rule="evenodd" opacity="0.80399529">
        <g id="設計稿--v1-1" transform="translate(-1.000000, -349.000000)">
            <g id="Group-44" transform="translate(121.500000, 444.000000) scale(-1, 1) translate(-121.500000, -444.000000) translate(1.000000, 349.000000)">
                <path d="M92.393419,10.2847653 C97.0040721,6.42192028 164.966984,-3.09415837 169.272521,1.00473292 C173.582479,5.10213964 183.136908,136.78329 177.002145,139.835561 C170.871804,142.887833 108.66926,153.478738 104.873726,150.46655 C101.073769,147.458816 86.4782814,15.2328293 92.393419,10.2847653" id="Fill-83" fill="#FFB5CE"></path>
                <path d="M128.000674,150.972948 C127.446628,150.877214 126.956972,150.511953 126.727867,149.965533 C123.391614,142.044662 111.514075,12.3385541 111.00645,6.82133879 C110.925589,5.8993482 111.614403,5.08634691 112.545798,5.00534134 C113.487675,4.93317275 114.309759,5.60036403 114.393615,6.51940896 C117.81522,43.9660716 127.266938,142.501239 129.870952,148.685645 C130.228835,149.541359 129.817045,150.517844 128.948541,150.871323 C128.637078,151 128.312137,151.028915 128.000674,150.972948" id="Fill-85" fill="#15679C"></path>
                <path d="M95.3863749,82.9745364 C94.6573469,82.8456496 94.0764954,82.2412151 94.0068524,81.4678943 C93.9238737,80.5464279 94.6040034,79.7286634 95.5315878,79.6412574 C96.202827,79.5834806 162.76812,73.4517287 177.747274,68.0977419 C178.630406,67.7866359 179.586144,68.2429247 179.90176,69.1155031 C180.21293,69.9910444 179.760992,70.9525102 178.883788,71.2665791 C163.501593,76.7627858 98.5929126,82.7404662 95.838313,82.9937954 C95.6842095,83.005647 95.5330696,83.0012027 95.3863749,82.9745364" id="Fill-87" fill="#15679C"></path>
                <path d="M110.151099,70.3635305 C109.935813,70.3266757 109.737087,70.291295 109.481152,71.0018563 C109.407382,71.2170886 109.357701,71.4898144 109.583526,71.9011144 C110.307671,73.2500015 112.815833,74.5620338 115.173445,75.5128886 C113.529439,72.5497596 111.424751,70.5876079 110.151099,70.3635305 M117.958618,79.9664273 C117.905926,79.9575822 117.863772,79.9472628 117.817101,79.9339951 C116.885197,79.6892789 108.699798,77.4337628 106.555967,73.4711305 C105.938712,72.3197854 105.831822,71.082937 106.253362,69.9021079 C107.012133,67.7674757 108.695281,66.7104789 110.754804,67.0687079 C113.664934,67.5787789 117.124572,71.212666 119.160007,75.8991273 C119.33615,76.2971596 119.504766,76.7143563 119.655316,77.1315531 C119.703492,77.259808 119.747151,77.389537 119.790811,77.5177918 C119.96846,77.8406402 120.046746,78.2268789 119.971471,78.6175402 C119.808877,79.5285918 118.920632,80.1359596 117.991739,79.9737983 C117.97819,79.9693757 117.967651,79.9693757 117.958618,79.9664273" id="Fill-89" fill="#15679C"></path>
                <path d="M128.45402,65.4967817 C128.159412,65.443436 127.801232,65.443436 127.390333,65.490685 C122.319987,66.0896803 120.991153,72.3341682 120.643827,75.4693676 C125.866128,74.8566548 129.117661,70.183577 129.451033,67.4659978 C129.666561,65.7101642 128.815301,65.5592723 128.45402,65.4967817 M118.451328,78.9520756 C117.621776,78.8072803 117,78.0939729 117,77.2495877 C117,76.674979 117.106989,63.2181609 126.97168,62.055226 C130.933372,61.5888327 133.401871,64.1235126 132.946005,67.8805696 C132.352139,72.7350226 126.925163,79.476387 118.652902,78.9734139 C118.581576,78.9718897 118.518003,78.9642689 118.451328,78.9520756" id="Fill-91" fill="#15679C"></path>
                <path d="M113.343791,89.9753671 C112.509105,89.8191698 111.918646,89.0188442 112.009155,88.1322381 C112.488992,83.4552424 116.84775,76.9931338 117.035949,76.7179289 C117.553139,75.9533056 118.567405,75.7718191 119.305837,76.3073529 C120.047142,76.8443744 120.218102,77.897591 119.705222,78.6592391 C118.576025,80.3238569 115.580636,85.3281233 115.255956,88.4877731 C115.161137,89.4145442 114.359494,90.0899119 113.463032,89.9902431 C113.418496,89.9872679 113.38258,89.9813175 113.343791,89.9753671" id="Fill-93" fill="#15679C"></path>
                <path d="M126.965276,92.9714382 C126.157781,92.8286294 125.544937,92.1296175 125.541896,91.2908033 C125.538854,88.1850863 120.599603,82.0428017 117.491281,78.9025099 C116.826732,78.2305565 116.837377,77.1452091 117.517133,76.4882884 C118.202971,75.8253546 119.2994,75.8418903 119.960906,76.5108371 C120.887016,77.4458594 128.986294,85.784394 129,91.2877968 C129.004542,92.2288321 128.228982,92.993987 127.278541,93 C127.170571,93 127.067163,92.987974 126.965276,92.9714382" id="Fill-95" fill="#15679C"></path>
                <path d="M0.633137111,70.4780278 C3.1779923,68.6970135 88.872875,60.7443721 92.06701,63.6208281 C95.2551146,66.4899123 111.923313,140.85168 108.552284,143.44801 C105.177236,146.029596 18.2380674,152.49167 14.8549779,148.97682 C11.4558072,145.454599 -3.1962066,73.1421774 0.633137111,70.4780278" id="Fill-131" fill="#26D6B6"></path>
                <path d="M99.2325674,100.652003 C74.6372618,105.249255 10.5893367,107.880979 7.68238489,107.998349 C6.79387478,108.034717 6.03596971,107.466053 6.00232902,106.722161 C5.95483627,105.976616 6.63952335,105.343481 7.52209687,105.30546 C8.2879174,105.282317 83.5876655,102.181114 102.90534,97.064791 C103.730526,96.8366642 104.658614,97.2301003 104.92576,97.9442365 C105.190928,98.6484542 104.723916,99.4055708 103.873004,99.6270853 C102.553102,99.9808472 100.999693,100.321384 99.2325674,100.652003" id="Fill-133" fill="#FFD04F"></path>
                <path d="M66.5306154,96.8282966 C69.2483504,95.4659032 126.517788,92.8590725 128.210216,94.554692 C129.904137,96.2517859 138.142411,176.602033 131.365236,177.221303 C124.58657,177.847945 67.6186049,179.169053 65.1396604,175.721785 C62.657731,172.275992 61.4533312,99.3717258 66.5306154,96.8282966" id="Fill-244" fill="#15679C"></path>
                <path d="M104.172753,179 C104.072615,179 103.977656,178.988158 103.882698,178.968915 C103.257697,178.832732 102.876135,178.285039 103.036702,177.749189 C106.342991,166.598467 103.563291,94.758985 103.535667,94.0336626 C103.513222,93.4800492 104.017366,93.016731 104.664812,93 C105.277727,92.9841655 105.852659,93.413438 105.869924,93.9670514 C105.985601,96.9379127 108.687608,166.819025 105.300172,178.243592 C105.168957,178.699509 104.688983,179 104.172753,179" id="Fill-246" fill="#1EAAE0"></path>
                <path d="M112.154879,179 C111.982367,179 111.811292,178.954309 111.651719,178.857032 C111.191686,178.574043 111.046489,177.959428 111.32107,177.490728 C117.656578,166.678211 111.06949,95.8058186 111.004798,95.090978 C110.951607,94.5426879 111.346947,94.0577754 111.87886,94.0047151 C112.409334,93.9516548 112.886618,94.3525551 112.936934,94.8978974 C113.217266,97.8427459 119.651968,167.146911 112.990125,178.516561 C112.80755,178.827554 112.48409,179 112.154879,179" id="Fill-248" fill="#1EAAE0"></path>
                <path d="M96.2682028,81.1220326 C95.931409,81.1220326 95.2983614,81.1220326 95.1393199,82.5848538 C94.5889115,87.5901511 102.466144,91.1498921 106.836668,92.5310967 C106.576276,90.7402394 105.347602,88.4141652 103.420393,86.133608 C100.963046,83.2299392 97.9568495,81.1220326 96.2682028,81.1220326 M107.887589,95 C107.800272,95 107.716074,94.9874436 107.630316,94.968609 C106.997268,94.8053757 92.1081757,90.8658034 93.0421548,82.3509908 C93.3742709,79.324897 95.410626,79 96.2682028,79 C99.1371871,79 102.781109,82.0982931 105.02796,84.757112 C106.393846,86.3706102 109.50763,90.5142241 108.929155,94.1100647 C108.887056,94.4035707 108.7171,94.6656857 108.466064,94.8273494 C108.29143,94.9419266 108.094967,95 107.887589,95" id="Fill-250" fill="#1EAAE0"></path>
                <path d="M108.42272,76.0555194 C108.204799,76.0555194 107.950798,76.1526784 107.669377,76.3500325 C104.15089,78.797224 106.861193,88.0485795 108.616107,92.5209282 C110.782329,90.6657992 111.515468,85.1398829 110.767897,80.6736066 C110.236805,77.4992409 109.17895,76.0555194 108.42272,76.0555194 M108.148515,95 C107.779059,95 107.421149,94.7738018 107.259512,94.3973108 C106.573999,92.8048146 100.716107,78.7258729 106.589874,74.6345695 C107.198898,74.2140534 107.810809,74 108.42272,74 C110.461942,74 112.01914,76.301453 112.688778,80.316851 C113.541701,85.3934071 112.79846,93.2890913 108.481891,94.9377575 C108.375095,94.9817827 108.26397,95 108.148515,95" id="Fill-252" fill="#1EAAE0"></path>
                <path d="M109.911608,93.7949957 C110.427849,93.8528575 110.956308,93.8794427 111.501569,93.8794427 C115.643712,93.8794427 119.888188,92.1733011 120.778627,90.1528291 C120.98329,89.6930623 121.145188,88.956497 120.228785,87.889963 C119.77211,87.3613875 119.258924,87.1158658 118.617442,87.1158658 C115.927798,87.1158658 112.063629,91.1568098 109.911608,93.7949957 M111.501569,96 C110.178893,96 108.924947,95.8467444 107.777916,95.5496162 C107.441901,95.4636053 107.171562,95.2133921 107.060066,94.877168 C106.943988,94.5456355 106.998973,94.1750071 107.200581,93.8919534 C107.858865,92.9849303 113.786468,85 118.617442,85 C119.862223,85 120.923724,85.5004265 121.779034,86.4887688 C123.007015,87.9196759 123.323174,89.5288598 122.661836,91.0254478 C121.236829,94.2547626 115.849903,96 111.501569,96" id="Fill-254" fill="#1EAAE0"></path>
                <path d="M64.221334,121.091484 L64,134 C64,134 69.6910316,133.660965 69.9875902,128.532498 C70.2711291,123.404032 65.6158826,120.429699 64.221334,121.091484" id="Fill-256" fill="#FFD04F"></path>
                <path d="M131.063685,121.065721 L132,134 C132,134 126.617216,134.019346 126.051327,128.895342 C125.488171,123.766873 129.715939,120.488284 131.063685,121.065721" id="Fill-258" fill="#FFD04F"></path>
                <path d="M83.2621861,138.248103 C86.3889603,135.053636 94.825205,138.202272 94.9972783,145.284793 C95.1662513,152.370369 87.4229506,153.963784 84.1256532,152.507864 C80.822155,151.055 77.2117151,144.427741 83.2621861,138.248103" id="Fill-260" fill="#FFD04F"></path>
                <path d="M82,95.6384788 C82,95.6384788 82.7524116,102.005814 88.1725616,102 C93.5927117,101.992724 95,95 95,95 L82,95.6384788 Z" id="Fill-262" fill="#FFD04F"></path>
                <path d="M91.7410114,114.055511 C89.1242451,114.410447 86.7045821,118.299431 88.7874045,120.511169 C90.8672851,122.72569 94.8034663,122.363795 95.6301232,120.127003 C96.459722,117.887427 96.1831891,113.454208 91.7410114,114.055511" id="Fill-264" fill="#FFD04F"></path>
                <path d="M119.738145,101.055739 C117.126844,101.41066 114.706686,105.296706 116.784258,107.512532 C118.8633,109.725574 122.796425,109.363693 123.633041,107.125598 C124.457894,104.887502 124.181473,100.453067 119.738145,101.055739" id="Fill-266" fill="#FFD04F"></path>
                <path d="M72.3066171,107.103509 C71.4678547,108.418485 72.4197524,111.05349 74.3118442,110.999173 C76.1987343,110.946119 77.5511572,109.039972 76.7787156,107.772997 C76.0088749,106.513601 73.7344636,104.870196 72.3066171,107.103509" id="Fill-268" fill="#FFD04F"></path>
                <path d="M92.3076557,166.103705 C91.465157,167.420317 92.4246695,170.052278 94.3124906,169.999209 C96.1977114,169.948668 97.55117,168.040717 96.7788795,166.77591 C96.0091894,165.51363 93.7378233,163.86976 92.3076557,166.103705" id="Fill-270" fill="#FFD04F"></path>
                <path d="M125.30722,147.104898 C124.466729,148.415655 125.421714,151.049795 127.308265,150.999284 C129.20002,150.946247 130.550531,149.038201 129.778996,147.77543 C129.008763,146.510133 126.734493,144.871056 125.30722,147.104898" id="Fill-272" fill="#FFD04F"></path>
                <path d="M124.138777,159.084013 C120.544252,159.614897 117.221389,165.441947 120.08074,168.768294 C122.94009,172.088302 128.34876,171.546324 129.495263,168.186698 C130.629487,164.831826 130.250389,158.177548 124.138777,159.084013" id="Fill-274" fill="#FFD04F"></path>
                <path d="M73.6152072,157.298264 C71.0967225,158.653743 70.0161169,162.010673 72.1041164,165.68378 C74.1979728,169.356886 77.5657139,167.881895 78.7166028,166.544569 C79.8674918,165.207244 80.6420722,161.730802 79.2642268,159.599251 C77.8893099,157.467699 75.1819389,156.451089 73.6152072,157.298264" id="Fill-276" fill="#FFD04F"></path>
                <path d="M21,148.861215 C21,148.861215 28.5040752,180.650781 31.5424987,181.690353 C34.5868566,182.724077 53.732782,180.896418 55.0917644,180.196059 C56.453714,179.503011 59.7962766,147.406398 58.8259987,145.483701 C57.8572045,143.565391 21.9509909,147.907908 21,148.861215" id="Fill-292" fill="#419C94"></path>
                <path d="M32.7237931,118.348833 C38.642361,116.813513 44.1733596,120.61561 46.0046985,124.493068 C46.0046985,124.493068 48.3582205,120.835786 52.2590611,120.16787 C58.2382792,119.151219 67.6139061,124.815205 67.9881619,133.657702 C68.3653763,142.492811 59.6672561,153.709956 50.5593774,147.80954 C50.5593774,147.80954 48.062366,154.267045 40.3583167,154.92905 C36.4781858,155.264486 27.1498956,154.645334 25.0907488,147.849437 C25.0907488,147.849437 21.3748172,152.891316 17.1648086,148.603059 C13.1545018,144.506902 12.3394229,133.279413 18.3644983,130.740742 C24.3895738,128.205026 26.3925083,127.704089 26.3925083,127.704089 C26.3925083,127.704089 25.5715123,120.215156 32.7237931,118.348833" id="Fill-294" fill="#FFD04F"></path>
                <path d="M17.1818531,125.083122 C15.2880969,126.365405 15.8507785,130.276298 17.5947887,131.201363 C19.3342612,132.123583 21.8436394,132.477954 23.655716,130.987887 C25.4617423,129.496396 25.7037558,126.342634 22.7844672,124.770023 C20.3537434,123.45643 18.7761175,124.000084 17.1818531,125.083122" id="Fill-296" fill="#15679C"></path>
                <path d="M50.8195649,115.002765 C48.8799189,114.900926 47.5354402,117.63719 48.1505891,119.088401 C48.7600291,120.543632 49.7177204,122.069883 51.7201658,121.997524 C53.7197568,121.925164 55.8934734,119.392579 54.6203577,117.55813 C53.3443874,115.722341 52.4537773,115.087185 50.8195649,115.002765" id="Fill-298" fill="#15679C"></path>
                <path d="M37.9012009,129.917166 C36.4338419,128.077288 32.7669602,129.280106 31.8968527,131.112234 C31.0221976,132.950562 30.3552162,135.159345 32.0469235,136.906222 C33.7340832,138.648448 37.8799788,138.375644 38.5787933,135.608852 C39.2730603,132.83586 39.1502751,131.474939 37.9012009,129.917166" id="Fill-300" fill="#15679C"></path>
                <path d="M43.3139984,147.611987 C42.3944803,146.387056 40.1019487,147.181827 39.55575,148.409489 C39.0145622,149.631689 38.5999021,151.107888 39.6484534,152.26727 C40.705774,153.433481 43.3027237,153.251858 43.736175,151.402854 C44.1721318,149.557947 44.0919558,148.648467 43.3139984,147.611987" id="Fill-302" fill="#15679C"></path>
                <path d="M57.3156365,132.613421 C56.3959065,131.384773 54.1028467,132.184283 53.556522,133.410198 C53.0114504,134.630646 52.6004539,136.109397 53.653006,137.266977 C54.704305,138.432758 57.3006,138.252356 57.7379103,136.405967 C58.1714615,134.552745 58.0912671,133.649367 57.3156365,132.613421" id="Fill-304" fill="#15679C"></path>
                <path d="M70.75526,130.633139 C69.2944089,129.150745 66.1562299,130.51819 65.5391971,132.200624 C64.9221642,133.892016 64.518663,135.884961 66.1532847,137.271813 C67.7967421,138.655679 71.4488697,138.055556 71.8332267,135.569972 C72.2102205,133.072445 71.987853,131.890113 70.75526,130.633139" id="Fill-306" fill="#15679C"></path>
                <path d="M33.8778553,113.144645 C32.3222848,112.428838 30.0972612,114.523486 30.016823,116.056584 C29.9337901,117.595094 30.1037481,119.309511 31.783868,119.883239 C33.4562036,120.459673 36.2832161,118.822384 35.9770321,116.718265 C35.6630637,114.615499 35.1921112,113.748142 33.8778553,113.144645" id="Fill-308" fill="#15679C"></path>
                <path d="M24.8774518,143.145604 C23.3236441,142.42782 21.1039188,144.517518 21.0169471,146.057366 C20.9338696,147.59586 21.1013226,149.311768 22.7810446,149.88464 C24.4581704,150.457512 27.2866976,148.817445 26.9764553,146.719622 C26.6727034,144.615028 26.1911138,143.745562 24.8774518,143.145604" id="Fill-310" fill="#15679C"></path>
                <path d="M25,161.161198 C25,161.161198 50.0692203,163.130083 59,158 L57.7273602,170.279253 C51.2035944,175.057917 34.8822861,176.452609 28.2603962,173.33377 C28.2603962,173.33377 25.663081,166.226958 25,161.161198" id="Fill-312" fill="#26D6B6"></path>
                <path d="M238.528016,69.5527753 C235.403281,67.3914215 140.094083,67.0386385 137.122867,71.4268417 C134.150051,75.818022 129.486937,181.261425 133.655915,184.443915 C137.834487,187.624915 234.229507,185.752338 237.295073,180.435288 C240.362238,175.118238 243.199126,72.7799207 238.528016,69.5527753" id="Fill-350" fill="#FF7A85"></path>
                <path d="M137.655141,124.542815 C165.131766,126.106485 235.186064,123.168407 238.367864,123.033219 C239.338345,122.991762 240.069721,122.502383 239.994708,121.943607 C239.925946,121.383029 239.074236,120.962145 238.106882,121.002701 C237.277051,121.03785 154.908123,124.494147 133.093415,122.136475 C132.155753,122.025621 131.211839,122.394233 131.030558,122.947601 C130.850839,123.50187 131.482199,124.030003 132.441739,124.135449 C133.932622,124.296773 135.68605,124.43106 137.655141,124.542815" id="Fill-352" fill="#26D6B6"></path>
                <path d="M200.174051,33.7564587 C199.349294,32.5287309 198.79749,32.3194423 198.686834,32.3297593 C198.412407,32.3695536 197.403223,33.1949169 196.380762,36.3651963 C193.698459,44.6822053 193.699934,59.9175274 197.035845,64.5528265 C197.097813,64.6088333 197.156829,64.6633663 197.21437,64.7149515 C197.671749,63.7009337 198.351915,62.3081332 199.188474,60.6913054 C201.764547,53.6152891 204.918982,40.8088933 200.174051,33.7564587 M202.379795,61.5520414 C201.876678,62.9522113 201.380939,64.1725699 200.941266,65.1585843 C206.565544,62.0251515 216.722293,55.0803089 215.572946,46.2857683 C215.388519,44.8914939 215.071305,44.4935508 215.100813,44.4567043 C212.685561,44.4552304 206.059477,54.8548079 202.379795,61.5520414 M178.522352,57.4414375 C177.678415,57.5239738 177.370053,57.7509487 177.33907,57.7995862 C177.308086,57.8747532 177.325791,58.3169121 177.883497,59.1172197 C179.649568,61.6596334 185.462699,65.5624227 194.247313,66.5838098 C190.384679,63.2484578 183.379414,57.8423282 179.338255,57.4443852 C179.054976,57.4163818 178.780549,57.4149079 178.522352,57.4414375 M196.227319,185.969662 C195.331742,185.782482 194.741577,184.909955 194.924528,184.002055 C198.371095,166.908192 196.672894,82.7005019 196.398467,70.1063424 C183.153676,69.3929927 174.189061,62.5336342 174.003159,58.0221395 C173.933814,56.3507788 174.996112,54.4421262 178.191859,54.1252457 C181.952689,53.7479368 187.42795,56.9668536 191.932389,60.3346306 C190.307958,52.6941247 191.129763,41.7978554 193.207146,35.3423354 C194.476002,31.3938563 196.115187,29.3304481 198.219127,29.0342016 C199.893722,28.8013313 201.497497,29.7578684 202.940452,31.8964436 C206.240953,36.8014597 206.375215,43.7654625 205.327672,50.2578291 C208.659156,45.3262835 212.307855,41.1744113 215.059502,41.1272477 C216.259013,41.1066136 218.33197,41.7005804 218.879348,45.8539264 C220.564271,58.694221 204.117832,67.453389 199.724049,69.5536438 C199.979296,80.84933 201.801432,166.768175 198.19257,184.668241 C198.021422,185.508343 197.239452,186.07578 196.396991,185.99177 C196.342401,185.987348 196.28486,185.975558 196.227319,185.969662" id="Fill-354" fill="#26D6B6"></path>
                <path d="M201.346623,68.6887168 C205.572157,70.8997983 211.300171,70.9681822 215.457134,69.9120299 C218.250284,69.203876 219.446477,68.214588 219.57143,68.0124754 C219.57143,68.0124754 219.518096,67.8924236 219.259048,67.6872717 C218.436189,67.0231875 217.191233,66.6599926 215.696373,66.5125872 C211.63541,66.1129209 205.718443,67.3347144 201.346623,68.6887168 M196.557277,69.5138833 C195.857847,68.8725937 195.810609,67.7845289 196.450611,67.0870125 C196.77823,66.7344552 197.217089,66.547539 197.663566,66.5323426 C197.846424,66.3226318 198.087186,66.1585103 198.370615,66.0582138 C200.100143,65.4412385 215.426658,60.2075859 221.418291,65.00814 C223.053343,66.3195925 223.082296,67.754136 222.952771,68.4881239 C222.634294,70.2797837 220.848385,71.7735933 217.787044,72.8054313 C214.818656,73.8068765 211.102075,74.2338963 207.432733,73.8737408 C203.387009,73.4740745 199.399189,72.1185524 196.557277,69.5138833" id="Fill-356" fill="#26D6B6"></path>
                <path d="M137.821459,188.402213 C137.821459,188.402213 133.912388,177.209593 134.001501,174.107547 L140.616622,179.231476 L146.340618,173.082153 L150.022452,179.306022 L154.148363,174.150145 L157.699498,180.898883 L162.061557,174.522878 L163.579441,180.927788 L170,173 C170,173 168.063287,188.805372 166.616694,189.614734 C165.1701,190.421053 142.138962,189.93574 137.821459,188.402213" id="Fill-382" fill="#FFD04F"></path>
                <path d="M136.927243,171.270818 C136.855448,170.852601 136.476999,168.845974 134.474019,169.009447 C132.477124,169.174282 131.804191,171.257196 132.047566,172.50095 C132.294592,173.748791 133.310685,175.215957 134.704009,174.973473 C136.097333,174.732351 137.31421,173.525378 136.927243,171.270818" id="Fill-384" fill="#FFD04F"></path>
                <path d="M148.926506,170.265154 C148.855902,169.851091 148.477318,167.844791 146.478493,168.0096 C144.478451,168.171683 143.80406,170.251534 144.047523,171.497809 C144.294637,172.748171 145.311092,174.213737 146.702478,173.974016 C148.0963,173.730209 149.316046,172.519347 148.926506,170.265154" id="Fill-386" fill="#FFD04F"></path>
                <path d="M172.927969,170.266571 C172.857355,169.853972 172.478718,167.850893 170.475963,168.008852 C168.478077,168.173619 167.802375,170.255677 168.048306,171.501644 C168.295455,172.750334 169.309616,174.211452 170.703632,173.974514 C172.09643,173.729406 173.312693,172.522928 172.927969,170.266571" id="Fill-388" fill="#FFD04F"></path>
                <path d="M155.927365,172.89066 C155.856459,172.54429 155.474188,170.871368 153.474968,171.007904 C151.472665,171.143003 150.802148,172.879162 151.048775,173.91827 C151.295402,174.955942 152.311197,176.180451 153.706181,175.977803 C155.094999,175.776593 156.314261,174.767666 155.927365,172.89066" id="Fill-390" fill="#FFD04F"></path>
                <path d="M164.927227,172.890836 C164.859397,172.545609 164.475537,170.871259 162.477617,171.007911 C160.478155,171.140248 159.802932,172.876452 160.048047,173.917886 C160.294704,174.957882 161.312163,176.180561 162.704233,175.97774 C164.097844,175.776358 165.31417,174.769446 164.927227,172.890836" id="Fill-392" fill="#FFD04F"></path>
            </g>
        </g>
    </g>
</svg>