<?xml version="1.0" encoding="UTF-8"?>
<svg width="295px" height="239px" viewBox="0 0 295 239" version="1.1" xmlns="http://www.w3.org/2000/svg" xmlns:xlink="http://www.w3.org/1999/xlink">
    <title>Group 41</title>
    <g id="切圖" stroke="none" stroke-width="1" fill="none" fill-rule="evenodd" opacity="0.80399529">
        <g id="設計稿--v1-1" transform="translate(-931.000000, -300.000000)">
            <g id="Group-41" transform="translate(1078.500000, 419.500000) scale(-1, 1) translate(-1078.500000, -419.500000) translate(931.000000, 300.000000)">
                <path d="M59.3921679,84.7533615 C59.1846722,84.8971928 58.9412323,84.9844612 58.6732851,84.9973898 C57.8923171,85.0442562 57.2371535,84.4543864 57.1914064,83.6802832 C57.000249,79.9810722 43.29573,23.9806088 38.0413507,2.71620564 C37.8550947,1.97442413 38.3158332,1.21486573 39.0657586,1.04194499 C39.8189517,0.854479509 40.5721447,1.31344671 40.7633022,2.05846038 C41.5377349,5.19042674 59.7581445,78.8142612 59.9983167,83.5461484 C60.0228241,84.0358212 59.7777504,84.486708 59.3921679,84.7533615" id="Fill-33" fill="#15679C"></path>
                <path d="M42.3151162,0 C42.3151162,0 3.33662856,18.8002703 0.262758925,21.5591017 C-2.80785966,24.3034554 21.9960414,24.6509234 24.5497427,26.6987324 C27.1115716,28.7513674 10.7750355,50 10.7750355,50 L52,40.1341613 L42.3151162,0 Z" id="Fill-35" fill="#26D6B6"></path>
                <path d="M58.2053781,73.2202195 C61.3086629,72.052506 123.6067,75.8117383 125.237956,77.8491971 C126.872461,79.8882665 126.347665,168.106206 118.938775,168 C111.528261,167.900044 49.7079017,162.778211 47.4299931,158.748391 C45.148835,154.721793 52.4114965,75.397804 58.2053781,73.2202195" id="Fill-37" fill="#1EAAE0"></path>
                <path d="M87.9441098,166.993874 C87.8538696,166.98421 87.7698529,166.961661 87.687392,166.93267 C87.142839,166.721679 86.8627832,166.090316 87.0666016,165.52982 C91.2783299,153.794843 96.8421055,75.7957381 96.8965608,75.0097555 C96.9385692,74.4073836 97.4411138,73.9580206 98.0245634,74.003118 C98.5753399,74.0466047 99.0420996,74.5684456 98.9969795,75.1692069 C98.7667113,78.3936681 93.3554106,154.265144 89.0378834,166.290033 C88.8698499,166.768387 88.4077578,167.045413 87.9441098,166.993874" id="Fill-39" fill="#15679C"></path>
                <path d="M97.0022493,167.994006 C96.8047656,167.973156 96.61392,167.902587 96.4429888,167.779093 C95.9484497,167.418231 95.8555162,166.736605 96.2272502,166.261871 C104.797048,155.317349 105.747956,77.8524573 105.757914,77.0729969 C105.761233,76.4731653 106.274027,75.9952245 106.891371,76 C107.507055,76.0064513 108.006573,76.4972227 108,77.0938467 C107.965085,80.3143333 107.030771,156.063129 98.0178798,167.570595 C97.7722699,167.884945 97.3806215,168.032498 97.0022493,167.994006" id="Fill-41" fill="#15679C"></path>
                <path d="M91.5187471,61.2320426 C91.1816104,61.1942271 90.549675,61.1235287 90.2344913,62.6279257 C89.1493815,67.779047 96.6479298,72.3728015 100.872332,74.3046774 C100.801768,72.4089728 99.8217194,69.8473874 98.1376038,67.2562074 C95.9893371,63.9547546 93.207567,61.4211198 91.5187471,61.2320426 M101.657939,76.9928623 C101.571694,76.9846416 101.488586,76.9616235 101.405478,76.9303846 C100.789223,76.6903388 86.3221371,70.9144406 88.1614924,62.1494782 C88.8153809,59.0354585 90.8883798,58.9253005 91.7461184,59.0206611 C94.6141328,59.3445586 97.9274813,62.9797738 99.8907148,66.0033652 C101.08559,67.8382364 103.757595,72.5026893 102.794795,76.1822965 C102.722663,76.48482 102.525086,76.7380191 102.256944,76.8777718 C102.070343,76.978065 101.868061,77.0175246 101.657939,76.9928623" id="Fill-43" fill="#15679C"></path>
                <path d="M105.648266,56.2699849 C105.402189,56.2432189 105.107221,56.3184983 104.768253,56.499169 C100.537668,58.7441699 102.520958,69.2180525 103.979499,74.3337103 C106.62443,72.5688251 108.079712,66.6050187 107.753781,61.6198454 C107.519111,58.076692 106.497317,56.363666 105.648266,56.2699849 M103.169561,76.9935846 C102.757258,76.9484169 102.380808,76.6556635 102.242287,76.2223883 C101.653981,74.3939338 96.6900516,58.2439797 103.752977,54.486698 C104.484693,54.1002635 105.196852,53.943013 105.884566,54.0182925 C108.172602,54.2708969 109.657218,56.9843033 109.950556,61.4659407 C110.327007,67.1336478 108.588165,75.6904135 103.55253,76.9668186 C103.427046,77.0000469 103.299933,77.0069676 103.169561,76.9935846" id="Fill-45" fill="#15679C"></path>
                <path d="M105.255612,75.3606661 C105.810081,75.4826953 106.381252,75.5712918 106.974133,75.6364854 C111.478361,76.119587 116.284874,74.8006694 117.483997,72.7579352 C117.759562,72.2932216 118.021766,71.5292858 117.14497,70.2889349 C116.707406,69.6737743 116.179659,69.352821 115.481562,69.2775976 C112.557237,68.9633308 107.894351,72.8064126 105.255612,75.3606661 M106.73364,77.8898452 C105.294024,77.7343835 103.947933,77.4268032 102.735449,76.9754626 C102.37972,76.8467469 102.114176,76.5491964 102.030672,76.1797658 C101.943827,75.8136784 102.044033,75.4241881 102.297886,75.1483689 C103.116229,74.2607323 110.469627,66.4642411 115.722054,67.0292527 C117.074826,67.1746846 118.172074,67.8299643 118.988747,68.9800471 C120.161149,70.6449925 120.321477,72.3935195 119.43132,73.9046747 C117.515729,77.1710435 111.45999,78.3963497 106.73364,77.8898452" id="Fill-47" fill="#15679C"></path>
                <path d="M51.8902492,100.053355 L50,113.996851 C50,113.996851 56.8761745,114.306241 57.877203,108.792009 C58.8625085,103.276166 53.6477267,99.5022537 51.8902492,100.053355" id="Fill-49" fill="#FFB5CE"></path>
                <path d="M126,107.123798 L125.53225,121 C125.53225,121 118.086282,120.351892 118.000718,114.829438 C117.92276,109.305391 124.216466,106.341928 126,107.123798" id="Fill-51" fill="#FFB5CE"></path>
                <path d="M71.3356249,119.980335 C75.0202606,116.957376 83.6028663,121.220981 82.9664443,128.716751 C82.3283692,136.212522 73.9325575,137.03151 70.6066324,135.125943 C67.2707891,133.225242 64.2076981,125.826777 71.3356249,119.980335" id="Fill-53" fill="#FFB5CE"></path>
                <path d="M75,75 C75,75 75.0263221,82.349933 80.4161505,82.9656254 C85.805979,83.5796493 88,75.7641928 88,75.7641928 L75,75 Z" id="Fill-55" fill="#FFB5CE"></path>
                <path d="M83.7260488,95.0041229 C80.7817734,95.1029157 77.6129068,99.1847859 79.642424,101.897669 C81.6686626,104.618393 86.076879,104.659165 87.2719663,102.247365 C88.473611,99.832428 88.7244317,94.8363318 83.7260488,95.0041229" id="Fill-57" fill="#FFB5CE"></path>
                <path d="M113.723255,85.0041975 C110.785361,85.1030067 107.614795,89.1824163 109.640025,91.9004543 C111.665255,94.6169239 116.069638,94.6592708 117.277239,92.2486392 C118.471731,89.8348709 118.722427,84.8348102 113.723255,85.0041975" id="Fill-59" fill="#FFB5CE"></path>
                <path d="M61.635395,85.2910129 C60.2551731,86.9944633 61.1826529,90.791077 63.8441166,90.9885785 C66.4945826,91.1878434 68.6868076,88.7384721 67.799653,86.8692615 C66.9143314,85.0088679 63.9815889,82.3990266 61.635395,85.2910129" id="Fill-61" fill="#FFB5CE"></path>
                <path d="M78.635983,152.291509 C77.2519579,153.997455 78.1886954,157.790408 80.8449239,157.987994 C83.4938197,158.192637 85.6880954,155.738685 84.7990196,153.8722 C83.9154433,152.009243 80.9860761,149.39828 78.635983,152.291509" id="Fill-63" fill="#FFD04F"></path>
                <path d="M114.636198,134.292783 C113.253168,135.992127 114.186805,139.785686 116.837307,139.988409 C119.496981,140.189368 121.687084,137.735543 120.799304,135.872257 C119.917026,134.003682 116.982214,131.400018 114.636198,134.292783" id="Fill-65" fill="#FFB5CE"></path>
                <path d="M112.296857,148.005727 C108.375757,148.139035 104.152779,153.57452 106.854755,157.202409 C109.556731,160.822363 115.428429,160.879495 117.034023,157.66264 C118.629665,154.445785 118.964717,147.777199 112.296857,148.005727" id="Fill-67" fill="#FFD04F"></path>
                <path d="M58.4648466,140.189151 C55.5140576,141.352252 53.9275592,144.848125 55.8228611,149.061902 C57.7230646,153.280607 61.6280401,152.091221 63.0593198,150.783554 C64.4905995,149.47753 65.7503217,145.817376 64.4677252,143.351537 C63.1867625,140.885697 60.298061,139.464677 58.4648466,140.189151" id="Fill-69" fill="#FFB5CE"></path>
                <path d="M238.898305,193 C238.733356,193 238.575071,192.959307 238.42845,192.868154 C237.998582,192.610973 237.87362,192.067311 238.138539,191.647357 C239.418145,189.650133 253.093935,155.53618 258.257345,142.564804 C258.43729,142.110667 258.962128,141.881157 259.421986,142.061835 C259.890176,142.236002 260.116773,142.747109 259.94016,143.202874 C259.178728,145.113828 241.307563,190.03916 239.669734,192.589812 C239.49812,192.853504 239.203211,193 238.898305,193" id="Fill-71" fill="#15679C"></path>
                <path d="M260,141.050388 C260,141.050388 232.653373,136.683667 230.024427,137.018295 C227.402057,137.347952 240.247557,146.682728 240.826287,148.715341 C241.408305,150.754579 225,156.045666 225,156.045666 L250.215849,166 L260,141.050388 Z" id="Fill-73" fill="#FFD04F"></path>
                <path d="M137.627031,103.140006 C140.067891,101.799699 208.08521,110.434366 209.758196,114.034829 C211.427914,117.625626 204.020378,197.728272 200.72342,199.746787 C197.428096,201.750803 128.85856,191.332819 127.213349,187.036428 C125.558335,182.730371 133.96084,105.139189 137.627031,103.140006" id="Fill-75" fill="#1BBEBF"></path>
                <path d="M202.922398,154.967014 C182.704823,154.296245 132.312904,143.994587 130.026944,143.525529 C129.327824,143.38145 128.875835,142.709081 129.030292,142.020702 C129.174993,141.329123 129.85948,140.884078 130.552097,141.026556 C131.15204,141.156228 190.398395,153.263678 206.640741,152.41201 C207.336609,152.367186 207.962566,152.911485 207.998335,153.617472 C208.034104,154.315456 207.48944,154.917386 206.774062,154.949404 C205.663599,155.011838 204.374292,155.01504 202.922398,154.967014" id="Fill-77" fill="#FFD04F"></path>
                <path d="M161.131225,100.146973 C161.610203,101.460933 161.998963,102.592935 162.249934,103.41577 C162.300785,103.383565 162.356556,103.35136 162.402486,103.317545 C165.471555,100.114769 167.041357,88.4920235 165.820947,81.877139 C165.368214,79.3587165 164.656308,78.6276655 164.447985,78.5632557 C164.369249,78.545543 163.914876,78.6566499 163.147199,79.5036385 C158.734693,84.3971717 159.859964,94.4853537 161.131225,100.146973 M150.459196,86.1555587 C150.473959,86.1877636 150.1869,86.4566744 149.898201,87.4985026 C148.102032,94.0876233 155.271943,100.412664 159.312092,103.378734 C159.072603,102.578443 158.808508,101.602635 158.565739,100.477074 C156.403775,94.9990217 152.337381,86.3938749 150.459196,86.1555587 M176.876815,99.6767821 C173.694562,99.5705059 167.700773,102.984224 164.362688,105.138732 C171.281627,105.248228 176.202637,102.866676 177.829851,101.100238 C178.346557,100.546314 178.399047,100.211383 178.387565,100.156635 C178.372802,100.111548 178.157918,99.9118778 177.506704,99.7589045 C177.306583,99.7170382 177.091699,99.683223 176.876815,99.6767821 M150.365696,195.99678 C149.69972,195.974236 149.158409,195.467009 149.105918,194.805199 C148.156163,180.784799 158.432871,115.442686 159.807473,106.853642 C156.607177,104.803801 144.749184,96.4579032 147.377003,86.8383024 C148.23654,83.7240894 149.906402,83.4825528 150.834833,83.6162031 C152.963989,83.9302007 155.362161,87.4695182 157.445389,91.5643701 C157.301039,86.5049818 158.122848,81.2137182 161.193558,77.808051 C162.530432,76.3234056 163.875508,75.7517687 165.15169,76.0979713 C166.751018,76.5391783 167.813956,78.2766322 168.392995,81.4182193 C169.339469,86.5516788 168.853929,94.9378324 166.800228,100.612334 C170.641896,98.4932523 175.228277,96.5931638 178.108708,97.2678562 C180.552809,97.8314418 181.18926,99.393379 180.954692,100.662252 C180.347767,104.085632 172.669352,108.405918 162.322109,107.608847 C160.808079,117.186581 150.800386,181.242109 151.712413,194.634513 C151.763263,195.34141 151.223592,195.954913 150.501844,196 C150.454275,195.99678 150.409986,195.99839 150.365696,195.99678" id="Fill-79" fill="#FFD04F"></path>
                <path d="M148.570633,102.60476 C147.455094,102.566963 146.489911,102.724723 145.815738,103.142131 C145.602331,103.270311 145.550595,103.352478 145.550595,103.357408 C145.624965,103.516811 146.415542,104.387779 148.408961,105.199587 C151.38858,106.412368 155.634093,106.931662 158.992025,105.690944 C155.878218,104.225089 151.616538,102.70829 148.570633,102.60476 M153.965635,108.989118 C151.212357,108.895448 148.499497,108.203604 146.402608,107.150226 C144.228116,106.065624 143.060843,104.755886 143.002641,103.375484 C142.975157,102.80689 143.141679,101.728862 144.485175,100.903908 C149.393545,97.8768837 160.222351,103.370554 161.442977,103.998308 C161.64345,104.103482 161.811589,104.254669 161.931227,104.428862 C162.251338,104.479806 162.563365,104.663859 162.771922,104.96952 C163.169636,105.56112 163.037065,106.376215 162.453428,106.785405 C160.088163,108.464894 156.99699,109.092648 153.965635,108.989118" id="Fill-81" fill="#FFD04F"></path>
                <path d="M199.792547,152.996549 C199.484239,152.967043 199.216622,152.73755 199.143066,152.391671 C198.870754,151.13274 196.56549,139.972832 199.395033,136.650104 C202.216752,133.348686 205.071336,133.0192 205.187147,133.004447 C205.595615,132.958549 205.957133,133.273282 205.996258,133.701122 C206.036949,134.124044 205.741161,134.502707 205.332693,134.546967 C205.313913,134.550245 202.908488,134.858421 200.501498,137.681183 C198.526451,139.99906 199.892708,148.842729 200.582878,152.057268 C200.672084,152.473633 200.423247,152.88672 200.025734,152.978517 C199.949048,152.998188 199.870797,153.004745 199.792547,152.996549" id="Fill-222" fill="#1BBEBF"></path>
                <path d="M187.000862,186.067272 C187.000862,186.067272 186.890136,217.811799 189.178468,219.058939 C191.476427,220.306079 217.216144,221.825982 219.387331,220.465322 C221.560122,219.107815 224.185445,188.749175 223.989669,186.278545 C223.790684,183.811068 187.775942,185.589543 187.000862,186.067272" id="Fill-224" fill="#FFB5CE"></path>
                <path d="M188,186 C188,186 188.425947,219.493363 190.460823,220.365671 C192.497559,221.234688 196,220.958183 196,220.958183 L193.825622,186.02798 L188,186 Z" id="Fill-226" fill="#FB7681"></path>
                <path d="M199.102707,187 C199.102707,187 198.577128,221.621219 199.903832,221.707011 C201.233939,221.792804 205.258275,222 205.258275,222 L207,187.040468 L199.102707,187 Z" id="Fill-228" fill="#FB7681"></path>
                <path d="M209,220.771649 C209,220.771649 212.134501,186.206169 212.137942,185.58102 C212.141383,184.95747 220,185.000639 220,185.000639 C220,185.000639 217.407413,220.072952 215.621677,220.656532 C213.478104,221.355228 209,220.771649 209,220.771649" id="Fill-230" fill="#FB7681"></path>
                <path d="M186.660967,175.095482 C186.660967,175.095482 178.255383,177.532891 180.32905,182.245531 C182.397894,186.958172 185.116165,187.732483 187.283066,187.680014 C189.44836,187.621186 197.49065,187.466959 201.330952,187.764282 C205.176076,188.058424 221.601444,188.22537 224.401698,187.341353 C227.198736,186.458925 231.137095,182.614402 229.690351,180.183354 C228.23557,177.755485 224.339005,174 224.339005,174 L186.660967,175.095482 Z" id="Fill-232" fill="#FFD04F"></path>
                <path d="M195.769661,163 C195.769661,163 189.117814,164.978413 187.428607,170.120024 C186.860767,171.854368 186.73511,174.922201 187.815121,175.856452 C190.848376,178.476556 196.588815,178.369877 205.779243,177.257828 C211.446515,176.572495 218.195388,175.688352 222.881266,175.604301 C225.553457,175.557427 226.391698,167.310807 221.217509,164.892746 C216.046501,162.471453 213.202526,163.630377 211.883927,163.974659 C210.568509,164.315709 197.635423,163.641691 195.769661,163" id="Fill-234" fill="#FB7681"></path>
                <path d="M208.621985,148 C208.621985,148 200.322695,156.031588 197.533897,157.9254 C194.746737,159.820841 194.583075,163.652469 195.499581,164.931851 C196.417724,166.207974 199.039586,169.509922 209.338824,168.932977 C215.168458,168.60539 218.764108,165.774451 218.996508,163.225465 C219.225634,160.676479 208.101541,151.896819 208.621985,148" id="Fill-236" fill="#FFD04F"></path>
                <path d="M198.820863,151.144658 C195.871946,152.020776 195.640455,155.360388 196.312469,156.45475 C196.982756,157.550683 198.468444,159.599669 201.251517,158.831888 C204.038045,158.068817 204.483751,155.041656 203.573336,153.573609 C202.357145,151.612549 200.627874,150.604542 198.820863,151.144658" id="Fill-238" fill="#FB7681"></path>
                <path d="M172.816851,142.228178 C177.096005,147.03119 184.341237,215.390299 179.259863,219.495018 C174.178489,223.598102 18.470111,226.715072 15.2359795,220.433707 C11.9940784,214.157248 3.1482917,151.505498 6.91853147,147.85704 C10.6887712,144.203677 167.331453,136.085818 172.816851,142.228178" id="Fill-278" fill="#FFD04F"></path>
                <path d="M14.0474187,170.893225 C14.1898665,170.338326 14.6264601,169.860778 15.2573007,169.657315 C24.399865,166.682725 171.761278,161.239679 178.028985,161.000904 C179.076069,160.970637 179.954806,161.703775 180,162.65551 C180.028805,163.612289 179.227767,164.405961 178.184382,164.442954 C135.642414,166.005076 23.6709758,170.578782 16.5356317,172.899265 C15.5477464,173.218752 14.4692124,172.752974 14.1140177,171.860092 C13.9845196,171.537243 13.9697198,171.204304 14.0474187,170.893225" id="Fill-280" fill="#FB7681"></path>
                <path d="M101.040903,140.299108 C101.211302,139.583187 101.843269,139.030719 102.622473,139.001297 C103.558842,138.965338 104.347973,139.681259 104.386024,140.604764 C104.414148,141.274918 107.282812,207.696994 111.928262,222.84411 C112.196268,223.728387 111.690033,224.660064 110.798332,224.928126 C109.903322,225.194553 108.957027,224.697658 108.682403,223.811747 C103.916185,208.262538 101.118658,143.492964 101.001198,140.748602 C100.996235,140.588418 101.006161,140.441311 101.040903,140.299108" id="Fill-282" fill="#FB7681"></path>
                <path d="M111.724886,158.000773 C111.770913,157.800249 111.813767,157.612457 111.134461,157.335543 C110.932892,157.259153 110.669423,157.193903 110.259935,157.391244 C108.917196,158.015096 107.526841,160.340216 106.49836,162.541202 C109.445721,161.116847 111.447132,159.203915 111.724886,158.000773 M102.047957,164.976133 C102.062241,164.92998 102.071764,164.887011 102.089223,164.840859 C102.366976,163.970331 104.938179,156.285181 108.877516,154.432724 C110.026622,153.901177 111.229691,153.855025 112.353402,154.318139 C114.389731,155.140923 115.33568,156.791265 114.892862,158.732843 C114.259584,161.482883 110.578955,164.598957 105.934917,166.31614 C105.542888,166.464146 105.131813,166.605785 104.719151,166.726736 C104.592178,166.769706 104.466792,166.799943 104.339819,166.838138 C104.0208,166.99251 103.641468,167.046619 103.262136,166.955906 C102.390784,166.758565 101.840039,165.883264 102.041608,165.007962 C102.043195,164.996822 102.047957,164.987273 102.047957,164.976133" id="Fill-284" fill="#FB7681"></path>
                <path d="M116.600463,175.931451 C116.665631,175.668882 116.683553,175.345359 116.657485,174.970261 C116.312095,170.339356 110.367141,168.854591 107.362895,168.388844 C107.709914,173.157284 112.056622,176.323742 114.658456,176.74729 C116.34142,177.022363 116.522262,176.256536 116.600463,175.931451 M104.114268,166.242967 C104.29348,165.495896 105.00707,164.962943 105.820041,165.002016 C106.37397,165.028586 119.321229,165.736584 119.981055,174.745202 C120.246615,178.360214 117.692028,180.487336 114.098011,179.90437 C109.45153,179.143233 103.21332,173.909044 104.081684,166.419576 C104.088201,166.363311 104.097976,166.302358 104.114268,166.242967" id="Fill-286" fill="#FB7681"></path>
                <path d="M93.0414396,158.339109 C93.2255614,157.466893 94.0088593,156.878105 94.8436488,157.021506 C99.2391668,157.763817 105.132625,162.696817 105.388523,162.907701 C106.0782,163.496489 106.204588,164.579589 105.664706,165.33371 C105.118582,166.086145 104.118395,166.219423 103.419356,165.640758 C101.904252,164.353521 97.319931,160.938887 94.3521372,160.432766 C93.4814595,160.282616 92.8822835,159.401965 93.0195946,158.46564 C93.0242757,158.418401 93.0336378,158.379599 93.0414396,158.339109" id="Fill-288" fill="#FB7681"></path>
                <path d="M89.0410431,172.940707 C89.2170524,172.163533 89.9292381,171.607706 90.7489849,171.640498 C93.7818854,171.786423 100.012288,167.288981 103.226087,164.424587 C103.913826,163.806455 104.971512,163.872039 105.581025,164.563953 C106.193798,165.259147 106.123721,166.324891 105.44087,166.936465 C104.487486,167.787421 95.9624447,175.250914 90.5909025,174.993495 C89.671743,174.954145 88.9579277,174.165493 89.00193,173.242395 C89.0068191,173.139099 89.0198568,173.037444 89.0410431,172.940707" id="Fill-290" fill="#FB7681"></path>
                <path d="M252,197.771731 C252,197.771731 251.327751,226.139069 247.732749,226.798737 C244.140971,227.463232 220.810535,226.383628 219.711077,225.003152 C218.613231,223.621067 214.898933,197.628535 215.002108,196.344596 C215.10367,195.062265 252,197.771731 252,197.771731" id="Fill-314" fill="#1BBEBF"></path>
                <path d="M249,198.312583 C249,198.312583 247.151263,224.719984 245.428533,226.959882 L242,227 L244.59914,198 L249,198.312583 Z" id="Fill-316" fill="#26D6B6"></path>
                <path d="M239,199.700347 C239,199.700347 237.735253,225.477362 238.09823,227 L233.659326,226.848063 C233.659326,226.848063 231.61191,199.927435 232.065631,199.223297 C232.517462,198.520793 239,199.700347 239,199.700347" id="Fill-318" fill="#26D6B6"></path>
                <polygon id="Fill-320" fill="#26D6B6" points="226.370774 198.742826 230 227 224.708309 226.596326 221 198"></polygon>
                <path d="M251.595675,195.583798 C251.595675,195.583798 254.024372,198.899267 252.493895,200.329938 C250.963418,201.748658 216.76896,200.683338 215.560186,199.276568 C214.348227,197.868091 215.166817,194.209466 217.398033,194.03362 C219.630841,193.859481 249.037979,194.359704 251.595675,195.583798" id="Fill-322" fill="#15679C"></path>
                <path d="M233.559662,181 C240.962177,181.004942 253.576456,185.82932 252.979556,194.306534 C252.384243,202.778811 245.802466,196.182315 245.623079,195.575154 C245.443691,194.97622 244.467378,198.7755 240.984402,198.370726 C237.496664,197.962661 236.221901,196.152697 235.888526,196.006255 C235.5615,195.864748 233.805725,198.777145 232.032487,198.981178 C230.259249,199.186855 226.857235,197.671422 225.725347,196.170797 C224.596635,194.665236 225.004622,197.403218 221.882009,198.202893 C220.059558,198.673484 217.521145,198.135431 216.457519,197.222221 C215.390719,196.310658 214.106431,198.606021 212.869768,198.160112 C210.10593,197.169568 213.141231,180.988488 233.559662,181" id="Fill-324" fill="#FFB5CE"></path>
                <path d="M242.319195,187 C242.514349,187 242.713019,186.900594 242.844879,186.71371 C243.085745,186.385669 243.040033,185.904542 242.74994,185.634156 C242.48446,185.391605 240.139099,183.250391 238.788846,183.009828 C238.414362,182.942231 238.068008,183.23051 238.008231,183.653981 C237.950213,184.0695 238.205143,184.465137 238.576111,184.532733 C239.321563,184.665938 241.005863,186.009912 241.88845,186.823057 C242.013278,186.946321 242.166237,187 242.319195,187" id="Fill-326" fill="#15679C"></path>
                <path d="M238.230637,194 C238.496755,194 238.758901,193.869074 238.899903,193.633786 C239.108429,193.278956 238.981328,192.833047 238.609954,192.624324 C237.112544,191.8122 235.682656,190.850176 235.488032,190.516219 C235.376819,190.127234 234.967712,189.920409 234.556619,190.028565 C234.147513,190.132927 233.919128,190.563656 234.026369,190.958333 C234.217021,191.635734 235.50392,192.624324 237.851319,193.903228 C237.96849,193.96964 238.103535,194 238.230637,194" id="Fill-328" fill="#15679C"></path>
                <path d="M222.703138,194 C222.728536,194 222.746678,193.996189 222.770262,193.996189 C224.31955,193.838019 226.396757,191.682718 226.801314,191.257756 C227.069809,190.96619 227.06618,190.497398 226.790429,190.213455 C226.518306,189.9257 226.068395,189.929512 225.796272,190.221078 C224.947247,191.130077 223.403402,192.452605 222.636014,192.526925 C222.247785,192.56885 221.968405,192.929019 222.002874,193.334925 C222.042786,193.714151 222.345749,194 222.703138,194" id="Fill-330" fill="#15679C"></path>
                <path d="M230.433254,189 C230.723841,189 230.969387,188.702425 230.994087,188.304345 C230.999899,188.223546 231.113228,186.315914 230.014809,184.307776 C229.82738,183.970787 229.47577,183.897872 229.225865,184.152091 C228.978866,184.40237 228.925107,184.879278 229.111083,185.222179 C229.942162,186.735672 229.87678,188.117129 229.875327,188.174279 C229.85208,188.594037 230.080191,188.958615 230.388213,188.996059 C230.402742,188.996059 230.420178,189 230.433254,189" id="Fill-332" fill="#15679C"></path>
                <path d="M247.433893,194 C247.721531,194 247.965588,193.702208 247.994643,193.307783 C247.999001,193.228897 248.113766,191.319876 247.012603,189.312248 C246.828108,188.969098 246.479455,188.900073 246.226681,189.148562 C245.976813,189.400994 245.925968,189.882194 246.111917,190.217456 C246.942873,191.743884 246.876048,193.155929 246.873142,193.169734 C246.848446,193.591769 247.070712,193.958585 247.381595,193.996056 C247.399027,194 247.41646,194 247.433893,194" id="Fill-334" fill="#15679C"></path>
                <path d="M216.749111,193 L216.787625,193 C217.193949,192.978988 217.515541,192.660303 217.490507,192.287336 C217.425033,191.026603 218.44373,189.555749 218.840425,189.09348 C219.096544,188.802811 219.036847,188.375563 218.715254,188.14618 C218.391736,187.913294 217.921865,187.964074 217.669597,188.259996 C217.596421,188.340543 215.888322,190.3332 216.00579,192.355626 C216.026973,192.716335 216.354342,193 216.749111,193" id="Fill-336" fill="#15679C"></path>
                <path d="M232.05694,179.894003 C232.112586,179.550628 232.413731,177.875726 234.019292,178.007352 C235.616671,178.138979 236.156768,179.878742 235.962005,180.916495 C235.76888,181.954248 234.955461,183.177041 233.840897,182.978647 C232.726333,182.782161 231.750885,181.773022 232.05694,179.894003" id="Fill-338" fill="#FB7681"></path>
                <path d="M209.05848,192.892959 C209.117377,192.549503 209.415133,190.872292 211.018432,191.007766 C212.616824,191.137517 213.15671,192.87197 212.962024,193.915695 C212.767337,194.949879 211.955872,196.178689 210.843378,195.97834 C209.72434,195.77799 208.747636,194.772427 209.05848,192.892959" id="Fill-340" fill="#FB7681"></path>
                <path d="M221.056929,184.892216 C221.112567,184.548895 221.416944,182.872342 223.017377,183.007763 C224.61781,183.13937 225.157834,184.873142 224.961462,185.912643 C224.771635,186.954051 223.955054,188.178564 222.842279,187.978293 C221.72623,187.781837 220.750915,186.774761 221.056929,184.892216" id="Fill-342" fill="#FB7681"></path>
                <path d="M251.057402,188.893546 C251.116313,188.548385 251.41414,186.874071 253.01455,187.007558 C254.619869,187.137232 255.156612,188.874476 254.961879,189.913771 C254.768783,190.954974 253.955486,192.17543 252.842727,191.979013 C251.726694,191.778782 250.749757,190.773812 251.057402,188.893546" id="Fill-344" fill="#FB7681"></path>
                <path d="M227.057354,193.896659 C227.116219,193.54552 227.418719,191.875701 229.012976,192.007379 C230.617045,192.139056 231.156639,193.875667 230.962058,194.915726 C230.770747,195.951967 229.95645,197.177137 228.842922,196.978667 C227.726125,196.784014 226.749949,195.774489 227.057354,193.896659" id="Fill-346" fill="#FB7681"></path>
                <path d="M239.056733,196.894446 C239.115647,196.549085 239.416766,194.875705 241.017279,195.007362 C242.617791,195.140927 243.157842,196.873457 242.96146,197.917173 C242.771624,198.955165 241.956639,200.180147 240.838899,199.977892 C239.730977,199.779452 238.750704,198.77199 239.056733,196.894446" id="Fill-348" fill="#FB7681"></path>
                <path d="M269.819557,162.401924 C269.819557,162.401924 265.051081,153.824764 258.469989,153.107964 C251.888897,152.389536 247.360668,155.375658 245.191823,158.531206 C242.931851,161.810564 240.446544,166.833049 243.241686,171.837614 C246.035171,176.835663 250.608135,183.19889 261.299925,180.250236 C271.986744,177.30647 269.819557,162.401924 269.819557,162.401924" id="Fill-394" fill="#FFC699"></path>
                <path d="M277.188871,164 C277.216667,164 277.239558,164 277.260814,163.993277 C277.695738,163.956301 278.011303,163.561326 277.972062,163.117609 C277.169251,154.302108 277.569839,144.350423 279.613656,143.641149 C281.933798,142.82935 289.165641,151.643171 293.565571,158.152692 C293.814099,158.520775 294.30952,158.609854 294.661057,158.356062 C295.019134,158.100589 295.107427,157.594685 294.858898,157.233325 C292.978586,154.446652 283.372645,140.634298 279.11006,142.109991 C274.839299,143.592408 276.111371,159.994787 276.40568,163.265515 C276.444922,163.685701 276.788283,164 277.188871,164" id="Fill-396" fill="#FFD04F"></path>
                <path d="M268,162.008432 C268,162.008432 262.509088,152.895373 252.15023,157.115603 C244.139727,160.381336 240.361158,174.003118 254.423569,179.359183 C260.009067,181.485784 262.766755,177.638121 262.766755,177.638121 L268,162.008432 Z" id="Fill-398" fill="#FB7681"></path>
                <path d="M259,164.183965 C259,164.183965 254.229511,157.824815 251.176192,160.786101 C248.267694,163.601861 243.428243,168.24685 257.891426,171 L259,164.183965 Z" id="Fill-400" fill="#FFC699"></path>
                <path d="M259,171.273859 C259,171.273859 250.672951,168.950145 250.081947,170.57959 C249.498973,172.209035 252.185792,176.769206 253.109235,176.958897 C254.034284,177.154278 257.567458,176.864051 259,171.273859" id="Fill-402" fill="#FFC699"></path>
                <path d="M284.323823,162.66476 C284.066941,160.844533 260.438615,163.396404 258.029738,162.874724 C255.614398,162.349814 256.683933,187.821679 269.639526,191.862678 C269.639526,191.862678 270.938478,215.475554 270.539422,216.586748 C270.140365,217.694712 264.29185,224.544385 264.164217,225.849392 C264.034968,227.151169 282.493335,227.40474 283.737356,226.319388 C284.971684,225.227575 275.090601,217.347464 275.108372,216.693346 L274.961352,191.710858 C274.961352,191.710858 288.080121,188.944179 284.323823,162.66476" id="Fill-404" fill="#ABDCF0"></path>
                <path d="M282.974539,170 C282.974539,170 264.764864,170.404571 260.805052,170.033436 C258.087501,169.76595 262.404083,189.273981 271.427763,189.97613 C280.459479,190.678279 283.305595,175.700779 282.974539,170" id="Fill-406" fill="#FFB5CE"></path>
                <path d="M262.567915,162.871707 C262.567915,162.871707 263.808491,160.514786 262.085469,159.6259 C260.362447,158.733349 257.446005,158.066226 258.091685,163 L262.567915,162.871707 Z" id="Fill-408" fill="#FFC699"></path>
                <path d="M51.9810918,184 C51.9810918,184 52.6025354,171.349053 46.7200603,165.75175 C40.8360119,160.169108 39,164.808549 39,164.808549 C39,164.808549 42.4690713,166.466888 44.2578849,169.899228 C46.0388322,173.328309 51.9810918,184 51.9810918,184" id="Fill-410" fill="#15679C"></path>
                <path d="M52.0033278,183 C52.0033278,183 53.2265992,175.243098 56.9354704,172.651877 C60.6490285,170.064008 64.7578454,175.983926 65,176.468313 C65,176.468313 59.6226054,178.198028 58.6524247,178.751135 C57.6775571,179.295861 51.8408499,181.801602 52.0033278,183" id="Fill-412" fill="#15679C"></path>
                <path d="M51.987676,183 C51.987676,183 52.1085336,177.77124 50.0168906,175.157704 C47.9204133,172.539101 42.5188822,174.750554 42,177.935114 C42,177.935114 47.6142406,177.965523 48.1798544,178.563579 C48.7519139,179.170081 52.2326141,182.276928 51.987676,183" id="Fill-414" fill="#15679C"></path>
                <path d="M51.583946,180.215346 C51.583946,180.215346 48.8145548,167.124586 55.3377944,165.312168 C61.8626478,163.49652 65,170.193743 65,170.193743 C65,170.193743 60.5844672,170.964262 58.4977407,171.899548 C55.7331911,173.138518 51.2159849,179.817971 52.784661,185 L51.583946,180.215346 Z" id="Fill-416" fill="#15679C"></path>
                <path d="M53,184.281538 C53,184.281538 49.5711984,177.699407 46.2442883,179.23116 C42.9096592,180.772699 40.703555,186.203161 41.0323865,187.790376 C41.3565865,189.384117 46.8417427,181.270233 53,184.281538" id="Fill-418" fill="#15679C"></path>
                <path d="M52,182.386155 C52,182.386155 57.6043877,177.6477 61.0695864,181.525541 C64.5379803,185.3983 62.2741783,189 62.2741783,189 C62.2741783,189 54.7159233,181.384929 52.2987516,183.234909 L52,182.386155 Z" id="Fill-420" fill="#15679C"></path>
                <path d="M51.7593971,182 C50.1636232,181.925873 27.4360321,233.35167 30.2391992,237.315319 C33.0374912,241.288646 65.9653604,237.491158 68.675901,233.582359 C71.3831917,229.676786 56.3728414,182.190439 51.7593971,182" id="Fill-422" fill="#1EAAE0"></path>
                <path d="M32.0008171,228.082111 C32.0008171,228.082111 60.5439924,226.992504 67.2760385,222 L68,225.662616 C68,225.662616 40.6947192,236.431873 31,231.876547 L32.0008171,228.082111 Z" id="Fill-424" fill="#FFD04F"></path>
                <path d="M35,218 C35,218 59.0332198,217.28277 65,214.535862 L63.7334966,210 C63.7334966,210 42.5383305,214.656224 36.6482112,213.568013 L35,218 Z" id="Fill-426" fill="#FFD04F"></path>
                <path d="M40.4333188,201.876874 C40.4333188,201.876874 54.9521524,203.103772 60.8058464,200 L62,203.972903 C62,203.972903 41.297993,206.943684 39,205.692435 L40.4333188,201.876874 Z" id="Fill-428" fill="#FFD04F"></path>
                <path d="M45.3301542,192.398609 C45.3301542,192.398609 52.8794301,193.411942 56.098434,191 L57,193.572034 C57,193.572034 48.8063111,196.856567 44,195.785179 L45.3301542,192.398609 Z" id="Fill-430" fill="#FFD04F"></path>
            </g>
        </g>
    </g>
</svg>