<?xml version="1.0" encoding="UTF-8"?>
<svg width="15px" height="18px" viewBox="0 0 15 18" version="1.1" xmlns="http://www.w3.org/2000/svg" xmlns:xlink="http://www.w3.org/1999/xlink">
    <title>pin</title>
    <g id="web" stroke="none" stroke-width="1" fill="none" fill-rule="evenodd">
        <g id="設計稿--v2" transform="translate(-981.000000, -4616.000000)" fill-rule="nonzero">
            <g id="pin" transform="translate(981.000000, 4616.000000)">
                <path d="M5.24076901,10.1529002 C3.34194944,12.4084549 1.61781763,14.7946723 0.07110308,17.3152593 C-0.239149662,17.8221568 0.547855094,18.2873534 0.857198004,17.7823093 C2.36206028,15.3284437 4.03524149,13.0043142 5.88402029,10.8080675 C6.26342027,10.3576979 5.62289848,9.69882383 5.24076901,10.1529002" id="Fill-41" fill="#848484"></path>
                <path d="M14.860745,3.42308991 C13.8531495,2.57496221 11.6078403,1.03905896 10.0301578,0.0556944903 C9.67503719,-0.165514216 9.46764675,0.309746411 9.14282977,0.820748183 C8.5178175,1.80411265 7.0547206,4.01523374 6.42307942,4.98604051 C6.03386723,4.90972834 1.39930657,5.07587636 1.0337691,6.77792764 C0.828272638,7.73907464 1.60480303,9.91831849 2.16920805,10.7819018 C3.64840375,13.0461516 9.39567564,16.4850294 10.740399,14.3038535 C11.6087873,12.8954593 11.3436305,8.90983862 11.308592,8.83449242 C12.5330478,7.23869861 13.7451928,5.63227905 14.9346101,4.00750593 C15.0482487,3.85101767 15.0075282,3.54673495 14.860745,3.42308991" id="Fill-43" fill="#7099F5"></path>
            </g>
        </g>
    </g>
</svg>