<?xml version="1.0" encoding="UTF-8"?>
<svg width="25px" height="26px" viewBox="0 0 25 26" version="1.1" xmlns="http://www.w3.org/2000/svg" xmlns:xlink="http://www.w3.org/1999/xlink">
    <title>Group 24</title>
    <defs>
        <polygon id="path-1" points="8.65085781e-13 4.47641924e-13 20.964802 4.47641924e-13 20.964802 16.8561276 8.65085781e-13 16.8561276"></polygon>
    </defs>
    <g id="切圖" stroke="none" stroke-width="1" fill="none" fill-rule="evenodd">
        <g id="設計稿--v1-2" transform="translate(-450.000000, -1251.000000)">
            <g id="Group-8" transform="translate(450.000000, 1246.000000)">
                <g id="Group-24" transform="translate(0.507596, 5.413176)">
                    <g id="Group-6" transform="translate(12.000000, 12.500000) rotate(80.000000) translate(-12.000000, -12.500000) translate(1.000000, 3.000000)">
                        <path d="M21.1703015,10.2996692 C21.1241392,11.7794479 20.5162407,13.1796132 19.4803435,14.192604 L17.8570644,15.7735827 C16.9955582,16.6111074 15.8500493,17.0567045 14.6731957,17.0121448 L3.20480939,16.6051661 C2.71488114,16.5877383 2.33133514,16.1595689 2.34786239,15.6490136 C2.38642595,14.5900767 3.16263643,13.719875 4.17288785,13.6030295 L8.64721123,13.0954448 L1.57887071,5.20718687 C0.997757675,4.53700875 1.04752937,3.50262921 1.6903821,2.89681512 C2.3184173,2.30486406 3.2838362,2.33912553 3.87159812,2.97425001 L7.72719475,7.27693616 C7.14608172,6.60675803 7.19585341,5.5723785 7.83870614,4.96656441 C8.46674134,4.3744153 9.43216025,4.40867677 10.0201121,5.04380125 L10.4484907,5.52187749 C9.86737762,4.85189741 9.91733929,3.81751787 10.5598121,3.21150574 C11.1880372,2.61955467 12.1532662,2.65381614 12.741408,3.28913867 L13.1697866,3.7672149 C12.891673,3.45727733 12.7395084,3.04693186 12.7453974,2.62272336 L12.7455873,2.61341533 C12.753376,2.17257121 12.9340359,1.75410597 13.245204,1.45545685 C13.8783683,0.838948432 14.8711427,0.874200118 15.4627039,1.53427804 L19.7379405,6.30533631 C20.7052591,7.38566186 21.2204532,8.82266318 21.1703015,10.2996692" id="Fill-1" fill="#FFFFFF"></path>
                        <g id="Group-5" transform="translate(0.094420, 0.920772)">
                            <g id="Clip-7" transform="translate(0.000000, 0.143812)">
                                <mask id="mask-2" fill="white">
                                    <use xlink:href="#path-1"></use>
                                </mask>
                                <g id="Clip-4"></g>
                            </g>
                            <path d="M20.8056528,9.86888 C20.6802361,10.31128 20.542375,10.65688 20.3977083,11.01028 C20.2491528,11.36188 20.0990417,11.72508 19.8680417,12.16708 C19.8190417,12.26348 19.7445694,12.39508 19.6489028,12.55128 C19.597375,12.62688 19.5454583,12.71188 19.4832361,12.79788 C19.4519306,12.84048 19.4196528,12.88468 19.3864028,12.92988 C19.3700694,12.95268 19.3531528,12.97548 19.3346806,12.99748 L19.2401806,13.11408 C19.1818472,13.18988 19.1141806,13.25768 19.051375,13.33068 C18.986625,13.40208 18.9164306,13.46868 18.8489583,13.53848 C18.7744861,13.61028 18.699625,13.68228 18.624375,13.75468 C18.4732917,13.89988 18.3208472,14.04628 18.1670417,14.19408 C17.8590417,14.48988 17.5454028,14.79108 17.2272917,15.09708 C16.638125,15.67588 15.8770694,16.08568 15.0407639,16.23508 C14.832125,16.27068 14.620375,16.29508 14.4072639,16.29848 C14.2007639,16.30128 13.964125,16.28948 13.7321528,16.28208 C13.2680139,16.26568 12.8007639,16.24948 12.3317639,16.23288 C11.3937639,16.20008 10.448375,16.16708 9.50531944,16.13408 C7.61940278,16.06828 5.74243056,16.00248 3.95101389,15.93988 C3.50320833,15.92428 3.06065278,15.90888 2.62470833,15.89368 L2.46156944,15.88788 C2.43045833,15.88728 2.414125,15.88528 2.39818056,15.88368 C2.38106944,15.88268 2.36395833,15.88128 2.347625,15.87708 C2.281125,15.86508 2.21734722,15.84108 2.15940278,15.80648 C2.04390278,15.73588 1.95484722,15.62208 1.91168056,15.49468 C1.89009722,15.43128 1.87823611,15.36348 1.880375,15.29668 C1.88581944,15.21588 1.88970833,15.11988 1.90798611,15.03448 C1.93909722,14.85948 1.98984722,14.68888 2.06976389,14.53448 C2.22356944,14.22268 2.46195833,13.96528 2.74079167,13.79668 C2.87845833,13.70828 3.02915278,13.64968 3.18023611,13.60588 C3.25606944,13.58328 3.33306944,13.56928 3.409875,13.55848 C3.48784722,13.54568 3.58934722,13.53708 3.67684722,13.52648 C4.03948611,13.48568 4.39084722,13.44648 4.72976389,13.40848 C5.40779167,13.33228 6.03604167,13.26188 6.60498611,13.19808 C6.91104167,13.16388 7.20115278,13.13128 7.47415278,13.10068 C7.72829167,13.07228 7.97426389,13.04468 8.211875,13.01808 C8.330875,13.00468 8.44754167,12.99168 8.56226389,12.97868 L8.64801389,12.96908 L8.69040278,12.96448 C8.70265278,12.96548 8.69331944,12.95848 8.68884722,12.95328 L8.67426389,12.93728 C8.63556944,12.89468 8.59745833,12.85268 8.55954167,12.81088 C8.099875,12.30508 7.71176389,11.87788 7.40531944,11.54028 C2.35793056,5.98368 1.34876389,4.87268 1.34876389,4.87268 C1.34876389,4.87268 1.31240278,4.83268 1.23559722,4.74808 C1.19729167,4.70588 1.148875,4.65248 1.08976389,4.58728 C1.06079167,4.55528 1.02948611,4.52028 0.995458333,4.48228 C0.971152778,4.44968 0.942763889,4.41708 0.914958333,4.37868 C0.808208333,4.22248 0.696013889,3.99388 0.678513889,3.68668 C0.662569444,3.38548 0.751819444,2.99888 1.05145833,2.69548 C1.19748611,2.54188 1.39445833,2.42088 1.62545833,2.35648 C1.85684722,2.29688 2.12420833,2.29748 2.37990278,2.39588 C2.50745833,2.44348 2.63248611,2.51248 2.743125,2.60848 C2.84054167,2.68828 2.97743056,2.84948 3.10868056,2.99208 C3.37370833,3.28368 3.65331944,3.59168 3.948875,3.91708 C4.53959722,4.56768 5.19254167,5.28668 5.91218056,6.07928 C6.09223611,6.27728 6.27618056,6.48008 6.46459722,6.68748 C6.55870833,6.79108 6.65398611,6.89608 6.75023611,7.00208 L6.78640278,7.04188 L6.79534722,7.05188 C6.35123611,7.47648 7.40668056,6.47988 7.29584722,6.58008 L7.29273611,6.57588 L7.27951389,6.55908 L7.22604167,6.49188 C7.19356944,6.44468 7.16090278,6.39688 7.13368056,6.34588 C6.902875,5.94348 6.91201389,5.37488 7.202125,4.95888 L7.202125,4.95868 C7.31568056,4.78888 7.48756944,4.63388 7.709625,4.52448 C7.93323611,4.42108 8.22081944,4.36728 8.53134722,4.44228 C8.60815278,4.46208 8.68573611,4.48848 8.76254167,4.52408 C8.77031944,4.52948 8.82379167,4.55268 8.87104167,4.58148 L8.94298611,4.62768 C8.96709722,4.64388 8.99295833,4.67308 9.01804167,4.69508 C9.06859722,4.74288 9.11934722,4.79088 9.170875,4.83928 C9.19731944,4.86488 9.22065278,4.88448 9.249625,4.91548 L9.34023611,5.01528 C9.45204167,5.12888 9.62198611,5.36308 9.62490278,5.24748 C9.65270833,5.22088 9.68070833,5.19388 9.70929167,5.16668 C9.736125,5.14048 9.76393056,5.11368 9.79231944,5.08568 L9.83159722,5.04748 C9.82848611,5.05108 9.818375,5.06088 9.82129167,5.05888 C9.81409722,5.06648 9.83743056,5.04528 9.89226389,4.99428 C9.949625,4.94048 10.0079583,4.88588 10.066875,4.83068 L10.082625,4.81608 C10.0892361,4.81728 10.0785417,4.80308 10.0715417,4.79228 L10.0499583,4.75908 L9.96304167,4.62608 C9.93679167,4.58428 9.89868056,4.53128 9.88195833,4.49828 L9.86056944,4.42628 C9.83179167,4.33008 9.80301389,4.23328 9.77404167,4.13548 C9.75731944,4.05228 9.75673611,3.95408 9.75848611,3.90528 C9.75673611,3.87308 9.76140278,3.84088 9.76451389,3.80828 C9.767625,3.74288 9.78356944,3.67808 9.79679167,3.61228 C9.83101389,3.47148 9.89051389,3.33348 9.98306944,3.19508 C10.0767917,3.05908 10.2064861,2.91588 10.3966528,2.80548 C10.492125,2.74908 10.5965417,2.70448 10.740625,2.66808 C11.0297639,2.59848 11.3579861,2.63748 11.6346806,2.79668 C11.703125,2.83768 11.7690417,2.88328 11.8312639,2.93548 C11.8617917,2.96188 11.8888194,2.99108 11.918375,3.01808 C11.9483194,3.04688 11.9868194,3.09208 12.0204583,3.12848 C12.0904583,3.20548 12.1606528,3.28288 12.2312361,3.36048 L12.3372083,3.47728 L12.3638472,3.50648 L12.3673472,3.51028 C11.9226528,3.93788 12.9738194,2.92888 12.865125,3.03228 L12.8645417,3.03148 L12.8631806,3.03008 L12.858125,3.02408 L12.8478194,3.01228 C12.8340139,2.99648 12.8204028,2.98088 12.8077639,2.96388 C12.5983472,2.70128 12.4925694,2.34648 12.5302917,2.00148 C12.5650972,1.65668 12.7402917,1.33328 13.012125,1.11928 L13.012125,1.11928 C13.2917361,0.88768 13.6765417,0.79688 14.0356806,0.86948 C14.2147639,0.90548 14.387625,0.98028 14.5350139,1.09368 C14.6118194,1.15328 14.669375,1.20768 14.7469583,1.29188 L14.9870972,1.55648 C15.6287639,2.26288 16.2766528,2.97628 16.9212361,3.68608 C17.5660139,4.39588 18.2076806,5.10228 18.8367083,5.79508 L19.0721806,6.05408 L19.2541806,6.26408 L19.3152361,6.34168 C19.3550972,6.39368 19.3965139,6.44328 19.4332639,6.49468 C19.7329028,6.90508 19.9283194,7.29728 20.0200972,7.51168 C20.2225139,7.96828 20.348125,8.34108 20.4735417,8.70188 C20.594875,9.06448 20.7097917,9.41868 20.8056528,9.86888 C20.9262083,9.42588 20.9779306,9.02828 20.9619861,8.60968 C20.9421528,8.19248 20.8616528,7.74628 20.6374583,7.22668 C20.5357639,6.98308 20.3162361,6.53768 19.9769306,6.07248 C19.935125,6.01408 19.8886528,5.95768 19.8435417,5.89888 L19.774125,5.81088 L19.5701528,5.57568 L19.3350694,5.31648 C18.7058472,4.62388 18.0641806,3.91748 17.4195972,3.20748 C16.7750139,2.49768 16.1269306,1.78428 15.4854583,1.07768 L15.2449306,0.81308 C15.1619028,0.72148 15.0485417,0.61088 14.937125,0.52748 C14.7092361,0.35348 14.4426528,0.23688 14.167125,0.18168 C13.6166528,0.06868 13.0235972,0.21188 12.5925139,0.56708 C12.1834028,0.88788 11.9039861,1.39588 11.8528472,1.92728 C11.7952917,2.45728 11.9572639,3.00248 12.2790694,3.40588 C12.2989028,3.43148 12.3197083,3.45588 12.3409028,3.48008 L12.3566528,3.49828 L12.364625,3.50728 L12.3667639,3.50968 L12.3675417,3.51068 C12.2600139,3.61548 13.309625,2.60468 12.8647361,3.03208 L12.861625,3.02828 L12.8347917,2.99888 L12.7276528,2.88108 C12.6564861,2.80268 12.5857083,2.72468 12.515125,2.64708 C12.4779861,2.60708 12.4492083,2.57228 12.4052639,2.52828 C12.359375,2.48448 12.3148472,2.43848 12.2674028,2.39768 C12.172125,2.31688 12.0702361,2.24628 11.9642639,2.18388 C11.5362917,1.93848 11.034625,1.87888 10.5897361,1.98548 C10.3672917,2.04068 10.2066806,2.11108 10.0592917,2.19768 C9.76665278,2.36908 9.56929167,2.58488 9.42443056,2.79588 C9.28131944,3.00948 9.19090278,3.22308 9.137625,3.43908 C9.11604167,3.53988 9.09426389,3.63968 9.08745833,3.73968 C9.08298611,3.78968 9.07715278,3.83928 9.07831944,3.88868 C9.07831944,3.92148 9.07870833,3.90288 9.07851389,3.90768 L9.078125,3.90548 C9.078125,3.90548 9.07598611,3.90188 9.07754167,3.90348 L9.079875,3.90628 L9.08045833,3.90648 L9.08084722,3.90668 C9.08084722,3.90668 9.08454167,3.90808 9.04468056,3.88808 C8.92626389,3.83288 8.80668056,3.79208 8.68865278,3.76228 C8.21226389,3.64728 7.77145833,3.72868 7.42651389,3.88948 C7.08195833,4.05748 6.82393056,4.29488 6.64756944,4.55608 C6.20015278,5.19988 6.18848611,6.06548 6.54218056,6.68848 C6.584375,6.76688 6.63395833,6.84088 6.68451389,6.91268 L6.76618056,7.01548 L6.78640278,7.04088 L6.79184722,7.04728 C6.685875,7.15348 7.74034722,6.15588 7.291375,6.57528 L7.28223611,6.56528 L7.24626389,6.52548 C7.14981944,6.41928 7.05434722,6.31448 6.96023611,6.21068 C6.771625,6.00308 6.58748611,5.80028 6.40723611,5.60208 C5.68681944,4.80888 5.03309722,4.08908 4.44159722,3.43788 C4.14584722,3.11248 3.86584722,2.80408 3.60081944,2.51208 C3.46373611,2.36648 3.357375,2.22888 3.171875,2.06848 C3.00154167,1.92228 2.80884722,1.81468 2.61284722,1.74128 C2.21948611,1.59108 1.81095833,1.58908 1.45590278,1.68188 C1.10006944,1.77908 0.796930556,1.96868 0.574097222,2.20128 C0.348541667,2.43188 0.192986111,2.70048 0.105875,2.96528 C0.0177916667,3.23068 -0.00884722222,3.48968 0.00243055556,3.72288 C0.0284861111,4.19268 0.200958333,4.54708 0.366041667,4.78588 C0.408819444,4.84588 0.453541667,4.89888 0.493013889,4.94888 C0.528597222,4.98848 0.561458333,5.02488 0.591402778,5.05848 C0.650708333,5.12368 0.699125,5.17708 0.737625,5.21928 C0.814236111,5.30388 0.850597222,5.34388 0.850597222,5.34388 C0.850597222,5.34388 1.86015278,6.45568 6.90968056,12.01608 C7.01079167,12.12728 7.12531944,12.25348 7.25229167,12.39348 L7.27620833,12.41988 C7.27990278,12.42388 7.27718056,12.42108 7.27815278,12.42188 L7.27795833,12.42188 L7.27776389,12.42148 L7.27718056,12.42108 L7.27834722,12.42048 C7.04384722,12.44668 6.794375,12.47468 6.53129167,12.50408 C5.96215278,12.56768 5.33390278,12.63788 4.65568056,12.71368 C4.31676389,12.75168 3.96540278,12.79088 3.60256944,12.83148 C3.50904167,12.84288 3.42718056,12.84888 3.32198611,12.86508 C3.21504167,12.87988 3.10848611,12.89988 3.00329167,12.93068 C2.79348611,12.99068 2.58465278,13.07428 2.39331944,13.19548 C2.00656944,13.42988 1.67659722,13.78528 1.46309722,14.21768 C1.353625,14.43228 1.28090278,14.66888 1.23793056,14.91188 C1.213625,15.03508 1.206625,15.15348 1.20001389,15.28708 C1.19670833,15.43528 1.22120833,15.58388 1.26904167,15.72508 C1.36451389,16.00748 1.55876389,16.25448 1.81329167,16.40928 C1.94065278,16.48628 2.08240278,16.53988 2.22881944,16.56628 C2.265375,16.57428 2.30231944,16.57848 2.33926389,16.58128 C2.377375,16.58468 2.41529167,16.58748 2.43843056,16.58768 L2.60156944,16.59348 C3.03751389,16.60868 3.479875,16.62428 3.92768056,16.63988 C5.71909722,16.70268 7.59568056,16.76868 9.48179167,16.83488 C10.4246528,16.86788 11.3700417,16.90088 12.3080417,16.93388 C12.7770417,16.95028 13.2440972,16.96648 13.7082361,16.98288 C13.9404028,16.99008 14.1665417,17.00248 14.4214583,16.99948 C14.669375,16.99528 14.9155417,16.96748 15.1578194,16.92588 C16.1269306,16.75528 17.0221528,16.26888 17.6922083,15.60948 C18.0107083,15.30348 18.3241528,15.00208 18.6321528,14.70608 C18.7861528,14.55808 18.9385972,14.41148 19.089875,14.26648 C19.1653194,14.19368 19.2405694,14.12128 19.3154306,14.04928 C19.3922361,13.97008 19.4715694,13.89408 19.544875,13.81348 C19.6164306,13.73108 19.6924583,13.65368 19.7587639,13.56808 L19.8655139,13.43588 C19.8863194,13.41088 19.9055694,13.38508 19.9242361,13.35928 C19.9615694,13.30788 19.998125,13.25788 20.0333194,13.20948 C20.1035139,13.11188 20.1624306,13.01568 20.2201806,12.92968 C20.3280972,12.75248 20.4113194,12.60308 20.4657639,12.49348 C20.7224306,11.99028 20.8322917,11.55108 20.8789583,11.13608 C20.922125,10.71948 20.8966528,10.31928 20.8056528,9.86888" id="Fill-3" fill="#494949"></path>
                        </g>
                    </g>
                </g>
            </g>
        </g>
    </g>
</svg>