<?xml version="1.0" encoding="UTF-8"?>
<svg width="70px" height="48px" viewBox="0 0 70 48" version="1.1" xmlns="http://www.w3.org/2000/svg" xmlns:xlink="http://www.w3.org/1999/xlink">
    <title>deco1</title>
    <g id="Page-1" stroke="none" stroke-width="1" fill="none" fill-rule="evenodd">
        <g id="設計稿-" transform="translate(-1078.000000, -1413.000000)" fill-rule="nonzero">
            <g id="deco1" transform="translate(1078.000000, 1413.000000)">
                <polygon id="Path" fill="#FFDED8" points="17.8805107 0 70 33.9234783 70 48 0 0"></polygon>
                <path d="M58,39.4893752 C58,39.4893752 54.0743813,37.0157781 52.1644809,37.0844891 L49.0705831,41.6503372 L42.6643118,25.424227 L41.8467898,23.362896 L42.1181226,25.5650846 L44.2324035,42.839038 L39.2990813,40.2142766 C37.5759423,41.0250668 35.2960427,45 35.2960427,45 C33.0725239,40.939178 34.1825214,33.8619417 35.1445193,29.6705688 C35.6096611,27.6367222 36.0430887,26.2796793 36.0430887,26.2796793 L36.0148982,20.2949485 L45.4939245,18 L48.3411562,23.3010561 C48.3411562,23.3010561 49.37363,24.3008016 50.7655316,25.8845909 C53.6444775,29.1380583 58.0245629,34.8857361 58,39.4893752 Z" id="Path" fill="#F95F67"></path>
                <path d="M48.5417193,23.3024055 L45.6546687,18 L37.6545371,19.9106529 L36.0430769,20.2955326 L36.0716615,26.2817869 L36.0287846,26.419244 C36.0287846,26.467354 35.9966268,26.5223368 35.9787614,26.5876289 C35.960896,26.652921 35.918019,26.7835052 35.8822882,26.9072165 C35.8465573,27.0309278 35.7858149,27.2508591 35.7286456,27.4467354 L35.6929148,27.5738832 C35.6107339,27.8728522 35.5178338,28.2199313 35.4213605,28.604811 L35.3356066,28.9484536 L35.2498526,29.2920962 C35.2176948,29.4123711 35.1891102,29.5395189 35.1605255,29.6666667 C34.185074,33.8591065 33.059553,40.9381443 35.3141681,45 C35.3141681,45 35.7393649,44.2680412 36.3646543,43.3676976 C34.8853982,39.2199313 35.8894343,33.0584192 36.7719857,29.2783505 L36.7719857,29.2783505 C36.8794876,28.8187138 37.1497975,28.4093194 37.5366253,28.1202749 C37.7688757,27.9450172 37.9868337,27.7766323 38.1833533,27.6151203 C38.8032397,27.1070613 39.4832458,26.6710623 40.209291,26.3161512 C40.8494379,26.0019743 41.5210334,25.7509791 42.2137903,25.5670103 L41.9386629,23.3642612 L42.767618,25.4261168 C44.2692079,25.1065566 45.8252814,25.1065566 47.3268712,25.4261168 C48.5353525,25.6794978 49.7642606,25.8324099 51,25.8831615 C49.5886324,24.3024055 48.5417193,23.3024055 48.5417193,23.3024055 Z" id="Path" fill="#E53546"></path>
                <path d="M59.9327041,17.6803014 C60.2830931,19.1528627 59.4106245,21.5082545 53.8219205,22.3345838 C50.9422372,22.7677819 48.004664,22.5934184 45.195344,21.8225421 C44.5225972,21.6283194 44.1441771,21.4694099 44.1441771,21.4694099 L38.7692103,22.8148436 C38.7692103,22.8148436 35.952083,26.2366946 30.6226668,28.1436085 C25.2932506,30.0505224 23.4256774,28.3837384 23.0612728,26.9147085 C22.6968683,25.4456785 23.1348545,23.1997577 22.6197827,21.1162777 C22.1047109,19.0327978 21.3163358,18.8138558 21.0325207,17.6520509 C20.7487056,16.4902459 22.3219521,14.6186453 25.7767873,13.7675967 C29.2316226,12.9165481 33.3311735,12.8212024 36.8315593,14.9435269 L37.732059,14.7175223 L42.2065261,13.5980932 C42.4201743,13.2376355 42.6541508,12.8898182 42.9073041,12.5563532 C45.0657001,9.69598239 48.3278214,8.11748146 51.4252599,7.34412194 C54.8800952,6.47541673 57.1436079,7.39002913 57.4309269,8.54830274 C57.7182458,9.70657636 57.1225846,10.2715879 57.6376564,12.3585992 C58.1527281,14.4456105 59.5718035,16.2112715 59.9327041,17.6803014 Z" id="Path" fill="#F95F67"></path>
                <path d="M30,28.4159814 C25.1896381,29.8610038 23.4523655,28.3338001 23.1006478,26.9778075 C22.7453773,25.5499063 23.1645965,23.3755243 22.6423489,21.3483839 C22.1201013,19.3212435 21.3207428,19.1157901 21.0329738,17.9892205 C20.7452047,16.8626509 22.340369,15.0478124 25.8433357,14.2225745 C26.1986062,14.1403932 26.525455,14.0650602 26.8771727,14 C23.928428,14.9074193 22.6139273,16.5305013 22.8626166,17.5646168 C23.1539384,18.6911864 23.9497442,18.900064 24.4719917,20.9237802 C24.9942393,22.9474963 24.5643621,25.1218783 24.9302906,26.5395069 C25.2322705,27.7071672 26.5645347,29.0015237 30,28.4159814 Z" id="Path" fill="#E53546"></path>
                <path d="M42.8560038,13 L45,22.2377942 C44.369606,22.0446084 44.0150094,21.8865472 44.0150094,21.8865472 L39.8255159,23 L38,15.1496312 L42.1927767,14.0361784 C42.395102,13.6774697 42.6165433,13.3315057 42.8560038,13 L42.8560038,13 Z" id="Path" fill="#E53546"></path>
                <path d="M41.1672597,14.030243 L39.4430744,14.4408988 L37.7188891,14.8482429 C37.2086417,14.9749481 36.900583,15.4734602 37.0292149,15.9642995 L38.6913296,22.3095945 C38.8232621,22.799625 39.3423411,23.095478 39.8534305,22.9719426 L43.2811109,22.1539427 C43.7913583,22.0272375 44.099417,21.5287253 43.9707851,21.0378861 L42.3397057,14.6925911 C42.2764461,14.4549949 42.1170957,14.2514566 41.8969937,14.1271147 C41.6768918,14.0027729 41.4142303,13.9679047 41.1672597,14.030243 L41.1672597,14.030243 Z" id="Path" fill="#F95F67"></path>
                <path d="M40.7811689,21.7935055 L39.0596152,15.1633131 C38.9248709,14.6510097 39.2482943,14.1308647 39.7829571,14 L39.5623378,14.0519336 L37.753983,14.4777893 C37.2188269,14.6102526 36.8957297,15.1314194 37.0306411,15.6445647 L38.763045,22.2782193 C38.9014181,22.7905191 39.4458368,23.0998169 39.9818761,22.9706675 L42,22.489416 C41.4628532,22.6183433 40.9179254,22.3072083 40.7811689,21.7935055 L40.7811689,21.7935055 Z" id="Path" fill="#E53546"></path>
                <path d="M31.0867675,23 C34.0962775,22.2169811 36.2731563,20.5420933 35.9722054,19.2815383 C35.6712544,18.0209833 32.9994783,17.6171843 30,18.4002032 L30,18.4002032 C30.8812079,18.6878834 31.5552311,19.4381191 31.7774372,20.378617 C31.9996432,21.319115 31.7377339,22.3131714 31.0867675,23 L31.0867675,23 Z" id="Path" fill="#E53546"></path>
                <path d="M51,18.5982726 C47.9893576,19.381032 45.3132311,18.9843871 45.0255475,17.7172295 C44.7378639,16.450072 46.9122167,14.7827594 49.9128236,14 L49.9128236,14 C49.2616123,14.686601 48.9996044,15.680328 49.221894,16.6205143 C49.4441837,17.5607006 50.1184605,18.3106877 51,18.5982726 L51,18.5982726 Z" id="Path" fill="#E53546"></path>
            </g>
        </g>
    </g>
</svg>