<?xml version="1.0" encoding="UTF-8"?>
<svg width="119px" height="130px" viewBox="0 0 119 130" version="1.1" xmlns="http://www.w3.org/2000/svg" xmlns:xlink="http://www.w3.org/1999/xlink">
    <title>Group 155</title>
    <defs>
        <polygon id="path-1" points="0.00265813609 0.031201527 0.178693639 0.031201527 0.178693639 1.15942916 0.00265813609 1.15942916"></polygon>
        <polygon id="path-3" points="0.0737447461 0.0503454642 60.9580392 0.0503454642 60.9580392 38.9396075 0.0737447461 38.9396075"></polygon>
        <polygon id="path-5" points="0.000528099812 0.0211273758 43.3780168 0.0211273758 43.3780168 41.9598485 0.000528099812 41.9598485"></polygon>
    </defs>
    <g id="Page-1" stroke="none" stroke-width="1" fill="none" fill-rule="evenodd">
        <g id="設計稿-" transform="translate(-156.000000, -1431.000000)">
            <g id="Group-154" transform="translate(215.500000, 1496.000000) scale(-1, 1) translate(-215.500000, -1496.000000) translate(156.000000, 1431.000000)">
                <path d="M12.8400842,57.9776416 C12.1181123,59.6402631 11.1480076,61.1633665 9.98577042,62.562411 C9.92491757,62.6357127 9.85894992,62.6877582 9.79075275,62.7231852 C9.61317782,62.8408028 9.37986481,62.8674697 9.13999438,62.7179034 C7.7112637,61.8272041 6.49669836,60.6506412 5.59715147,59.2400024 C4.96055713,58.2414762 3.72422115,56.2324431 4.778392,55.1442544 C6.0250887,53.8571592 7.75310004,55.67231 8.43192417,56.6555059 C8.57172836,56.8580196 8.69920461,57.0673609 8.81828736,57.2810824 C8.87900907,57.0187937 8.95153413,56.7588239 9.03901012,56.5027189 C9.46589816,55.2528543 10.5093148,53.3884922 12.1581125,54.0540045 C13.8400908,54.7330436 13.3909075,56.7089685 12.8400842,57.9776416 M19.5268166,67.7924671 C20.0898367,67.8564934 20.395019,67.0432183 19.9905574,66.6929418 C18.6068106,65.494865 17.9007076,63.8466721 17.4858852,62.1211838 C17.6776242,61.6969616 17.8398547,61.2521272 17.9649703,60.7851349 C19.0701579,56.6649102 17.0127018,52.2499328 13.3415957,50.0779355 C11.0996138,48.7514197 8.46510471,48.5682299 6.06876112,49.6114585 C5.05800039,50.0515263 4.16487978,50.6812251 3.3964813,51.4379459 C2.9778556,51.8156621 2.59018093,52.2160517 2.23857206,52.6137359 C0.811021714,54.2280477 -0.0786890408,56.2039727 0.00550823286,58.3695287 C0.0920661777,60.5980804 1.04118716,62.7520421 2.38676976,64.5224904 C3.79281177,66.3722952 5.58574156,67.5107259 7.9778884,67.5889229 C10.3400023,67.6660894 12.6412633,67.0040553 14.4685539,65.7245608 C15.9136782,66.8789658 17.6511322,67.5795187 19.5268166,67.7924671" id="Fill-1" fill="#FF664F"></path>
                <path d="M12.1581519,54.0540561 C10.5093542,53.3884149 9.46593751,55.2529058 9.03904946,56.5026416 C8.95144233,56.7588755 8.87904841,57.0188453 8.8183267,57.2811339 C8.69924395,57.0672836 8.57176771,56.8580711 8.43196351,56.6554286 C7.75313939,55.6723615 6.02512805,53.8572108 4.7783002,55.1441771 C3.72412935,56.2324946 4.96059648,58.2415277 5.59719082,59.2399251 C6.4967377,60.6505639 7.71130305,61.8272556 9.13990258,62.7179549 C9.37977301,62.8675212 9.61308601,62.8408544 9.79066095,62.7232367 C9.85885812,62.6878097 9.92495691,62.6356354 9.98580977,62.5624626 C11.1479158,61.163418 12.1180205,59.6403146 12.8401236,57.9776932 C13.3909469,56.7088912 13.8401301,54.7330951 12.1581519,54.0540561" id="Fill-3" fill="#F6EFEA"></path>
                <g id="Group-7" transform="translate(85.115312, 127.129604)">
                    <mask id="mask-2" fill="white">
                        <use xlink:href="#path-1"></use>
                    </mask>
                    <g id="Clip-6"></g>
                    <path d="M0.0524761834,0.031201527 C0.0672631657,0.407629528 0.0927883136,0.783799878 0.128875592,1.15945493 C0.0927883136,0.783799878 0.0672631657,0.407629528 0.0524761834,0.031201527" id="Fill-5" fill="#7BA3CA" mask="url(#mask-2)"></path>
                </g>
                <path d="M94.4443048,68.9033291 C94.6289617,69.0858748 94.7699463,69.2935414 94.8684387,69.5255561 C94.9702099,69.1111246 95.0713253,68.6966931 95.1742768,68.2825192 C95.1863425,68.2343385 95.1927687,68.1878325 95.1948671,68.1430012 C95.1220797,68.2400068 95.0184725,68.321038 94.8776191,68.370507 L94.1560406,68.6242932 C94.1869916,68.6522483 94.2183361,68.6793016 94.2475822,68.7100909 C94.3131564,68.7745036 94.3787306,68.8389164 94.4443048,68.9033291" id="Fill-8" fill="#7BA3CA"></path>
                <path d="M82.3783896,103.402698 C82.6221945,103.480508 82.8333434,103.613843 83.0114429,103.802314 L83.2081655,103.995552 C83.4519704,104.236714 83.6206272,104.520903 83.7141361,104.848248 L83.7844316,105.361875 C83.7832513,105.710735 83.6936769,106.035761 83.5158397,106.337084 C83.4132816,106.467584 83.3105924,106.597956 83.2081655,106.728198 C83.030066,106.91667 82.8189171,107.050004 82.574981,107.127815 C82.3406188,107.248782 82.0878959,107.304306 81.8172056,107.294257 C81.546253,107.304306 81.2936612,107.248782 81.0591678,107.127815 C80.8152318,107.050004 80.6043452,106.91667 80.4261145,106.728198 C80.3605403,106.663785 80.2949661,106.599373 80.2293919,106.53496 C79.985587,106.293928 79.8169302,106.00961 79.7234213,105.682264 L79.6531258,105.168637 C79.6543061,104.819778 79.7438805,104.49488 79.9218489,104.193428 C80.0242758,104.062928 80.1268338,103.932557 80.2293919,103.802314 C80.4076226,103.613843 80.6186403,103.480508 80.8624452,103.402698 C81.0969386,103.281731 81.3495304,103.226336 81.620483,103.236255 C81.8911733,103.226336 82.1438962,103.281731 82.3783896,103.402698 M84.8063399,80.6814933 C84.9087668,80.5511219 85.0113249,80.4207506 85.1138829,80.2903792 C85.2921136,80.1019075 85.5031314,79.9688308 85.7470674,79.8908914 C85.9814296,79.7699243 86.2340214,79.7144005 86.504974,79.7244489 C86.7757955,79.7144005 87.0283873,79.7699243 87.2628806,79.8908914 C87.5068167,79.9688308 87.7178344,80.1019075 87.895934,80.2903792 L88.0926566,80.4836174 C88.3365926,80.7247786 88.5051183,81.0089676 88.5986271,81.3363131 L88.6689227,81.8500691 C88.6677423,82.1987996 88.578168,82.5239551 88.4003307,82.8254066 C88.2977727,82.955778 88.1952146,83.0860205 88.0926566,83.2165207 C87.914557,83.4048636 87.7035393,83.5380691 87.4596032,83.6160085 C87.2251099,83.7369756 86.9725181,83.7924994 86.7016966,83.782451 C86.430744,83.7924994 86.1781522,83.7369756 85.94379,83.6160085 C85.699854,83.5380691 85.4888362,83.4048636 85.3106055,83.2165207 L85.1138829,83.0232825 C84.8700781,82.7821213 84.7015524,82.4979323 84.6080436,82.1705868 C84.584568,81.9992489 84.5612236,81.8280399 84.537748,81.6568309 C84.5387972,81.3079715 84.6283716,80.9829449 84.8063399,80.6814933 M75.0178167,111.183369 C74.9236522,111.681666 74.8293565,112.179834 74.7350608,112.678002 C78.6082665,111.129907 82.4813411,109.581811 86.3545468,108.033587 C86.6592046,107.911975 86.790353,107.64389 86.7900907,107.383147 C87.0647154,107.407881 87.3306844,107.272615 87.3853732,106.920019 C88.0042626,102.938024 88.678103,98.9644029 89.4055832,95.0003146 C89.3646649,95.0175772 89.3238778,95.0352263 89.2807299,95.0488818 C89.0463678,95.1699777 88.7936448,95.2253727 88.5229545,95.2153243 C88.2520019,95.2253727 87.9992789,95.1699777 87.7649167,95.0488818 C87.5209807,94.9710712 87.3099629,94.8378657 87.1317322,94.649394 L86.9350096,94.4561558 C86.6913359,94.2151234 86.5226791,93.9309344 86.4291703,93.6034601 C86.4056947,93.4321222 86.3823503,93.261042 86.3590059,93.0897042 C86.3599239,92.7409736 86.4494983,92.4158182 86.6273355,92.1144954 C86.7300247,91.984124 86.8325827,91.8537527 86.9350096,91.7233813 C87.1132403,91.5349097 87.3242581,91.4017041 87.5681941,91.3237647 C87.8025563,91.2027976 88.0552793,91.1474027 88.3262319,91.1573222 C88.5969222,91.1474027 88.8496451,91.2027976 89.0841385,91.3237647 C89.3279434,91.4017041 89.5389611,91.5349097 89.7171918,91.7233813 C89.782766,91.787794 89.8482091,91.8522068 89.9137833,91.9166195 C89.9342424,91.9368451 89.9508983,91.9590031 89.9703082,91.979744 C90.9409376,86.8911382 92.0011412,81.8190221 93.1522308,76.7666163 C93.534266,75.0899529 93.9277112,73.415866 94.3295499,71.7437115 C94.1771555,71.8753712 94.0049577,71.9737938 93.8111203,72.0357589 C93.5767581,72.156726 93.3240352,72.2121209 93.0533449,72.2022014 C92.7823923,72.2121209 92.5296693,72.156726 92.2953071,72.0357589 C92.0513711,71.9578195 91.8403533,71.8246139 91.6622538,71.6361423 L91.4655312,71.4429041 C91.2217263,71.2017428 91.0530694,70.9175539 90.9596918,70.5902084 C90.9360851,70.4189993 90.9127406,70.2477903 90.8893962,70.0765812 C90.8895274,69.9700426 90.8993635,69.8659516 90.9161505,69.7639218 C88.0370497,70.77649 85.1582111,71.7890581 82.2793725,72.8016262 L80.9539868,79.8075414 C78.9752197,90.2662365 76.9965838,100.724803 75.0178167,111.183369" id="Fill-10" fill="#7BA3CA"></path>
                <path d="M46.592227,102.062114 C46.5911778,102.410974 46.5016034,102.735871 46.323635,103.037323 C46.221077,103.167823 46.1186501,103.298195 46.0159609,103.428437 C45.8378614,103.616909 45.6268436,103.750114 45.3829075,103.828054 C45.1485454,103.949021 44.8958224,104.004545 44.6250009,103.994496 C44.3541795,104.004545 44.1014565,103.949021 43.8670943,103.828054 C43.6231583,103.750114 43.4121405,103.616909 43.234041,103.428437 L43.0373184,103.235199 C42.7935135,102.994038 42.6248567,102.709849 42.5313479,102.382503 L42.4610523,101.868876 C42.4622327,101.520017 42.5516759,101.19499 42.7296442,100.893667 C42.8322023,100.763167 42.9347603,100.632796 43.0373184,100.502553 C43.2154179,100.314081 43.4264357,100.180747 43.6703717,100.102937 C43.9048651,99.9819695 44.1574569,99.9264457 44.4282783,99.9364941 C44.6990998,99.9264457 44.9518228,99.9819695 45.1861849,100.102937 C45.430121,100.180747 45.6411388,100.314081 45.8193694,100.502553 C45.8849436,100.566966 45.9503867,100.631379 46.0159609,100.695791 C46.2598969,100.936824 46.4284226,101.221142 46.5219314,101.548487 C46.545407,101.719696 46.5687514,101.890905 46.592227,102.062114 M49.2214901,88.7195322 C49.3240482,88.5891609 49.4266062,88.4587895 49.5291643,88.328547 C49.7072638,88.1400753 49.9182816,88.0068698 50.1622176,87.9289304 C50.3967109,87.8079633 50.6493028,87.7524395 50.9201242,87.7624879 C51.1909456,87.7524395 51.4436686,87.8079633 51.6780308,87.9289304 C51.9219668,88.0068698 52.1329846,88.1400753 52.3112153,88.328547 C52.3767895,88.3929597 52.4422325,88.4573724 52.5078067,88.5217852 C52.7517428,88.7628176 52.9202685,89.0470066 53.0137773,89.3743521 C53.0372528,89.5455611 53.0605973,89.716899 53.0840728,89.888108 C53.0830236,90.2369674 52.9934493,90.561994 52.8154809,90.8634456 C52.7129228,90.993817 52.6104959,91.1241883 52.5078067,91.2544309 C52.3297072,91.4429025 52.1186894,91.576108 51.8747534,91.6540474 C51.6403912,91.7750146 51.3876683,91.8305383 51.1168468,91.8204899 C50.8460254,91.8305383 50.5933024,91.7750146 50.3589402,91.6540474 C50.1150042,91.576108 49.9039864,91.4429025 49.7258869,91.2544309 L49.5291643,91.0611927 C49.2853594,90.8201602 49.1167025,90.5359713 49.0231937,90.2084969 L48.9528982,89.6948698 C48.9540785,89.3460105 49.0435217,89.0209838 49.2214901,88.7195322 M39.0528988,108.838205 C38.9614884,109.281364 38.8700779,109.724524 38.7786675,110.167683 C41.7406541,111.827342 44.7026408,113.487 47.6646274,115.146401 C48.2755167,115.488819 48.8864059,115.831108 49.4972952,116.173269 C49.4205734,116.038904 49.3588025,115.896165 49.3151301,115.742863 C49.2916545,115.571654 49.2683101,115.400445 49.2448345,115.229236 C49.2458837,114.880377 49.3354581,114.55535 49.5134264,114.253898 C49.6159845,114.123527 49.7184114,113.993027 49.8209694,113.862784 C49.9992001,113.674313 50.2102179,113.541107 50.4541539,113.463168 C50.6885161,113.3422 50.9412391,113.286806 51.2120605,113.296854 C51.482882,113.286806 51.735605,113.3422 51.9699672,113.463168 C52.2139032,113.541107 52.424921,113.674313 52.6031516,113.862784 L52.7998742,114.056022 C53.043548,114.297184 53.212336,114.581373 53.3057136,114.908718 L53.3760092,115.422345 C53.3748288,115.771205 53.2853856,116.096231 53.1074172,116.397683 L52.7998742,116.788668 C52.6216436,116.97714 52.4106258,117.110474 52.1666898,117.188414 C51.9878033,117.280781 51.7980316,117.334244 51.5978991,117.350218 C52.8655796,118.060562 54.13326,118.770777 55.4009405,119.48112 C55.4431703,119.504566 55.4850066,119.5217 55.5264495,119.535742 L55.7977955,118.220177 L57.217477,111.336646 C57.8408253,108.314529 58.4641737,105.292541 59.087522,102.270425 C58.9755213,102.291295 58.8606353,102.30173 58.7415526,102.297349 C58.4707311,102.307398 58.2180081,102.252003 57.9836459,102.130907 C57.7398411,102.053096 57.5286921,101.919891 57.3505926,101.731419 L57.15387,101.538181 C56.909934,101.297149 56.7414083,101.012831 56.6478995,100.685356 C56.6244239,100.514147 56.6010795,100.342938 56.5776039,100.171729 C56.5786531,99.82287 56.6682275,99.4979722 56.8461959,99.1965206 C56.9487539,99.0660204 57.051312,98.9356491 57.15387,98.8054065 C57.3319695,98.6169349 57.5431185,98.4837293 57.7869233,98.4057899 C58.0212855,98.2848228 58.2740085,98.229299 58.54483,98.2393474 C58.8157826,98.229299 59.0683744,98.2848228 59.3027366,98.4057899 C59.4977542,98.4681415 59.6708701,98.5673371 59.8237892,98.7002849 C61.1633389,92.2061934 62.5027576,85.711973 63.8421762,79.2177526 C63.7613888,79.2070601 63.6884703,79.1792338 63.6252567,79.1376232 C63.5327971,79.1311819 63.4361407,79.103098 63.3380417,79.0464148 C62.1890506,78.3836078 61.0400594,77.7209296 59.8910683,77.0581226 C59.8606419,77.3249201 59.7761823,77.5771604 59.6361158,77.8144569 C59.5335578,77.9448282 59.4309997,78.0751996 59.3284417,78.205571 C59.1503421,78.3940426 58.9393243,78.5272481 58.6953883,78.6051875 C58.4610261,78.7260258 58.2083032,78.7815496 57.9374817,78.7715012 C57.6665291,78.7815496 57.4139373,78.7260258 57.1795751,78.6051875 C56.9356391,78.5272481 56.7246213,78.3940426 56.5463906,78.205571 L56.349668,78.0123328 C56.1058631,77.7711715 55.9372063,77.4869825 55.8436975,77.159637 C55.8203531,76.988428 55.7970087,76.817219 55.7735331,76.6458811 C55.7745823,76.2971506 55.8641566,75.9719951 56.042125,75.6706723 C56.1445519,75.5401722 56.2472411,75.4099296 56.349668,75.2795582 C56.4060618,75.2199121 56.4669147,75.1677377 56.5299971,75.1191705 C56.176421,74.9152398 55.8227137,74.7113091 55.4691376,74.5072496 C55.0301839,74.2541076 54.5912302,74.0008367 54.1522766,73.7476947 C53.7551592,73.518643 53.3580418,73.2894625 52.9609245,73.0604108 C51.0159937,71.9384699 49.071194,70.8166578 47.1263944,69.6947168 L46.1241583,74.5537556 C43.7670281,85.9818623 41.4098979,97.4100979 39.0528988,108.838205" id="Fill-12" fill="#7BA3CA"></path>
                <path d="M74.6289748,12.8760792 C74.62386,12.876981 74.6187452,12.8778827 74.6136304,12.8787845 C74.5272037,12.8938571 74.4407769,12.909445 74.3547435,12.9263211 C74.3290384,12.9313453 74.3034645,12.9366272 74.2778905,12.9417802 C74.1876604,12.9599446 74.0974303,12.9787531 74.0077248,12.9988499 C73.987528,13.0033587 73.9674623,13.0081253 73.9472654,13.0128918 C73.8524451,13.0345345 73.7578871,13.0568213 73.6638537,13.080654 C73.6500831,13.0841323 73.6363126,13.0879971 73.6226731,13.0914754 C73.5222135,13.1172405 73.4220161,13.1439073 73.3223433,13.1722489 C73.3174908,13.1735372 73.3126383,13.1750831 73.307917,13.1765002 C72.5608957,13.389191 71.8363008,13.6754412 71.14187,14.0355083 C71.1636406,14.1940925 71.1852801,14.3525478 71.2069196,14.511132 C71.2069196,14.5147391 71.2066573,14.5182174 71.2065261,14.5218245 C72.1561717,14.486011 73.1058173,14.4503263 74.0554629,14.4145129 C74.0579547,14.4049798 74.0596596,14.3954467 74.0621514,14.3859136 C74.1939556,13.8675199 74.3855634,13.3595611 74.6289748,12.8760792" id="Fill-14" fill="#F6EFEA"></path>
                <path d="M81.6268437,14.1294221 C81.4814001,13.8013037 81.3139236,13.4684187 81.1094632,13.1723778 C80.8268384,13.1056462 80.5430333,13.0432946 80.2571298,12.9872556 C80.1389651,12.9641958 80.020538,12.9422955 79.9019799,12.9216834 C79.8602747,12.9142115 79.8181761,12.9078991 79.7763397,12.9009425 C79.6994868,12.88806 79.6226338,12.8750486 79.5455185,12.8631966 C79.4954199,12.8554671 79.44519,12.8487682 79.3949602,12.841554 C79.3262384,12.8316344 79.2576478,12.8214572 79.1887949,12.8123106 C79.1335814,12.8050964 79.0781056,12.7987839 79.022761,12.7919562 C78.959154,12.7842266 78.8955471,12.7762395 78.8319401,12.7691541 C78.7733168,12.7627128 78.7145623,12.7571733 78.6559389,12.7513761 C78.5954795,12.7453213 78.5350201,12.7390089 78.4744295,12.7337271 C78.4135767,12.7283164 78.3525927,12.7238075 78.2916087,12.719041 C78.2461002,12.7155627 78.2004605,12.7122132 78.1548209,12.7088637 C77.8492451,12.9614905 77.5959976,13.2791741 77.4274719,13.6058754 C77.3435369,13.7688396 77.2731102,13.9373433 77.2133065,14.1097118 C77.191667,14.1720633 77.1712079,14.2346725 77.1524537,14.2979258 L77.3670124,14.2898098 C78.7869562,14.2363472 80.2068999,14.1828847 81.6268437,14.1294221" id="Fill-16" fill="#F6EFEA"></path>
                <path d="M105.436429,83.7836104 C105.448888,83.7667343 105.46161,83.7501158 105.473938,83.7333685 C105.471446,83.7325955 105.468823,83.7316938 105.4662,83.7309208 C105.456233,83.7484411 105.446397,83.7659613 105.436429,83.7836104" id="Fill-18" fill="#F6EFEA"></path>
                <path d="M69.6511717,85.621705 C69.3803502,85.6317534 69.1276272,85.5762296 68.8932651,85.4552625 C68.649329,85.3774519 68.4383113,85.2442464 68.2602117,85.0557747 L68.0634891,84.8625366 C67.8195531,84.6213753 67.6510274,84.3371863 67.5575186,84.0098408 C67.534043,83.8386318 67.5106986,83.6674227 67.487223,83.4960849 C67.4882722,83.1472255 67.5778466,82.8221989 67.755815,82.5208761 C67.858373,82.3903759 67.9609311,82.2601334 68.0634891,82.129762 C68.2415886,81.9412904 68.4526064,81.8080848 68.6965425,81.7301454 C68.9309046,81.6091783 69.1836276,81.5536546 69.4544491,81.5637029 C69.7252705,81.5536546 69.9779935,81.6091783 70.2123557,81.7301454 C70.4562917,81.8080848 70.6673095,81.9412904 70.845409,82.129762 L71.0421316,82.3230002 C71.2859365,82.5640327 71.4545933,82.8483504 71.5481021,83.1756959 C71.5715777,83.346905 71.5949221,83.518114 71.6183977,83.6893231 C71.6173485,84.0381824 71.5277741,84.3632091 71.3498058,84.6646606 C71.2472477,84.795032 71.1446897,84.9254034 71.0421316,85.0557747 C70.8640321,85.2442464 70.6530143,85.3774519 70.4090783,85.4552625 C70.1747161,85.5762296 69.9219931,85.6317534 69.6511717,85.621705 L69.6511717,85.621705 Z M66.7287918,112.337272 C66.6262338,112.467772 66.5236757,112.598143 66.4212488,112.728515 C66.2430182,112.916857 66.0318692,113.050192 65.7880644,113.128002 C65.553571,113.249098 65.3009792,113.304493 65.0301577,113.294445 C64.7593363,113.304493 64.5066133,113.249098 64.2722511,113.128002 C64.0283151,113.050192 63.8172973,112.916857 63.6390667,112.728515 L63.4423441,112.535276 C63.1985392,112.294115 63.0298823,112.009797 62.9365047,111.682581 C62.9130291,111.511243 62.8895535,111.340034 62.8662091,111.168825 C62.8672583,110.820094 62.9568327,110.494939 63.134801,110.193616 C63.2373591,110.063245 63.339786,109.932744 63.4423441,109.802502 C63.6205747,109.61403 63.8315925,109.480954 64.0755285,109.402885 C64.3098907,109.281918 64.5626137,109.226394 64.8334351,109.236443 C65.1042566,109.226394 65.3568484,109.281918 65.5913418,109.402885 C65.8352778,109.480954 66.0462956,109.61403 66.2245262,109.802502 L66.4212488,109.99574 C66.6649226,110.236773 66.8335794,110.52109 66.9270882,110.848436 C66.9505638,111.019645 66.9739082,111.190854 66.9973838,111.362063 C66.9962034,111.710922 66.9067602,112.036078 66.7287918,112.337272 L66.7287918,112.337272 Z M70.8753108,112.839176 L71.8670551,107.597525 C72.5414201,104.033054 73.2157852,100.468582 73.8901503,96.9041102 C73.7778873,96.9779272 73.6569684,97.0371869 73.52582,97.0790551 C73.2913267,97.2000222 73.0387349,97.255546 72.7679134,97.2454976 C72.497092,97.255546 72.244369,97.2000222 72.0100068,97.0790551 C71.7660708,97.0012446 71.555053,96.8679102 71.3768223,96.6794386 L71.1800997,96.4862004 C70.9362949,96.2451679 70.767638,95.960979 70.6742603,95.6336335 C70.6507848,95.4624244 70.6273092,95.2910865 70.6039648,95.1198775 C70.605014,94.771147 70.6945883,94.4461203 70.8725567,94.1446688 C70.9751148,94.0142974 71.0775417,93.8837972 71.1800997,93.7535547 C71.3583304,93.565083 71.5693482,93.4318775 71.8132842,93.3539381 C72.0476464,93.232971 72.3003694,93.1774472 72.5711908,93.1874956 C72.8420123,93.1774472 73.0946041,93.232971 73.3290974,93.3539381 C73.5730335,93.4318775 73.7840512,93.565083 73.9622819,93.7535547 L74.1590045,93.9467928 C74.2492346,94.0359401 74.325563,94.1332033 74.3952028,94.2342025 C75.6559324,87.5709631 76.9163997,80.9077237 78.1771292,74.2444843 L65.2666183,78.785453 L63.9842492,85.0033428 C61.6920375,96.1162136 59.3999569,107.229213 57.1078763,118.342213 C57.0044002,118.843988 56.9007929,119.346021 56.7973169,119.847796 C61.3957732,118.009843 65.9940985,116.17189 70.5925549,114.333809 L70.8753108,112.839176 Z" id="Fill-20" fill="#7BA3CA"></path>
                <path d="M27.628614,82.5208375 C27.7311721,82.3904661 27.833599,82.2600947 27.936157,82.1297234 C28.1143877,81.9412517 28.3254055,81.8080462 28.5693415,81.7301068 C28.8037037,81.6091397 29.0564267,81.5537447 29.3272481,81.5637931 C29.5980696,81.5537447 29.8506614,81.6091397 30.0851547,81.7301068 C30.3290908,81.8080462 30.5401085,81.9412517 30.7183392,82.1297234 L30.9150618,82.3229616 C31.1587355,82.563994 31.3273924,82.8483118 31.4209012,83.1756573 C31.4443768,83.3468663 31.4677212,83.5180754 31.4911967,83.6892844 C31.4900164,84.0381438 31.4005732,84.3632992 31.2226048,84.664622 C31.1200468,84.7949934 31.0174887,84.9253647 30.9150618,85.0557361 C30.7368311,85.2442077 30.5256822,85.3774133 30.2818773,85.4553527 C30.047384,85.5763198 29.7947922,85.6317147 29.5239707,85.6216664 C29.2531493,85.6317147 29.0004263,85.5763198 28.7660641,85.4553527 C28.5221281,85.3774133 28.3111103,85.2442077 28.1328796,85.0557361 L27.936157,84.8624979 C27.6923522,84.6214655 27.5236953,84.3371477 27.4303176,84.0098022 L27.3600221,83.496175 C27.3610713,83.1473157 27.4506457,82.8221602 27.628614,82.5208375 M31.8795272,96.7843927 C31.9451014,96.8488054 32.0106756,96.9132181 32.0762498,96.9776309 C32.3200546,97.2187921 32.4887115,97.5029811 32.5822203,97.8303266 C32.6055647,98.0015356 32.6289091,98.1728735 32.6523847,98.3440825 C32.6513355,98.6929419 32.5617611,99.0179685 32.3837928,99.3194201 C32.2813659,99.4497915 32.1788078,99.580034 32.0762498,99.7105342 C31.8980191,99.898877 31.6870013,100.032083 31.4430653,100.110022 C31.2087031,100.230989 30.9561113,100.286513 30.6851587,100.276464 C30.4143372,100.286513 30.1616143,100.230989 29.9272521,100.110022 C29.683316,100.032083 29.4722983,99.898877 29.2941987,99.7105342 L29.0974761,99.517296 C28.8536712,99.2761347 28.6850144,98.9919458 28.5915056,98.6644715 L28.52121,98.1508443 C28.5223904,97.8021138 28.6119647,97.4769583 28.789802,97.1755068 C28.89236,97.0452642 28.9949181,96.914764 29.0974761,96.7843927 C29.2757068,96.595921 29.4865934,96.4628443 29.7305295,96.3849049 C29.9650228,96.2639378 30.2176146,96.2085428 30.4884361,96.2184624 C30.7593887,96.2085428 31.0119805,96.2639378 31.2463427,96.3849049 C31.4902787,96.4628443 31.7012965,96.595921 31.8795272,96.7843927 M33.4189471,72.1279721 C33.5215051,71.9974719 33.6240632,71.8672294 33.7266212,71.736858 C33.9047208,71.5483864 34.1158697,71.4151808 34.3596746,71.3372414 C34.5941679,71.2162743 34.8468909,71.1607506 35.1177123,71.1707989 C35.3885338,71.1607506 35.6411256,71.2162743 35.875619,71.3372414 C36.1194238,71.4151808 36.3305728,71.5483864 36.5086723,71.736858 L36.7053949,71.9300962 C36.9491998,72.1712575 37.1178566,72.4554465 37.2113654,72.782792 C37.2347098,72.954001 37.2581854,73.12521 37.281661,73.2964191 C37.2804806,73.6452784 37.1910374,73.9703051 37.013069,74.2717566 C36.9103798,74.402128 36.8079529,74.5324994 36.7053949,74.6628708 C36.5272954,74.8513424 36.3161464,74.9845479 36.0723416,75.0623585 C35.8378482,75.1833256 35.5851252,75.2388494 35.3144349,75.228801 C35.0434823,75.2388494 34.7908905,75.1833256 34.5563972,75.0623585 C34.3125923,74.9845479 34.1014434,74.8513424 33.9233438,74.6628708 L33.7266212,74.4696326 C33.4828164,74.2284713 33.3141595,73.9442823 33.2206507,73.6169368 C33.1973063,73.4457278 33.1738307,73.2745187 33.1504863,73.1031809 C33.1515355,72.7544504 33.2409787,72.4292949 33.4189471,72.1279721 M34.5360692,107.790725 L34.8104316,106.461117 L36.1368666,100.029893 C38.3901272,89.1048492 40.6435191,78.1799347 42.8967798,67.2550202 C42.8314679,67.2174032 42.766156,67.1796573 42.7009752,67.1420403 L34.9169241,62.6518288 C34.8245957,62.7693176 34.7322672,62.8866776 34.6398076,63.0041664 C34.461708,63.1926381 34.2505591,63.3258436 34.0067542,63.4036542 C33.7722609,63.5246213 33.5195379,63.5801451 33.2488476,63.5700967 C32.9780262,63.5801451 32.7253032,63.5246213 32.4908099,63.4036542 C32.247005,63.3258436 32.0358561,63.1926381 31.8577565,63.0041664 L31.6610339,62.8109282 C31.417229,62.569767 31.2485722,62.285578 31.1550634,61.9582325 C31.131719,61.7870234 31.1082434,61.6158144 31.084899,61.4446054 C31.085817,61.1325901 31.1580798,60.8397698 31.300507,60.5657581 C31.2650969,60.5452748 31.2295557,60.5247916 31.1940145,60.5043083 C31.0072591,60.3964814 30.8205038,60.2887833 30.6337485,60.1810852 C29.8606287,59.7350915 29.0875088,59.2890977 28.314389,58.843104 C28.2229786,58.7904144 28.1316993,58.7378536 28.04042,58.685164 C27.8204841,58.5582709 27.7278934,58.3681245 27.7250081,58.1761746 C27.5558267,58.0990081 27.4384488,57.9401663 27.3878256,57.760326 C27.2644149,57.83337 27.1671028,57.9575578 27.1267091,58.1425511 C26.3886059,61.5217718 25.6769947,64.906532 24.9893836,68.2958011 C25.0004001,68.3012118 25.0120723,68.3048189 25.0230887,68.310616 C25.2670248,68.3885554 25.4780425,68.521761 25.6561421,68.7101038 C25.7217163,68.7745165 25.7872905,68.8389293 25.8528647,68.903342 C26.0966696,69.1445033 26.2653264,69.4286922 26.3588352,69.7560377 C26.3823108,69.9272468 26.4056552,70.0985846 26.4291308,70.2697937 C26.4279504,70.6185242 26.3385072,70.9436797 26.1605388,71.2451312 C26.0579808,71.3753738 25.9554227,71.5057451 25.8528647,71.6361165 C25.6747651,71.8245882 25.4636162,71.9577937 25.2198113,72.0357331 C24.985318,72.1567002 24.732595,72.2120952 24.4619047,72.2021756 C24.3758714,72.2052674 24.2923298,72.1994703 24.2099687,72.1894219 C23.6750143,74.9057067 23.1556667,77.6250834 22.6525814,80.3471655 C22.6470732,80.3774394 22.6413026,80.4077134 22.6357944,80.4379874 C22.3320547,82.0830886 22.0322494,83.7288338 21.7404443,85.3759962 C21.5021476,86.7210628 21.2675231,88.0667736 21.0372265,89.4132574 C20.9594555,89.8677536 20.8845698,90.3226363 20.8081103,90.7772614 C20.8435203,90.7763596 20.878537,90.7733966 20.9146028,90.7748137 C21.1855554,90.7647653 21.4381472,90.8201602 21.6725094,90.9411273 C21.9164454,91.0190667 22.1274632,91.1522723 22.3056939,91.3407439 L22.5024165,91.5339821 C22.7462213,91.7750146 22.9148782,92.0593324 23.008387,92.3866779 C23.0317314,92.5578869 23.0550758,92.7290959 23.0785514,92.900305 C23.0775022,93.2491643 22.9879279,93.574191 22.8099595,93.8756425 C22.7075326,94.0060139 22.6049745,94.1365141 22.5024165,94.2667566 C22.3241858,94.4552283 22.113168,94.588305 21.869232,94.6663732 C21.6348698,94.7873403 21.382278,94.8428641 21.1113254,94.8328157 C20.8405039,94.8428641 20.587781,94.7873403 20.3534188,94.6663732 C20.2921725,94.6466629 20.2328934,94.6236032 20.1757127,94.5970651 C20.108827,95.0080184 20.0408921,95.4188428 19.974531,95.8299248 C19.8412843,96.6547942 19.7062014,97.479406 19.5758399,98.3046619 C19.529938,98.5958075 19.6635782,98.8269204 19.8593827,98.9664383 C19.758005,99.2280829 19.8123005,99.5411287 20.132696,99.7205826 C20.3403039,99.8370408 20.548043,99.9533702 20.7557821,100.0697 C21.514869,100.495081 22.2740871,100.920463 23.0333052,101.345716 C26.8675599,103.494138 30.7019457,105.642431 34.5360692,107.790725" id="Fill-22" fill="#7BA3CA"></path>
                <path d="M60.3929732,68.1032715 C60.4012356,68.1518387 60.4066127,68.1996329 60.4085799,68.2488442 C60.4421539,68.2117425 60.4993346,68.4545785 60.5022198,68.4679763 C60.5234659,68.5675584 60.5388102,68.6684288 60.5563841,68.768655 L60.6615652,69.370914 C60.7180901,69.6947812 60.7911398,70.0800982 60.5188757,70.3258972 C60.4369079,70.399843 60.3351368,70.4067995 60.236382,70.3617106 C59.888183,70.2023535 59.8548713,69.7773583 59.8063464,69.4449886 C59.7465428,69.0349372 59.6519848,68.6144509 59.6721816,68.1991176 C59.6911981,67.8122547 60.3212351,67.6860058 60.3929732,68.1032715 M60.3906126,73.4115246 C60.339727,73.4428292 60.2536936,73.4484975 60.2034638,73.4115246 C59.8745436,73.1693328 59.9100848,72.8341289 59.9280521,72.4592468 C59.9430031,72.1460721 59.8765108,71.6003675 60.2290377,71.4496417 C60.7169098,71.2409444 60.7296312,71.9381478 60.7288443,72.2144784 C60.7276639,72.6311 60.7955988,73.1617321 60.3906126,73.4115246 M61.6854407,70.2677969 C61.9789508,70.1834162 62.3545599,70.1577799 62.6438732,70.2668951 C62.9714819,70.3904387 63.0480726,70.9083171 62.6438732,70.9990102 C62.3942978,71.0549204 62.1329191,71.043455 61.8786223,71.0335354 C61.642424,71.02426 61.4053077,71.0215546 61.2636675,70.8127286 C61.0774367,70.5384592 61.4804558,70.3267989 61.6854407,70.2677969 M59.7580838,70.9066423 C59.4193275,71.0841638 59.0737515,71.1240997 58.6989293,71.0635517 C58.3807633,71.0122792 58.0034494,70.9494124 57.8919732,70.6140797 C57.7692183,70.2449948 58.3487631,70.1934646 58.5683055,70.1955258 C58.992964,70.1993905 59.387065,70.2582638 59.7580838,70.4714699 C59.9193963,70.5642243 59.9301505,70.8165933 59.7580838,70.9066423 M82.703677,65.5292099 C83.1282043,65.5330747 83.5223053,65.5919479 83.8933241,65.805154 C84.0546366,65.8979084 84.0653908,66.1502774 83.8933241,66.2404553 C83.5545678,66.4178479 83.2089918,66.4577838 82.8340385,66.3972359 C82.5160036,66.3458345 82.1386896,66.2830965 82.0272135,65.9477638 C81.9044586,65.5786789 82.4840034,65.5270199 82.703677,65.5292099 M83.8075531,63.5326729 C83.8264384,63.1459388 84.4564753,63.0196899 84.5282135,63.4369556 C84.536607,63.4855228 84.5419841,63.533317 84.543689,63.5825283 C84.5773942,63.5454266 84.6345749,63.7881338 84.637329,63.8015316 C84.658575,63.9011137 84.6741817,64.0021129 84.6916244,64.1023391 L84.7968054,64.7047269 C84.8534616,65.0284653 84.9262489,65.4137823 84.654116,65.6595813 C84.5721482,65.7333982 84.4703771,65.7404836 84.3716223,65.6953947 C84.0235545,65.5360376 83.9901116,65.1110424 83.9415867,64.7785439 C83.8817831,64.3686213 83.7872251,63.948135 83.8075531,63.5326729 M84.5258529,68.7450799 C84.4749673,68.7765133 84.3889339,68.7821816 84.3387041,68.7450799 C84.0097839,68.5030169 84.0453251,68.167813 84.0632924,67.7928021 C84.0782434,67.479885 84.0117511,66.9340516 84.364278,66.7831969 C84.8522812,66.5746285 84.8650026,67.2718319 84.8640846,67.5481625 C84.8629042,67.9647841 84.9308391,68.4952873 84.5258529,68.7450799 M85.8208122,65.601481 C86.1141911,65.5171003 86.489669,65.491464 86.7791135,65.6005792 C87.1067222,65.7241228 87.1831818,66.2420012 86.7791135,66.3325655 C86.5295381,66.3884757 86.2681594,66.3771391 86.0137315,66.3670907 C85.7777955,66.3579441 85.540548,66.3553676 85.3989078,66.1465415 C85.212677,65.8721433 85.6156961,65.660483 85.8208122,65.601481 M27.5985286,58.1761102 C27.6014139,58.3681889 27.6940046,58.5582065 27.9139405,58.6850996 C28.0052198,58.7377892 28.0966302,58.7904788 28.1879095,58.8431684 L30.507269,60.1810208 C30.6940243,60.2888477 30.8807796,60.3965458 31.067535,60.5042439 C31.1030762,60.5247272 31.1386174,60.5452104 31.1741586,60.5656937 L31.760392,60.9038605 C32.7703658,61.4865381 33.7804708,62.0692156 34.7904446,62.6518932 C37.3850846,64.1485874 39.9798557,65.6452816 42.5744957,67.1419759 C42.6398076,67.1797217 42.7049883,67.2173387 42.7703002,67.2549558 C43.1682045,67.4843939 43.5658464,67.7139609 43.9637507,67.9433991 C44.5780498,68.2976691 45.1923489,68.6520679 45.806648,69.0064668 C46.20429,69.2359049 46.6021942,69.4653431 46.9998362,69.6947812 C48.944767,70.8165933 50.8895666,71.9385343 52.8343663,73.0603464 C53.2316148,73.2895269 53.6287321,73.5185786 54.0258495,73.7476303 C54.4648032,74.0009011 54.9037569,74.2540431 55.3427106,74.507314 C55.6962867,74.7112447 56.0498628,74.9151754 56.40357,75.119235 C57.5239708,75.7655523 58.6443716,76.4118696 59.7646412,77.0580582 C60.9136324,77.7208652 62.0626235,78.3836722 63.2116147,79.0464792 C63.3097137,79.1030335 63.40637,79.1311175 63.4988297,79.1375588 C63.5620432,79.1791694 63.6349617,79.2069957 63.7157491,79.2176882 C62.3763305,85.7119086 61.0367807,92.206129 59.6973621,98.7003493 C59.4519834,99.890439 59.2064736,101.0804 58.961095,102.270489 C58.3377466,105.292606 57.7143983,108.314594 57.0910499,111.33671 L55.6713685,118.220112 L55.4000224,119.535678 C55.4949739,119.567755 55.5875647,119.577031 55.6743849,119.565823 C55.7631724,119.872299 56.0410758,120.099547 56.4284882,119.944699 C56.5094068,119.912492 56.590063,119.880157 56.6708504,119.847822 C56.7744577,119.346047 56.8779338,118.844014 56.9814099,118.342239 C59.2734905,107.229239 61.5655711,96.1162394 63.8576517,85.0033685 L65.1401519,78.78535 L78.0506628,74.2445101 C78.5259446,74.0772946 79.0013576,73.910208 79.4766394,73.7429925 C79.893429,73.5963892 80.3102186,73.4497858 80.7270083,73.3031824 C81.2022901,73.135967 81.6775719,72.9688803 82.1529848,72.8016649 C85.0318234,71.7890968 87.9106619,70.7765286 90.7896316,69.7639605 C91.7182935,69.4372591 92.6468242,69.1106866 93.575486,68.784114 C93.7268312,68.7309091 93.8781765,68.6775754 94.0296529,68.6243704 C94.2701791,68.5397321 94.5107052,68.4550938 94.7511003,68.3705843 C94.8919536,68.3209865 94.995692,68.2400841 95.0683482,68.1429497 C95.3027104,67.8300326 95.2035622,67.3446183 94.8970684,67.1611708 C94.8509042,67.0425226 94.7615921,66.9337939 94.6175912,66.8522474 L76.6746538,56.685986 C72.8217761,59.818506 69.6797227,63.7489708 67.4806263,68.1805667 C67.1105255,68.9264662 65.9798951,68.2725481 66.3481598,67.5302558 C68.5431906,63.1071624 71.6695062,59.1806911 75.4713672,56.0042417 L70.3403172,53.0970375 C70.356055,53.1681491 70.3648419,53.2402914 70.3648419,53.3115319 L70.3648419,53.4527246 C70.3648419,53.7394901 70.2427428,53.994178 70.0490366,54.2012005 C69.8548058,54.4091248 69.5657547,54.499045 69.2870644,54.5114122 C69.0186036,54.5231353 68.7118475,54.3849056 68.524961,54.2012005 C68.3295499,54.0092506 68.2092868,53.7241598 68.2092868,53.4527246 L68.2092868,53.3115319 C68.2092868,53.0247664 68.331386,52.7700785 68.524961,52.5629271 C68.6405027,52.4392547 68.7898808,52.3582235 68.9504064,52.3095274 L67.8025956,51.6592165 L63.3019759,49.1091165 C63.4660426,53.3613873 63.2644675,57.6289884 62.685185,61.8542059 C62.572922,62.6732782 61.3093071,62.3223577 61.420521,61.5117878 C61.9144258,57.9087973 62.1195419,54.266515 62.0525251,50.6319623 C62.0384922,49.8729226 62.0114756,49.1142695 61.9733115,48.3562605 L60.2219557,47.3640468 C60.1782833,47.3393123 60.134742,47.3199884 60.0918565,47.3056888 C59.9617573,47.2624035 59.8366417,47.2648512 59.7242475,47.2995052 C59.5873286,47.1982484 59.4034585,47.1562513 59.1853587,47.223627 L58.7301426,47.3641756 C56.3480942,48.0998978 53.9659147,48.83562 51.5837351,49.5713422 C50.9529113,49.7662552 50.3219563,49.9610393 49.6911325,50.1559522 L46.5628497,51.1221431 C46.8831141,54.1114092 46.9816066,57.123735 46.8524254,60.1276871 C46.8168842,60.9550042 45.505269,60.9566789 45.5409414,60.1276871 C45.6457289,57.6923705 45.6061221,55.2531892 45.4130717,52.8227681 C45.3783174,52.3861786 45.3373991,51.9499756 45.2928086,51.5144167 C44.3662451,51.800538 43.4396817,52.0866594 42.5132494,52.3729096 C37.5719711,53.898976 32.6306927,55.4250424 27.6895456,56.9512377 C27.2873134,57.0754254 27.1737389,57.4492769 27.261346,57.7603904 C27.3119693,57.9401019 27.4294783,58.0990725 27.5985286,58.1761102" id="Fill-24" fill="#1A3134"></path>
                <path d="M75.3554189,41.9171001 C75.457977,41.7867287 75.5604039,41.6563574 75.6630931,41.525986 C75.8411926,41.3375143 76.0522104,41.2043088 76.2961464,41.1264982 C76.5305086,41.0054023 76.7832316,40.9500073 77.054053,40.9600557 C77.3248745,40.9500073 77.5775974,41.0054023 77.8119596,41.1264982 C78.0558957,41.2043088 78.2669134,41.3375143 78.4451441,41.525986 L78.6418667,41.7192242 C78.8855404,41.9602566 79.0543284,42.2445744 79.1478372,42.5719199 C79.1711817,42.743129 79.1945261,42.9144668 79.2180016,43.0856759 C79.2169525,43.4344064 79.1273781,43.7595619 78.9494097,44.0610134 C78.8468517,44.191256 78.7442936,44.3217562 78.6418667,44.4519987 C78.463636,44.6404704 78.2526183,44.7736759 78.0086822,44.8516153 C77.77432,44.9725824 77.5215971,45.0279774 77.2507756,45.0180578 C76.9799542,45.0279774 76.7272312,44.9725824 76.492869,44.8516153 C76.248933,44.7736759 76.0379152,44.6404704 75.8596845,44.4519987 C75.7941103,44.387586 75.7285361,44.3231732 75.6630931,44.2587605 C75.419157,44.0177281 75.2506313,43.7335391 75.1571225,43.4060648 C75.133647,43.2348557 75.1103026,43.0636467 75.086827,42.8924377 C75.0878762,42.5435783 75.1774505,42.2184228 75.3554189,41.9171001 M69.7135458,41.049203 C69.5343971,41.4417341 69.3562976,41.8347806 69.1822637,42.2296307 C69.1698046,42.2578434 69.1559028,42.2834797 69.1413454,42.3079565 C70.8037825,43.9265197 72.4874657,45.524213 74.1946244,47.0976872 C76.3573927,49.0912613 78.5559645,51.0472183 80.7866677,52.9672329 C80.9837837,53.1370249 81.2100147,53.1654953 81.4087045,53.1079103 C81.3983438,53.285303 81.4514589,53.4599903 81.567263,53.5795404 C81.7225427,53.1995053 81.8786093,52.8197278 82.0369054,52.4408521 C83.3094383,49.3952893 84.6799391,46.390049 86.1443422,43.4286092 C86.2168672,43.281877 86.2907038,43.1356601 86.3636223,42.9890568 C84.1397388,41.0512642 81.9356588,39.0918289 79.7542675,37.1081744 C77.9368129,35.455859 76.1354896,33.7865387 74.3487238,32.1022746 C74.3033464,32.1804717 74.2569199,32.2580246 74.2115426,32.3362216 C72.5711384,35.1684494 71.0704072,38.0756536 69.7135458,41.049203" id="Fill-26" fill="#7BA3CA"></path>
                <path d="M106.839612,45.1189925 C106.94217,44.9886212 107.044728,44.8582498 107.147286,44.7278784 C107.325386,44.5394068 107.536404,44.4063301 107.780471,44.3283907 C108.014833,44.2074236 108.267425,44.1518998 108.538246,44.1619482 C108.809199,44.1518998 109.061791,44.2074236 109.296153,44.3283907 C109.540089,44.4063301 109.751107,44.5394068 109.929338,44.7278784 L110.12606,44.9211166 C110.369865,45.1622779 110.538522,45.4464669 110.6319,45.7738124 C110.655375,45.9451502 110.678851,46.1163593 110.702195,46.2875683 C110.701146,46.6362988 110.611703,46.9614543 110.433603,47.2629059 C110.331176,47.3932773 110.228618,47.5236486 110.12606,47.65402 C109.947829,47.8423628 109.736812,47.9755683 109.492876,48.0535077 C109.258513,48.1744749 109.005922,48.2299986 108.734969,48.2199502 C108.464148,48.2299986 108.211556,48.1744749 107.977194,48.0535077 C107.733126,47.9755683 107.522109,47.8423628 107.344009,47.65402 L107.147286,47.4607818 C106.90335,47.2196205 106.734825,46.9354316 106.641316,46.6080861 C106.617972,46.4367482 106.594496,46.2655392 106.57102,46.0943301 C106.572201,45.7454708 106.661775,45.4204441 106.839612,45.1189925 M99.5603515,50.6647999 C99.3864487,51.111953 99.2124148,51.5589774 99.0383808,52.0060018 C103.790412,51.5244522 108.542312,51.0427738 113.294474,50.5612242 C113.623263,50.7088582 114.100119,50.6269252 114.273366,50.1978076 L118.222769,40.4128696 C118.227884,40.4002447 118.230638,40.3882639 118.234966,40.3758967 L103.021095,41.7737818 C102.934538,41.9961345 102.84798,42.2183584 102.761422,42.4407112 C101.694529,45.182117 100.627375,47.9235229 99.5603515,50.6647999" id="Fill-28" fill="#7BA3CA"></path>
                <path d="M67.090827,23.2572214 C67.0858434,23.220635 67.0807286,23.1840486 67.0757449,23.1473333 C67.0769253,22.7986028 67.1664996,22.4735761 67.344468,22.1721245 C67.4468949,22.0417532 67.549453,21.9113818 67.652011,21.7810104 C67.8302417,21.5925388 68.0412595,21.4593333 68.2850643,21.3813939 C68.5195577,21.2604268 68.7721495,21.2050318 69.042971,21.2149514 C69.3139236,21.2050318 69.5665154,21.2604268 69.8010087,21.3813939 C70.0448136,21.4593333 70.2558314,21.5925388 70.434062,21.7810104 L70.6307846,21.9742486 C70.8745895,22.2154099 71.0432464,22.4995989 71.1367552,22.8269444 C71.1600996,22.9981534 71.1835752,23.1693625 71.2069196,23.3405715 C71.2058704,23.6894308 71.116296,24.0144575 70.9383277,24.3159091 C70.8359007,24.4462804 70.7333427,24.5766518 70.6307846,24.7070232 C70.452554,24.8954948 70.2415362,25.0285715 69.9977313,25.1065109 C69.763238,25.2276069 69.5106462,25.2831306 69.2396936,25.2729534 C69.2016605,25.2743705 69.1646767,25.2715363 69.1272994,25.2702481 C70.5768827,26.6922235 72.0352529,28.1051812 73.5051642,29.5066734 C76.316199,28.5900803 79.1610701,27.7810563 82.0338758,27.0799882 C80.0115675,26.0665183 78.1735227,24.6951712 76.7079393,23.0073 C74.6729095,20.6635784 73.2781463,17.5230713 74.0554629,14.4145129 C73.1058173,14.4503263 72.1561717,14.486011 71.2065261,14.5218245 C71.2036409,14.8665614 71.11446,15.1881098 70.9383277,15.4864695 C70.8359007,15.6168409 70.7333427,15.7472123 70.6307846,15.8775836 C70.452554,16.0659265 70.2415362,16.199132 69.9977313,16.2770714 C69.763238,16.3980385 69.5106462,16.4535623 69.2396936,16.4435139 C68.9688721,16.4535623 68.7162803,16.3980385 68.4817869,16.2770714 C68.2379821,16.199132 68.0268331,16.0659265 67.8487336,15.8775836 L67.652011,15.6843454 C67.408075,15.4431842 67.2395493,15.1589952 67.1460405,14.8316497 C67.1389585,14.7794754 67.1317453,14.7275587 67.1246633,14.6755132 C66.5524628,14.6970271 65.9801312,14.718541 65.4077996,14.7400548 C63.2733593,14.8204419 61.1389191,14.900829 59.0043477,14.9812161 C60.5791777,16.6399727 62.167516,18.2862333 63.7701495,19.919096 C64.8694354,21.0392334 65.9780328,22.1502242 67.090827,23.2572214" id="Fill-30" fill="#7BA3CA"></path>
                <path d="M89.6421356,36.364903 C89.3515107,36.0236444 89.0720335,35.6710491 88.8035727,35.3100801 C88.6732112,35.1561337 88.5471776,34.9992243 88.4252096,34.8393519 C88.3810126,35.0202228 88.3115039,35.1943949 88.2131426,35.3607085 C88.1107157,35.4910799 88.0081577,35.6214513 87.9057308,35.7518226 C87.7273689,35.9402943 87.5163512,36.073371 87.2725463,36.1513104 C87.0381841,36.2722775 86.7854611,36.3278013 86.5146397,36.3177529 C86.2438182,36.3278013 85.9910952,36.2722775 85.7567331,36.1513104 C85.512797,36.073371 85.3016481,35.9402943 85.1235486,35.7518226 L84.926826,35.5585845 C84.6830211,35.3174232 84.5143643,35.0332342 84.4208554,34.7058887 C84.397511,34.5345509 84.3741666,34.3633418 84.350691,34.1921328 C84.3517402,33.8434022 84.4413146,33.5182468 84.619283,33.2167952 C84.7217099,33.0865527 84.8243991,32.9561813 84.926826,32.8258099 C85.1050566,32.6373383 85.3160744,32.5041327 85.5600105,32.4261933 C85.7943726,32.3052262 86.0470956,32.2497025 86.3179171,32.2597508 C86.5572629,32.2508619 86.7813955,32.2969814 86.992151,32.3905087 C86.8360844,32.0259326 86.6981163,31.6527253 86.5807385,31.2712731 C86.2822447,30.4399624 86.0700466,29.5817271 85.9724722,28.7001745 C82.4611049,29.4947699 78.9780656,30.4032471 75.5289938,31.4272807 C79.3517074,35.0229282 83.2427494,38.548237 87.2012015,41.9997287 C87.2817267,41.9541245 87.3761535,41.9232064 87.4848755,41.913158 L95.3167958,41.193539 C93.0778303,40.1101169 91.1967687,38.1910039 89.6421356,36.364903" id="Fill-32" fill="#7BA3CA"></path>
                <path d="M112.191595,34.7270934 C112.013495,34.915565 111.802347,35.0487706 111.558542,35.12671 C111.324179,35.2476771 111.071456,35.3032009 110.800635,35.2931525 C110.529682,35.3032009 110.277091,35.2476771 110.042597,35.12671 C109.798792,35.0487706 109.587775,34.915565 109.409544,34.7270934 C109.34397,34.6626807 109.278396,34.5982679 109.212821,34.5338552 C108.969016,34.2928228 108.800491,34.008505 108.706982,33.6811595 C108.683506,33.5099504 108.660031,33.3387414 108.636686,33.1675323 C108.637736,32.818673 108.72731,32.4936464 108.905147,32.1921948 C109.007836,32.0618234 109.110394,31.931452 109.212821,31.8010807 C109.256363,31.75509 109.301871,31.7127064 109.349216,31.6732858 C107.850714,30.2553039 106.352212,28.8370644 104.853711,27.4189537 C101.86838,28.0517444 98.7572774,28.2375107 95.6507652,28.156866 C96.9057242,28.5910078 98.1340602,29.1042484 99.326068,29.6983915 C102.145103,31.1034908 105.063942,33.3212211 104.787087,36.7835342 C104.667611,38.2781673 103.98118,39.5622995 102.961371,40.4910022 L117.276874,39.1756943 C115.636601,37.6232186 113.996197,36.0708718 112.355793,34.518525 C112.301104,34.5880907 112.246415,34.6575276 112.191595,34.7270934" id="Fill-34" fill="#7BA3CA"></path>
                <path d="M92.0165118,29.1959078 C94.9252522,31.7688099 97.7744512,34.4056094 100.561617,37.105147 C100.762143,36.4687492 100.733421,35.7526085 100.554142,35.1252285 C99.9001045,32.836 97.241333,31.6394691 95.2655823,30.6569173 C94.201313,30.1274447 93.1189453,29.6361044 92.0165118,29.1959078" id="Fill-36" fill="#7BA3CA"></path>
                <path d="M89.0596531,30.6735616 C89.705559,31.9327016 90.4966461,33.1194418 91.4255702,34.1995145 C92.8966619,35.9099301 94.8455271,37.7717157 97.0654761,38.4753604 C94.3171302,35.9547614 91.647211,33.35326 89.0596531,30.6735616" id="Fill-38" fill="#7BA3CA"></path>
                <path d="M100.717644,23.5049399 L99.0197971,21.8982287 C98.5487121,22.0975217 98.0786762,22.2992624 97.6111321,22.5066714 C97.3834585,22.6076706 97.1568341,22.7104733 96.9302096,22.8137913 C96.711323,22.9140175 96.4928297,23.0152743 96.2749922,23.1175617 C95.299117,23.7006258 94.342914,24.3147368 93.4037603,24.953711 C95.8377434,24.4519359 98.2757922,23.9687116 100.717644,23.5049399" id="Fill-40" fill="#7BA3CA"></path>
                <path d="M83.8491927,21.5548187 C83.6539127,20.5690463 83.4342391,19.5879115 83.1746964,18.6155369 C82.8369893,17.3495691 82.4352818,16.0981586 81.939672,14.8828192 C81.8441959,14.6487433 81.7425559,14.3905771 81.626883,14.1294479 C80.2069393,14.1829104 78.7869955,14.236373 77.3670518,14.2898356 C79.4710656,16.7601926 81.6314732,19.1831419 83.8491927,21.5548187" id="Fill-42" fill="#7BA3CA"></path>
                <path d="M77.2880611,18.8801187 C77.5678006,19.9261814 78.0053117,20.9124692 78.5743646,21.8141186 C79.9456523,23.5191236 81.7960251,24.8578778 83.8601698,25.6404925 C81.5906467,23.4623116 79.3991569,21.207093 77.2880611,18.8801187" id="Fill-44" fill="#7BA3CA"></path>
                <path d="M94.357078,17.4856861 C93.2836283,16.4698973 92.2103098,15.4541086 91.1369913,14.4384486 C91.1477455,14.1085266 90.9383015,13.7788623 90.5055117,13.7952231 L88.3557272,13.8761255 C88.2533003,14.3803483 88.1675292,14.8892089 88.0934304,15.4009037 C88.0977582,15.3996154 88.1016927,15.3975542 88.1060206,15.3961371 C88.3403828,15.27517 88.5931058,15.2196462 88.8639272,15.2296946 C89.1347487,15.2196462 89.3873405,15.27517 89.621965,15.3961371 C89.8657698,15.4740765 90.0766565,15.6072821 90.2550183,15.7956249 L90.4517409,15.9888631 C90.6954146,16.2300243 90.8640715,16.5142133 90.9575803,16.8415588 L91.0278758,17.3553147 C91.0266955,17.7041741 90.9372523,18.0292007 90.7591528,18.3306523 C90.6567259,18.4610237 90.5541678,18.5913951 90.4517409,18.7217664 C90.2733791,18.9101093 90.0623613,19.0433148 89.8185564,19.1212542 C89.5840631,19.2422213 89.3314713,19.2977451 89.0606498,19.2876967 C88.7898284,19.2977451 88.5371054,19.2422213 88.3027432,19.1212542 C88.105496,19.0582585 87.9308063,18.9572594 87.7765758,18.8219926 C87.6793948,20.8580791 87.7187394,22.9038274 87.7778873,24.8904449 C90.2487232,22.6781252 92.6117551,20.3011666 94.357078,17.4856861" id="Fill-46" fill="#7BA3CA"></path>
                <path d="M85.3480615,15.8169841 C85.6208502,17.3985743 85.869901,18.9841581 86.0974435,20.5727049 C86.0984927,18.3518828 86.2061655,16.1344101 86.5332496,13.9447637 C86.0338365,13.9635722 85.5345545,13.9822519 85.0350103,14.0010604 C85.156716,14.6119508 85.2464215,15.22735 85.3480615,15.8169841" id="Fill-48" fill="#7BA3CA"></path>
                <path d="M94.4355965,20.6967638 C95.0535678,20.3280654 95.6849162,19.984359 96.3278057,19.664743 C96.3982324,19.6264819 96.469446,19.589509 96.5400038,19.5515055 C96.3270188,19.3498936 96.1139026,19.1482818 95.9009176,18.9466699 C95.4260293,19.5413283 94.9382884,20.1255517 94.4355965,20.6967638" id="Fill-50" fill="#7BA3CA"></path>
                <path d="M87.096532,52.8936865 C87.0730564,52.7224774 87.049712,52.5512684 87.0262365,52.3799305 C87.0274168,52.0312 87.11686,51.7060445 87.2949595,51.404593 C87.3973864,51.2743504 87.4999445,51.1438502 87.6023714,51.0136077 C87.7807332,50.825136 87.9916198,50.6919305 88.2355559,50.6139911 C88.4700492,50.493024 88.7225099,50.437629 88.9934625,50.4475486 C89.2642839,50.437629 89.5170069,50.493024 89.7513691,50.6139911 C89.9953051,50.6919305 90.2063229,50.825136 90.3845536,51.0136077 L90.5812762,51.2068459 C90.8250811,51.4478783 90.9937379,51.7321961 91.0871156,52.0595416 L91.1574111,52.5731687 C91.1571488,52.6521387 91.1517717,52.7298205 91.1424602,52.806214 C92.426403,52.6761003 93.710477,52.5459866 94.9944199,52.4158728 C95.170421,51.9685908 95.346291,51.5214377 95.5222922,51.0740268 C96.6011189,48.3319769 97.6799457,45.5899269 98.7587724,42.8478769 C98.8516255,42.6118687 98.9444786,42.3758604 99.0373317,42.1398522 L87.7269624,43.1790872 C87.6191584,43.3934528 87.5103052,43.6071742 87.4036816,43.8219263 C86.0201971,46.6067463 84.7209099,49.4304716 83.5104101,52.2915563 C83.3212941,52.7387095 83.1358503,53.1874085 82.950931,53.6364941 C84.3731043,53.4923384 85.7954087,53.3481827 87.2177131,53.204027 C87.1701063,53.1047026 87.127483,53.002544 87.096532,52.8936865" id="Fill-52" fill="#7BA3CA"></path>
                <path d="M60.3961077,28.1817164 C60.4986657,28.0513451 60.6010926,27.9209737 60.7036507,27.7906023 C60.8818814,27.6021307 61.0928991,27.469054 61.3368352,27.3911146 C61.5711973,27.2701474 61.8239203,27.2146237 62.0947418,27.2246721 C62.3655632,27.2146237 62.6182862,27.2701474 62.8526484,27.3911146 C63.0965844,27.469054 63.3076022,27.6021307 63.4858329,27.7906023 L63.6825555,27.9838405 C63.9262292,28.2250018 64.0950172,28.5091907 64.1883948,28.8365362 C64.2118704,29.0078741 64.2352148,29.1790831 64.2586904,29.3502922 C64.2575101,29.6990227 64.1680668,30.0241782 63.9900985,30.3256298 C63.8875404,30.4560011 63.7849824,30.5863725 63.6825555,30.716615 C63.5043248,30.9050867 63.293307,31.0382922 63.049371,31.1162316 C62.8148776,31.2371987 62.5622858,31.2927225 62.2914644,31.2826741 C62.0206429,31.2927225 61.76792,31.2371987 61.5335578,31.1162316 C61.2896217,31.0382922 61.078604,30.9050867 60.9003733,30.716615 C60.8347991,30.6522023 60.7692249,30.5879184 60.7036507,30.5235057 C60.4598458,30.2823444 60.2913201,29.9981554 60.1978113,29.6708099 C60.1743357,29.4994721 60.1509913,29.328263 60.1275157,29.157054 C60.1285649,28.8081946 60.2181393,28.483168 60.3961077,28.1817164 M66.7733298,39.9727245 C66.9598229,39.5488887 67.1507749,39.127243 67.3447434,38.7070143 C68.6989818,35.7749468 70.2385329,32.9326706 71.9683803,30.1961602 C72.0148068,30.1227297 72.0628072,30.0502009 72.109496,29.9767704 C67.075758,25.1606305 62.1666111,20.2191434 57.3855961,15.1602963 C57.3189727,15.258719 57.2770052,15.3723431 57.2712347,15.4902184 C56.8126088,16.2206587 56.3538516,16.9510991 55.8952257,17.6814106 C56.1033582,17.9072417 56.2529985,18.1664385 56.3375892,18.4631235 L56.4078848,18.9767507 C56.4068356,19.3254812 56.3172612,19.6506367 56.1392929,19.9520882 C56.0367348,20.0824596 55.9343079,20.212831 55.8317499,20.3432023 C55.6535192,20.5315452 55.4425014,20.6647507 55.1985654,20.7426901 C54.9642032,20.8636572 54.7114802,20.919181 54.4406588,20.9091326 C54.2565264,20.9159603 54.0814433,20.8899376 53.9140979,20.8362174 C53.4019634,21.6516826 52.8899601,22.4670189 52.3778256,23.2823553 C52.2167753,23.5388468 52.2637265,23.7872223 52.4094323,23.9664185 C52.3618255,24.1545036 52.3930388,24.3644891 52.5509415,24.5503843 C53.7234082,25.9308779 54.9116127,27.2983602 56.1131943,28.6542482 C56.9006093,29.5426286 57.6945818,30.4254695 58.4944559,31.3030285 C61.1852276,34.2555793 63.9453769,37.1468092 66.7733298,39.9727245" id="Fill-54" fill="#7BA3CA"></path>
                <g id="Group-58" transform="translate(57.311851, 14.793801)">
                    <mask id="mask-4" fill="white">
                        <use xlink:href="#path-3"></use>
                    </mask>
                    <g id="Clip-57"></g>
                    <path d="M14.7976446,15.1829825 C15.1820406,15.5507792 15.569453,15.9157417 15.9554227,16.2819925 C16.2309655,16.5435082 16.5055902,16.8057969 16.7817888,17.0665396 C16.8670352,17.1469267 16.9514948,17.2280867 17.0368724,17.3086026 C18.8236382,18.9927379 20.6249615,20.6620582 22.4424161,22.3143736 C24.6238074,24.2980281 26.8278875,26.2574634 29.0517709,28.195256 C28.9788524,28.3418594 28.9050158,28.4880763 28.8324908,28.6348085 C27.3680877,31.5962482 25.9975869,34.6014886 24.725054,37.6470513 C24.5667579,38.025927 24.4106913,38.4057045 24.2554116,38.7857396 C24.3596746,38.8933088 24.5144297,38.956691 24.7217753,38.9355636 C25.0274822,38.9046455 25.3333203,38.8735985 25.6390272,38.8426804 C25.8239465,38.3935949 26.0093903,37.9448958 26.1986374,37.4977426 C27.409006,34.6366579 28.7082932,31.8129326 30.0917777,29.0281126 C30.1985325,28.8133605 30.3073857,28.5996391 30.4150585,28.3852735 L41.7254278,27.3461674 L45.7091917,26.9800454 L60.923062,25.5820315 C61.0033248,25.3485997 60.9384063,25.1575516 60.800307,25.0287261 C60.6970933,24.7973556 60.4788623,24.602958 60.1822046,24.5890448 C60.1757784,24.5826035 60.1702701,24.5760334 60.1635816,24.569721 C60.0973516,24.5071118 60.0311217,24.4445026 59.9650229,24.3818935 L45.6495191,25.6972014 C44.4055765,26.8300926 42.6644504,27.433511 40.8433237,27.2370522 C39.8392515,27.12871 38.8938027,26.8299637 38.0048788,26.3996867 L30.1729586,27.1193057 C30.0642366,27.1293541 29.9699409,27.160401 29.8892846,27.2058764 C25.9309635,23.7545135 22.0397905,20.2290759 18.2170769,16.6334284 C17.5395642,15.9961288 16.8663795,15.354578 16.1933259,14.7128984 C14.7234146,13.3114062 13.2649132,11.8983197 11.8154611,10.4764731 C11.134014,9.80799774 10.4557145,9.13655944 9.77898874,8.4634464 C8.66619456,7.3564492 7.55746597,6.24545841 6.45831122,5.12532102 C4.85567775,3.49245828 3.26733947,1.8461977 1.69250946,0.187441048 C1.47493427,0.195557052 1.25722792,0.203801881 1.03965272,0.212046711 C0.704043963,-0.0882454417 0.275582136,0.0684063205 0.0737447461,0.36650844 C4.85489086,5.42535552 9.76390667,10.3668426 14.7976446,15.1829825" id="Fill-56" fill="#1A3134" mask="url(#mask-4)"></path>
                </g>
                <g id="Group-61" transform="translate(73.836550, 0.107698)">
                    <mask id="mask-6" fill="white">
                        <use xlink:href="#path-5"></use>
                    </mask>
                    <g id="Clip-60"></g>
                    <path d="M3.31587749,14.1902406 C3.33476286,14.1269873 3.35509086,14.0642493 3.37673035,14.0020266 C3.43653402,13.8296581 3.50709186,13.6611544 3.59102684,13.4981902 C3.75942138,13.1714889 4.01266895,12.8536764 4.31837587,12.6011785 C4.83614976,12.1732203 5.50448201,11.9327032 6.16822407,12.1568595 C6.63471893,12.3142842 6.98947536,12.6541258 7.27288705,13.0646925 C7.47734741,13.3607335 7.64482392,13.6936185 7.7902675,14.0217369 C7.90594039,14.2828661 8.0075804,14.5410323 8.10318758,14.7751082 C8.59866624,15.9904476 9.00050494,17.2418582 9.33821208,18.507826 C9.59762362,19.4802006 9.81729719,20.4613353 10.0127083,21.4471077 C10.2974315,22.8846711 10.5290396,24.3327981 10.7446475,25.782471 C10.5014984,25.7074946 10.2614968,25.6228563 10.0235936,25.5326784 C7.95944894,24.7501926 6.10907614,23.4114384 4.73778846,21.7064334 C4.16873554,20.804784 3.73122448,19.8184962 3.45148494,18.7724335 C3.2988282,18.2013502 3.1923357,17.6127467 3.138696,17.0098435 C3.05712169,16.0910603 3.04584293,15.0935648 3.31587749,14.1902406 M13.9400783,18.7143332 C13.9948984,17.5666272 14.0939154,16.4223994 14.2569329,15.2932442 C14.3309006,14.7815495 14.4168028,14.2726889 14.5192297,13.768466 C14.6061811,13.3406367 14.7049358,12.9161568 14.8151005,12.495284 C15.2682182,10.7645139 15.926452,9.09789891 16.8763599,7.54490797 C17.6416108,6.29362625 18.8401761,5.01799652 20.4525145,5.04904346 C22.1331813,5.08137865 22.9912852,6.71900793 23.1422371,8.17306092 C23.3953535,10.6145611 22.7007915,13.1321971 21.6224894,15.376079 C21.3263563,15.9921224 21.001764,16.5875536 20.6594667,17.1550298 C20.6140893,17.230135 20.5666136,17.3035656 20.5205805,17.3780267 C18.7752576,20.1935072 16.4120945,22.5704658 13.9413898,24.7826566 C13.8821107,22.796168 13.8428974,20.7502908 13.9400783,18.7143332 M22.4384947,23.0098894 C22.6563322,22.907602 22.8748255,22.8063452 23.0937122,22.706119 C23.3202054,22.602801 23.546961,22.4998694 23.7745035,22.3989991 C24.2421787,22.1914612 24.7122146,21.9897206 25.1831685,21.7905564 C25.490318,21.6607003 25.7975987,21.5314884 26.1057975,21.4044665 C26.9198356,21.0687473 27.7374147,20.741273 28.5564365,20.4174058 C29.2078506,20.1597549 29.8601828,19.8894791 30.51881,19.6338893 C31.505046,19.2511489 32.5051837,18.9015166 33.5367971,18.679808 C33.656929,18.6539141 33.779815,18.6307255 33.9038814,18.6092116 C33.9298488,18.6047027 33.9559473,18.6004515 33.9820459,18.5962002 C34.3800813,18.5306281 34.7937233,18.4892751 35.2073654,18.4860545 L35.2074965,18.4860545 C36.1008794,18.6139782 36.961213,18.9409372 37.509151,19.6569491 C38.2831888,20.6683578 37.8220711,21.8842125 36.9751147,22.6670849 C36.842786,22.7893402 36.7012768,22.9015472 36.5533414,23.0002275 C35.5483512,23.6705064 34.2907692,23.9536647 33.1003352,24.1935378 L33.1003352,24.1935378 C32.8910223,24.2297377 32.6838078,24.2659377 32.4814459,24.3036835 C32.3807239,24.322492 32.2797396,24.3391105 32.1788865,24.3575326 C31.9261635,24.4037809 31.6733094,24.4482257 31.4200619,24.4921552 C31.1796668,24.5337658 30.9390095,24.574217 30.6982211,24.6138952 C30.6979588,24.6140241 30.6976965,24.6140241 30.6974342,24.6140241 C30.1518568,24.6911905 29.6043122,24.7554744 29.0558496,24.8103541 C28.8491597,24.8309661 28.6423387,24.8505476 28.4355177,24.8681967 C28.2542706,24.8836558 28.0730235,24.8991148 27.8916453,24.9123838 C25.0615939,25.1200505 22.222231,25.0798569 19.3881141,24.9670058 C19.4475243,24.9261682 19.5077214,24.8866187 19.5672628,24.8460387 C20.5062853,24.2069356 21.4624883,23.5928246 22.4384947,23.0098894 M26.7176048,35.0175819 C26.8968846,35.6449619 26.925475,36.3609738 26.7250802,36.9975005 C26.64626,37.2478083 26.5329478,37.4861354 26.3779304,37.7014028 C25.6600241,38.6978677 24.3661139,38.7198969 23.2811232,38.3855948 C23.2635493,38.3801841 23.2463689,38.3732276 23.2289262,38.3676881 C21.0089772,37.6639146 19.0601119,35.8022578 17.5890203,34.0918422 C16.6600962,33.0117695 15.869009,31.8250293 15.2231031,30.5658893 C14.7560837,29.6554797 14.3646057,28.7074531 14.0541774,27.7335326 C15.4625801,28.0911521 16.8363596,28.5515743 18.179975,29.0882612 C19.2824085,29.5284578 20.3647762,30.0197981 21.4290455,30.5491419 C23.4047962,31.5318226 26.0635677,32.7283535 26.7176048,35.0175819 M0.7924511,12.768394 C0.548908519,13.2518759 0.357431853,13.7598347 0.22562771,14.2782284 C0.22313589,14.2877615 0.221299812,14.2972946 0.218939141,14.3068277 C-0.558508582,17.4153861 0.836385815,20.5558932 2.87141556,22.899486 C4.33699894,24.587486 6.17504379,25.9588331 8.19735214,26.972303 C9.44785214,27.5990389 10.7685165,28.0896062 12.1164598,28.4312513 C12.1214435,28.4852292 12.1299681,28.538563 12.1358698,28.592412 C12.2334442,29.4739646 12.4456423,30.3321999 12.7442672,31.1636394 C12.8615139,31.5450916 12.999482,31.918299 13.1555486,32.282875 C13.5294527,33.1557963 14.0124722,33.9764145 14.5886072,34.7317182 C14.7107063,34.8915906 14.83674,35.0485 14.9671015,35.2023176 C15.2355622,35.5632866 15.5150395,35.9158819 15.8055332,36.2571405 C17.3602975,38.0832415 19.241359,40.0023544 21.4801934,41.0857765 C22.3691172,41.5160535 23.3145661,41.8147998 24.3186382,41.923142 C26.1397649,42.1196008 27.8808911,41.5161824 29.1248337,40.3832913 C30.1446437,39.4545885 30.8310744,38.1704563 30.9505506,36.6758233 C31.2274049,33.2135102 28.308566,30.9957798 25.4895311,29.5906805 C24.2973922,28.9965375 23.0691874,28.4832968 21.8142283,28.049155 C24.9207405,28.1297998 28.0318429,27.9440334 31.017174,27.3113716 C32.5442659,26.9876332 34.0381774,26.546406 35.4817278,25.9637284 C36.8669173,25.4044971 38.2050244,24.7142503 39.4816229,23.8725047 C39.9166422,23.5854816 40.3456286,23.2829994 40.7656969,22.9596475 C42.2784937,21.7958383 43.7287328,20.0859379 43.3025005,18.0658258 C42.8689238,16.0087408 40.8039923,14.8642554 38.8387335,14.5817412 C36.4854066,14.2435744 34.1166041,14.7675075 31.8893108,15.493439 C29.9741507,16.1174695 28.0944007,16.8593754 26.2601592,17.6875943 C26.0356331,17.7891087 25.8116316,17.8911385 25.5885482,17.9951006 C24.611886,18.4499833 23.6505683,18.9343671 22.7034145,19.443743 C22.6328567,19.4817465 22.5616431,19.5187194 22.4912164,19.5569805 C21.8484581,19.8765965 21.2169785,20.2203029 20.5990073,20.5890013 C21.1016991,20.017918 21.58944,19.4335658 22.0643283,18.8389074 C22.4193471,18.3944596 22.7680707,17.9448587 23.1066958,17.4873995 C23.354304,17.1530974 23.6059778,16.810164 23.8577827,16.4600164 C26.0517643,13.4094295 28.2635821,9.78247742 27.9182684,6.00183658 C27.7383328,4.03145113 26.8699992,2.19182353 25.208349,1.02002713 C23.6482076,-0.0802711455 21.6547519,-0.302495068 19.9132323,0.507688264 C18.146401,1.32946589 16.8822616,2.97662825 15.8930092,4.57767109 C14.7778543,6.38277347 13.9697179,8.37454394 13.4110257,10.4099862 C13.2806642,10.8844504 13.165647,11.3612335 13.0615152,11.8394336 C12.9169897,12.5022406 12.7965954,13.1682682 12.6966603,13.8370012 C12.3695762,16.0267764 12.2619034,18.2442491 12.2608542,20.4649424 C12.0333117,18.8763956 11.7842609,17.2909407 11.5114722,15.7093505 C11.4098322,15.1197163 11.3201267,14.5041883 11.198421,13.8934267 C10.9963213,12.8773803 10.7060899,11.8744741 10.1258894,11.0266737 C10.0635939,10.935723 9.99762624,10.8483793 9.92969137,10.7633545 C9.01571816,9.62118794 7.60010232,9.02472605 6.10763351,9.07870392 C5.52821987,9.09970247 4.97542936,9.2116518 4.45542595,9.39638751 C2.84898918,9.96721313 1.5598004,11.2442599 0.7924511,12.768394" id="Fill-59" fill="#FF664F" mask="url(#mask-6)"></path>
                </g>
                <path d="M85.9529573,28.5390138 C84.6051452,28.1972399 83.2843496,27.7068014 82.0338496,27.0800655 C79.1610439,27.7811336 76.3161728,28.5900287 73.5051379,29.5066219 C74.1783227,30.1483015 74.8515074,30.7899811 75.5290201,31.4272807 C78.9779607,30.4032471 82.4611311,29.4947699 85.9723673,28.7001745 C85.9665967,28.6463254 85.9579409,28.5929917 85.9529573,28.5390138" id="Fill-62" fill="#FCF2F1"></path>
                <path d="M87.8907274,27.8412823 C88.2011556,28.8152027 88.5927648,29.7631005 89.0596531,30.67351 C91.6473422,33.3532085 94.3171302,35.9547099 97.0654761,38.4753089 C97.0829188,38.4808484 97.1000993,38.4879338 97.1176732,38.4933444 C98.2026639,38.8275177 99.496574,38.8056173 100.21448,37.8091524 C100.369498,37.593885 100.48281,37.3555579 100.56163,37.1051212 C97.7744644,34.4055837 94.9252653,31.7687841 92.0165249,29.195882 C90.6729096,28.6593239 89.2991301,28.1989017 87.8907274,27.8412823" id="Fill-64" fill="#FCF2F1"></path>
                <path d="M77.2880611,18.8801187 C79.3991569,21.207093 81.5906467,23.4623116 83.8601698,25.6404925 C84.098073,25.7305415 84.3380746,25.8151798 84.5810926,25.890285 C84.3656157,24.4406121 84.1340077,22.9923563 83.8491533,21.5547929 C81.6314339,19.183245 79.4711574,16.7601669 77.3670124,14.2898098 L77.1524537,14.2979258 C76.8824191,15.20125 76.8936979,16.1988743 76.9752722,17.1175287 C77.0289119,17.7205607 77.1352732,18.3090354 77.2880611,18.8801187" id="Fill-66" fill="#FCF2F1"></path>
                <path d="M102.272094,24.9759206 C102.478915,24.9581426 102.685736,24.93869 102.892295,24.9180779 C103.440888,24.8631983 103.988433,24.7989144 104.53401,24.7217479 C104.534273,24.7216191 104.534535,24.7216191 104.534797,24.7216191 C104.775586,24.6819409 105.016243,24.6413608 105.256638,24.599879 C105.509754,24.5559495 105.76274,24.5115048 106.015463,24.4652564 C105.83356,24.3768822 105.651657,24.2883791 105.469754,24.199876 C103.62725,23.3038949 101.784878,22.4080426 99.9423737,21.5120615 C99.6341749,21.6392123 99.3268942,21.7684242 99.0197447,21.8982803 L100.717592,23.5049914 C101.235759,23.9953011 101.753927,24.4856108 102.272094,24.9759206" id="Fill-68" fill="#F6EFEA"></path>
                <path d="M93.4038258,24.9537239 C93.3442845,24.9943039 93.2840874,25.0339822 93.2246771,25.074691 C96.0587941,25.1875421 98.898157,25.2277357 101.728208,25.020069 C101.909587,25.0068 102.090834,24.991341 102.272081,24.9758819 C101.753913,24.4855722 101.235746,23.9952625 100.71771,23.5049528 C98.2757267,23.9687244 95.837809,24.4518199 93.4038258,24.9537239" id="Fill-70" fill="#FCF2F1"></path>
                <path d="M49.5291118,91.0612442 L49.7258344,91.2544824 C49.9039339,91.442954 50.1150829,91.5761596 50.3588877,91.654099 C50.5933811,91.7750661 50.846104,91.830461 51.1167943,91.8205415 C51.3877469,91.830461 51.6403388,91.7750661 51.8748321,91.654099 C52.118637,91.5761596 52.3296548,91.442954 52.5078854,91.2544824 C52.6104435,91.124111 52.7130015,90.9937397 52.8155596,90.8633683 C52.993528,90.5620455 53.0829712,90.2368901 53.0840204,89.8881595 C53.0606759,89.7168217 53.0373315,89.5456126 53.013856,89.3744036 C52.9203472,89.0470581 52.7516903,88.7628691 52.5078854,88.5217079 C52.4423112,88.4572951 52.376737,88.3928824 52.3111628,88.3284697 C52.1329322,88.139998 51.9220455,88.0069213 51.6781095,87.9289819 C51.4436162,87.807886 51.1910243,87.7523622 50.9200717,87.7625394 C50.6493814,87.7523622 50.3966585,87.807886 50.1622963,87.9289819 C49.9183603,88.0069213 49.7072113,88.139998 49.5291118,88.3284697 C49.4265537,88.458841 49.3241268,88.5892124 49.2214376,88.7195838 C49.0434693,89.0209065 48.9540261,89.346062 48.9528457,89.6949213 L49.0232724,90.2085485 C49.1166501,90.535894 49.2853069,90.8200829 49.5291118,91.0612442" id="Fill-72" fill="#FCF2F1"></path>
                <path d="M45.8193694,100.502489 C45.6411388,100.314017 45.430121,100.180812 45.1861849,100.102872 C44.9518228,99.981905 44.6990998,99.9263813 44.4282783,99.9364297 C44.1574569,99.9263813 43.9048651,99.981905 43.6703717,100.102872 C43.4264357,100.180812 43.2154179,100.314017 43.0373184,100.502489 C42.9347603,100.63286 42.8322023,100.763103 42.7296442,100.893603 C42.5516759,101.194926 42.4622327,101.519952 42.4610523,101.868812 L42.5313479,102.382568 C42.6248567,102.709913 42.7935135,102.994102 43.0373184,103.235263 L43.234041,103.428501 C43.4121405,103.616973 43.6231583,103.75005 43.8670943,103.827989 C44.1014565,103.949085 44.3541795,104.004609 44.6250009,103.994432 C44.8958224,104.004609 45.1485454,103.949085 45.3829075,103.827989 C45.6268436,103.75005 45.8378614,103.616973 46.016092,103.428501 C46.1186501,103.29813 46.221077,103.167759 46.323635,103.037387 C46.5016034,102.735936 46.5911778,102.410909 46.592227,102.06205 C46.5687514,101.890841 46.545407,101.719632 46.5219314,101.548423 C46.4285538,101.221077 46.2598969,100.936759 46.016092,100.695727 C45.9505178,100.631314 45.8849436,100.566901 45.8193694,100.502489" id="Fill-74" fill="#FCF2F1"></path>
                <path d="M58.5448562,98.2393603 C58.2740347,98.2293119 58.0213118,98.2848357 57.7869496,98.4058028 C57.5430135,98.4836134 57.3319958,98.6169477 57.1538962,98.8054194 C57.0513382,98.9356619 56.9487801,99.0660333 56.8462221,99.1965335 C56.6682537,99.4979851 56.5786794,99.8228829 56.5776302,100.171742 C56.6011057,100.342951 56.6244501,100.51416 56.6479257,100.685369 C56.7414345,101.012844 56.9099602,101.297033 57.1538962,101.538065 L57.3506188,101.731303 C57.5287184,101.919775 57.7397361,102.053109 57.9836722,102.13092 C58.2180344,102.251887 58.4707573,102.307411 58.7415788,102.297362 C58.8606615,102.301742 58.9755475,102.291308 59.0875483,102.270438 C59.3329269,101.080477 59.5783056,99.8903874 59.8238154,98.7002978 C59.6707652,98.5673499 59.4977805,98.4680255 59.3027628,98.4058028 C59.0684006,98.2848357 58.8156776,98.2293119 58.5448562,98.2393603" id="Fill-76" fill="#FCF2F1"></path>
                <path d="M56.0420857,75.6706337 C55.8641173,75.9719565 55.7745429,76.2971119 55.7734937,76.6459713 C55.7969693,76.8171803 55.8204449,76.9883893 55.8437893,77.1595984 C55.9372981,77.4870727 56.1058238,77.7712617 56.3497598,78.0122941 L56.5464824,78.2055323 C56.7245819,78.394004 56.9355997,78.5272095 57.1795358,78.6051489 C57.4138979,78.726116 57.6666209,78.781511 57.9374424,78.7715914 C58.2082638,78.781511 58.4609868,78.726116 58.695349,78.6051489 C58.939285,78.5272095 59.1503028,78.394004 59.3285335,78.2055323 C59.4309604,78.0752898 59.5335184,77.9447896 59.6360765,77.814547 C59.7762741,77.5771217 59.8606025,77.3248815 59.8911601,77.0580839 C58.7707593,76.4117666 57.6503585,75.7655781 56.5299577,75.1192607 C56.4670065,75.1678279 56.4060225,75.2198734 56.3497598,75.2795196 C56.2472018,75.409891 56.1446437,75.5402623 56.0420857,75.6706337" id="Fill-78" fill="#FCF2F1"></path>
                <path d="M71.3498189,84.6646349 C71.5277873,84.3633121 71.6173616,84.0381567 71.6184108,83.6892973 C71.5949352,83.5180883 71.5714597,83.3468792 71.5481153,83.1756702 C71.4546064,82.8483247 71.2859496,82.5640069 71.0421447,82.3229744 L70.8454221,82.1297363 C70.6673226,81.9412646 70.4563048,81.8080591 70.2123688,81.7301197 C69.9780066,81.6091526 69.7252836,81.5537576 69.4544622,81.563806 C69.1835096,81.5537576 68.9309178,81.6091526 68.6965556,81.7301197 C68.4526195,81.8080591 68.2416018,81.9412646 68.0633711,82.1297363 C67.9609442,82.2601076 67.858255,82.390479 67.7558281,82.5208504 C67.5778597,82.8221731 67.4882853,83.1473286 67.4872362,83.4961879 C67.5107117,83.667397 67.5340561,83.838606 67.5574006,84.0098151 C67.6509094,84.3371606 67.8195662,84.6214783 68.0633711,84.8625108 L68.2600937,85.055749 C68.4383244,85.2442206 68.6493421,85.3774262 68.8932782,85.4553656 C69.1276404,85.5763327 69.3802322,85.6317276 69.6511848,85.6216792 C69.9220062,85.6317276 70.1747292,85.5763327 70.4090914,85.4553656 C70.6530274,85.3774262 70.8640452,85.2442206 71.0421447,85.055749 C71.1447028,84.9253776 71.2472608,84.7950062 71.3498189,84.6646349" id="Fill-80" fill="#FCF2F1"></path>
                <path d="M66.4211964,109.995701 L66.2244738,109.802463 C66.0462431,109.613992 65.8352253,109.480915 65.5912893,109.402847 C65.3569271,109.28188 65.1042041,109.226356 64.8333827,109.236404 C64.5625612,109.226356 64.3099694,109.28188 64.0754761,109.402847 C63.83154,109.480915 63.6206534,109.613992 63.4424227,109.802463 C63.3398647,109.932835 63.2373066,110.063206 63.1347486,110.193577 C62.9567802,110.4949 62.867337,110.820056 62.8661567,111.168786 C62.8896322,111.340124 62.9129766,111.511333 62.9364522,111.682671 C63.029961,112.009888 63.1986179,112.294205 63.4424227,112.535238 L63.6391453,112.728476 C63.8172449,112.916948 64.0282626,113.050153 64.2721987,113.127964 C64.506692,113.24906 64.7592838,113.304583 65.0301053,113.294406 C65.3009267,113.304583 65.5536497,113.24906 65.7880119,113.127964 C66.0319479,113.050153 66.2429657,112.916948 66.4211964,112.728476 C66.5237544,112.598105 66.6261813,112.467733 66.7287394,112.337362 C66.9067078,112.036039 66.9962821,111.710884 66.9973313,111.362024 C66.9738557,111.190815 66.9505113,111.019606 66.9270358,110.848397 C66.8336581,110.521052 66.6650013,110.236734 66.4211964,109.995701" id="Fill-82" fill="#FCF2F1"></path>
                <path d="M80.2293656,103.802263 C80.1268076,103.932634 80.0243807,104.062877 79.9218226,104.193377 C79.7438543,104.494828 79.6542799,104.819726 79.6530996,105.168586 L79.7235263,105.682342 C79.8169039,106.009687 79.9855608,106.294005 80.2293656,106.535037 C80.2949398,106.59945 80.3605141,106.663863 80.4260883,106.728276 C80.6043189,106.916747 80.8152056,107.049953 81.0592727,107.127763 C81.2936349,107.248859 81.5463579,107.304383 81.8171793,107.294206 C82.0878696,107.304383 82.3405926,107.248859 82.5749548,107.127763 C82.819022,107.049953 83.0300398,106.916747 83.2081393,106.728276 C83.3106973,106.597904 83.4132554,106.467533 83.5158134,106.337161 C83.6937818,106.035839 83.783225,105.710683 83.7844054,105.361824 L83.7141098,104.848197 C83.620601,104.520851 83.4519442,104.236662 83.2081393,103.995501 L83.0114167,103.802263 C82.8333172,103.613791 82.6222994,103.480586 82.3783634,103.402646 C82.14387,103.281679 81.891147,103.226284 81.6204567,103.236204 C81.3496353,103.226284 81.0969123,103.281679 80.8625501,103.402646 C80.6186141,103.480586 80.4075963,103.613791 80.2293656,103.802263" id="Fill-84" fill="#FCF2F1"></path>
                <path d="M85.1139354,83.0232439 L85.310658,83.2164821 C85.4887575,83.4048249 85.6999065,83.5381593 85.9437113,83.6159698 C86.1780735,83.7370658 86.4307965,83.7924607 86.7016179,83.7824123 C86.9725705,83.7924607 87.2251624,83.7370658 87.4596557,83.6159698 C87.7034606,83.5381593 87.9144784,83.4048249 88.092709,83.2164821 C88.1951359,83.0861107 88.297694,82.9557394 88.4003832,82.825368 C88.5782204,82.5240452 88.6677948,82.1988898 88.668844,81.8500304 L88.5985484,81.3364033 C88.5050396,81.0090578 88.3365139,80.72474 88.092709,80.4837076 L87.8959864,80.2904694 C87.7177558,80.1019977 87.506738,79.9687922 87.2629331,79.8908528 C87.0284398,79.7698857 86.7758479,79.7143619 86.5048953,79.7244103 C86.2340739,79.7143619 85.9813509,79.7698857 85.7469887,79.8908528 C85.5031839,79.9687922 85.2920349,80.1019977 85.1139354,80.2904694 C85.0113773,80.4208407 84.9088193,80.5512121 84.8062612,80.6815835 C84.628424,80.9829062 84.5387185,81.3080617 84.5376693,81.6567922 C84.5611449,81.8281301 84.5846204,81.9993391 84.608096,82.1705482 C84.7014737,82.4978937 84.8701305,82.7820826 85.1139354,83.0232439" id="Fill-86" fill="#FCF2F1"></path>
                <path d="M107.147247,47.460756 L107.34397,47.6539942 C107.522069,47.842337 107.733218,47.9756714 107.977154,48.053482 C108.211516,48.1745779 108.464108,48.2299729 108.73493,48.2199245 C109.005882,48.2299729 109.258605,48.1745779 109.492967,48.053482 C109.736772,47.9756714 109.94779,47.842337 110.126021,47.6539942 C110.228579,47.5236229 110.331137,47.3932515 110.433695,47.2628801 C110.611663,46.9615574 110.701238,46.6364019 110.702156,46.2875425 C110.678942,46.1163335 110.655336,45.9451245 110.63186,45.7739154 C110.538483,45.4464411 110.369826,45.1622521 110.126021,44.9212197 L109.929298,44.7279815 C109.751068,44.5395098 109.54005,44.4063043 109.296245,44.3283649 C109.061883,44.2073978 108.80916,44.151874 108.538207,44.1619224 C108.267386,44.151874 108.014794,44.2073978 107.780432,44.3283649 C107.536496,44.4063043 107.325347,44.5395098 107.147247,44.7279815 C107.04482,44.858224 106.942262,44.9887242 106.839573,45.1189668 C106.661736,45.4204184 106.572161,45.7455738 106.570981,46.0943044 C106.594457,46.2656422 106.617932,46.4368513 106.641408,46.6080603 C106.734785,46.9354058 106.903442,47.2195948 107.147247,47.460756" id="Fill-88" fill="#FCF2F1"></path>
                <path d="M75.6630537,44.2587992 C75.7286279,44.3232119 75.7942021,44.3876246 75.8597763,44.4520374 C76.0378759,44.640509 76.2488936,44.7737145 76.4928297,44.8516539 C76.727323,44.9726211 76.9799148,45.028016 77.2507363,45.0180964 C77.5215577,45.028016 77.7742807,44.9726211 78.008774,44.8516539 C78.2525789,44.7737145 78.4635967,44.640509 78.6418274,44.4520374 C78.7443854,44.321666 78.8468123,44.1912946 78.9495015,44.0609233 C79.1274699,43.7596005 79.2169131,43.434445 79.2179623,43.0857145 C79.1946179,42.9143766 79.1711423,42.7431676 79.1477979,42.5719586 C79.0542891,42.2446131 78.8856322,41.9602953 78.6418274,41.7192628 L78.4451048,41.5260246 C78.2668741,41.337553 78.0558563,41.2043475 77.8120514,41.1265369 C77.5775581,41.0054409 77.3248351,40.9499172 77.0540137,40.9600944 C76.7831922,40.9499172 76.5306004,41.0054409 76.2961071,41.1265369 C76.052171,41.2043475 75.8411533,41.337553 75.6630537,41.5260246 C75.5604957,41.656396 75.4579376,41.7867674 75.3553796,41.9171387 C75.1774112,42.2184615 75.087968,42.543617 75.0867877,42.8924763 C75.1102632,43.0636854 75.1336076,43.2348944 75.1570832,43.4061034 C75.250592,43.7334489 75.4192488,44.0176379 75.6630537,44.2587992" id="Fill-90" fill="#FCF2F1"></path>
                <path d="M60.7036769,30.523467 C60.7692511,30.5878798 60.8348253,30.6522925 60.9003995,30.7167052 C61.0786302,30.905048 61.289648,31.0382536 61.533584,31.116193 C61.7679462,31.2372889 62.0206692,31.2926839 62.2914906,31.2826355 C62.562312,31.2926839 62.8149039,31.2372889 63.0493972,31.116193 C63.2933332,31.0382536 63.5042199,30.905048 63.6824505,30.7167052 C63.7850086,30.5863339 63.8875666,30.4559625 63.9901247,30.3255911 C64.1680931,30.0242684 64.2575363,29.6991129 64.2587166,29.3502535 C64.2352411,29.1790445 64.2118966,29.0078355 64.1884211,28.8364976 C64.0949123,28.5091521 63.9262554,28.2249631 63.6824505,27.9839307 L63.4857279,27.7906925 C63.3074973,27.6022208 63.0966106,27.4690153 62.8526746,27.3910759 C62.6183124,27.2701088 62.3655894,27.214585 62.094768,27.2246334 C61.8239465,27.214585 61.5712236,27.2701088 61.3368614,27.3910759 C61.0929254,27.4690153 60.8819076,27.6022208 60.7036769,27.7906925 C60.6011189,27.920935 60.498692,28.0514352 60.3961339,28.1816778 C60.2181655,28.4831294 60.1285912,28.8082848 60.127542,29.1570153 C60.1510175,29.3282244 60.174362,29.4995623 60.1978375,29.6707713 C60.2912152,29.9981168 60.459872,30.2823058 60.7036769,30.523467" id="Fill-92" fill="#FCF2F1"></path>
                <path d="M69.9976789,25.1065753 C70.2414837,25.0286359 70.4526327,24.8954304 70.6308633,24.7069588 C70.7332902,24.5767162 70.8358483,24.4463448 70.9384063,24.3159735 C71.1163747,24.0145219 71.2058179,23.6894953 71.2069983,23.3406359 C71.1835227,23.1694269 71.1600471,22.998089 71.1367027,22.82688 C71.0431939,22.4995345 70.8746682,22.2153455 70.6308633,21.9743131 L70.4341407,21.7810749 C70.2559101,21.5926032 70.0448923,21.4593977 69.8009563,21.3814583 C69.5664629,21.2604912 69.3138711,21.2049674 69.0430496,21.2150158 C68.7722282,21.2049674 68.5195052,21.2604912 68.2850119,21.3814583 C68.041207,21.4593977 67.8301892,21.5926032 67.6519586,21.7810749 C67.5495316,21.9113174 67.4469736,22.0416888 67.3444155,22.1720601 C67.1664472,22.4735117 67.0768728,22.7985384 67.0758236,23.1473977 C67.0808073,23.1839841 67.0857909,23.2205706 67.0907745,23.2572858 C67.7675003,23.9303989 68.4457998,24.6018372 69.1273781,25.2703125 C69.1647554,25.2714719 69.2016081,25.2744349 69.2397722,25.2730178 C69.5105937,25.2830662 69.7631855,25.2275424 69.9976789,25.1065753" id="Fill-94" fill="#FCF2F1"></path>
                <path d="M71.1418962,14.0355728 C70.8336975,14.1954452 70.5308758,14.3683289 70.2356607,14.5583465 C69.1986703,14.5973806 68.1616799,14.6364147 67.1246895,14.6754488 C67.1317715,14.7274943 67.1389847,14.7795398 67.1460667,14.8315853 C67.2395755,15.1589308 67.4081012,15.4432486 67.6520372,15.684281 L67.8487598,15.8775192 C68.0268594,16.0659909 68.2378771,16.1991964 68.4818132,16.277007 C68.7161754,16.3981029 68.9688983,16.4536267 69.2397198,16.4434495 C69.5106724,16.4536267 69.7632642,16.3981029 69.9976264,16.277007 C70.2415624,16.1991964 70.4525802,16.0659909 70.6308109,15.8775192 C70.7333689,15.7471479 70.835927,15.6167765 70.9383539,15.4864051 C71.1144862,15.1881742 71.2036671,14.866497 71.2065524,14.5217601 C71.2066835,14.5182818 71.2069458,14.5146747 71.2069458,14.5110675 C71.1853063,14.3526122 71.1636668,14.1940281 71.1418962,14.0355728" id="Fill-96" fill="#FCF2F1"></path>
                <path d="M89.0606892,19.2876709 C89.3313795,19.2977193 89.5841024,19.2421955 89.8184646,19.1212284 C90.0624006,19.0434178 90.2734184,18.9100835 90.4516491,18.7217407 C90.5542072,18.5913693 90.6567652,18.4609979 90.7591921,18.3306266 C90.9372916,18.029175 91.0267348,17.7041483 91.0279152,17.355289 L90.9576196,16.8416619 C90.8641108,16.5143164 90.695454,16.2299986 90.4516491,15.9889661 L90.2549265,15.7957279 C90.0766958,15.6072563 89.8658092,15.4740508 89.6218732,15.3961114 C89.3873798,15.2751442 89.1346569,15.2196205 88.8639666,15.2296689 C88.5931451,15.2196205 88.3404221,15.2751442 88.1060599,15.3961114 C88.101732,15.3975284 88.0977976,15.3995896 88.0934697,15.4010067 C87.9304522,16.5300331 87.8314352,17.6743897 87.7766152,18.8219669 C87.9308457,18.9572336 88.1055353,19.0582328 88.3027825,19.1212284 C88.5371447,19.2421955 88.7898677,19.2977193 89.0606892,19.2876709" id="Fill-98" fill="#FCF2F1"></path>
                <path d="M85.5600236,32.426232 C85.3160875,32.5041714 85.1050698,32.6373769 84.9268391,32.8258486 C84.8244122,32.9560911 84.721723,33.0864625 84.6192961,33.2168338 C84.4413277,33.5182854 84.3517533,33.8433121 84.3507042,34.1921714 C84.3741797,34.3633805 84.3975241,34.5345895 84.4208686,34.7059274 C84.5143774,35.0332729 84.6830342,35.3174618 84.9268391,35.5584943 L85.1235617,35.7517325 C85.3016612,35.9402041 85.5128101,36.0734096 85.7567462,36.1513491 C85.9911084,36.2723162 86.2438313,36.3278399 86.5146528,36.3177916 C86.7854742,36.3278399 87.0381972,36.2723162 87.2725594,36.1513491 C87.5163643,36.0734096 87.727382,35.9402041 87.9057439,35.7517325 C88.0081708,35.6214899 88.1107288,35.4911186 88.2131557,35.3607472 C88.3113859,35.1943047 88.3810257,35.0202615 88.4252227,34.8393905 C87.8489566,34.0840869 87.3660682,33.2635975 86.9921641,32.3905473 C86.7814086,32.29702 86.557276,32.2509005 86.3179302,32.2597895 C86.0471087,32.2497411 85.7943858,32.3052649 85.5600236,32.426232" id="Fill-100" fill="#FCF2F1"></path>
                <path d="M33.7266212,74.4696197 L33.9233438,74.6628579 C34.1014434,74.8513295 34.3125923,74.984535 34.5563972,75.0624745 C34.7908905,75.1834416 35.0434823,75.2388365 35.3143038,75.228917 C35.5851252,75.2388365 35.8378482,75.1834416 36.0723416,75.0624745 C36.3161464,74.984535 36.5271642,74.8513295 36.7053949,74.6628579 C36.8079529,74.5324865 36.9103798,74.4021151 37.013069,74.2717438 C37.1910374,73.970421 37.2804806,73.6452655 37.2815298,73.296535 C37.2581854,73.1251972 37.2347098,72.9539881 37.2113654,72.7827791 C37.1178566,72.4554336 36.9491998,72.1712446 36.7053949,71.9300833 L36.5086723,71.7368451 C36.3304416,71.5483735 36.1194238,71.4152968 35.875619,71.3373574 C35.6411256,71.2162615 35.3885338,71.1607377 35.1175812,71.1709149 C34.8468909,71.1607377 34.5941679,71.2162615 34.3596746,71.3373574 C34.1158697,71.4152968 33.9047208,71.5483735 33.7266212,71.7368451 C33.6240632,71.8672165 33.5215051,71.9975879 33.4189471,72.1279592 C33.2409787,72.429282 33.1515355,72.7544375 33.1503552,73.1032968 C33.1738307,73.2745059 33.1973063,73.4457149 33.2206507,73.6169239 C33.3141595,73.9442694 33.4828164,74.2284584 33.7266212,74.4696197" id="Fill-102" fill="#FCF2F1"></path>
                <path d="M31.300507,60.5657194 C31.1580798,60.8397312 31.085817,61.1325515 31.0847679,61.4445667 C31.1082434,61.6157758 31.131719,61.7869848 31.1550634,61.9581938 C31.2485722,62.2856682 31.417229,62.5698571 31.6610339,62.8108896 L31.8577565,63.0041278 C32.0358561,63.1925994 32.247005,63.3258049 32.4908099,63.4037444 C32.7253032,63.5247115 32.9780262,63.5801064 33.2487165,63.5701869 C33.5195379,63.5801064 33.7722609,63.5247115 34.0067542,63.4037444 C34.2505591,63.3258049 34.461708,63.1925994 34.6398076,63.0041278 C34.732136,62.8867678 34.8245957,62.769279 34.9169241,62.6517901 C33.9069503,62.0691126 32.8968453,61.4865638 31.8868715,60.9038863 L31.300507,60.5657194 Z" id="Fill-104" fill="#FCF2F1"></path>
                <path d="M25.2197851,72.0357073 C25.46359,71.9577679 25.6747389,71.8245624 25.8528384,71.6360908 C25.9553965,71.5057194 26.0579545,71.3754768 26.1605126,71.2451055 C26.338481,70.9436539 26.4279242,70.6186273 26.4291045,70.2697679 C26.405629,70.0985589 26.3822845,69.927221 26.358809,69.756012 C26.2653002,69.4286665 26.0967745,69.1444775 25.8528384,68.9033162 C25.7872642,68.8389035 25.72169,68.7744908 25.6561158,68.7102069 C25.4780163,68.5217352 25.2669985,68.3885297 25.0230625,68.3105903 C25.012046,68.3049219 25.000505,68.301186 24.9893574,68.2957753 C24.7261425,69.5930477 24.465813,70.8908355 24.2099424,72.1893961 C24.2923036,72.1994445 24.3758452,72.2052416 24.4618785,72.2021498 C24.7327,72.2121982 24.9852918,72.1566744 25.2197851,72.0357073" id="Fill-106" fill="#FCF2F1"></path>
                <path d="M27.9361833,84.8625237 L28.1329059,85.0557619 C28.3110054,85.2442335 28.5221543,85.377439 28.7660903,85.4553784 C29.0004525,85.5763456 29.2531755,85.6317405 29.5238658,85.6216921 C29.7948184,85.6317405 30.0474102,85.5763456 30.2819036,85.4553784 C30.5257084,85.377439 30.7367262,85.2442335 30.9149569,85.0557619 C31.017515,84.9253905 31.120073,84.7950191 31.2226311,84.6646478 C31.4005994,84.363325 31.4900426,84.0381695 31.4910918,83.6893102 C31.4677474,83.5181011 31.444403,83.3468921 31.4209274,83.1756831 C31.3274186,82.8483376 31.1587618,82.5640198 30.9149569,82.3229873 L30.7182343,82.1297491 C30.5400036,81.9412775 30.329117,81.808072 30.085181,81.7301326 C29.8506876,81.6091654 29.5980958,81.5536417 29.3271432,81.5638189 C29.0564529,81.5536417 28.8037299,81.6091654 28.5693677,81.7301326 C28.3254317,81.808072 28.1144139,81.9412775 27.9361833,82.1297491 C27.8336252,82.2601205 27.7311983,82.3904919 27.6286403,82.5208632 C27.4506719,82.822186 27.3610975,83.1473415 27.3599172,83.4962008 L27.4303439,84.0098279 C27.5237215,84.3371734 27.6923784,84.6213624 27.9361833,84.8625237" id="Fill-108" fill="#FCF2F1"></path>
                <path d="M20.3533925,94.6663475 C20.5878859,94.7873146 20.8404777,94.8428384 21.1112991,94.83279 C21.3822517,94.8428384 21.6348436,94.7873146 21.8693369,94.6663475 C22.1131418,94.5884081 22.3241596,94.4552025 22.5023902,94.2667309 C22.6049483,94.1364883 22.7075063,94.0059881 22.8099332,93.8756168 C22.9879016,93.5741652 23.077476,93.2492674 23.0785252,92.900408 C23.0551808,92.7290702 23.0317052,92.5578611 23.0083608,92.3866521 C22.914852,92.0593066 22.7461951,91.7751176 22.5023902,91.5339564 L22.3056676,91.3407182 C22.127437,91.1523753 21.9164192,91.019041 21.6726143,90.9411016 C21.438121,90.8202633 21.1855291,90.7647395 20.9145765,90.7747879 C20.8785107,90.7733708 20.8434941,90.7763338 20.808084,90.7773644 C20.5937876,92.0499023 20.3830321,93.3232132 20.1756865,94.5970394 C20.2328672,94.6235774 20.2921462,94.646766 20.3533925,94.6663475" id="Fill-110" fill="#FCF2F1"></path>
                <path d="M30.4884492,96.2184109 C30.2176277,96.2084913 29.9650359,96.2640151 29.7305426,96.3848534 C29.4866065,96.4627928 29.2755888,96.5959983 29.0974892,96.78447 C28.9949312,96.9147125 28.8923731,97.0452127 28.7898151,97.1755841 C28.6118467,97.4770356 28.5224035,97.8020623 28.5212232,98.1507928 L28.5915187,98.6644199 C28.6850275,98.9918942 28.8536844,99.2760832 29.0974892,99.5172445 L29.2942118,99.7104827 C29.4723114,99.8988255 29.6833291,100.03216 29.9272652,100.10997 C30.1616274,100.230938 30.4143503,100.286461 30.6851718,100.276413 C30.9559932,100.286461 31.2087162,100.230938 31.4430784,100.10997 C31.6870144,100.03216 31.8980322,99.8988255 32.0761317,99.7104827 C32.1788209,99.5801113 32.2812478,99.4497399 32.3838059,99.3193686 C32.5617743,99.017917 32.6513486,98.6928904 32.6523978,98.344031 C32.6289222,98.172822 32.6055778,98.0016129 32.5821023,97.8304039 C32.4885935,97.5030584 32.3200678,97.2188694 32.0761317,96.9777081 C32.0105575,96.9132954 31.9451145,96.8488827 31.8795403,96.78447 C31.7013096,96.5959983 31.4902918,96.4627928 31.2463558,96.3848534 C31.0119936,96.2640151 30.7592706,96.2084913 30.4884492,96.2184109" id="Fill-112" fill="#FCF2F1"></path>
                <path d="M45.6674078,60.1277257 C45.6317354,60.9567176 46.9433506,60.9550428 46.9788918,60.1277257 C47.108073,57.1236448 47.0095805,54.111319 46.6893161,51.122053 C46.663611,50.88218 46.6359387,50.6425646 46.6073484,50.4029492 C45.9481965,44.8733739 44.5290397,39.4315287 42.3805665,34.2768355 C41.4184619,31.9687985 40.319176,29.7207942 39.081922,27.5429998 C38.6705094,26.8188719 37.5373872,27.4677657 37.9494555,28.1931819 C42.0222691,35.3619324 44.5838597,43.3453751 45.419275,51.5143265 C45.4638655,51.9500142 45.5047838,52.3860884 45.5395381,52.8228067 C45.7325885,55.2532279 45.7720642,57.6922804 45.6674078,60.1277257" id="Fill-114" fill="#FFC558"></path>
                <path d="M78.9837706,53.4920163 C77.8047465,54.2653556 76.6742472,55.1047823 75.5977812,56.0041129 C71.7959202,59.1806911 68.6694734,63.1071624 66.4747049,67.5302558 C66.1063091,68.2725481 67.2369394,68.9264662 67.6070402,68.1805667 C69.8061366,63.7489708 72.94819,59.818506 76.8011989,56.685986 C77.7108442,55.9463991 78.659834,55.2509992 79.6456766,54.6044242 C80.3443041,54.146192 79.6882998,53.0299194 78.9837706,53.4920163" id="Fill-116" fill="#FFC558"></path>
                <path d="M31.35635,21.7751618 C32.43898,22.0594796 33.2126244,22.9289226 34.2429263,23.1914689 C33.5768235,23.8931812 32.9100651,24.5942494 32.246323,25.2981517 C31.9234356,25.6405698 32.3617336,26.0814105 32.7452115,25.9710071 C33.4633802,25.764371 34.1294829,25.4886845 34.7520444,25.1226914 C34.7991266,25.22266 34.8810944,25.3066542 34.9789311,25.3641103 C34.9785377,25.3714534 34.9778819,25.3786676 34.9774885,25.3858818 C34.9668654,25.4325166 34.9646359,25.4778632 34.9684392,25.5220503 C34.9290947,26.1981264 34.9086356,26.8765212 34.8712583,27.5492478 C34.8498811,27.9341783 35.3356548,28.2415558 35.619591,27.8817463 C36.4766458,26.7961342 37.0756006,25.5935485 37.422357,24.2765658 C38.6740373,24.7309332 39.9246685,25.189423 41.1711029,25.6569306 C41.5934007,25.8152571 41.8960912,25.3891025 41.6912374,25.0291641 C41.0983155,23.9868373 40.5120822,22.9445105 39.9986362,21.8623766 C40.8214612,21.1287156 41.5983844,20.3569223 42.3199629,19.5232927 C42.5608825,19.2449009 42.3141923,18.7370709 41.925075,18.8047043 C40.4042782,19.0695694 39.0037444,19.5118272 37.6180304,20.1442314 C37.2300934,19.1605202 36.8349433,18.181962 36.412252,17.2110045 C36.1976932,16.7178606 35.4897541,16.9090376 35.5041804,17.4264006 C35.5203117,18.0053423 35.4598523,18.5734626 35.3549336,19.1347551 C35.2681133,19.2298283 35.2126376,19.3529854 35.2184081,19.4952087 C35.2215556,19.5710869 35.2249655,19.6469651 35.2289,19.723101 C35.1349977,20.1170492 35.024833,20.5082922 34.9070618,20.8978604 C33.7486279,20.6271981 32.5560955,20.7224001 31.3853338,20.8933515 C30.8617893,20.969745 30.8687402,21.6471093 31.35635,21.7751618" id="Fill-118" fill="#FFC558"></path>
                <path d="M84.0553973,50.0887826 C84.4825476,49.4597278 84.903534,48.8286119 85.3086514,48.1848711 C85.5144233,47.8577832 85.1083878,47.5288918 84.8055662,47.7507293 C84.4666787,47.9987183 84.1026107,48.1982689 83.7245099,48.3693491 C83.6319191,48.3585278 83.535525,48.3773363 83.4530327,48.4393014 C83.409098,48.4724095 83.3651633,48.5057753 83.3213597,48.5393987 C83.0475218,48.647741 82.7685692,48.7457771 82.4876493,48.8385315 C82.1714505,48.0597815 81.6227256,47.4124336 81.0378037,46.8087575 C80.7762938,46.5388681 80.3751109,46.8221553 80.4997018,47.1558133 C80.7765561,47.8964309 80.576686,48.7004306 80.8450156,49.402014 C80.1513717,49.3078426 79.4581212,49.2130271 78.7643462,49.1211745 C78.4267702,49.0764721 78.3445402,49.5107427 78.5685416,49.6860742 C78.9879542,50.0143215 79.4271702,50.2842108 79.9023209,50.4916198 C79.8621895,50.5600261 79.8457959,50.6418303 79.8518287,50.7219597 C79.8473697,50.7246651 79.8427795,50.7273704 79.8381893,50.7300757 C79.8061891,50.7432159 79.7781233,50.7606074 79.7533363,50.7810906 C79.3336614,51.0371956 78.9204128,51.3051526 78.503492,51.5611288 C78.2649331,51.7074745 78.2818512,52.1140477 78.6135255,52.1291202 C79.6149747,52.1749821 80.5797024,52.0238698 81.5086265,51.6804212 C81.7536117,52.5885118 81.9958428,53.497762 82.2309919,54.4083003 C82.310599,54.7167085 82.689749,54.7152914 82.8201105,54.4488803 C83.1975556,53.6776023 83.5777548,52.9100602 84.011856,52.1682832 C84.7890415,52.3394922 85.5701613,52.4685753 86.3650518,52.5402023 C86.6306273,52.564035 86.8320713,52.2125991 86.6311519,52.0165268 C85.8458353,51.2498865 85.004256,50.6258559 84.0553973,50.0887826" id="Fill-120" fill="#FFC558"></path>
                <path d="M59.6722341,68.1990661 C59.6519061,68.6143994 59.7464641,69.0348857 59.8062677,69.4449371 C59.8549238,69.7773068 59.8881043,70.202302 60.2363033,70.3616591 C60.3350581,70.4068768 60.4369604,70.3997914 60.5189282,70.3258456 C60.7910611,70.0800466 60.7181426,69.6947297 60.6614865,69.3709913 L60.5564366,68.7686034 C60.5388627,68.6683772 60.5235183,68.5675069 60.5021412,68.4679248 C60.4992559,68.454527 60.4422063,68.211691 60.4085012,68.2489215 C60.4066651,68.1995814 60.401288,68.1519159 60.3930257,68.1032199 C60.3212875,67.6859542 59.6912506,67.8122032 59.6722341,68.1990661" id="Fill-122" fill="#7BA3CA"></path>
                <path d="M59.75811,70.4715086 C59.3870912,70.2583024 58.9929903,70.1994292 58.5683317,70.1954356 C58.3487893,70.1933744 57.7692445,70.2450334 57.8919994,70.6139895 C58.0034756,70.9493222 58.3807895,71.012189 58.6988244,71.0635904 C59.0737777,71.1240095 59.4193537,71.0840736 59.75811,70.906681 C59.9301767,70.816632 59.9194226,70.5642629 59.75811,70.4715086" id="Fill-124" fill="#7BA3CA"></path>
                <path d="M61.8785699,71.0334839 C62.1328666,71.0434034 62.3942454,71.0548689 62.6438208,70.9989587 C63.0480202,70.9082655 62.9714295,70.3903872 62.6438208,70.2668436 C62.3545074,70.1578572 61.9788984,70.1833647 61.6855194,70.2677453 C61.4804033,70.3267474 61.0773843,70.5384076 61.263615,70.8128059 C61.4053864,71.0216319 61.6425027,71.0242085 61.8785699,71.0334839" id="Fill-126" fill="#7BA3CA"></path>
                <path d="M60.2291033,71.4495772 C59.8765764,71.6004319 59.9429375,72.1461365 59.9279866,72.4591824 C59.9100192,72.8341933 59.874478,73.1692683 60.2035294,73.4114602 C60.2536281,73.4484331 60.3397926,73.4428936 60.390547,73.4114602 C60.7955332,73.1616676 60.7275984,72.6311644 60.7289099,72.214414 C60.7296967,71.9380834 60.7169754,71.24088 60.2291033,71.4495772" id="Fill-128" fill="#7BA3CA"></path>
                <path d="M84.3716092,65.6953303 C84.470364,65.7405481 84.5721351,65.7334627 84.6541029,65.6595168 C84.9262358,65.4137179 84.8534484,65.0284009 84.7967923,64.7046625 L84.6916113,64.1022747 C84.6741686,64.0020484 84.6585619,63.9011781 84.6373159,63.801596 C84.6345618,63.7881982 84.5773811,63.5453622 84.5436759,63.5825927 C84.541971,63.5332526 84.5365939,63.4855872 84.5282004,63.4368911 C84.4564622,63.0196255 83.8264253,63.1458744 83.8075399,63.5327373 C83.7872119,63.9480706 83.8817699,64.3685569 83.9415736,64.7786083 C83.9900985,65.110978 84.0235414,65.5359732 84.3716092,65.6953303" id="Fill-130" fill="#7BA3CA"></path>
                <path d="M82.8340778,66.3972745 C83.2088999,66.4578225 83.5546071,66.4177578 83.8933635,66.2403651 C84.0654302,66.1503161 84.054676,65.897947 83.8933635,65.8051927 C83.5223446,65.5919865 83.1282437,65.5331133 82.7037163,65.5291197 C82.4840427,65.5270585 81.9044979,65.5787175 82.0272529,65.9476736 C82.1385978,66.2830063 82.5159118,66.3458731 82.8340778,66.3972745" id="Fill-132" fill="#7BA3CA"></path>
                <path d="M86.0137839,66.3671422 C86.2680807,66.3770618 86.5295906,66.3885273 86.779166,66.332617 C87.1832342,66.2420527 87.1067747,65.7240455 86.779166,65.6005019 C86.4897215,65.4915156 86.1142436,65.517023 85.8207335,65.6014037 C85.6157485,65.6604057 85.2127295,65.872066 85.3989602,66.1464642 C85.5406005,66.3552903 85.7777168,66.3579956 86.0137839,66.3671422" id="Fill-134" fill="#7BA3CA"></path>
                <path d="M84.3643174,66.7832485 C84.0117905,66.9341031 84.0781516,67.4798077 84.0633318,67.7928536 C84.0452333,68.1678645 84.0098232,68.5029396 84.3387434,68.7451314 C84.3888421,68.7821043 84.4750066,68.7765648 84.525761,68.7451314 C84.9307473,68.4953389 84.8629436,67.9648356 84.8641239,67.5480852 C84.8649108,67.2717546 84.8523206,66.5745512 84.3643174,66.7832485" id="Fill-136" fill="#7BA3CA"></path>
                <path d="M100.254533,70.2480093 C100.251648,70.2346114 100.194598,69.9917754 100.160893,70.0288772 C100.159057,69.9796658 100.153549,69.9318716 100.145418,69.8833044 C100.073679,69.4660387 99.4435114,69.5922877 99.424626,69.9791505 C99.4044291,70.3944838 99.498856,70.8149701 99.5586597,71.2248928 C99.6071846,71.5573913 99.6404963,71.9823865 99.9888264,72.1417436 C100.087581,72.1868325 100.189352,72.1798759 100.271189,72.1059301 C100.543453,71.8601311 100.470403,71.4748142 100.41401,71.1510758 L100.308829,70.5486879 C100.291255,70.4484617 100.275779,70.3474625 100.254533,70.2480093" id="Fill-138" fill="#FFBC9A"></path>
                <path d="M99.5104233,72.2515286 C99.1394045,72.0383225 98.7453035,71.9795781 98.3207761,71.9754557 C98.1012337,71.9733945 97.5215578,72.0250535 97.6443127,72.3940096 C97.7557888,72.7293423 98.1331028,72.7922091 98.4512688,72.8436105 C98.8260909,72.9041584 99.171667,72.8640937 99.5104233,72.686701 C99.68249,72.596652 99.6717358,72.344283 99.5104233,72.2515286" id="Fill-140" fill="#FFBC9A"></path>
                <path d="M102.3962,72.0469152 C102.106886,71.9378 101.731277,71.9634363 101.437767,72.0478169 C101.232782,72.106819 100.829763,72.3184792 101.015994,72.5928775 C101.157765,72.8017035 101.39475,72.80428 101.630949,72.8135555 C101.885245,72.823475 102.146624,72.8349405 102.3962,72.7790303 C102.800399,72.6883371 102.723939,72.1704588 102.3962,72.0469152" id="Fill-142" fill="#FFBC9A"></path>
                <path d="M99.9814821,73.2296746 C99.6289552,73.3804004 99.6953163,73.9262339 99.6803654,74.2391509 C99.662398,74.6141618 99.6268568,74.9493657 99.9559082,75.1915576 C100.006007,75.2285305 100.092171,75.2228622 100.142926,75.1915576 C100.547912,74.941765 100.479977,74.4111329 100.481289,73.9945114 C100.481944,73.7181808 100.469354,73.0209774 99.9814821,73.2296746" id="Fill-144" fill="#FFBC9A"></path>
                <path d="M57.8323138,45.1170473 C58.1110042,45.1048089 58.4001864,45.0148887 58.5944172,44.8069644 C58.7879922,44.599813 58.9100914,44.3452539 58.9100914,44.0584885 L58.9100914,43.9172957 C58.9100914,43.6458605 58.7898283,43.3606409 58.5944172,43.168691 C58.4075307,42.9851147 58.1007746,42.8467562 57.8323138,42.8586081 C57.5536235,42.8708465 57.2644412,42.9607667 57.0702104,43.168691 C56.8766354,43.3758423 56.7545362,43.6304014 56.7545362,43.9172957 L56.7545362,44.0584885 C56.7545362,44.3299237 56.8747993,44.6150145 57.0702104,44.8069644 C57.2572281,44.9906695 57.563853,45.1288992 57.8323138,45.1170473" id="Fill-146" fill="#FF664F"></path>
                <path d="M98.6314405,65.9734903 C98.910262,65.9612518 99.199313,65.8713317 99.393675,65.6634074 C99.5871189,65.456256 99.709218,65.2016969 99.709218,64.9148026 L99.709218,64.7737387 C99.709218,64.5023035 99.5890861,64.2170839 99.393675,64.025134 C99.2066574,63.8415577 98.9000324,63.7031991 98.6314405,63.7150511 C98.3527501,63.7272895 98.063699,63.8172097 97.8693371,64.025134 C97.6758932,64.2322853 97.5536629,64.4868444 97.5536629,64.7737387 L97.5536629,64.9148026 C97.5536629,65.1862379 97.673926,65.4714574 97.8693371,65.6634074 C98.0563547,65.8471125 98.3629797,65.9853422 98.6314405,65.9734903" id="Fill-148" fill="#FF664F"></path>
                <path d="M69.4134652,52.2528958 C69.3005464,52.2579199 69.1863162,52.276342 69.0769384,52.3094501 C68.9162816,52.3581462 68.7669036,52.4393062 68.6513618,52.5629786 C68.4577868,52.77013 68.3356876,53.0246891 68.3356876,53.3115834 L68.3356876,53.4526473 C68.3356876,53.7240825 68.4559507,54.0093021 68.6513618,54.201252 C68.8383794,54.3848283 69.1450044,54.5231869 69.4134652,54.5113349 C69.6921555,54.4990965 69.9813378,54.4091763 70.1755685,54.201252 C70.3691436,53.9942295 70.4912428,53.7395416 70.4912428,53.4526473 L70.4912428,53.3115834 C70.4912428,53.2403429 70.4824558,53.1682007 70.466718,53.0969602 C70.422521,52.8968942 70.3197006,52.7045578 70.1755685,52.5629786 C69.9886821,52.3792735 69.681926,52.2410438 69.4134652,52.2528958" id="Fill-150" fill="#FF786E"></path>
                <path d="M61.6575848,42.8773136 C62.0928663,44.2026699 62.4484097,45.5501842 62.7236902,46.9117406 C63.6960244,51.7205374 63.6646799,56.7053099 62.589263,61.5111437 C62.4088028,62.3177199 61.1092533,62.1405849 61.2906316,61.3301439 C62.3680157,56.5151635 62.3896552,51.5177661 61.3495172,46.7121899 C61.1038763,45.5776241 60.799612,44.4537507 60.435544,43.3455941 C60.1775751,42.5604029 61.3973864,42.0854234 61.6575848,42.8773136" id="Fill-152" fill="#FFC558"></path>
            </g>
        </g>
    </g>
</svg>