<?xml version="1.0" encoding="UTF-8"?>
<svg width="51px" height="23px" viewBox="0 0 51 23" version="1.1" xmlns="http://www.w3.org/2000/svg" xmlns:xlink="http://www.w3.org/1999/xlink">
    <title>Fill 1</title>
    <g id="切圖" stroke="none" stroke-width="1" fill="none" fill-rule="evenodd">
        <g id="設計稿--v1-2" transform="translate(-236.000000, -1651.000000)" fill="#FFCAA2">
            <g id="Group-13" transform="translate(159.000000, 1651.000000)">
                <g id="Group-3" transform="translate(77.000000, 0.000000)">
                    <path d="M27.499589,18.6572766 C27.6142745,18.8281337 27.72896,18.9998409 27.8436455,19.171123 C34.1378556,18.4664437 39.7956736,16.4335841 43.3365323,13.9880324 C45.9257261,12.199983 47.2376383,10.0298428 46.935858,8.0348098 C46.706487,6.5179217 45.557833,5.23181821 43.9382938,4.67844519 C41.6594255,3.89981281 38.9254131,4.67164491 36.4369626,6.79630828 C32.9829052,9.74508093 30.2187597,13.9842073 27.499589,18.6572766 M8.56463757,5.47789595 C7.99056267,5.48451484 7.43227144,5.57552447 6.89923409,5.75340694 C5.2960634,6.28788171 4.19751942,7.54422836 4.03246725,9.03182223 C3.79571209,11.1635161 5.46923289,13.4064899 8.62326266,15.1857283 C13.1031214,17.7141415 18.1827598,18.9105045 23.1961068,19.171123 C23.2939656,19.0039962 23.3913735,18.8368694 23.4892323,18.669329 C20.8605735,14.9205593 18.1678781,11.3674604 14.5150841,8.10311026 C12.5682802,6.3631715 10.4767174,5.45472987 8.56463757,5.47789595 M6.53160675,18.5317054 C1.99720294,15.8958137 -0.366680909,12.1840717 0.0463213752,8.34895406 C0.388710943,5.17145146 2.61465367,2.50568585 5.85585948,1.39297798 C9.73463242,0.0610651099 14.2296245,1.27154229 17.8789061,4.63100444 C20.8573669,7.37320082 23.2011344,10.3144276 25.3071997,13.275441 C27.5906179,9.54468825 30.0973693,6.04128795 33.1838019,3.40617224 C36.8421154,0.281822006 41.1416909,-0.756782933 44.9798204,0.554955318 C48.1643719,1.64283289 50.4326001,4.23371962 50.8989725,7.31578075 C51.4388313,10.8863005 49.527772,14.4672954 45.6543361,17.1423724 C42.0760777,19.6137633 36.9808776,21.4903909 31.5506776,22.3924292 C29.0665058,22.8936909 27.0741598,22.9165813 26.0708023,22.9569306 C25.8113416,22.9674059 25.5481861,22.9759413 25.2809252,22.9817609 C22.035614,23.0593556 21.4436167,22.935592 19.8285561,22.7551844 C15.6094462,22.2977637 10.9543439,21.1024175 6.53160675,18.5317054 Z" id="Fill-1"></path>
                </g>
            </g>
        </g>
    </g>
</svg>