<?xml version="1.0" encoding="UTF-8"?>
<svg width="52px" height="23px" viewBox="0 0 52 23" version="1.1" xmlns="http://www.w3.org/2000/svg" xmlns:xlink="http://www.w3.org/1999/xlink">
    <title>Group 3 Copy 2</title>
    <defs>
        <polygon id="path-1" points="0.991561181 0 51.9915612 0 51.9915612 23 0.991561181 23"></polygon>
    </defs>
    <g id="切圖" stroke="none" stroke-width="1" fill="none" fill-rule="evenodd">
        <g id="設計稿--v1-2" transform="translate(-782.000000, -1359.000000)">
            <g id="Group-13" transform="translate(51.000000, 1359.000000)">
                <g id="Group-3-Copy-2" transform="translate(731.000000, 0.000000)">
                    <mask id="mask-2" fill="white">
                        <use xlink:href="#path-1"></use>
                    </mask>
                    <g id="Clip-2"></g>
                    <path d="M28.505618,18.6529397 C28.6203286,18.8237571 28.7350393,18.9954244 28.8497499,19.1666667 C35.1453399,18.4621512 40.8043984,16.4297641 44.3460333,13.9847809 C46.9357947,12.1971472 48.2479945,10.0275113 47.9461481,8.03294211 C47.7167268,6.51640661 46.567821,5.23060207 44.9479268,4.67735769 C42.6685588,3.8989063 39.933947,4.67055899 37.444951,6.79472848 C33.9901363,9.74281569 31.2253849,13.9809566 28.505618,18.6529397 M9.56651527,5.47662262 C8.9923145,5.48323996 8.43390087,5.57422844 7.90074667,5.75206956 C6.29722449,6.28642009 5.19843968,7.54247471 5.03335132,9.02972278 C4.79654425,11.1609211 6.47043195,13.4033736 9.62515321,15.1821984 C14.1059941,17.7100238 19.1867462,18.9061087 24.2011923,19.1666667 C24.2990726,18.9995787 24.3965018,18.8324908 24.494382,18.6649893 C21.8651469,14.917091 19.1718612,11.3648181 15.5182663,8.10122669 C13.5710356,6.36169238 11.4790143,5.45346191 9.56651527,5.47662262 M20.8329032,22.7498949 C16.6128684,22.2925806 11.9567456,21.0975122 7.53303873,18.5273977 C2.99764081,15.8921187 0.6332387,12.1812395 1.04633153,8.34701334 C1.38879616,5.17024936 3.61522691,2.5051034 6.8571433,1.39265418 C10.7367666,0.0610509153 15.2327442,1.27124672 18.8828258,4.62992796 C21.8619396,7.37148692 24.2062209,10.31203 26.312748,13.2723551 C28.5966668,9.54246958 31.1039678,6.03988365 34.1910771,3.40538047 C37.8501926,0.281756496 42.1507107,-0.756607019 45.9896817,0.554826319 C49.1749313,1.64245101 51.4436569,4.23273549 51.9101315,7.31408019 C52.4501087,10.8837699 50.5386304,14.4639325 46.6643453,17.1383877 C43.0853024,19.6092041 37.9889852,21.4853955 32.5575947,22.3872241 C30.0728783,22.8883693 28.0800954,22.9112544 27.076518,22.9515942 C26.8170005,22.9620671 26.5537872,22.9706005 26.2864677,22.9764188 C23.040445,23.0539954 22.4483179,22.9302607 20.8329032,22.7498949" id="Fill-1" fill="#E4C6F4" mask="url(#mask-2)"></path>
                    <path d="M28.505618,18.6529397 C28.6203286,18.8237571 28.7350393,18.9954244 28.8497499,19.1666667 C35.1453399,18.4621512 40.8043984,16.4297641 44.3460333,13.9847809 C46.9357947,12.1971472 48.2479945,10.0275113 47.9461481,8.03294211 C47.7167268,6.51640661 46.567821,5.23060207 44.9479268,4.67735769 C42.6685588,3.8989063 39.933947,4.67055899 37.444951,6.79472848 C33.9901363,9.74281569 31.2253849,13.9809566 28.505618,18.6529397 M9.56651527,5.47662262 C8.9923145,5.48323996 8.43390087,5.57422844 7.90074667,5.75206956 C6.29722449,6.28642009 5.19843968,7.54247471 5.03335132,9.02972278 C4.79654425,11.1609211 6.47043195,13.4033736 9.62515321,15.1821984 C14.1059941,17.7100238 19.1867462,18.9061087 24.2011923,19.1666667 C24.2990726,18.9995787 24.3965018,18.8324908 24.494382,18.6649893 C21.8651469,14.917091 19.1718612,11.3648181 15.5182663,8.10122669 C13.5710356,6.36169238 11.4790143,5.45346191 9.56651527,5.47662262 M20.8329032,22.7498949 C16.6128684,22.2925806 11.9567456,21.0975122 7.53303873,18.5273977 C2.99764081,15.8921187 0.6332387,12.1812395 1.04633153,8.34701334 C1.38879616,5.17024936 3.61522691,2.5051034 6.8571433,1.39265418 C10.7367666,0.0610509153 15.2327442,1.27124672 18.8828258,4.62992796 C21.8619396,7.37148692 24.2062209,10.31203 26.312748,13.2723551 C28.5966668,9.54246958 31.1039678,6.03988365 34.1910771,3.40538047 C37.8501926,0.281756496 42.1507107,-0.756607019 45.9896817,0.554826319 C49.1749313,1.64245101 51.4436569,4.23273549 51.9101315,7.31408019 C52.4501087,10.8837699 50.5386304,14.4639325 46.6643453,17.1383877 C43.0853024,19.6092041 37.9889852,21.4853955 32.5575947,22.3872241 C30.0728783,22.8883693 28.0800954,22.9112544 27.076518,22.9515942 C26.8170005,22.9620671 26.5537872,22.9706005 26.2864677,22.9764188 C23.040445,23.0539954 22.4483179,22.9302607 20.8329032,22.7498949" id="Fill-1" fill="#E4C6F4" mask="url(#mask-2)"></path>
                </g>
            </g>
        </g>
    </g>
</svg>