<?xml version="1.0" encoding="utf-8"?>
<!-- Generator: Adobe Illustrator 25.2.0, SVG Export Plug-In . SVG Version: 6.00 Build 0)  -->
<svg version="1.1" id="圖層_1" xmlns="http://www.w3.org/2000/svg" xmlns:xlink="http://www.w3.org/1999/xlink" x="0px" y="0px"
	 viewBox="0 0 441 447" style="enable-background:new 0 0 441 447;" xml:space="preserve">
<style type="text/css">
	.st0{fill-rule:evenodd;clip-rule:evenodd;fill:#88B291;}
	.st1{filter:url(#Adobe_OpacityMaskFilter);}
	.st2{fill-rule:evenodd;clip-rule:evenodd;fill:#FFFFFF;}
	.st3{mask:url(#mask-2_1_);fill-rule:evenodd;clip-rule:evenodd;fill:#768D63;}
	.st4{fill-rule:evenodd;clip-rule:evenodd;fill:#464A8A;}
	.st5{fill-rule:evenodd;clip-rule:evenodd;fill:#6B6B6B;}
	.st6{fill-rule:evenodd;clip-rule:evenodd;fill:#F6D5D0;}
	.st7{fill-rule:evenodd;clip-rule:evenodd;fill:#F79884;}
	.st8{fill-rule:evenodd;clip-rule:evenodd;fill:#6E4A33;}
	.st9{fill-rule:evenodd;clip-rule:evenodd;fill:#DB745E;}
	.st10{fill-rule:evenodd;clip-rule:evenodd;fill:#2D2D2D;}
	.st11{fill-rule:evenodd;clip-rule:evenodd;fill:#584F4E;}
	.st12{fill-rule:evenodd;clip-rule:evenodd;fill:#FFFFFF;stroke:#505050;}
	.st13{filter:url(#Adobe_OpacityMaskFilter_1_);}
	.st14{mask:url(#mask-4_1_);fill-rule:evenodd;clip-rule:evenodd;fill:#464A8A;}
	.st15{fill-rule:evenodd;clip-rule:evenodd;fill:#DC976E;}
	.st16{fill-rule:evenodd;clip-rule:evenodd;fill:#FFE8AB;}
	.st17{fill-rule:evenodd;clip-rule:evenodd;fill:#333333;}
	.st18{fill-rule:evenodd;clip-rule:evenodd;fill:#1F2144;}
	.st19{fill-rule:evenodd;clip-rule:evenodd;fill:#78ADD9;}
	.st20{fill-rule:evenodd;clip-rule:evenodd;fill:#F5E4D5;}
	.st21{fill:#6E4A33;}
	.st22{filter:url(#Adobe_OpacityMaskFilter_2_);}
	.st23{mask:url(#mask-6_1_);fill-rule:evenodd;clip-rule:evenodd;fill:#87B8C0;stroke:#EAE1E1;}
	.st24{fill-rule:evenodd;clip-rule:evenodd;fill:#F4F4F4;}
	.st25{fill-rule:evenodd;clip-rule:evenodd;fill:#ECECEC;}
	.st26{fill-rule:evenodd;clip-rule:evenodd;fill:#E4E1E1;}
	.st27{fill-rule:evenodd;clip-rule:evenodd;fill:#F6F6F6;}
	.st28{fill-rule:evenodd;clip-rule:evenodd;fill:#D8D8D8;}
	.st29{fill:#FFFFFF;}
	.st30{font-family:'DFHeiStd-W3-B5pc-H';}
	.st31{font-size:24px;}
	.st32{letter-spacing:2;}
	.st33{fill:#595555;}
	.st34{font-size:22px;}
</style>
<g id="Page-1">
	<g id="設計稿-" transform="translate(-42.000000, -2141.000000)">
		<g id="Group-13" transform="translate(42.000000, 2141.000000)">
			<g id="Group-151">
				<path id="Fill-1" class="st0" d="M320.9,272c-1.2-5.9-7.8-21.7-28-23.8c-14.4-1.5-27.1,5.3-37.4,13.8c-6.2,5.1-11,11.3-14.3,18
					c-7,5.4-11.5,13.5-15.2,20.8c-6.4,12.6-10.6,26.3-8.3,40.2c2,12,9.2,23.5,21.5,29.6c12.2,6.1,26.7,5.8,38.3-1.3
					c22.5-13.8,37.1-38,41.7-61.2C321.5,296.6,323.2,283.6,320.9,272"/>
				<path id="Fill-3" class="st0" d="M28.6,337.2c2.6,12.8,10.6,26.1,23.1,33.8c6.4,3.9,14.4,4.1,21.1,0.7
					c6.8-3.4,10.8-9.7,11.9-16.3c1.3-7.7-1.1-15.2-4.6-22.2c-2-4-4.5-8.5-8.4-11.5c-1.8-3.7-4.5-7.1-7.9-9.9
					c-5.7-4.7-12.7-8.4-20.7-7.6c-11.2,1.2-14.8,9.9-15.5,13.1C26.3,323.6,27.3,330.8,28.6,337.2"/>
				<g id="Group-7" transform="translate(0.000000, 216.000000)">
					<g id="Clip-6">
					</g>
					<defs>
						<filter id="Adobe_OpacityMaskFilter" filterUnits="userSpaceOnUse" x="0" y="0.4" width="59.6" height="76.5">
							<feColorMatrix  type="matrix" values="1 0 0 0 0  0 1 0 0 0  0 0 1 0 0  0 0 0 1 0"/>
						</filter>
					</defs>
					<mask maskUnits="userSpaceOnUse" x="0" y="0.4" width="59.6" height="76.5" id="mask-2_1_">
						<g class="st1">
							<polygon id="path-1_1_" class="st2" points="0,0.4 59.6,0.4 59.6,76.9 0,76.9 							"/>
						</g>
					</mask>
					<path id="Fill-5" class="st3" d="M59.2,52.6c-1-7.7-2.8-15.4-5.4-22.7c-2.5-6.9-5.4-14-10-19.8C39.5,4.5,33,0.4,25.7,0.4
						C18.3,0.3,11.7,2.8,6.6,7.6c-5.4,5.2-7.2,14.3-6.4,21.7c0.7,7,3.5,13.7,6.9,19.8C14.3,62,28,77.3,44,76.9
						c0.7,0,1.2-0.1,1.8-0.4c3.4-0.3,6.7-1.9,9.1-4.4C59.9,67,60.1,59.3,59.2,52.6"/>
				</g>
				<path id="Fill-8" class="st4" d="M113.8,337.9c-31.6-25.3-61.8-53.2-84.5-86.9c-6.4-9.5-12.1-19.4-17-29.7
					c-0.4-0.8-1.5-0.1-1.1,0.7c17.6,36.6,44.9,67.3,75,94.2c8.7,7.8,17.7,15.3,26.8,22.6C113.5,339.4,114.4,338.4,113.8,337.9"/>
				<path id="Fill-10" class="st4" d="M113.6,371.7c-32.2-12.3-60.2-34.7-79.3-63.4c-0.5-0.7-1.6,0-1.1,0.7
					c19.3,29,47.5,51.5,80.1,64C114,373.3,114.3,372,113.6,371.7"/>
				<path id="Fill-12" class="st4" d="M302.7,252.5c-7.2,22.7-19,43.7-32.2,63.4c-12,18-26.4,35.2-46.1,44.9
					c-0.8,0.4-0.1,1.5,0.7,1.1c19.6-9.7,34-26.7,46-44.5c13.5-20.1,25.6-41.5,33-64.6C304.2,252,303,251.7,302.7,252.5"/>
				<polygon id="Fill-14" class="st5" points="78.5,442 72,441.6 128.5,146 135,146.4 				"/>
				<polygon id="Fill-16" class="st5" points="252.5,440 259,439.6 202.5,144 196,144.4 				"/>
				<path id="Fill-18" class="st6" d="M402,44.9c0-4.1-1.9-5.8-5.1-7.5c-17.6-9.5-33.4-0.8-33.5,1.7c-0.4,10.2-1.3,23.2,3.4,32.4
					c3.5,6.9,10.4,13,18.3,9.6C393.4,77.5,401.8,67.5,402,44.9"/>
				<path id="Fill-20" class="st6" d="M371.1,92.6c0.5,0.1,0.9,0.2,1.4,0.3c0.4,0.1,2.8,0.3,0.5,0.1c2.4,0.2,4.7,0.4,7.1,0.7
					c2,0.2,4,0.3,6,0.3c0.9,0,1.8,0,2.6,0c0.3,0,0.7,0,1-0.1c0,0,0.1,0,0.1,0c0.5-0.1,1-0.3,1.6-0.4c-0.1-0.7-0.1-1.3-0.1-1.8
					l2.8-34.4c0-1.3-3.1,3-4.2,3.8c-5.6,4-10,5.3-16.7,6c-0.2,0-0.4,0.1-0.5,0.1c-0.9,0-0.9,0.4-0.9,1.7
					C371.8,74.7,370.8,84.8,371.1,92.6"/>
				<path id="Fill-22" class="st7" d="M372,93c-0.2-1.2-0.5-2.2-1-3C371.4,90.9,371.7,91.9,372,93"/>
				<path id="Fill-24" class="st8" d="M374,57c0,1.1-0.6,2-1.5,2c-0.8,0-1.5-0.9-1.5-2c0-1.1,0.6-2,1.5-2C373.3,55,374,55.9,374,57"
					/>
				<path id="Fill-26" class="st8" d="M392,57c0,1.1-0.7,2-1.5,2c-0.8,0-1.5-0.9-1.5-2c0-1.1,0.7-2,1.5-2C391.4,55,392,55.9,392,57"
					/>
				<path id="Fill-32" class="st2" d="M387.6,70.3c-6.3,2.4-12-0.5-12.3-0.3c-0.1,0-0.3,0.2-0.3,0.3c0.5,2.9,3.7,4.5,6.1,4.7
					c2.5,0.2,6.1-1.4,6.9-4.2C388.1,70.6,387.9,70.3,387.6,70.3"/>
				<path id="Fill-34" class="st9" d="M382.6,67.2c-1.9,0.4-3.6-0.1-3.8-2.1c-0.1-0.9,0.2-2.1,0.3-3c0.2-1.9,0.5-3.9,0.8-5.8
					c0.1-0.4-0.6-0.5-0.7,0c-0.2,1.6-0.5,3.3-0.7,4.9c-0.2,1.4-0.6,3.1-0.5,4.6c0.3,2.1,2.9,2.5,4.7,2.1
					C383.2,67.8,383,67.1,382.6,67.2"/>
				<path id="Fill-36" class="st6" d="M402.1,54.6c-1.6-1.6-4.3,0-4.8,1.8c-0.1,0.4,0.1,0.7,0.5,0.7c-0.3,0.7-0.4,1.5-0.5,2.3
					c0,0,0,0,0,0c-0.2,1-0.3,1.9-0.2,2.5c0,0.3,0,0.7,0,1c-0.1,0.4-0.2,0.8,0,1.1c1,2.3,3.9-0.9,4.5-1.9
					C402.5,60.4,403.9,56.4,402.1,54.6"/>
				<path id="Fill-38" class="st6" d="M360.7,53.9c1.5-1.8,4.5-0.5,5.2,1.3c0.2,0.4-0.1,0.7-0.4,0.8c0.4,0.7,0.6,1.5,0.8,2.3
					c0,0,0,0,0,0c0.4,0.9,0.6,1.9,0.5,2.6c0,0.3,0.1,0.7,0.1,1c0.2,0.4,0.3,0.8,0.2,1.2c-0.7,2.5-4.2-0.5-4.9-1.5
					C360.9,59.8,359,55.9,360.7,53.9"/>
				<path id="Fill-40" class="st6" d="M399.2,56.4c0,1.4-0.4,2.8-1.1,4.1c-0.2,0.4,0.5,0.8,0.7,0.4c0.8-1.4,1.2-2.9,1.2-4.5
					C400,55.9,399.2,55.9,399.2,56.4"/>
				<path id="Fill-42" class="st6" d="M364,60.5c-0.7-1-1-2.1-1.1-3.2c0-0.4-0.9-0.4-0.9,0c0.1,1.2,0.5,2.4,1.2,3.5
					C363.4,61.2,364.2,60.9,364,60.5"/>
				<path id="Fill-44" class="st10" d="M275,377.8L271.3,5.3c0-2.9-2.3-5.2-5.1-5.1L69,0c-2.8,0-5,2.4-5,5.2l3.7,372.5
					c0,2.9,2.3,5.2,5.1,5.1L270,383C272.8,383,275,380.6,275,377.8"/>
				<path id="Fill-46" class="st2" d="M263,365.4l-3.3-347.2c0-2.5-2-4.6-4.5-4.5L81.4,13c-2.4,0-4.4,2.1-4.4,4.6l3.3,347.2
					c0,2.5,2,4.6,4.5,4.5l173.9,0.6C261.1,370,263,367.9,263,365.4"/>
				<path id="Fill-48" class="st6" d="M323.8,393c-1.9,0.1-1.2-0.3-2.8,0.9c-0.2,0.2-0.4,0.4-0.6,0.7c-1-0.1-2.1,0.4-2.1,1.7
					c-0.7,10.8-2.9,21.4-3.2,32.3c0,1.4,0.9,2.5,2.3,2.4c2.7-0.2,1.9-0.4,4.4-1.1c0.7-0.2,2.3-4.2,2.4-4.9
					c0.7-5.4,2.6-23.9,2.8-29.4C327.1,394.1,325.2,392.9,323.8,393"/>
				<path id="Fill-50" class="st6" d="M395.8,400c-1.9,0.1-1.2-0.3-2.8,0.9c-0.2,0.2-0.4,0.4-0.6,0.7c-1-0.1-2.1,0.4-2.1,1.7
					c-0.7,10.8-2.9,21.4-3.2,32.3c0,1.4,0.9,2.5,2.3,2.4c2.7-0.2,1.9-0.4,4.4-1.1c0.7-0.2,2.3-4.2,2.4-4.9
					c0.7-5.4,2.6-23.9,2.8-29.4C399.1,401.1,397.2,399.9,395.8,400"/>
				<path id="Fill-52" class="st11" d="M325.6,424.2c-2.6-0.3-8.3-0.2-11.1-0.2c-1.2,0.1-1.7,0.9-1.6,1.3c0.4,3.1-2.5,2.9-6.5,4.8
					c-3.4,1.6-6.6,3-12,4.5c-4.8,1.4-4.3,0.6-4.4,3.6c0,2.1,4.9,1.8,8.9,1.6c0.6,0,1.3-0.1,1.9-0.1c1.9-0.1,3.7-0.4,5.5-1.1
					c0.3-0.1,0.6-0.2,1-0.3c3-1.1,5.6-1.3,8.8-1.3c0.2,0,0.3,0.1,0.4,0.3c0.1,0.3,0.1,0.5,0.1,0.8c0.1,0.6,0.6,1,1.2,1
					c1.3,0,2.6-0.1,3.9-0.2c2.5-0.1,4.8-0.2,5.1-0.8c0.4-0.7,0.2-0.8,0.2-1.5C326.9,434.9,326.5,424.3,325.6,424.2"/>
				<path id="Fill-54" class="st4" d="M313.9,429.9c-0.8-0.7-1.7-1.3-2.5-1.8c-0.4-0.2-0.8,0.3-0.4,0.6c0.9,0.6,1.7,1.2,2.5,1.8
					C313.8,430.8,314.2,430.2,313.9,429.9 M308.4,429.1c-0.3-0.4-0.8,0-0.6,0.4c0.6,0.9,1.2,1.8,1.7,2.8c0.2,0.4,0.8,0,0.6-0.4
					C309.6,430.9,309,430,308.4,429.1 M305.6,430.6c-0.2-0.4-0.8,0-0.6,0.4c0.4,0.9,0.9,1.9,1.3,2.8c0.2,0.4,0.8,0,0.6-0.4
					C306.5,432.5,306,431.6,305.6,430.6"/>
				<path id="Fill-56" class="st4" d="M326.9,436.8c0-0.5-0.1-1.1-0.2-1.8c-3,0.7-6,0.6-9.1,0.6c-3,0-5.9,0.3-8.9,0.9
					c-6.3,1.3-12.4,2.1-18.8,1.9c0,0.3,0,0.6,0,1c0,2.1,4.9,1.7,8.9,1.3c0.6-0.1,1.3-0.1,1.9-0.1c1.9-0.1,3.7-0.5,5.5-1.2
					c0.3-0.1,0.6-0.2,1-0.4c2.9-1.1,5.6-1.5,8.7-1.5c0.2,0,0.3,0.1,0.4,0.3c0.1,0.3,0.1,0.5,0.1,0.8c0.1,0.6,0.6,1,1.2,0.9
					c1.3-0.1,2.6-0.2,3.9-0.3c2.5-0.2,4.8-0.3,5.1-0.9C327.1,437.6,327,437.5,326.9,436.8"/>
				<path id="Fill-58" class="st12" d="M308.3,420.5c7.3,0.8,14.6,0.9,21.9,0.3c0.7-0.1,1.3-0.6,1.3-1.3c-0.3-8.4,1.1-16.7,4.1-24.6
					c2.7-6.9,7.2-12.9,10-19.7c5.5-13.1,1.5-28.1,2.9-41.9c0.8-7.4,3.1-14,6.8-20.5c3-5.2,6.5-10.2,9.2-15.6
					c2.4-4.8,4.2-9.9,4.1-15.3c0-3.9-1.3-7.8-0.4-11.7c0.3-1.2,0.7-2.2,1.2-3.3c1.3,21,2.6,42,2.2,63.1c-0.1,8-0.6,16.1-0.4,24.1
					c0.2,7.3,1.1,14.5,2.3,21.6c2.5,15.2,5.9,30.4,4.4,45.9c-0.1,0.8,0.7,1.2,1.3,1.3c5,0.6,9.9,1,14.9,0.9c2.8,0,8.7,0.6,10.9-1.7
					c0.8-0.9,0.9-2,1-3.1c0.3-2.5,0.3-5.1,0.5-7.7c0.3-5.1,0.7-10.3,1-15.4c2.4-35.9,5.4-71.8,6.8-107.7c1.5-36.7-0.3-73.4-2-110
					c-0.1-1.7-2.7-1.7-2.6,0c-11.8-0.3-23.7,0-35.5,0.7c-0.2-0.1-0.5-0.2-0.8-0.2l-17,0.5c-4.7,0.1-9.7-0.2-14.4,0.6
					c-3.5,0.6-5.3,2.6-6.3,5.9c-1.4,4.7-2.3,9.6-3.3,14.4c-15.3,72.1-14.4,146.2-25.5,218.9C306.9,419.8,307.4,420.4,308.3,420.5"/>
				<path id="Fill-60" class="st11" d="M382.2,446.9c2.2,0.1,4.4,0,6.6-0.1c1.4-0.1,3.4,0,4.8-0.6c0.5-0.2,0.8-0.6,1-1
					c0.6-1,1-1.7,2-2.4c0.8-0.5,1-1,1-2.1c0.4-5,0.5-10,0.3-15c0-0.2-0.4-0.7-1.3-0.7c-1.1,0-5.2,0-6.3,0c-0.8,0-1.8-0.1-2.5,0.2
					c-0.9,0.4-1.1,1.4-1.2,2.3c-0.2,1.8-0.3,3.6-0.2,5.4c0,0-0.1,0.1-0.1,0.2c-0.1,4-4.4,5.9-5.8,9.4
					C379.7,444.1,379.7,447.5,382.2,446.9"/>
				<path id="Fill-62" class="st4" d="M388.6,431.6c-0.4,0-0.4,0.7,0,0.7c1.1-0.1,3.5-0.1,4.6-0.1c0.4,0,0.4-0.6,0-0.7
					C392.1,431.5,389.7,431.5,388.6,431.6 M389.1,428.1c-0.4,0-0.4,0.7,0,0.7c1.1-0.1,3.5-0.1,4.6-0.1c0.4,0,0.4-0.6,0-0.7
					C392.6,428,390.1,428,389.1,428.1 M388.3,435.3c-0.4,0-0.4,0.6,0,0.6c1,0,3.5,0,4.5,0c0.4,0,0.4-0.7,0-0.6
					C391.8,435.4,389.3,435.4,388.3,435.3"/>
				<g id="Group-66" transform="translate(380.000000, 438.000000)">
					<g id="Clip-65">
					</g>
					<defs>
						<filter id="Adobe_OpacityMaskFilter_1_" filterUnits="userSpaceOnUse" x="0.2" y="0.4" width="17.7" height="8.6">
							<feColorMatrix  type="matrix" values="1 0 0 0 0  0 1 0 0 0  0 0 1 0 0  0 0 0 1 0"/>
						</filter>
					</defs>
					<mask maskUnits="userSpaceOnUse" x="0.2" y="0.4" width="17.7" height="8.6" id="mask-4_1_">
						<g class="st13">
							<polygon id="path-3_1_" class="st2" points="0.2,0.4 18,0.4 18,9 0.2,9 							"/>
						</g>
					</mask>
					<path id="Fill-64" class="st14" d="M0.4,5.1C0.4,5.1,0.4,5.1,0.4,5.1C4.8,5.6,8.3,6.2,12,4.9c2.2-0.8,2.5-2.1,4.2-3.4
						c0.6-0.4,1.1-0.8,1.8-1c0,0.7-0.1,1.3-0.1,2c-0.1,1.2-0.3,1.7-1,2.2c-1,0.7-1.4,1.4-2,2.5c-0.3,0.5-0.5,0.8-1,1.1
						c-1.3,0.6-3.3,0.5-4.8,0.6C6.9,9,4.7,9,2.5,8.9C0.3,9.4,0,6.8,0.4,5.1"/>
				</g>
				<path id="Fill-67" class="st15" d="M356.4,217.9c7.4,0.1,14.8,0.1,22.1-0.2c2.8-0.1,5.6-0.3,8.3-0.5c3.2-0.3,5-0.5,7.1-0.8
					c5.1-0.8,10.1-2.1,15-3.9c2.3-0.8,6.3-3.2,9-5.2c2.5-17,10-79.5,8.9-86.8c-1-6.7-3.5-13.1-7.2-18.6c-4.8-7.3-15.5-9.8-25.7-12.3
					c-3.5,2.4-8.8,3.6-12.2,3.7c-5.6,0.2-10-1-12.7-5.3c-8.1,1.6-15.3,3.4-22.1,7.6c-8.4,5.1-11.1,12.3-14.3,23
					c-2.8,9.6-9,77.7-3.7,95.1C329.5,214.9,347.9,217.8,356.4,217.9"/>
				<path id="Fill-73" class="st16" d="M96,106c0.3,2.7,1.7,4.8,6.5,4.9c25.3,0.3,128.2,0.1,138.5-0.1c6.8-0.2,7.2-1.3,7-4.5
					c-0.9-13-0.1-31.3-1.3-47.3c-0.2-2.9,1.4-4.3-5.2-4.2c-8.1,0.1-108-0.3-143-0.7c-6.6-0.1-5.4,6.2-5.4,7.2
					C94.5,79.9,95.1,96.8,96,106"/>
				<path id="Fill-81" class="st16" d="M135.9,327.3c0.2,1.9,1.2,3.3,4.4,3.3c17.3,0.3,87.8,0.5,94.8,0.3c4.7-0.1,5-0.9,4.8-3
					c-0.6-8.9,0-21.2-0.8-32.1c-0.1-1.9,1-2.9-3.6-2.9c-5.5,0-73.9-0.5-97.9-0.9c-4.5-0.1-3.7,4.2-3.7,4.9
					C135,309.6,135.3,321,135.9,327.3"/>
				<path id="Fill-107" class="st15" d="M366.9,178.7c-0.1-0.3-0.2-0.5-0.3-0.7c-4.8-12.6-6.3-26.3-8.2-39.6
					c-2-14.3-4.1-28.6-6.1-42.9c-0.1-0.5-0.3-0.9-0.6-1.1c-0.4-0.5,9.7-4.6,8.8-4.4c-30.2,7.8-41.8,32.9-46,50.5
					c-2.2,9.4-3.7,20-1.1,29.8c2.5,9.4,14.6,12.9,23.5,13.6c6.8,0.5,6-0.6,12.9-1.1c3.3-0.3,6.7-0.5,10-0.8c2.2-0.2,4.9,0.2,6.6-1.3
					C367,180.1,367.1,179.4,366.9,178.7"/>
				<path id="Fill-109" class="st15" d="M383.6,188.7c1.7,1.6,4.5,1.2,6.7,1.4l10,0.8c6.8,0.5,13.9,1.5,20.7,1.1
					c9-0.6,15.5-5.9,18.1-15.3c2.6-9.8,2.7-21.5-0.7-38.4c-3.7-19-12.2-40-33-45.1c-0.9-0.2-1.5,0.1-2,0.7c-0.3,0.2-0.5,0.6-0.6,1.1
					c-2.1,14.3-4.1,28.6-6.2,43c-1.9,13.3-8.5,35.6-13.3,48.2c-0.1,0.2-0.2,0.4-0.3,0.7C382.9,187.4,383,188.2,383.6,188.7"/>
				<path id="Fill-111" class="st2" d="M395,92.3c-0.2-1.9-1.7-3.8-2.5-5.6c-0.1-0.3-0.4-0.3-1.1,0c-2.4,0.5-4.3,1.2-6.6,2
					c-1.2,0.4-2.5,0.7-3.6,1.2c-0.2,0.1-0.5,0.2-0.6,0.3c-0.2-0.1-0.4-0.2-0.6-0.3c-1.1-0.6-2.3-1-3.5-1.4c-2.3-0.8-4.1-1.6-6.5-2.3
					c-0.7-0.3-1-0.3-1.1,0c-0.9,1.7-2.5,3.6-2.8,5.5c-0.3,1.5,0.9,2.6,1.9,3.7c1.5,1.6,3.1,3.3,4.9,4.7c1.1,0.8,2.1,1.2,3.2,0.2
					c1.4-1.2,2-3.1,2.7-4.6c0.5-1.1,1-2.1,1.5-3.2c0.1-0.1,0.2-0.3,0.3-0.5c0.1,0.2,0.2,0.3,0.2,0.5c0.4,1.1,0.8,2.2,1.2,3.2
					c0.6,1.5,1,3.5,2.4,4.7c1.1,1,2,0.7,3.2-0.1c1.9-1.3,3.6-2.9,5.2-4.4C393.9,94.8,395.2,93.7,395,92.3"/>
				<path id="Fill-113" class="st17" d="M405.9,44.1c-0.3-1.5-1.3-2.9-1.7-4.4c-0.3-1.2-0.1-2.6-0.7-3.7c-1.1-2-3.2-2.5-5.1-3.5
					c0-0.8-0.2-1.6-0.4-2.4c-0.4-1.2-1.2-2.6-2.4-3c-1.1-0.4-1.9,0.1-2.6,0.8c-0.9-2.6-2.1-4.6-4.6-5.8c-2.3-1.1-4.9-1.4-7.3-0.9
					c-1.2,0.2-2.4,0.6-3.5,1.2c-0.6,0.4-1.2,0.8-1.8,1.2c-1.3,1-2.2,0.6-3.5,0c-2.1-0.9-4.4-0.6-6.3,0.9c-2.3,1.8-2.8,4.4-3.6,7.1
					c-0.4,1.4-1.6,2.1-2.1,3.5c-0.4,0.9-0.4,2-0.2,2.9c0.4,1.9,2.1,3.9,4.1,3.3c1.7-0.5,3.1-1.1,4.8-1.2c2-0.1,3.9,0.3,5.8,0.7
					c1.6,0.3,3.2,0.6,4.8,0.4c1.6-0.3,3-1.2,4.4-2c3.4-2.1,4.4-3.2,8-1.5c5.4,2,7.6,4.6,7.3,11.7c-0.1,2.1-0.6,5,0.5,6.9
					c0.2,0.4,0.6,0.8,1,0.5c0,0,0.1,0,0.1-0.1c2-1.7,2.3-3.7,2.9-6.1c0.3-1.5,1.4-2.4,1.9-3.8C406.1,46,406,45,405.9,44.1"/>
				<path id="Fill-115" class="st17" d="M365.5,37.7c-1-0.7-2.8-0.4-4.1-0.2c-0.1,0-0.1,0-0.2,0c-0.1,0-0.2,0-0.2,0c0,0-0.1,0-0.1,0
					c0-0.1-0.1-0.3-0.1-0.4c-0.2-0.4-0.8-0.2-0.6,0.2c1.4,3.4,1,7.1,1.4,10.7c0.2,2,0.4,5.3,2.7,5.9c0.2,0.1,0.4-0.1,0.4-0.2
					c1.4-4.2-0.8-8.8,0.6-13C365.5,39.8,366.6,38.5,365.5,37.7"/>
				<path id="Fill-117" class="st6" d="M342,144.6c-0.2,1.7,0.7,3.8,1.4,5.5c-0.7,0.1-0.7,1.2,0.1,1.3c8,1.3,17.1,6.4,24.9,8.7
					c0.3,0.1-0.4-3.3-0.3-3.6c0.7-2,1.3-4,1.9-6.1c0.1-0.3,0-0.8-0.4-0.8c-4.7-1.2-9.5-2.3-14.3-3.4c-3.6-0.8-8.3-1.6-12.7-2
					C342.3,144,342.1,144.3,342,144.6"/>
				<path id="Fill-119" class="st15" d="M370.8,147c0.2-0.5,0.3-1,0.5-1.5c0.4-1.3-0.9-2.2-1.9-2.1c0.2-1.2-0.7-2-1.7-2
					c-0.4-1.1-1.9-1.6-2.7-0.5c-0.4-0.8-1.6-1.1-2.4-0.5c0-0.1,0.1-0.2,0.1-0.4c0.6-2.1-2.4-2.9-3.1-0.9c-0.2,0.6-0.4,1.2-0.6,1.8
					c-0.7-0.8-2.3-0.7-2.8,0.6c-2.5,6.6-4.3,13.5-5.2,20.5c-0.2,1.2,0.7,2.4,2,2c0,0,0,0,0,0c0.2,0.8,1.1,1.3,2,1.1
					c1.1-0.2,2-0.9,2.8-1.9c0.6,0.5,1.4,0.5,2-0.2c0.4-0.5,0.8-1,1.1-1.5c0.4,0.4,1.1,0.6,1.8,0.3c0.3,0.6,0.9,0.9,1.6,0.8
					c0.2,0.4,0.5,0.8,0.9,1c-0.1,0.9-0.3,1.7-0.4,2.6c-0.3,2.1,2.9,2.1,3.2,0c0.2-1.9,0.5-3.7,0.9-5.6c0.1-0.2,0.1-0.4,0.2-0.7
					c1.1-3.7,2-7.5,2.9-11.2C372.2,147.9,371.6,147.2,370.8,147"/>
				<path id="Fill-121" class="st4" d="M419.4,146.8c0.2,0.4,0.7,0.1,0.5-0.3c-3.6-8.7-8.3-17.6-9.2-27.2c-0.7-7.9,1.8-15.6,8-19.9
					c-0.2-0.1-0.3-0.3-0.5-0.4c-5.9,4.2-8.6,11.6-8.2,19.2C410.6,128.3,415.7,137.8,419.4,146.8"/>
				<path id="Fill-123" class="st4" d="M347.5,102.1c-1.5-1.8-3.4-3.1-5.5-4.1c-0.2,0.1-0.4,0.3-0.6,0.4c2.3,1,4.4,2.4,5.9,4.5
					c2.7,3.5,3.4,8.1,2.9,12.4c-0.6,4.7-2.6,9.1-4.9,13.2c-2.4,4.4-4.8,8.7-7.3,13c-0.2,0.4,0.4,0.7,0.6,0.3
					c2.7-4.8,5.5-9.6,8.1-14.6c2.2-4.2,4-8.7,4.3-13.5C351.2,109.6,350.2,105.3,347.5,102.1"/>
				<path id="Fill-125" class="st6" d="M321,139.9c-0.3,1.8,3.5,1.3,4.4,1.3c2.5,0.2,4.7,0.5,7.1,0.7c-0.1,0.3-0.6,0.7-0.6,0.9
					c-3.1-0.3-6.4-0.2-9.2,0.6c-0.4,0.1-0.4,0.6-0.1,0.8c1.4,1.5,5,1.1,6.9,1.3c2.2,0.1,10.8,4.7,12.2,5.2c2.9,0.9,3.7-0.6,4.5-1
					c1.4-0.7,2.4-2.3,3.6-3.2c0.2-0.1,0.2-0.3,0.2-0.5c0.1-0.2,0-0.4-0.1-0.5c-2.4-2.2-4.9-4.4-7.3-6.6c-1.8-1.7-3.4-3.7-5.7-4.7
					c-2.6-1.1-5.6-1.6-8.4-1.9c-1.4-0.2-3.7-0.8-4.8,0.4c-0.2,0.2-0.1,0.6,0.2,0.7c1.8,1.1,4.4,1.2,6.4,1.7c1.7,0.4,3.4,0.8,5.1,1.2
					c0,0-0.6,0.7-0.6,0.7c-2.9-0.6-6.2-1.1-8.6-1.1c-1.3,0-4.6,0-4.9,1.7c-0.3,1.8,2.9,0.8,3.9,0.7c3-0.1,5.6,0.5,8.4,1.1
					c-0.2,0.5,0.1-0.6-0.2-0.1c-2.5-0.4-4.7-1.1-7.2-1.1C325.3,138.3,321.3,138.2,321,139.9"/>
				<path id="Fill-127" class="st6" d="M422.4,160.6c-2.5-0.8-5-1.2-7.6-1.5c-0.1-0.5-0.1-1-0.2-1.6c2.9,0.3,5.6,0.5,8.5,1.6
					c0.9,0.3,3.8,1.5,3.9,0.5c0.2-1.7-2.9-2.7-4.2-3.2c-2.2-0.8-5.6-1.3-8.6-1.7c0,0-0.4-0.8-0.4-0.8c1.8,0.2,3.6,0.3,5.3,0.5
					c2.1,0.2,4.6,0.8,6.7,0.4c0.3-0.1,0.5-0.3,0.4-0.6c-0.7-1.5-3.1-1.6-4.5-1.9c-2.8-0.6-5.8-1.1-8.7-0.9c-2.1,0.2-4.3,0.5-6.1,1.4
					c0.5-0.7,1.2-0.8,1.9-1.4c0.6-0.5,1.4-0.7,2-1.1c0.5-0.3,1.2-0.9,1-1.6c-0.3-0.9-1.3-0.6-2-0.4c-1.8,0.6-3.5,1.5-5.2,2.4
					c-1.4,0.7-2.5,1.4-3.5,2.7c-1.2,1.6-2.1,3.5-4.1,4c-0.1,0-0.1,0.1-0.2,0.1c-6.8,1.3-14.6,1.4-20.8,2.7c-0.3,0.1,1.9,2.7,1.9,3.1
					c0.4,2.1,0.8,4.2,1.2,6.2c0.1,0.3,0.4,0.7,0.7,0.6c4.7-1.2,9.4-2.4,14-3.6c2.3-0.6,5.1-1.5,7.8-2.5c0.1,0,0.1,0,0.2,0
					c1.5,0.2,2.1,2.2,8.1,1.5c2.2,0.3,4.2,0,6.4,0.6c1.9,0.5,5.3,2,7.1,1c0.3-0.2,0.4-0.6,0.1-0.8c-2.4-1.7-5.6-2.8-8.7-3.5
					c0-0.3,0-0.6,0-0.8c2.4,0.5,4.7,1,7.1,1.5c0.9,0.2,4.4,1.9,4.7,0.1C426.9,161.7,423.3,160.9,422.4,160.6"/>
				<path id="Fill-129" class="st15" d="M391,176.2c-1.1-8.6-2.8-17.2-5-25.6c0,0,0,0,0,0c0,0,0,0,0,0c0-0.1-0.1-0.3-0.1-0.4
					c-0.3-1.2-1.7-1.3-2.5-0.6c-0.1-0.2-0.1-0.3-0.2-0.5c-0.6-1.9-3.3-0.9-3.2,0.8c0,0.2,0,0.4,0,0.5c-0.9-0.6-2.5,0-2.6,1.2
					c-0.8,0.1-1.6,0.8-1.4,1.8l0.3,2c-0.6-0.1-1.2,0-1.8,0.3c-2,0.9-3,3.1-2.2,5.2c0.2,0.4,0.3,0.9,0.5,1.3c0,0.1,0.1,0.2,0.1,0.2
					c0,0,0,0.1,0,0.2c0.2,0.8,0.3,1.6,0.4,2.5c0.2,1.9,2.1,3.6,4.1,3.5c0.4,2.6,0.9,5.1,1.3,7.7c0.4,2.1,3.7,1.7,3.3-0.4
					c-0.3-1.4-0.5-2.8-0.8-4.2c0,0,0.1,0,0.1,0c0.3,0.3,0.7,0.4,1.1,0.4c0.1,0.8,0.3,1.5,0.4,2.3c0.2,1.3,1.7,1.7,2.6,1.2
					c0.5,0.5,1.4,0.6,2.1,0.2c0,0.3,0.1,0.6,0.1,0.9C388,178.7,391.3,178.3,391,176.2"/>
				<path id="Fill-131" class="st4" d="M389.6,168c-1.9,0.2-4,0.5-5.5,1.8c-1.9,1.6-1.7,4.4-3.5,6.2c-4.1,4-10.7,2.1-15.9,2.8
					c-5.3,0.7-10.1,3.1-15.3,4c-5.7,1-11.5-0.9-17.2,0.6c-0.4,0.1-0.3,0.7,0.1,0.6c5.6-1.4,11.5,0.4,17.2-0.6
					c5.2-0.9,10.1-3.2,15.3-4c4.9-0.7,10.3,0.8,14.8-1.9c2.1-1.3,2.7-2.9,3.5-5c1.1-2.9,3.7-3.5,6.6-3.9
					C390.2,168.6,390,168,389.6,168"/>
				<path id="Fill-133" class="st4" d="M385.6,157.2c-2.7,0.7-5.2-2-7.7-2.7c-2.4-0.7-4.9-0.6-7.4-0.4c-6.1,0.5-12.1,1-18.2,0.9
					c-0.4,0-0.5,0.6-0.1,0.7c6,0,11.9-0.4,17.8-0.9c3.1-0.3,6.3-0.4,9.2,0.9c2.1,0.9,4,2.8,6.4,2.1
					C386.2,157.8,386,157.1,385.6,157.2"/>
				<path id="Fill-135" class="st18" d="M369,259.2c-1.5-7.7-3.4-15.2-5.7-22.7c-0.3-0.8-1.5-0.5-1.2,0.4c2.3,7.5,4.2,15,5.7,22.7
					C367.9,260.4,369.1,260,369,259.2"/>
				<path id="Fill-137" class="st18" d="M344.9,326c-3-4.7-5.5-9.6-7.7-14.7c-0.3-0.8-1.5-0.1-1.2,0.7c2.2,5.1,4.7,10,7.7,14.7
					C344.2,327.4,345.4,326.7,344.9,326"/>
				<path id="Fill-139" class="st18" d="M347.9,317c-2.5-4.7-4.7-9.6-6.6-14.6c-0.3-0.8-1.5-0.4-1.2,0.3c1.9,5.1,4.2,10.1,6.8,14.9
					C347.2,318.4,348.3,317.8,347.9,317"/>
				<path id="Fill-141" class="st19" d="M259.9,18.3c0-2.6-2-4.7-4.5-4.7L81.4,13c-2.4,0-4.4,2.2-4.4,4.8l0.1,9.2H260L259.9,18.3z"
					/>
				<path id="Fill-143" class="st19" d="M80.2,364.8c0,2.5,2,4.6,4.5,4.6l173.9,0.6c2.4,0,4.4-2.1,4.4-4.7l-0.2-22.7L80,342
					L80.2,364.8z"/>
				<path id="Fill-145" class="st20" d="M165.5,352.7c-0.2,0-0.4,0.1-0.6,0.3c-0.2,0.2-0.2,0.4-0.2,0.6l0.3,6.1
					c0,0.4,0.4,0.8,0.8,0.8h7.8c0.2,0,0.4-0.1,0.6-0.3c0.2-0.2,0.2-0.4,0.2-0.6l-0.3-6.1c0-0.4-0.4-0.8-0.8-0.8H165.5z M173.5,361
					h-7.8c-0.8,0-1.4-0.6-1.5-1.4l-0.3-6.1c0-0.4,0.1-0.8,0.4-1.1c0.3-0.3,0.7-0.5,1.1-0.5h7.8c0.8,0,1.4,0.6,1.5,1.4l0.3,6.1
					c0,0.4-0.1,0.8-0.4,1.1C174.3,360.8,173.9,361,173.5,361L173.5,361z"/>
				<path id="Fill-147" class="st20" d="M232.7,360c-0.1,0-0.1,0-0.2-0.1l-5.5-4.3l5-4.6c0.1-0.1,0.3-0.1,0.5,0
					c0.1,0.1,0.1,0.3,0,0.5l-4.5,4.1l4.9,3.8c0.1,0.1,0.2,0.3,0.1,0.4C232.9,360,232.8,360,232.7,360"/>
				<path id="Fill-149" class="st20" d="M121.7,358.3h-9.1c-0.2,0-0.3,0.1-0.3,0.3c0,0.2,0.1,0.3,0.3,0.3h9.1c0.2,0,0.3-0.1,0.3-0.3
					C122,358.5,121.9,358.3,121.7,358.3L121.7,358.3z M121.4,355.3c0.2,0,0.3-0.1,0.3-0.3s-0.1-0.3-0.3-0.3h-9.1
					c-0.2,0-0.3,0.1-0.3,0.3s0.1,0.3,0.3,0.3H121.4z M112.3,351.7h9.1c0.2,0,0.3-0.1,0.3-0.3c0-0.2-0.1-0.3-0.3-0.3h-9.1
					c-0.2,0-0.3,0.1-0.3,0.3C112,351.5,112.1,351.7,112.3,351.7L112.3,351.7z"/>
			</g>
			<path id="Path" class="st21" d="M393.4,49.2c-0.6-0.1-1.3-0.2-1.9-0.1c-0.6,0-1.3,0.1-1.8,0.5c-0.6,0.4-0.8,1.1-0.6,1.8
				c1.3-0.6,2.7-0.9,4-0.8c1.3,0.1,2.5,0.5,3.7,1.2c0.3,0.3,0.8,0.4,1.2,0.3C397.7,50.6,394.5,49.4,393.4,49.2z"/>
			<path id="Path_1_" class="st21" d="M373.2,49c0.6,0,1.2,0.1,1.7,0.3c0.4,0.1,0.7,0.3,1,0.6c0.1,0.2,0.2,0.4,0.1,0.6
				s-0.1,0.4-0.3,0.5c-0.6-0.3-1.3-0.4-1.9-0.4c-1.5,0.1-2.8,1.6-4.3,1.4c-0.2,0-0.4-0.2-0.5-0.4C369.6,50.5,372,49.1,373.2,49z"/>
			<g id="card" transform="translate(26.000000, 72.000000)">
				<g id="Group-3">
					<g id="Clip-2">
					</g>
					<defs>
						<filter id="Adobe_OpacityMaskFilter_2_" filterUnits="userSpaceOnUse" x="-0.5" y="-0.2" width="280.8" height="214">
							<feColorMatrix  type="matrix" values="1 0 0 0 0  0 1 0 0 0  0 0 1 0 0  0 0 0 1 0"/>
						</filter>
					</defs>
					<mask maskUnits="userSpaceOnUse" x="-0.5" y="-0.2" width="280.8" height="214" id="mask-6_1_">
						<g class="st22">
							<polygon id="path-5_1_" class="st2" points="0,0.3 279.8,0.3 279.8,213.2 0,213.2 							"/>
						</g>
					</mask>
					<path id="Fill-1_1_" class="st23" d="M256.9,213.2L9.2,187.3c-5.5-0.6-9.6-6.4-9.1-13l12-163.1c0.5-6.6,5.4-11.4,10.9-10.9
						l247.7,25.9c5.5,0.6,9.6,6.4,9.1,13l-12,163.1C267.3,208.9,262.4,213.8,256.9,213.2"/>
				</g>
				<polygon id="Fill-4" class="st24" points="76.1,118.8 17,111.8 20.1,76 79,82.4 				"/>
				<polygon id="Fill-8_1_" class="st25" points="196.9,153.9 140,148.1 141.1,134.2 198,140 				"/>
				<polygon id="Fill-8_2_" class="st26" points="260.9,160.5 204,154.8 205.1,140.8 262,146.6 				"/>
				<polygon id="Fill-8_3_" class="st27" points="132.9,147.3 76,141.6 77.1,127.7 134,133.4 				"/>
				<polygon id="Fill-8_4_" class="st2" points="71.9,140.8 15,135.1 16.1,121.2 73,126.9 				"/>
				<polygon id="Fill-10_1_" class="st2" points="259.4,182 155,170.8 155.6,163 260,174.2 				"/>
				<path id="Rectangle" class="st28" d="M63,107.4c7.1-1.1,12.1-3.5,15-7.4l-1.7,19L17,111.8C40.6,109.9,55.9,108.4,63,107.4z"/>
				<text transform="matrix(0.9925 0.1219 -0.1219 0.9925 28.5106 42.0005)" class="st29 st30 st31 st32">E.SUN BANK</text>
			</g>
			<text transform="matrix(1 0 0 1 145 48)" class="st33 st30 st34 st32">TAX</text>
		</g>
	</g>
</g>
</svg>
