<?xml version="1.0" encoding="utf-8"?>
<!-- Generator: Adobe Illustrator 25.2.0, SVG Export Plug-In . SVG Version: 6.00 Build 0)  -->
<svg version="1.1" id="圖層_1" xmlns="http://www.w3.org/2000/svg" xmlns:xlink="http://www.w3.org/1999/xlink" x="0px" y="0px"
	 viewBox="0 0 432 422" style="enable-background:new 0 0 432 422;" xml:space="preserve">
<style type="text/css">
	.st0{fill-rule:evenodd;clip-rule:evenodd;fill:#7F9F7A;}
	.st1{fill-rule:evenodd;clip-rule:evenodd;fill:#1F2144;}
	.st2{fill-rule:evenodd;clip-rule:evenodd;fill:#EABC70;}
	.st3{fill-rule:evenodd;clip-rule:evenodd;fill:#F5E4D5;}
	.st4{fill-rule:evenodd;clip-rule:evenodd;fill:#FFFFFF;}
	.st5{fill-rule:evenodd;clip-rule:evenodd;fill:#F7D5D0;}
	.st6{fill-rule:evenodd;clip-rule:evenodd;fill:#333333;}
	.st7{fill-rule:evenodd;clip-rule:evenodd;fill:#DB745E;}
	.st8{fill-rule:evenodd;clip-rule:evenodd;fill:#DBC6B6;}
	.st9{fill-rule:evenodd;clip-rule:evenodd;fill:#CE523B;}
	.st10{fill-rule:evenodd;clip-rule:evenodd;fill:#C79240;}
	.st11{fill:#6E4A33;}
	.st12{fill:#74CBED;}
	.st13{fill:#BFEFEF;}
	.st14{fill:#82C4B8;}
	.st15{fill:#FFD62C;}
	.st16{fill:#FFDE55;}
	.st17{fill:#E5AF42;}
	.st18{fill:#FFD2A9;}
	.st19{fill:#369BCE;}
	.st20{fill:#F9BA80;}
	.st21{fill:#4A80AA;}
	.st22{fill:#F0FFFC;}
	.st23{fill:#EDC074;}
	.st24{filter:url(#Adobe_OpacityMaskFilter);}
	.st25{mask:url(#mask-2_1_);fill-rule:evenodd;clip-rule:evenodd;fill:#5C3F47;}
	.st26{filter:url(#Adobe_OpacityMaskFilter_1_);}
	.st27{mask:url(#mask-4_1_);fill-rule:evenodd;clip-rule:evenodd;fill:#FFFFFF;}
	.st28{filter:url(#Adobe_OpacityMaskFilter_2_);}
	.st29{mask:url(#mask-6_1_);fill-rule:evenodd;clip-rule:evenodd;fill:#F4D3CB;}
	.st30{filter:url(#Adobe_OpacityMaskFilter_3_);}
	.st31{mask:url(#mask-8_1_);fill-rule:evenodd;clip-rule:evenodd;fill:#5C656B;}
	.st32{filter:url(#Adobe_OpacityMaskFilter_4_);}
	.st33{mask:url(#mask-10_1_);fill-rule:evenodd;clip-rule:evenodd;fill:#FFFFFF;}
	.st34{filter:url(#Adobe_OpacityMaskFilter_5_);}
	.st35{mask:url(#mask-12_1_);fill-rule:evenodd;clip-rule:evenodd;fill:#FFFFFF;}
	.st36{filter:url(#Adobe_OpacityMaskFilter_6_);}
	.st37{mask:url(#mask-14_1_);fill-rule:evenodd;clip-rule:evenodd;fill:#D5E1F2;}
	.st38{filter:url(#Adobe_OpacityMaskFilter_7_);}
	.st39{mask:url(#mask-16_1_);fill-rule:evenodd;clip-rule:evenodd;fill:#02A8A1;}
	.st40{filter:url(#Adobe_OpacityMaskFilter_8_);}
	.st41{mask:url(#mask-18_1_);fill-rule:evenodd;clip-rule:evenodd;fill:#F4D3CB;}
	.st42{filter:url(#Adobe_OpacityMaskFilter_9_);}
	.st43{mask:url(#mask-20_1_);fill-rule:evenodd;clip-rule:evenodd;fill:#F4D3CB;}
	.st44{filter:url(#Adobe_OpacityMaskFilter_10_);}
	.st45{mask:url(#mask-22_1_);fill-rule:evenodd;clip-rule:evenodd;fill:#F4D3CB;}
	.st46{filter:url(#Adobe_OpacityMaskFilter_11_);}
	.st47{mask:url(#mask-24_1_);fill-rule:evenodd;clip-rule:evenodd;fill:#5C3F47;}
	.st48{filter:url(#Adobe_OpacityMaskFilter_12_);}
	.st49{mask:url(#mask-26_1_);fill-rule:evenodd;clip-rule:evenodd;fill:#F4D3CB;}
	.st50{filter:url(#Adobe_OpacityMaskFilter_13_);}
	.st51{mask:url(#mask-28_1_);fill-rule:evenodd;clip-rule:evenodd;fill:#F4D3CB;}
	.st52{filter:url(#Adobe_OpacityMaskFilter_14_);}
	.st53{mask:url(#mask-30_1_);fill-rule:evenodd;clip-rule:evenodd;fill:#D5E1F2;}
	.st54{filter:url(#Adobe_OpacityMaskFilter_15_);}
	.st55{mask:url(#mask-32_1_);fill-rule:evenodd;clip-rule:evenodd;fill:#FFFFFF;}
	.st56{filter:url(#Adobe_OpacityMaskFilter_16_);}
	.st57{mask:url(#mask-34_1_);fill-rule:evenodd;clip-rule:evenodd;fill:#835353;}
	.st58{filter:url(#Adobe_OpacityMaskFilter_17_);}
	.st59{mask:url(#mask-34_2_);fill-rule:evenodd;clip-rule:evenodd;fill:#F4D3CB;}
	.st60{filter:url(#Adobe_OpacityMaskFilter_18_);}
	.st61{mask:url(#mask-34_3_);fill-rule:evenodd;clip-rule:evenodd;fill:#D5E1F2;}
	.st62{filter:url(#Adobe_OpacityMaskFilter_19_);}
	.st63{mask:url(#mask-34_4_);fill-rule:evenodd;clip-rule:evenodd;fill:#1F558F;}
	.st64{filter:url(#Adobe_OpacityMaskFilter_20_);}
	.st65{mask:url(#mask-34_5_);fill-rule:evenodd;clip-rule:evenodd;fill:#D5E1F2;}
	.st66{filter:url(#Adobe_OpacityMaskFilter_21_);}
	.st67{mask:url(#mask-34_6_);fill-rule:evenodd;clip-rule:evenodd;fill:#F4D3CB;}
	.st68{fill-rule:evenodd;clip-rule:evenodd;fill:#606060;}
	.st69{fill:#ED8174;}
	.st70{fill:#EBFFFB;}
	.st71{fill:none;stroke:#CAEFE5;}
	.st72{fill:#739992;}
	.st73{fill:#D5E9E3;}
	.st74{fill:#A8CCC0;}
	.st75{fill:#6D918C;}
	.st76{fill:#FFFFFF;}
	.st77{filter:url(#Adobe_OpacityMaskFilter_22_);}
	.st78{mask:url(#mask-36_1_);fill-rule:evenodd;clip-rule:evenodd;fill:#4F9799;}
	.st79{fill-rule:evenodd;clip-rule:evenodd;fill:#4EC4B0;}
	.st80{fill-rule:evenodd;clip-rule:evenodd;fill:#8FFFE9;}
	.st81{fill-rule:evenodd;clip-rule:evenodd;fill:#E6E6E6;}
	.st82{fill-rule:evenodd;clip-rule:evenodd;fill:#999999;}
	.st83{fill-rule:evenodd;clip-rule:evenodd;fill:#ECECEC;}
	.st84{fill-rule:evenodd;clip-rule:evenodd;fill:#E85D5D;}
	.st85{fill-rule:evenodd;clip-rule:evenodd;fill:#534841;}
	.st86{fill-rule:evenodd;clip-rule:evenodd;fill:#FFD96E;}
	.st87{fill-rule:evenodd;clip-rule:evenodd;fill:#B18443;}
	.st88{fill-rule:evenodd;clip-rule:evenodd;fill:#B3B3B3;}
	.st89{fill-rule:evenodd;clip-rule:evenodd;fill:#994242;}
	.st90{fill-rule:evenodd;clip-rule:evenodd;fill:#532323;}
	.st91{fill-rule:evenodd;clip-rule:evenodd;fill:#722B2B;}
	.st92{fill-rule:evenodd;clip-rule:evenodd;fill:#A37738;}
	.st93{fill-rule:evenodd;clip-rule:evenodd;fill:#E8A94F;}
	.st94{fill-rule:evenodd;clip-rule:evenodd;fill:#85622F;}
</style>
<g id="Page-1">
	<g id="設計稿-" transform="translate(-63.000000, -5039.000000)">
		<g id="Group-40" transform="translate(63.000000, 5039.000000)">
			<g id="Group-188" transform="translate(30.000000, 0.000000)">
				<path id="Fill-1" class="st0" d="M221.9,196.4c2.8,33.7,27,62.7,51.9,83.3c48.1,39.9,85.4,52.9,86.9,53.2
					c2.7,0.6,6.3-1.3,6.6-4.3c0.4-4,0.7-7.9,0.8-11.9c1.1-30.9-6.3-61.7-20.2-89.3c-6.9-13.7-15.5-26.4-25.5-37.9
					c-10.4-11.9-22.3-23.2-36.2-30.9c-13.5-7.5-30.1-10.6-44.5-3.7c-6.8,3.3-12.7,8.4-16.1,15.3
					C221.9,178.3,221.2,187.7,221.9,196.4"/>
				<path id="Fill-3" class="st0" d="M233.9,336c11.3,17.4,32.9,26,52.3,29.8c37.6,7.5,61.5,3.6,62.4,3.3c1.6-0.5,3-2.5,2.3-4.2
					c-0.9-2.2-2-4.5-3-6.6c-8.4-17-21.4-31.5-36.9-42.3c-7.7-5.4-16-9.7-24.8-13c-9-3.4-18.8-6-28.5-6.1c-9.5-0.1-19.3,3.1-25.1,11
					c-2.7,3.8-4.4,8.2-4.2,12.9C228.5,326.2,230.9,331.5,233.9,336"/>
				<path id="Fill-5" class="st1" d="M232.1,160.8c14.4,13.6,28.6,27.3,42.3,41.7c13.5,14.2,26.5,28.9,38.6,44.3
					c12.2,15.5,23.5,31.8,33.4,48.9c9.7,16.8,18.1,34.4,24.7,52.7c6.5,18.2,11.3,37.1,13.7,56.3c0.3,2.4,0.6,4.8,0.8,7.3
					c0,0.4-0.6,0.4-0.6,0.1c-1.8-19.4-6-38.5-12.2-57c-6.2-18.5-14.3-36.4-23.8-53.5c-9.5-17-20.3-33.2-32.1-48.7
					c-12-15.7-24.9-30.6-38.4-45c-13.3-14.2-27.3-27.9-41.4-41.4c-1.8-1.7-3.6-3.4-5.4-5.1C231.5,161,231.8,160.5,232.1,160.8"/>
				<path id="Fill-7" class="st1" d="M231.5,312.9c25.1,3.6,49.6,11.1,72.4,22.2c11.4,5.6,22.7,11.9,32.8,19.7
					c9.1,6.9,17.3,15.1,24.3,24.2c7.7,10,14,21.1,18.6,32.8c0.1,0.4-0.4,0.5-0.6,0.2c-8.3-21.2-22.2-40.2-40-54.5
					c-9.8-7.9-20.7-14.3-31.8-19.9c-11.3-5.7-23-10.6-35-14.5c-13.3-4.3-27-7.5-40.9-9.5C230.9,313.5,231.1,312.9,231.5,312.9"/>
				<path id="Fill-9" class="st2" d="M346.1,375.2c13.5,0,44.3-0.5,53.7-0.6c0.9,0,1.4-0.7,1.3,0.5c-0.7,5.9-1.4,11.9-2.5,17.7
					c-0.8,4.4-1.5,9.6-3.5,13.4c-1.8,3.6-4.7,4.6-7.8,4.8c-4.5,0.3-9.1,0.2-13.6,0.3c-4.1,0.1-8.5,0.7-12.6,0
					c-3.3-0.6-5.6-2.9-7.4-6.6c-2.2-4.6-3.8-9.8-5.4-14.8c-1.7-5.3-2.5-8.8-3.7-14.3C344.6,374.6,345.3,375.2,346.1,375.2"/>
				<polygon id="Fill-11" class="st1" points="188,411.6 182,411.2 241,129 247,129.4 				"/>
				<polygon id="Fill-13" class="st1" points="354,410.6 360,410.2 301,128 295,128.4 				"/>
				<path id="Fill-15" class="st3" d="M382.4,207H171.5c-2,0-3.6-2-3.6-4.4L165,4.4c0-2.4,1.6-4.4,3.6-4.4h210.9c2,0,3.6,2,3.6,4.4
					l3,198.1C386,205,384.4,207,382.4,207"/>
				<path id="Fill-17" class="st4" d="M367.8,27.7c0-0.9-0.7-1.7-1.5-1.7c-17.6-0.7-69.5-0.8-73.6-0.9c-3.4-0.1-2.7,3.3-2.6,3.9
					c0.2,13.7,0.1,54,0.6,60.6c0.2,2.9,0.6,4.4,3.3,5.2c5.1,1.4,56.9,1.2,69.6,1.3c4,0,3.8-1.2,4-8.8
					C368.5,55.7,367.4,50.6,367.8,27.7"/>
				<path id="Fill-21" class="st4" d="M369.8,120.6c0-0.9-0.7-1.6-1.6-1.7c-18.3-0.7-72.2-0.8-76.4-0.9c-3.5-0.1-2.8,3.2-2.7,3.8
					c0.2,13.5,0.1,53.2,0.6,59.8c0.2,2.9,0.6,4.4,3.5,5.1c5.3,1.4,59.1,1.2,72.3,1.3c4.2,0,4-1.2,4.2-8.6
					C370.6,148.2,369.4,143.2,369.8,120.6"/>
				<path id="Fill-23" class="st4" d="M265.8,120.6c0-0.9-0.7-1.6-1.5-1.7c-17.6-0.7-69.5-0.8-73.6-0.9c-3.4-0.1-2.7,3.2-2.6,3.8
					c0.2,13.5,0.1,53.2,0.6,59.8c0.2,2.9,0.6,4.4,3.3,5.1c5.1,1.4,56.9,1.2,69.6,1.3c4,0,3.8-1.2,4-8.6
					C266.5,148.2,265.4,143.2,265.8,120.6"/>
				<path id="Fill-25" class="st4" d="M265.8,27.6c0-0.9-0.7-1.6-1.5-1.7c-17.6-0.7-69.5-0.8-73.6-0.9c-3.4-0.1-2.7,3.2-2.6,3.8
					c0.2,13.5,0.1,53.2,0.6,59.8c0.2,2.9,0.6,4.4,3.3,5.1c5.1,1.4,56.9,1.2,69.6,1.3c4,0,3.8-1.2,4-8.6
					C266.5,55.2,265.4,50.2,265.8,27.6"/>
				<path id="Fill-29" class="st4" d="M308.4,26.1c-1.6,1.4-3,2.9-4.3,4.5c-0.3,0.3,0.4,0.6,0.7,0.3c1.3-1.5,2.6-3,4.2-4.4
					C309.2,26.2,308.7,25.8,308.4,26.1"/>
				<path id="Fill-33" class="st4" d="M324.4,120.1c-1.6,1.1-3,2.3-4.3,3.6c-0.3,0.3,0.4,0.5,0.7,0.2c1.3-1.2,2.6-2.4,4.2-3.5
					C325.2,120.2,324.7,119.8,324.4,120.1"/>
				<path id="Fill-49" class="st4" d="M226.4,26.1c-1.6,1.4-3,2.9-4.3,4.5c-0.3,0.3,0.4,0.6,0.7,0.3c1.3-1.5,2.6-3,4.2-4.4
					C227.2,26.2,226.7,25.8,226.4,26.1"/>
				<path id="Fill-117" class="st5" d="M88.8,94.8c-0.2,0.2-0.4,0.4-0.6,0.5c-0.3-0.2-0.5-0.4-0.8-0.6c0.2,0,0.4,0,0.6,0
					C88.4,94.8,88.6,94.8,88.8,94.8 M135.2,84.5c-0.3-0.2-0.7-0.4-1-0.6c-0.2-0.3-0.4-0.5-0.7-0.7c-4-2.6-8.3-4.2-12.8-5.1
					c-7.8-2.4-16.1-3.4-24.3-2.8c-6.6,0.4-13.1,1.8-19.2,4.1c-2.3,0.9-6,1.8-6.8,4.6c-0.2,0.6-0.2,1.3,0,1.8
					c-0.3,0.7-0.2,1.5,0.2,2.2c-0.5,0.6-0.9,1.3-1,2.2c-0.3,1.8,1,3.5,3,3c0.8-0.2,1.7-0.5,2.5-0.7c3,3.3,6.3,6.2,10,8.7
					c0.5,1.5,2,2.6,3.6,2.3c2,1.2,4.5,2.7,6.9,3.3c0.4,1.9,2.9,3.2,4.9,2.4c1,1.2,2.6,1.8,4.1,0.7c0.2-0.2,0.4-0.4,0.7-0.5
					c0,0,0,0,0,0c0,0,0,0,0,0c3.3-2.6,6.4-5.3,9.3-8.2c3-2.3,5.9-4.7,8.7-7.2c1.7-1.5,1-3.9-0.5-5.1c-0.1-0.1-0.1-0.2-0.2-0.3
					c3.8,0.2,7.7,0.4,11.5,0.6C136.4,89.1,137.2,85.7,135.2,84.5"/>
				<path id="Fill-119" class="st6" d="M129.9,66.1c-0.5-3.3-0.1-6.7-1.3-9.9c-0.7-1.7-1.5-3.3-1.6-5.2c-0.1-1.8,0.1-3.5,0.2-5.3
					c0.1-3-0.2-6-0.9-8.9c-2.7-11-11.9-20.3-23.7-19.8c-0.2,0-0.3,0-0.5,0c-11.9-0.6-21.3,8.6-24,19.7c-0.7,2.9-1,5.9-0.9,8.9
					c0,1.8,0.3,3.5,0.2,5.3c-0.1,1.9-1,3.5-1.6,5.2c-1.2,3.2-0.8,6.6-1.3,9.9c-0.4,2.9-2.2,5.5-1.4,8.5c0.1,0.2,0.3,0.5,0.6,0.4
					c6.2-0.4,12.4,1.3,18.2-1.2c3.2-1.4,10.2-1.9,10.3-6.5c0.1,0,0.2,0,0.2,0c-0.1,4.7,7,5.2,10.3,6.6c5.9,2.5,12,0.8,18.2,1.2
					c0.3,0,0.5-0.2,0.6-0.4C132.1,71.6,130.3,69,129.9,66.1"/>
				<path id="Fill-121" class="st5" d="M201.1,85.8c-0.2,0-0.3,0.1-0.5,0.2c0.2-1.6-2.1-2.6-2.8-1c-5.1,12.1-10.7,25.6-23,32.1
					c-5.4,2.8-24.2,6-30-19.9c-0.1-0.6-5.1,8.5-5.6,8.9c-2.3,1.6-4.6,3.2-6.9,4.8c-1.6,1.1-4.1,2.3-4.9,4.2c-1.2,3-1.6-2.4,0,0
					c18.5,28.9,43.1,23.2,51,18.8c8.1-4.5,14.2-14.2,18.1-22.3c2.5-5.1,4.4-10.4,5.7-15.9C202.8,93.8,205.6,85.1,201.1,85.8"/>
				<path id="Fill-123" class="st5" d="M60.9,283.2c0.1,21.7,9.6,95.9,9.7,117.6c0,0.7,0.5,1.2,1.1,1.5c3.5,1.4,6.2-1.6,7-4.7
					c1.5-5.5,1.9-11.5,2.7-17c3-20.1,4.6-40.3,5.8-60.6c1.3-20.9,3.5-41.7,6.7-62.4c0.3-1.9-2.6-2.7-2.9-0.8
					c-0.1,0.9-0.3,1.8-0.4,2.7c-3.9,0.3-8,0.7-11.4,2.8c-3.6,2.2-8.5-16-9.3-12C65.7,271,60.8,261.9,60.9,283.2"/>
				<path id="Fill-125" class="st5" d="M63.1,419.5c1.3,0.3,3.1-0.5,4.3-0.8c1.7-0.5,3.6-1,5.2-1.8c2.6-1.2,3.9-6.5,5.5-8.7
					c2.2-3,2.2-3.3,1.8-6.9c-0.6-4.8-0.1-9.4,0.6-14.2c0.1-0.8-1.1-1.1-1.2-0.3c-0.3,2.4-0.7,4.8-0.9,7.2c-0.1,0-0.1,0-0.2,0
					c-2.8,0.5-7.7,1.1-7.7,4.8c0,6.3-8.2,13.3-8.5,16.4C61.9,416.6,61.1,419,63.1,419.5"/>
				<path id="Fill-127" class="st1" d="M60.7,421.5c0.6,0.5,1.8,0.1,2.4,0c2.1-0.3,4.3-0.7,6.4-1.1c2.7-0.5,4.7-1.5,5.9-4.2
					c0.8-1.8,1.5-3.7,2.2-5.4l0.2,4.8c0,0.2,0.1,0.3,0.3,0.3c0.5,0,0.9-0.1,1.3-0.2c0.1,0,0.2-0.2,0.2-0.3c-0.2-3.5,0.1-7,1-10.4
					c0.3-0.6-0.7-1.3-1.1-0.6c-0.9,1.2-1.7,2.5-2.4,3.8c-0.7,1.3-1.3,2.6-1.8,4c-0.2,0.4-0.3,0.9-0.4,1.3c0,0,0,0-0.1,0
					c-4.3-0.4-7.9-0.7-12.2-0.3c-0.2,0-0.4,0.2-0.5,0.4C61.9,415.1,59.3,420.3,60.7,421.5"/>
				<path id="Fill-129" class="st5" d="M99.8,281.3c0.1,21.7,9.3,95.9,9.4,117.6c0,0.7,0.5,1.2,1.1,1.5c3.5,1.4,6.2-1.6,7-4.7
					c1.5-5.5,1.9-11.4,2.7-17c3-20.1,4.7-40.3,6-60.6c1.4-20.9,3.6-41.7,6.9-62.4c0.3-1.9-2.6-2.7-2.9-0.8c-0.1,0.9-0.3,1.8-0.4,2.7
					c-3.9,0.2-8,0.7-11.4,2.7c-3.6,2.2-8.5-16-9.3-12C104.6,269.2,99.7,260,99.8,281.3"/>
				<path id="Fill-131" class="st3" d="M137.8,200.2c-4-19-7.1-22.7-7.4-30.5c-0.1-2.4,1.3-11.5,0.3-13.7
					c-1.1-2.5-62.8-2.6-62.9-2.6c-0.3-1.6,0.3,11.9,0.2,13.7c-0.5,10-4.1,14.1-6.4,23.7c-2.3,9.7-14.5,97.5-9.6,133.4
					c0.1,0.8,0.7,1.5,1.5,1.5c17.9,0.4,40.4,0.7,61.4,1c2.1-10.1,5.5-51.3,8.3-61.3c0.3-0.9,1.4-0.9,1.9-0.2
					c2.8,3.9-1.7,52.5-1.8,61.5c5.4,0.1,16.1,0.3,21,0.4c0.9,0,1.5-0.7,1.5-1.5C146.3,292.8,144.6,232.5,137.8,200.2"/>
				<path id="Fill-133" class="st5" d="M101.6,417.7c1.3,0.3,3.1-0.5,4.3-0.8c1.7-0.5,3.6-1,5.2-1.8c2.6-1.2,3.9-6.4,5.5-8.7
					c2.2-3,2.2-3.3,1.8-6.9c-0.6-4.8-0.1-9.4,0.6-14.2c0.1-0.8-1.1-1.1-1.2-0.3c-0.4,2.4-0.7,4.8-0.9,7.2c-0.1,0-0.1,0-0.2,0
					c-2.8,0.5-7.7,1-7.7,4.8c0,6.3-8.2,13.3-8.5,16.3C100.3,414.7,99.6,417.2,101.6,417.7"/>
				<path id="Fill-135" class="st1" d="M99.1,419.6c0.6,0.6,1.8,0.1,2.4,0c2.1-0.3,4.3-0.7,6.4-1.1c2.8-0.5,4.7-1.5,5.9-4.1
					c0.8-1.8,1.5-3.7,2.2-5.4l0.2,4.8c0,0.2,0.1,0.3,0.3,0.3c0.5,0,0.9-0.1,1.3-0.2c0.1,0,0.2-0.2,0.2-0.3c-0.2-3.5,0.1-7,1-10.4
					c0.3-0.6-0.7-1.3-1.1-0.6c-0.9,1.2-1.7,2.5-2.4,3.8c-0.7,1.3-1.3,2.6-1.8,4c-0.2,0.4-0.3,0.9-0.4,1.3c0,0,0,0-0.1,0
					c-4.3-0.4-7.9-0.7-12.2-0.3c-0.2,0-0.4,0.2-0.5,0.4C100.3,413.2,97.7,418.4,99.1,419.6"/>
				<path id="Fill-137" class="st5" d="M120.4,34.2c0-3.8-1.7-5.4-4.8-7c-16.4-8.8-31-0.8-31.1,1.6c-0.4,9.4-1.2,21.5,3.2,30
					c3.3,6.4,9.7,12,17.1,8.9C112.4,64.4,120.3,55.1,120.4,34.2"/>
				<path id="Fill-142" class="st5" d="M110.6,77.4l2.6-31.5c0-1.2-2.9,2.7-3.9,3.4c-5.1,3.7-9.2,4.8-15.4,5.5
					c-0.2,0-0.4,0.1-0.5,0.1c-0.9,0-0.8,0.4-0.8,1.5c0,7.1-1.6,20.7,0,27.7c0.4,1.8,0.8-0.9,2.7-0.1c1.3,0.6,3.6,0.3,5,0.4
					c1.8,0.2,1.6,0,3.4,0.1c2,0.2,4.4,1.6,6.1,0C111.5,83.1,110.6,79.3,110.6,77.4"/>
				<path id="Fill-144" class="st1" d="M94.5,45.4c0,1.1-0.5,2-1.2,2c-0.7,0-1.2-0.9-1.2-2c0-1.1,0.5-2,1.2-2
					C94,43.3,94.5,44.2,94.5,45.4"/>
				<path id="Fill-146" class="st1" d="M110.7,45.7c0,1.1-0.6,2-1.2,2c-0.7,0-1.2-0.9-1.2-2c0-1.1,0.6-2,1.2-2
					C110.2,43.7,110.7,44.6,110.7,45.7"/>
				<path id="Fill-152" class="st4" d="M106.8,57.3c-5.8,2.1-11-0.4-11.3-0.3c-0.1,0-0.3,0.1-0.2,0.3c0.5,2.5,3.3,3.9,5.6,4.1
					c2.3,0.1,5.5-1.2,6.3-3.6C107.3,57.5,107.1,57.2,106.8,57.3"/>
				<path id="Fill-154" class="st7" d="M102.7,54.3c-1.6,0.4-3.1-0.1-3.2-1.9c-0.1-0.8,0.2-1.9,0.3-2.7c0.2-1.8,0.4-3.6,0.7-5.3
					c0.1-0.4-0.5-0.4-0.6,0c-0.2,1.5-0.4,3-0.6,4.5c-0.2,1.3-0.6,2.9-0.4,4.2c0.2,1.9,2.5,2.3,4,1.9
					C103.3,54.8,103.1,54.2,102.7,54.3"/>
				<path id="Fill-158" class="st5" d="M120.3,43.2c-1.5-1.4-4.1,0-4.5,1.7c-0.1,0.4,0.1,0.6,0.4,0.7c-0.3,0.6-0.4,1.3-0.5,2.1
					c0,0,0,0,0,0c-0.2,0.9-0.3,1.7-0.2,2.3c0,0.3,0,0.6,0,0.9c-0.1,0.3-0.2,0.7,0,1c0.9,2.1,3.7-0.8,4.2-1.8
					C120.7,48.4,122,44.8,120.3,43.2"/>
				<path id="Fill-160" class="st5" d="M82.3,43c1.3-1.6,4-0.5,4.7,1.2c0.1,0.4-0.1,0.6-0.4,0.7c0.3,0.6,0.6,1.3,0.7,2v0
					c0.3,0.8,0.5,1.7,0.4,2.3c0,0.3,0,0.6,0.1,0.9c0.2,0.3,0.3,0.7,0.2,1c-0.7,2.2-3.8-0.4-4.4-1.3C82.5,48.2,80.8,44.8,82.3,43"/>
				<path id="Fill-162" class="st6" d="M120.9,39c0-0.1,0.1-0.1,0.1-0.2c0.9,0,1.8-0.8,1.6-2c-0.3-1.7-0.8-3.3-1.6-4.7
					c0.5-0.4,0.8-1.2,0.4-2c-1.7-3.2-4.9-5.3-8.5-6.6c0-0.8-0.5-1.7-1.4-1.8c-2.8-0.3-5.5-0.4-8.3-0.4c-0.1-0.5-0.4-0.9-1.1-1.1
					c-2.3-0.5-4.3-0.1-6.4,0.5c-0.3-0.6-0.9-1-1.7-0.8c-1.3,0.3-2.6,1-3.9,1.8c-0.5-0.6-1.5-0.8-2.2-0.2c-2.1,1.8-4.4,3.8-4.7,6.8
					c-0.1,0.6,0.2,1.1,0.7,1.3c-1,2.2-1.7,4.5-2,7c-0.2,1.4,1.1,2.3,2.1,2c-0.2,0.9-0.3,1.9-0.4,2.8c-0.1,0.8,1,0.8,1.2,0.1
					c0,0,0,0,0,0c1.7-5.1,6.1-7.2,10.5-9c3.1-1.3,5.2-3.5,6.6-6.6c0.3,1.8,0.9,3.6,2.1,5.1c1.7,2.1,4.3,2.6,6.5,3.8
					c2.9,1.5,4,4,6.1,6.3c0.6,0.7,2.9,1.8,3.1,1.5c0.5,0,0.9-0.2,1.4-0.5c0.8-0.5,0.3-1.7-0.4-1.7c0.1-0.1,0.1-0.3,0.1-0.5
					C120.9,39.6,120.9,39.3,120.9,39"/>
				<path id="Fill-164" class="st7" d="M118.3,45.2c0,1.2-0.3,2.3-0.8,3.4c-0.2,0.3,0.3,0.7,0.5,0.3c0.6-1.2,0.9-2.4,0.9-3.7
					C118.9,44.8,118.3,44.8,118.3,45.2"/>
				<path id="Fill-166" class="st7" d="M85.6,48.2c-0.5-1-0.7-2.1-0.8-3.2c0-0.4-0.6-0.4-0.6,0c0.1,1.2,0.3,2.4,0.8,3.5
					C85.3,48.9,85.8,48.6,85.6,48.2"/>
				<path id="Fill-168" class="st6" d="M91.5,29.8c-2.5,2.9-5,5.9-6.6,9.3c-0.1-1.6-2.5-2.1-2.9-0.4c-1.9,8-2.9,16.1-3.1,24.3
					c-0.1,0.5-0.1,1,0,1.5c0.2,1.9,3,2,3,0c0-0.4,0-0.7,0-1.1c0.3-2.4,2.2-4.3,3.2-6.5c1.1-2.6,1.1-5.3,1-8.1
					c-0.1-7.1,3.1-11.8,7.6-17.1C94.9,30.4,92.8,28.3,91.5,29.8"/>
				<path id="Fill-170" class="st8" d="M130.7,173.1c0-0.2-0.1-0.4-0.1-0.6c-2.1-0.1-4.2-0.1-6.3-0.2c-0.7-5.2-1.4-10.5-2.2-15.7
					c-0.1-0.4-0.6-0.2-0.6,0.2c0.8,5.2,1.6,10.3,2.2,15.5c-14.7-0.4-29.4-0.5-44.1-0.1c-4.1,0.1-8.2,0.2-12.3,0.4
					c0,0.2-0.1,0.4-0.1,0.6c18.9-0.7,37.7-0.7,56.6-0.2c2.7,22,3.8,44.2,3.3,66.3c-0.2,7.7-0.6,15.4-1.2,23c0,0.4,0.6,0.4,0.6,0
					c2.1-27.5,1.6-55.3-1.4-82.7c-0.2-2.2-0.5-4.4-0.8-6.7C126.5,173,128.6,173,130.7,173.1C130.7,173.1,130.7,173.1,130.7,173.1"/>
				<path id="Fill-172" class="st3" d="M88.2,95.4c-0.3-0.2-0.5-0.4-0.8-0.6c0.2,0,0.4,0,0.6,0c0.2,0,0.5,0,0.7,0.1
					C88.6,95,88.4,95.2,88.2,95.4 M135,88.8c-0.1-2.2-0.8-4.1-2-5.8c-3.8-2.4-8-3.9-12.3-4.8c-0.3,0.4-0.7,0.8-1.1,1.3
					c-3.4,3.5-7.6,6.4-12.4,7.9c-9.7,3-19.8-0.8-24.6-9.7c-1.9,0.5-3.7,1.1-5.5,1.8c-2.3,0.9-6,1.8-6.8,4.6c-0.2,0.6-0.2,1.3,0,1.8
					c-0.3,0.7-0.2,1.5,0.2,2.2c-0.5,0.6-0.9,1.3-1,2.2c-0.3,1.8,1,3.5,3,3c0.8-0.2,1.7-0.5,2.5-0.7c3,3.3,6.3,6.2,10,8.7
					c0.5,1.5,2,2.6,3.6,2.3c2,1.2,4.5,2.7,6.9,3.3c0.4,1.9,2.9,3.2,4.9,2.4c1,1.2,2.6,1.8,4.1,0.7c0.2-0.2,0.4-0.4,0.7-0.5
					c0,0,0,0,0,0c0,0,0,0,0,0c3.3-2.5,6.4-5.3,9.3-8.2c3-2.3,5.9-4.7,8.7-7.2c1.7-1.5,1-3.9-0.5-5.1c-0.1-0.1-0.1-0.2-0.2-0.3
					c3.8,0.2,7.7,0.4,11.5,0.6C134.4,89.1,134.7,89,135,88.8"/>
				<path id="Fill-174" class="st9" d="M201,108.7c0.5-1,0.8-2.4,1.1-3.2c0.5-1.3,2-3.7,1.4-5.2c-0.6-1.5-3.8-2.2-5.1-2.8
					c-1.7-0.7-4.4-2.7-6.3-2.6c-1.3,0.1-1.7,1-2.2,2.2c-1,2.1-1.8,4.2-2.6,6.4c-3.1-0.9-5.8,0.7-8.1,2.9c-1.9,1.9-3.6,3.9-6.3,4.8
					c-3.1,1.1-6.2-0.1-9.1-1.3c-1.7-0.8-3.5-1-5.3-1.2c-3.5-2.3-6.7-4.9-9.3-8.4c-2.6-3.5-11-13.7-12.3-15.1
					c-2.9-3.1-6.7-5.4-11.2-6.8c-6.8,9.6-15,18.3-24.3,25.5c-0.7,0.5-1.7,0.9-2.5,0.3c-5.2-4-22.5-23.7-23.5-25.4
					c-15.6,5.6-22.8,17.9-29.9,32.3c-2.4,3.7-4.7,7.7-7.7,11c-2.9,3.2-6.7,5.4-9.6,8.5c-1.9,2-3.5,3.6-6.5,3.7
					c-1.9,0.1-3.9-0.4-5.8-0.1c-1.5,0.2-2.8,0.7-3.9,1.6c-0.9-0.4-1.8-0.8-2.7-1.3c-1-0.5-2-1.1-3.1-1.3c-0.2,0-0.4,0-0.6,0.1
					c-0.6-0.2-1.3,0-1.5,0.8c-0.6,1.9-1.2,3.8-1.7,5.7c-0.5,1.5-1.6,3.8-1.5,5.3c0.2,2.3,4.6,3.3,6.6,3.9c4,4.5,8.6,9.2,15,9.7
					c3.4,0.3,6.5-1.3,9.9-1.5c3.8-0.2,7.5,0.9,11.4,0.4c2.8-0.3,6.1-0.5,8.6-1.9c2.7-1.4,4.7-4.2,6.5-6.5c1.9-2.5,3.7-5.1,5.2-7.9
					c1.1,3.4,1.9,6.9,1.9,8.9c-0.1,5.6-0.3,6.5,1.1,11.9c0.4,1.4,0.8,2.8,1.3,4.2c9.7,1.3,27.9-0.3,37.2-0.4
					c5.1,0,17.5,0.7,22.6,1.3c0.3,0,0.6,0.1,0.9,0.1c0.7-0.9,1.4-1.9,2.1-2.8c1.6-2.4,1.6-5.7,2.5-8.4c1.2-3.9,3.2-16.4,4.7-22
					c2,1.2,5.9,3.1,7.9,4.3c3.4,1.9,7,3.8,11,4c4,0.2,8-1.3,11.6-2.7c2-0.8,4-1.9,6.2-2.2c2.5-0.4,5,0.3,7.4,0
					c6-0.8,13.3-6.7,14.9-12.6c0.6-2.3,1-4.1,2.5-6.1c1.1-1.5,2.3-3,2.8-4.9C203.2,111.9,202.5,109.9,201,108.7"/>
				<path id="Fill-176" class="st10" d="M60.5,88.3c-0.2,0.2-0.4,0.4-0.6,0.6c0.4,12.8,5.2,25.8,4.9,38.5c-0.1,5.5-1,10.9-2,16.4
					c0.3-0.5,0.6-1,0.9-1.5c0.7-3.8,1.3-7.5,1.6-11.4c0.4-4.8,0.1-9.7-0.6-14.5C63.3,107.1,60.7,97.8,60.5,88.3 M133.7,121.8
					c-1.8-4.2-3.5-8.6-4.3-13.2c-0.8-4.7-0.5-9.6,0.8-14.2c1.1-3.8,2.9-7.4,5.3-10.5c-0.1-0.1-0.3-0.3-0.5-0.4
					c-4.5,6-6.9,13.4-6.7,20.9c0.3,9.6,5.3,18.1,8.8,26.7c0.4,1.1,0.9,2.2,1.3,3.3c0,0,0-0.1,0-0.1c0.2,0.1,0.4,0.2,0.7,0.4
					C137.5,130.3,135.5,126.1,133.7,121.8"/>
				<path id="Fill-178" class="st10" d="M168.7,113.7c-2.6,1.7-5.3,3.1-8.1,4.4c-0.4,0.2,0,0.7,0.3,0.5c2.8-1.3,5.5-2.8,8.1-4.4
					C169.3,114,169,113.5,168.7,113.7"/>
				<path id="Fill-186" class="st10" d="M200.5,107.6c-4-1.3-8-2.7-12.1-4c-0.4-0.1-0.5,0.5-0.2,0.6c4,1.3,8,2.7,12,4
					C200.7,108.3,200.9,107.7,200.5,107.6"/>
			</g>
			<path id="Path" class="st11" d="M140.4,39.2c-0.6-0.1-1.3-0.2-1.9-0.1c-0.6,0-1.3,0.1-1.8,0.5c-0.6,0.4-0.8,1.1-0.6,1.8
				c1.3-0.6,2.7-0.9,4-0.8c1.3,0.1,2.5,0.5,3.7,1.2c0.3,0.3,0.8,0.4,1.2,0.3C144.7,40.6,141.5,39.4,140.4,39.2z"/>
			<path id="Path_1_" class="st11" d="M123.2,39c0.6,0,1.2,0.1,1.7,0.3c0.4,0.1,0.7,0.3,1,0.6c0.1,0.2,0.2,0.4,0.1,0.6
				c0,0.2-0.1,0.4-0.3,0.5c-0.6-0.3-1.3-0.4-1.9-0.4c-1.5,0.1-2.8,1.6-4.3,1.4c-0.2,0-0.4-0.2-0.5-0.4C119.6,40.5,122,39.1,123.2,39
				z"/>
			<path id="girl-hand" class="st5" d="M33.8,135.8c-0.4-0.7-1.9-1.1-2.5-1.4c-1-0.5-2-1.1-2.9-1.7c-0.3-2.6-2.2-4.8-3.9-6.9
				c-1.4-1.9-3.5-6.1-6.5-5.6c-0.2,0-0.5,0.3-0.3,0.6c0.8,1.5,2.1,2.6,3,4c0.5,0.8,1,1.7,1.4,2.6c-0.8-0.6-1.6-1.2-2.4-1.6
				c-2.7-1.6-5.6-3-8.6-4.1c-1.9-0.7-4.8-2.1-6.9-1.5c-0.1,0-0.2,0.2-0.3,0.3c-0.2,1.7,3.6,2.7,4.8,3.1c2.4,0.9,4.7,1.9,7,3.1
				c-0.1,0.1-0.2,0.1-0.2,0.2c-0.1,0.1-0.2,0.2-0.3,0.2c-2.8-1-5.6-2-8.4-2.9c-1.9-0.6-4.5-1.6-6.5-1c-0.2,0.1-0.3,0.3-0.3,0.4
				c0,0.8,0.8,1,1.5,1.4c1.4,0.7,2.9,1.3,4.5,1.8c2.4,0.8,4.8,1.6,7.1,2.5c0,0-0.1,0.1-0.1,0.1c-2.5-0.8-5.1-1.5-7.7-1.9
				c-1.3-0.2-4.3-0.9-5.2,0.3C0,127.9,0,128.1,0,128.2c0.5,1.2,2.8,1.6,4.2,1.9c-0.9,0-1.9,0-2.8,0c-0.3,0-0.5,0.4-0.3,0.7
				c0.9,1.3,3.7,1.7,5.2,2.1c2.4,0.6,4.8,1.1,7.1,1.8c0.1,0.1,0.3,0.2,0.4,0.3c1.7,1.4,3.6,3,5.6,4c0.7,0.4,1.3,0.5,1.9,0.5
				c0.6,0.2,1.3,0.2,2.1,0.1c3-0.1,5.4,0.5,7.9,2.3c0.3,0.2,0.7,0,0.8-0.3C32.6,140.4,34.6,137.1,33.8,135.8"/>
			<path id="Fill-180" class="st10" d="M40.3,139.2c-1.1,2.8-2.2,5.6-3.3,8.4c-0.1,0.4,0.5,0.5,0.6,0.2c1.1-2.8,2.2-5.6,3.3-8.4
				C41.1,139,40.5,138.8,40.3,139.2"/>
			<path id="Fill-182" class="st10" d="M58.9,152.4c-1.9-1.6-3.7-3.3-5.4-5.3c-0.3-0.3-0.7,0.2-0.4,0.5c1.7,2,3.5,3.8,5.5,5.4
				C58.9,153.2,59.2,152.6,58.9,152.4"/>
			<path id="Fill-184" class="st10" d="M57.8,155.3c-1.9-0.8-3.6-1.8-5.2-3.2c-0.3-0.3-0.8,0.2-0.4,0.5c1.7,1.5,3.5,2.6,5.5,3.4
				C58,156.1,58.2,155.5,57.8,155.3"/>
			<g id="act2" transform="translate(332.000000, 32.000000)">
				<circle id="Oval" class="st12" cx="29.5" cy="29.5" r="29.5"/>
				<g id="Ecommerce-transfer_money-buy-smartphone-hands" transform="translate(14.000000, 14.000000)">
					<path id="Rectangle" class="st13" d="M7.2,0.1h9.9c1.9,0,3.5,1.6,3.5,3.5v19.7c0,1.9-1.6,3.5-3.5,3.5H7.2
						c-1.9,0-3.5-1.6-3.5-3.5V3.6C3.7,1.7,5.2,0.1,7.2,0.1z"/>
					<rect id="Rectangle_1_" x="5.4" y="1.5" class="st14" width="13.6" height="24.1"/>
					<ellipse id="Oval_1_" class="st15" cx="12.2" cy="11.2" rx="5.4" ry="5.2"/>
					<ellipse id="Oval_2_" class="st16" cx="12.2" cy="11.2" rx="4.4" ry="4.2"/>
					<path id="Shape" class="st17" d="M12,9.1h0.3v0.4c0.3,0,0.5,0.1,0.8,0.2c0.2,0.2,0.4,0.5,0.4,0.8h-0.6c0-0.2-0.1-0.3-0.2-0.4
						C12.6,10,12.5,10,12.4,10v1.1c0.4,0.1,0.7,0.2,0.7,0.2c0.3,0.1,0.6,0.5,0.6,0.8c0,0.3-0.1,0.6-0.4,0.8
						c-0.2,0.1-0.5,0.2-0.8,0.2v0.4H12v-0.4c-0.3,0-0.6-0.1-0.8-0.3c-0.2-0.2-0.4-0.6-0.4-0.9h0.6c0,0.2,0.1,0.4,0.2,0.6
						c0.1,0.1,0.2,0.1,0.4,0.1v-1.2l-0.6-0.2c-0.3-0.1-0.6-0.5-0.6-0.8c0-0.3,0.1-0.6,0.4-0.8c0.2-0.1,0.5-0.2,0.8-0.2V9.1z M12,10
						c-0.1,0-0.2,0-0.3,0.1c-0.1,0.1-0.2,0.2-0.2,0.4c0,0.2,0.2,0.3,0.5,0.5L12,10z M12.4,12.7c0.1,0,0.3-0.1,0.4-0.1
						c0.1-0.1,0.2-0.2,0.2-0.4c0-0.2-0.2-0.4-0.6-0.5c0,0,0,0-0.1,0V12.7z"/>
					<path id="Path_2_" class="st13" d="M7.9,1.5l0.5,0.8c0.2,0.4,0.6,0.6,1,0.6h5.5c0.4,0,0.8-0.2,1-0.6l0.5-0.8H7.9z"/>
					<path id="Path_3_" class="st18" d="M20.6,15.2V5.4c0-1,0.8-1.7,1.8-1.7c1,0,1.8,0.8,1.8,1.7V17c0-0.6,0.3-1.2,0.9-1.6
						s1.3-0.3,1.9,0c0.6,0.3,0.9,0.9,0.9,1.6v0.6c0-0.5,0.2-0.9,0.5-1.2c0.2-0.2,0.4-0.3,0.7-0.4c0.2-0.1,0.4-0.1,0.6-0.1
						c0.5,0,0.9,0.2,1.3,0.5s0.5,0.8,0.5,1.2v0.6c0-1,0.8-1.7,1.8-1.7s1.8,0.8,1.8,1.7v2.3c0,0.4-0.1,0.8-0.2,1.2l-2.8,7.6H20
						l-0.9-2.3l-1.9-5.2C17,21.2,17,20.8,17,20.4v-5.2c0-1,0.8-1.7,1.8-1.7c0.5,0,0.9,0.2,1.3,0.5C20.4,14.3,20.6,14.8,20.6,15.2
						L20.6,15.2z"/>
					<polygon id="Path_4_" class="st19" points="29,29.2 26,29.2 23,29.2 20,29.2 20,33.8 23,33.8 26,33.8 29,33.8 32,33.8 32,29.2 
											"/>
					<path id="Path_5_" class="st20" d="M17.1,26.9l-2.5,3.5H1.3L0.1,18.1v-2.3c0-1.3,1.1-2.3,2.4-2.3h4.2c0.9-0.1,1.8,0.3,2.3,1.1
						c0.5,0.8,0.5,1.7,0,2.5c-0.5,0.8-1.4,1.2-2.3,1.1h-3v7.6c0,0.6,0.5,1.2,1.2,1.2L17.1,26.9z"/>
					<rect id="Rectangle_2_" x="1.3" y="30.3" class="st19" width="13.3" height="3.5"/>
					<path id="Path_6_" class="st19" d="M32.2,6.7l0.9,0.8l2.4-2.3c0.2-0.2,0.2-0.6,0-0.8L33.1,2l-0.9,0.8l1.4,1.3h-7v1.2h7
						L32.2,6.7z"/>
					<path id="Path_7_" class="st19" d="M28.6,12.2l0.9-0.8L28.1,10h7V8.8h-7l1.4-1.3l-0.9-0.8L26.2,9c-0.2,0.2-0.2,0.6,0,0.8
						L28.6,12.2z"/>
				</g>
				<circle id="Oval_3_" class="st21" cx="24.5" cy="15.5" r="1"/>
				<path id="Rectangle_3_" class="st21" d="M23.2,15.9h2.6c0.1,0,0.2,0.1,0.2,0.2v0.6c0,0.1-0.1,0.2-0.2,0.2h-2.6
					c-0.1,0-0.2-0.1-0.2-0.2v-0.6C23,16,23.1,15.9,23.2,15.9z"/>
			</g>
			<circle id="Oval_4_" class="st14" cx="260.5" cy="61.5" r="29.5"/>
			<path id="Shape_1_" class="st22" d="M260.5,90C244.8,90,232,77.2,232,61.5S244.8,33,260.5,33S289,45.8,289,61.5
				C289,77.2,276.2,90,260.5,90L260.5,90z M260.5,33.3c-15.6,0-28.2,12.6-28.2,28.2s12.6,28.2,28.2,28.2s28.2-12.6,28.2-28.2
				C288.6,46,276,33.4,260.5,33.3z"/>
			<path id="Shape_2_" class="st22" d="M361.5,90C345.8,90,333,77.2,333,61.5S345.8,33,361.5,33S390,45.8,390,61.5
				C390,77.2,377.2,90,361.5,90L361.5,90z M361.5,33.3c-15.6,0-28.2,12.6-28.2,28.2s12.6,28.2,28.2,28.2s28.2-12.6,28.2-28.2
				C389.6,46,377,33.4,361.5,33.3z"/>
			<circle id="Oval_5_" class="st23" cx="255.5" cy="152.5" r="29.5"/>
			<g id="Group-62" transform="translate(229.000000, 131.000000)">
				<g id="Group-56">
					<g id="Group-3">
						<g id="Clip-2">
						</g>
						<defs>
							<filter id="Adobe_OpacityMaskFilter" filterUnits="userSpaceOnUse" x="17.7" y="6.9" width="7.7" height="11.1">
								<feColorMatrix  type="matrix" values="1 0 0 0 0  0 1 0 0 0  0 0 1 0 0  0 0 0 1 0"/>
							</filter>
						</defs>
						<mask maskUnits="userSpaceOnUse" x="17.7" y="6.9" width="7.7" height="11.1" id="mask-2_1_">
							<g class="st24">
								<path id="path-1_1_" class="st4" d="M0,25.4c0,14,11.3,25.3,25.3,25.3l0,0c14,0,25.3-11.3,25.3-25.3l0,0
									c0-14-11.3-25.3-25.3-25.3l0,0C11.3,0.1,0,11.4,0,25.4L0,25.4z"/>
							</g>
						</mask>
						<path id="Fill-1_1_" class="st25" d="M25.4,18L25.4,18c-4.2,0-7.7-3.4-7.7-7.7V6.9h7.7V18z"/>
					</g>
					<g id="Group-6">
						<g id="Clip-5">
						</g>
						<defs>
							<filter id="Adobe_OpacityMaskFilter_1_" filterUnits="userSpaceOnUse" x="30.6" y="20.9" width="10.8" height="14.8">
								<feColorMatrix  type="matrix" values="1 0 0 0 0  0 1 0 0 0  0 0 1 0 0  0 0 0 1 0"/>
							</filter>
						</defs>
						<mask maskUnits="userSpaceOnUse" x="30.6" y="20.9" width="10.8" height="14.8" id="mask-4_1_">
							<g class="st26">
								<path id="path-3_1_" class="st4" d="M0,25.4c0,14,11.3,25.3,25.3,25.3l0,0c14,0,25.3-11.3,25.3-25.3l0,0
									c0-14-11.3-25.3-25.3-25.3l0,0C11.3,0.1,0,11.4,0,25.4L0,25.4z"/>
							</g>
						</mask>
						<polygon id="Fill-4" class="st27" points="41.4,34.1 37.4,35.7 30.6,23.9 34,20.9 						"/>
					</g>
					<g id="Group-9">
						<g id="Clip-8">
						</g>
						<defs>
							<filter id="Adobe_OpacityMaskFilter_2_" filterUnits="userSpaceOnUse" x="45.8" y="22.1" width="4.1" height="5.4">
								<feColorMatrix  type="matrix" values="1 0 0 0 0  0 1 0 0 0  0 0 1 0 0  0 0 0 1 0"/>
							</filter>
						</defs>
						<mask maskUnits="userSpaceOnUse" x="45.8" y="22.1" width="4.1" height="5.4" id="mask-6_1_">
							<g class="st28">
								<path id="path-5_1_" class="st4" d="M0,25.4c0,14,11.3,25.3,25.3,25.3l0,0c14,0,25.3-11.3,25.3-25.3l0,0
									c0-14-11.3-25.3-25.3-25.3l0,0C11.3,0.1,0,11.4,0,25.4"/>
							</g>
						</mask>
						<path id="Fill-7_1_" class="st29" d="M47.1,27.5l-1.3-0.9l2.5-4.5C48.4,22.1,52.7,25.5,47.1,27.5"/>
					</g>
					<g id="Group-12">
						<g id="Clip-11">
						</g>
						<defs>
							<filter id="Adobe_OpacityMaskFilter_3_" filterUnits="userSpaceOnUse" x="27.9" y="7.5" width="0.6" height="0.9">
								<feColorMatrix  type="matrix" values="1 0 0 0 0  0 1 0 0 0  0 0 1 0 0  0 0 0 1 0"/>
							</filter>
						</defs>
						<mask maskUnits="userSpaceOnUse" x="27.9" y="7.5" width="0.6" height="0.9" id="mask-8_1_">
							<g class="st30">
								<path id="path-7_1_" class="st4" d="M0,25.4c0,14,11.3,25.3,25.3,25.3l0,0c14,0,25.3-11.3,25.3-25.3l0,0
									c0-14-11.3-25.3-25.3-25.3l0,0C11.3,0.1,0,11.4,0,25.4L0,25.4z"/>
							</g>
						</mask>
						<polygon id="Fill-10" class="st31" points="28.4,7.5 28,8.3 27.9,8.3 28.3,7.5 						"/>
					</g>
					<g id="Group-15">
						<g id="Clip-14">
						</g>
						<defs>
							<filter id="Adobe_OpacityMaskFilter_4_" filterUnits="userSpaceOnUse" x="37.4" y="26.6" width="9.7" height="9.8">
								<feColorMatrix  type="matrix" values="1 0 0 0 0  0 1 0 0 0  0 0 1 0 0  0 0 0 1 0"/>
							</filter>
						</defs>
						<mask maskUnits="userSpaceOnUse" x="37.4" y="26.6" width="9.7" height="9.8" id="mask-10_1_">
							<g class="st32">
								<path id="path-9_1_" class="st4" d="M0,25.4c0,14,11.3,25.3,25.3,25.3l0,0c14,0,25.3-11.3,25.3-25.3l0,0
									c0-14-11.3-25.3-25.3-25.3l0,0C11.3,0.1,0,11.4,0,25.4L0,25.4z"/>
							</g>
						</mask>
						<path id="Fill-13_1_" class="st33" d="M47.1,27.5c0,0-2.1,3.9-4.6,7.6c-1.1,1.7-3.5,1.6-5.2,0.6l8.4-9.1L47.1,27.5z"/>
					</g>
					<g id="Group-18">
						<g id="Clip-17">
						</g>
						<defs>
							<filter id="Adobe_OpacityMaskFilter_5_" filterUnits="userSpaceOnUse" x="16.6" y="17.9" width="17.5" height="49.4">
								<feColorMatrix  type="matrix" values="1 0 0 0 0  0 1 0 0 0  0 0 1 0 0  0 0 0 1 0"/>
							</filter>
						</defs>
						<mask maskUnits="userSpaceOnUse" x="16.6" y="17.9" width="17.5" height="49.4" id="mask-12_1_">
							<g class="st34">
								<path id="path-11_1_" class="st4" d="M0,25.4c0,14,11.3,25.3,25.3,25.3l0,0c14,0,25.3-11.3,25.3-25.3l0,0
									c0-14-11.3-25.3-25.3-25.3l0,0C11.3,0.1,0,11.4,0,25.4L0,25.4z"/>
							</g>
						</mask>
						<polygon id="Fill-16" class="st35" points="21.5,18.2 27.2,17.9 34,20.9 34.1,37.4 34.1,67.2 17.4,67.2 17.7,30.8 16.6,19.6 
													"/>
					</g>
					<g id="Group-21">
						<g id="Clip-20">
						</g>
						<defs>
							<filter id="Adobe_OpacityMaskFilter_6_" filterUnits="userSpaceOnUse" x="19.8" y="16" width="11.5" height="14.7">
								<feColorMatrix  type="matrix" values="1 0 0 0 0  0 1 0 0 0  0 0 1 0 0  0 0 0 1 0"/>
							</filter>
						</defs>
						<mask maskUnits="userSpaceOnUse" x="19.8" y="16" width="11.5" height="14.7" id="mask-14_1_">
							<g class="st36">
								<path id="path-13_1_" class="st4" d="M0,25.4c0,14,11.3,25.3,25.3,25.3l0,0c14,0,25.3-11.3,25.3-25.3l0,0
									c0-14-11.3-25.3-25.3-25.3l0,0C11.3,0.1,0,11.4,0,25.4L0,25.4z"/>
							</g>
						</mask>
						<path id="Fill-19" class="st37" d="M21,24.5l7.1,5.4l2.6-6.1l-2.1-1.3l1.4-0.7l-5.7-5.1l-3.7,5.4l2.7,0.6L21,24.5z M28.3,30.7
							l-8.1-6.2l2-1.6l-2.4-0.6l4.4-6.4l6.7,5.9l-1.3,0.6l1.7,1.1L28.3,30.7z"/>
					</g>
					<g id="Group-24">
						<g id="Clip-23">
						</g>
						<defs>
							<filter id="Adobe_OpacityMaskFilter_7_" filterUnits="userSpaceOnUse" x="21.6" y="17.9" width="7.2" height="12.4">
								<feColorMatrix  type="matrix" values="1 0 0 0 0  0 1 0 0 0  0 0 1 0 0  0 0 0 1 0"/>
							</filter>
						</defs>
						<mask maskUnits="userSpaceOnUse" x="21.6" y="17.9" width="7.2" height="12.4" id="mask-16_1_">
							<g class="st38">
								<path id="path-15_1_" class="st4" d="M0,25.4c0,14,11.3,25.3,25.3,25.3l0,0c14,0,25.3-11.3,25.3-25.3l0,0
									c0-14-11.3-25.3-25.3-25.3l0,0C11.3,0.1,0,11.4,0,25.4"/>
							</g>
						</mask>
						<path id="Fill-22" class="st39" d="M28.2,30.3c-5.3-6.9-6.6-12.1-6.6-12.1l5.7-0.3C27.2,17.9,29.9,24.1,28.2,30.3"/>
					</g>
					<g id="Group-27">
						<g id="Clip-26">
						</g>
						<defs>
							<filter id="Adobe_OpacityMaskFilter_8_" filterUnits="userSpaceOnUse" x="21.6" y="12.1" width="5.7" height="7">
								<feColorMatrix  type="matrix" values="1 0 0 0 0  0 1 0 0 0  0 0 1 0 0  0 0 0 1 0"/>
							</filter>
						</defs>
						<mask maskUnits="userSpaceOnUse" x="21.6" y="12.1" width="5.7" height="7" id="mask-18_1_">
							<g class="st40">
								<path id="path-17_1_" class="st4" d="M0,25.4c0,14,11.3,25.3,25.3,25.3l0,0c14,0,25.3-11.3,25.3-25.3l0,0
									c0-14-11.3-25.3-25.3-25.3l0,0C11.3,0.1,0,11.4,0,25.4L0,25.4z"/>
							</g>
						</mask>
						<path id="Fill-25_1_" class="st41" d="M27.2,18.1c0,0,0.2,0.9-1.9,0.9s-3.8-0.9-3.8-0.9v-6.1h5.7V18.1z"/>
					</g>
					<g id="Group-30">
						<g id="Clip-29">
						</g>
						<defs>
							<filter id="Adobe_OpacityMaskFilter_9_" filterUnits="userSpaceOnUse" x="22.1" y="13.5" width="5.1" height="3.8">
								<feColorMatrix  type="matrix" values="1 0 0 0 0  0 1 0 0 0  0 0 1 0 0  0 0 0 1 0"/>
							</filter>
						</defs>
						<mask maskUnits="userSpaceOnUse" x="22.1" y="13.5" width="5.1" height="3.8" id="mask-20_1_">
							<g class="st42">
								<path id="path-19_1_" class="st4" d="M0,25.4c0,14,11.3,25.3,25.3,25.3l0,0c14,0,25.3-11.3,25.3-25.3l0,0
									c0-14-11.3-25.3-25.3-25.3l0,0C11.3,0.1,0,11.4,0,25.4L0,25.4z"/>
							</g>
						</mask>
						<path id="Fill-28" class="st43" d="M27.2,17.3c-4.2-0.4-5.1-3.8-5.1-3.8h5.1V17.3z"/>
					</g>
					<g id="Group-33">
						<g id="Clip-32">
						</g>
						<defs>
							<filter id="Adobe_OpacityMaskFilter_10_" filterUnits="userSpaceOnUse" x="20.5" y="1.2" width="10" height="14.7">
								<feColorMatrix  type="matrix" values="1 0 0 0 0  0 1 0 0 0  0 0 1 0 0  0 0 0 1 0"/>
							</filter>
						</defs>
						<mask maskUnits="userSpaceOnUse" x="20.5" y="1.2" width="10" height="14.7" id="mask-22_1_">
							<g class="st44">
								<path id="path-21_1_" class="st4" d="M0,25.4c0,14,11.3,25.3,25.3,25.3l0,0c14,0,25.3-11.3,25.3-25.3l0,0
									c0-14-11.3-25.3-25.3-25.3l0,0C11.3,0.1,0,11.4,0,25.4"/>
							</g>
						</mask>
						<path id="Fill-31" class="st45" d="M25.4,1.2h0.2c1.8,0,3.4,1,4.3,2.6c0.4,0.7,0.6,1.6,0.6,2.5c0,0.5,0,1.1,0,1.7
							c0,0.3,0,0.6,0,0.9c0,1,0,1.9,0,2.9c0,0.3-0.3,2.8-2.3,3.7c-3.2,1.5-6.7-1.5-6.7-1.5V9.5h-1V6.3C20.5,3.5,22.7,1.2,25.4,1.2"
							/>
					</g>
					<g id="Group-36">
						<g id="Clip-35">
						</g>
						<defs>
							<filter id="Adobe_OpacityMaskFilter_11_" filterUnits="userSpaceOnUse" x="17.7" y="0" width="12.9" height="9.3">
								<feColorMatrix  type="matrix" values="1 0 0 0 0  0 1 0 0 0  0 0 1 0 0  0 0 0 1 0"/>
							</filter>
						</defs>
						<mask maskUnits="userSpaceOnUse" x="17.7" y="0" width="12.9" height="9.3" id="mask-24_1_">
							<g class="st46">
								<path id="path-23_1_" class="st4" d="M0,25.4c0,14,11.3,25.3,25.3,25.3l0,0c14,0,25.3-11.3,25.3-25.3l0,0
									c0-14-11.3-25.3-25.3-25.3l0,0C11.3,0.1,0,11.4,0,25.4"/>
							</g>
						</mask>
						<path id="Fill-34" class="st47" d="M24,0c4,0,5.8,2.5,6.6,4.5c-2.3,4.5-6.1,2.3-7.8,4L23.2,8c-1.3,1.8-3.1,1.2-3.1,1.2
							S18.8,9.2,17.7,9V6C17.7,3.1,20,0,24,0"/>
					</g>
					<g id="Group-39">
						<g id="Clip-38">
						</g>
						<defs>
							<filter id="Adobe_OpacityMaskFilter_12_" filterUnits="userSpaceOnUse" x="20.3" y="7.7" width="2" height="4">
								<feColorMatrix  type="matrix" values="1 0 0 0 0  0 1 0 0 0  0 0 1 0 0  0 0 0 1 0"/>
							</filter>
						</defs>
						<mask maskUnits="userSpaceOnUse" x="20.3" y="7.7" width="2" height="4" id="mask-26_1_">
							<g class="st48">
								<path id="path-25_1_" class="st4" d="M0,25.4c0,14,11.3,25.3,25.3,25.3l0,0c14,0,25.3-11.3,25.3-25.3l0,0
									c0-14-11.3-25.3-25.3-25.3l0,0C11.3,0.1,0,11.4,0,25.4"/>
							</g>
						</mask>
						<path id="Fill-37" class="st49" d="M21.3,7.7L21.3,7.7c0.6,0,1,0.4,1,1v3h-1c-0.5,0-1-0.4-1-1v-2C20.3,8.1,20.7,7.7,21.3,7.7"
							/>
					</g>
					<g id="Group-42">
						<g id="Clip-41">
						</g>
						<defs>
							<filter id="Adobe_OpacityMaskFilter_13_" filterUnits="userSpaceOnUse" x="21.6" y="18.1" width="5.7" height="6.4">
								<feColorMatrix  type="matrix" values="1 0 0 0 0  0 1 0 0 0  0 0 1 0 0  0 0 0 1 0"/>
							</filter>
						</defs>
						<mask maskUnits="userSpaceOnUse" x="21.6" y="18.1" width="5.7" height="6.4" id="mask-28_1_">
							<g class="st50">
								<path id="path-27_1_" class="st4" d="M0,25.4c0,14,11.3,25.3,25.3,25.3l0,0c14,0,25.3-11.3,25.3-25.3l0,0
									c0-14-11.3-25.3-25.3-25.3l0,0C11.3,0.1,0,11.4,0,25.4L0,25.4z"/>
							</g>
						</mask>
						<polygon id="Fill-40" class="st51" points="27.2,24.5 21.6,18.1 27.2,18.3 						"/>
					</g>
					<g id="Group-45">
						<g id="Clip-44">
						</g>
						<defs>
							<filter id="Adobe_OpacityMaskFilter_14_" filterUnits="userSpaceOnUse" x="28" y="30.1" width="1.9" height="37.1">
								<feColorMatrix  type="matrix" values="1 0 0 0 0  0 1 0 0 0  0 0 1 0 0  0 0 0 1 0"/>
							</filter>
						</defs>
						<mask maskUnits="userSpaceOnUse" x="28" y="30.1" width="1.9" height="37.1" id="mask-30_1_">
							<g class="st52">
								<path id="path-29_1_" class="st4" d="M0,25.4c0,14,11.3,25.3,25.3,25.3l0,0c14,0,25.3-11.3,25.3-25.3l0,0
									c0-14-11.3-25.3-25.3-25.3l0,0C11.3,0.1,0,11.4,0,25.4L0,25.4z"/>
							</g>
						</mask>
						<polygon id="Fill-43" class="st53" points="29.9,67.2 29.4,67.2 29.4,32.3 28,30.4 28.4,30.1 29.9,32.1 						"/>
					</g>
					<g id="Group-48">
						<g id="Clip-47">
						</g>
						<defs>
							<filter id="Adobe_OpacityMaskFilter_15_" filterUnits="userSpaceOnUse" x="13.4" y="19.6" width="6.1" height="19.7">
								<feColorMatrix  type="matrix" values="1 0 0 0 0  0 1 0 0 0  0 0 1 0 0  0 0 0 1 0"/>
							</filter>
						</defs>
						<mask maskUnits="userSpaceOnUse" x="13.4" y="19.6" width="6.1" height="19.7" id="mask-32_1_">
							<g class="st54">
								<path id="path-31_1_" class="st4" d="M0,25.4c0,14,11.3,25.3,25.3,25.3l0,0c14,0,25.3-11.3,25.3-25.3l0,0
									c0-14-11.3-25.3-25.3-25.3l0,0C11.3,0.1,0,11.4,0,25.4L0,25.4z"/>
							</g>
						</mask>
						<path id="Fill-46" class="st55" d="M19.5,22.1l-2.8,17.2L13.4,39c0.6-10.8,3.2-19.4,3.2-19.4L19.5,22.1z"/>
					</g>
					<g id="Clip-50">
					</g>
					<defs>
						<filter id="Adobe_OpacityMaskFilter_16_" filterUnits="userSpaceOnUse" x="5.5" y="34.6" width="15.3" height="10.2">
							<feColorMatrix  type="matrix" values="1 0 0 0 0  0 1 0 0 0  0 0 1 0 0  0 0 0 1 0"/>
						</filter>
					</defs>
					<mask maskUnits="userSpaceOnUse" x="5.5" y="34.6" width="15.3" height="10.2" id="mask-34_1_">
						<g class="st56">
							<path id="path-33_1_" class="st4" d="M0,25.4c0,14,11.3,25.3,25.3,25.3l0,0c14,0,25.3-11.3,25.3-25.3l0,0
								c0-14-11.3-25.3-25.3-25.3l0,0C11.3,0.1,0,11.4,0,25.4L0,25.4z"/>
						</g>
					</mask>
					<polygon id="Fill-49_1_" class="st57" points="5.5,44.8 20.8,44.8 20.8,34.6 5.5,34.6 					"/>
					<defs>
						<filter id="Adobe_OpacityMaskFilter_17_" filterUnits="userSpaceOnUse" x="11.2" y="41.4" width="5" height="4.7">
							<feColorMatrix  type="matrix" values="1 0 0 0 0  0 1 0 0 0  0 0 1 0 0  0 0 0 1 0"/>
						</filter>
					</defs>
					<mask maskUnits="userSpaceOnUse" x="11.2" y="41.4" width="5" height="4.7" id="mask-34_2_">
						<g class="st58">
							<path id="path-33_2_" class="st4" d="M0,25.4c0,14,11.3,25.3,25.3,25.3l0,0c14,0,25.3-11.3,25.3-25.3l0,0
								c0-14-11.3-25.3-25.3-25.3l0,0C11.3,0.1,0,11.4,0,25.4L0,25.4z"/>
						</g>
					</mask>
					<path id="Fill-51" class="st59" d="M16.2,44.3L16.2,44.3c0,1-0.8,1.7-1.7,1.7h-1.5c-1,0-1.7-0.8-1.7-1.7v-3h2
						C14.8,41.4,16.2,42.7,16.2,44.3"/>
					<defs>
						<filter id="Adobe_OpacityMaskFilter_18_" filterUnits="userSpaceOnUse" x="19.3" y="28.3" width="3.2" height="2.3">
							<feColorMatrix  type="matrix" values="1 0 0 0 0  0 1 0 0 0  0 0 1 0 0  0 0 0 1 0"/>
						</filter>
					</defs>
					<mask maskUnits="userSpaceOnUse" x="19.3" y="28.3" width="3.2" height="2.3" id="mask-34_3_">
						<g class="st60">
							<path id="path-33_3_" class="st4" d="M0,25.4c0,14,11.3,25.3,25.3,25.3l0,0c14,0,25.3-11.3,25.3-25.3l0,0
								c0-14-11.3-25.3-25.3-25.3l0,0C11.3,0.1,0,11.4,0,25.4L0,25.4z"/>
						</g>
					</mask>
					<polygon id="Fill-52" class="st61" points="19.3,30.6 22.5,30.6 22.5,28.3 19.3,28.3 					"/>
					<defs>
						<filter id="Adobe_OpacityMaskFilter_19_" filterUnits="userSpaceOnUse" x="20.7" y="27.8" width="0.5" height="0.7">
							<feColorMatrix  type="matrix" values="1 0 0 0 0  0 1 0 0 0  0 0 1 0 0  0 0 0 1 0"/>
						</filter>
					</defs>
					<mask maskUnits="userSpaceOnUse" x="20.7" y="27.8" width="0.5" height="0.7" id="mask-34_4_">
						<g class="st62">
							<path id="path-33_4_" class="st4" d="M0,25.4c0,14,11.3,25.3,25.3,25.3l0,0c14,0,25.3-11.3,25.3-25.3l0,0
								c0-14-11.3-25.3-25.3-25.3l0,0C11.3,0.1,0,11.4,0,25.4L0,25.4z"/>
						</g>
					</mask>
					<polygon id="Fill-53" class="st63" points="20.7,28.5 21.2,28.5 21.2,27.8 20.7,27.8 					"/>
					<defs>
						<filter id="Adobe_OpacityMaskFilter_20_" filterUnits="userSpaceOnUse" x="16.4" y="19.5" width="2.2" height="11.3">
							<feColorMatrix  type="matrix" values="1 0 0 0 0  0 1 0 0 0  0 0 1 0 0  0 0 0 1 0"/>
						</filter>
					</defs>
					<mask maskUnits="userSpaceOnUse" x="16.4" y="19.5" width="2.2" height="11.3" id="mask-34_5_">
						<g class="st64">
							<path id="path-33_5_" class="st4" d="M0,25.4c0,14,11.3,25.3,25.3,25.3l0,0c14,0,25.3-11.3,25.3-25.3l0,0
								c0-14-11.3-25.3-25.3-25.3l0,0C11.3,0.1,0,11.4,0,25.4L0,25.4z"/>
						</g>
					</mask>
					<path id="Fill-54" class="st65" d="M18.4,30.9l-0.5,0c0,0,0.4-3.6,0.2-5.6c-0.2-2-1.6-5.5-1.7-5.5l0.4-0.2
						c0.1,0.1,1.5,3.5,1.7,5.6C18.7,27.2,18.4,30.7,18.4,30.9"/>
					<defs>
						<filter id="Adobe_OpacityMaskFilter_21_" filterUnits="userSpaceOnUse" x="30.4" y="9.5" width="0.9" height="2.1">
							<feColorMatrix  type="matrix" values="1 0 0 0 0  0 1 0 0 0  0 0 1 0 0  0 0 0 1 0"/>
						</filter>
					</defs>
					<mask maskUnits="userSpaceOnUse" x="30.4" y="9.5" width="0.9" height="2.1" id="mask-34_6_">
						<g class="st66">
							<path id="path-33_6_" class="st4" d="M0,25.4c0,14,11.3,25.3,25.3,25.3l0,0c14,0,25.3-11.3,25.3-25.3l0,0
								c0-14-11.3-25.3-25.3-25.3l0,0C11.3,0.1,0,11.4,0,25.4L0,25.4z"/>
						</g>
					</mask>
					<path id="Fill-55" class="st67" d="M30.5,11.6l0.7-0.3c0.1,0,0.2-0.2,0.1-0.3l-0.9-1.5"/>
				</g>
				<path id="Fill-57" class="st68" d="M29,9.5c0,0.3-0.2,0.5-0.5,0.5C28.3,10,28,9.8,28,9.5C28,9.2,28.2,9,28.5,9
					C28.7,9,29,9.2,29,9.5"/>
			</g>
			<path id="Shape_3_" class="st22" d="M255.5,181c-15.7,0-28.5-12.8-28.5-28.5s12.8-28.5,28.5-28.5s28.5,12.8,28.5,28.5
				C284,168.2,271.2,181,255.5,181L255.5,181z M255.5,124.3c-15.6,0-28.2,12.6-28.2,28.2s12.6,28.2,28.2,28.2s28.2-12.6,28.2-28.2
				C283.6,137,271,124.4,255.5,124.3z"/>
			<circle id="Oval_6_" class="st69" cx="361.5" cy="153.5" r="29.5"/>
			<path id="Shape_4_" class="st22" d="M361.5,182c-15.7,0-28.5-12.8-28.5-28.5s12.8-28.5,28.5-28.5s28.5,12.8,28.5,28.5
				C390,169.2,377.2,182,361.5,182L361.5,182z M361.5,125.3c-15.6,0-28.2,12.6-28.2,28.2s12.6,28.2,28.2,28.2s28.2-12.6,28.2-28.2
				C389.6,138,377,125.4,361.5,125.3z"/>
			<path id="Rectangle_4_" class="st70" d="M257.8,42h17.4c1.6,0,2.8,1.3,2.8,2.8v30.4c0,1.6-1.3,2.8-2.8,2.8h-17.4
				c-1.6,0-2.8-1.3-2.8-2.8V44.8C255,43.3,256.3,42,257.8,42z"/>
			<line id="Path_8_" class="st71" x1="258" y1="47" x2="275" y2="47"/>
			<line id="Path_9_" class="st71" x1="258" y1="50" x2="275" y2="50"/>
			<line id="Path_10_" class="st71" x1="258" y1="53" x2="275" y2="53"/>
			<line id="Path_11_" class="st71" x1="258" y1="56" x2="275" y2="56"/>
			<line id="Path_12_" class="st71" x1="258" y1="59" x2="275" y2="59"/>
			<line id="Path_13_" class="st71" x1="258" y1="62" x2="275" y2="62"/>
			<line id="Path_14_" class="st71" x1="258" y1="65" x2="275" y2="65"/>
			<line id="Path_15_" class="st71" x1="258" y1="68" x2="275" y2="68"/>
			<line id="Path_16_" class="st71" x1="258" y1="71" x2="275" y2="71"/>
			<line id="Path_17_" class="st71" x1="258" y1="74" x2="275" y2="74"/>
			<path id="Path_18_" class="st72" d="M270.8,80h-27.6c-1.2,0-2.2-1-2.2-2.2V56h32v21.8c0,0.6-0.2,1.2-0.6,1.6
				C271.9,79.8,271.4,80,270.8,80z"/>
			<polygon id="Path_19_" class="st73" points="240.8,55 273,55 269.4,75 237,75 			"/>
			<polygon id="Path_20_" class="st74" points="243.6,56 243,58.9 259.4,59 260,56 			"/>
			<path id="Shape_5_" class="st75" d="M265,61l-0.2,0.9c0.6,0,1.2,0.2,1.6,0.6c0.4,0.3,0.6,0.9,0.5,1.7h-1.4c0.1-0.4-0.1-0.7-0.3-1
				c-0.2-0.1-0.4-0.2-0.7-0.2l-0.5,2.4c0.9,0.3,1.4,0.5,1.4,0.5c0.7,0.3,1.1,1.1,0.8,1.9c-0.2,0.8-0.7,1.4-1.4,1.7
				c-0.6,0.3-1.3,0.5-1.9,0.5l-0.2,1H262l0.2-1c-0.8-0.1-1.4-0.3-1.8-0.7c-0.4-0.4-0.5-1.1-0.4-2h1.4c-0.1,0.6,0,1,0.2,1.2
				c0.2,0.2,0.5,0.3,0.8,0.3l0.6-2.6l-1.3-0.5c-0.7-0.3-1.1-1.1-0.8-1.9c0.1-0.7,0.6-1.3,1.3-1.7c0.6-0.3,1.2-0.5,1.8-0.5l0.2-0.9
				L265,61z M263,63.2c-0.4,0.2-0.6,0.5-0.7,0.9c-0.1,0.4,0.2,0.8,1,1.1l0.5-2.2C263.5,63,263.3,63.1,263,63.2L263,63.2z
				 M264.2,68.7c0.4-0.2,0.6-0.5,0.7-0.8c0.1-0.5-0.2-0.9-1-1.2c0,0-0.1,0-0.1,0l-0.5,2.3C263.6,68.9,263.9,68.8,264.2,68.7
				L264.2,68.7z"/>
			<path id="Path_21_" class="st76" d="M256.7,63L256.7,63l-11.3-0.1c-0.2,0-0.3-0.2-0.3-0.5c0-0.3,0.1-0.5,0.3-0.5l0,0l11.3,0.1
				c0.2,0,0.3,0.2,0.3,0.5C257,62.8,256.9,63,256.7,63z"/>
			<path id="Path_22_" class="st76" d="M255.7,65L255.7,65l-11.3-0.1c-0.2,0-0.3-0.2-0.3-0.5c0-0.3,0.1-0.5,0.3-0.5l0,0l11.3,0.1
				c0.2,0,0.3,0.2,0.3,0.5C256,64.8,255.9,65,255.7,65L255.7,65z"/>
			<path id="Path_23_" class="st76" d="M255.7,68L255.7,68l-11.3-0.1c-0.2,0-0.3-0.2-0.3-0.5c0-0.3,0.1-0.5,0.3-0.5l0,0l11.3,0.1
				c0.2,0,0.3,0.2,0.3,0.5C256,67.8,255.9,68,255.7,68z"/>
			<path id="Fill-139" class="st5" d="M250.5,75.4c0.7-0.7,1.5-1.7,1.5-2.4c0.1-1.9-2.1-0.5-2.7,0.1c-1.4,1.2-2.7,2.5-4.1,3.6
				c-0.7,0.6-1.4,1.2-2.1,1.8c-0.4,0.3-2.4,1.5-2.9,1c1.9-1.9,3.9-3.8,5.8-5.7c0.8-0.8,3.6-3.2,2.9-4.6c-0.1-0.2-0.2-0.3-0.4-0.2
				c-2.2,0.1-4.5,2.7-6,4.2c-1,1-2.4,3.3-3.8,3.8c-0.4,0.1-0.7,0.1-1-0.1c-0.3-0.4-0.6-0.8-0.8-1.2c-0.1-0.3-0.3-0.6-0.5-0.9
				c0-0.1-0.1-0.2-0.1-0.2c0-0.1-0.1-0.1-0.2-0.2c-0.6-0.8-1.3-1.6-2.3-2c-1.8-0.8-5-1.2-6.5,0.3c-0.2,0.2-0.1,0.5,0.2,0.6
				c0.1,0.3,0.3,0.3,0.6,0.5c1,0.4,2.1,0.4,3.1,1c1.3,0.7,2.4,1.7,3.1,2.9c0.3,1.4,0.1,2.9-0.9,4.1c-0.9,1.1-2.1,1.7-3.5,2
				c0,0,0-0.1-0.1-0.1c-1.4-2.1-1.9-4.4-2.2-6.8c-0.1-1,0.2-3-0.8-3.6c-0.2-0.1-0.4-0.1-0.5,0.1c-0.1,0-0.2,0.1-0.3,0.2
				c-1,1.9-1.4,4.2-1.2,6.3c0.2,1.7,0.9,3.1,1.8,4.5c0.1,1.1-0.2,2.1-0.5,3.3c-0.2,0.8-0.4,2,0,2.9c0,0.1,0,0.1,0,0.2
				c0,0,0,0.1,0,0.1c0,0.2,0.2,0.3,0.3,0.4l0.1,0c0,0,0.1,0,0.1,0c0.1,0.1,0.2,0.1,0.3,0.2c0.1,0,0.2,0,0.2,0
				c0.6,0.4,1.3,1.1,1.6,1.2c0.3,0.2,0.7,0.5,1.1,0.6c0.7,0.1,1.4-0.4,1.9-0.7c2.3-1.4,4.5-3.4,6.4-5.3c0.4-0.4,0.9-0.8,1.3-1.3
				c1.4-0.9,2.7-1.9,4-2.8c1.6-1.2,3.2-2.5,4.7-3.9c0.9-0.8,2.3-1.8,2.4-3.2C250.7,75.7,250.6,75.5,250.5,75.4"/>
			<g id="Group-74" transform="translate(339.000000, 131.000000)">
				<g id="Group-3_1_" transform="translate(21.000000, 33.000000)">
					<g id="Clip-2_1_">
					</g>
					<defs>
						<filter id="Adobe_OpacityMaskFilter_22_" filterUnits="userSpaceOnUse" x="0" y="0" width="23" height="13">
							<feColorMatrix  type="matrix" values="1 0 0 0 0  0 1 0 0 0  0 0 1 0 0  0 0 0 1 0"/>
						</filter>
					</defs>
					<mask maskUnits="userSpaceOnUse" x="0" y="0" width="23" height="13" id="mask-36_1_">
						<g class="st77">
							<polygon id="path-35_1_" class="st4" points="0,0 23,0 23,13 0,13 							"/>
						</g>
					</mask>
					<path id="Fill-1_2_" class="st78" d="M18.4,0C9.3,1.7,3.1,5.1,0,10.4L4.6,13L23,2.6L18.4,0z"/>
				</g>
				<path id="Fill-4_1_" class="st79" d="M10.3,22c-0.4,2.2-0.5,4.4,0,6.7c1.5,1.4,3.4,2.5,5.7,3.3v-6.7L10.3,22z"/>
				<polygon id="Fill-6" class="st80" points="14,32 9,29.3 9,24 				"/>
				<polygon id="Fill-8" class="st80" points="13.8,24.4 13,24 16,29 16,28.2 				"/>
				<path id="Fill-10_1_" class="st81" d="M9.8,29.1c-0.3-0.2-0.6,0-0.8,0.4c1.6,1.7,3.7,2.8,6.2,3.5l0.8-0.4L9.8,29.1z"/>
				<path id="Fill-12" class="st82" d="M9.4,22.4c-0.6,2.1-0.6,4.3,0,6.6l0.6-0.4V22L9.4,22.4z"/>
				<path id="Fill-14" class="st83" d="M35.5,25c-0.7,2.1-0.7,4.2,0,6.4c0.2,0.5,0.5,0.7,0.9,0.5c0.8-2.1,0.8-4.2,0-6.5L35.5,25z"/>
				<path id="Fill-16_1_" class="st84" d="M36,31v3.6l0.6,0.4c0.5-1.2,0.5-2.4,0-3.6L36,31z"/>
				<polygon id="Fill-18" class="st85" points="30,28.5 30,38 36,34.5 36,25 				"/>
				<path id="Fill-20" class="st86" d="M34.1,30.3c0.1-0.1,0.1-0.2,0.2-0.2c0.1,0,0.2-0.1,0.2,0l0.4,0.2L34.5,31l-0.4-0.2
					c-0.1,0-0.1-0.1-0.1-0.2C34,30.5,34,30.4,34.1,30.3"/>
				<path id="Fill-22_1_" class="st87" d="M34.5,31.1c0.1-0.1,0.3-0.1,0.4,0c0.1,0,0.1,0.1,0.1,0.3c0,0.1-0.1,0.3-0.1,0.4
					c-0.1,0.1-0.2,0.2-0.4,0.3c-0.1,0.1-0.3,0.1-0.4,0c-0.1,0-0.1-0.1-0.1-0.3c0-0.1,0.1-0.3,0.1-0.4C34.2,31.2,34.4,31.1,34.5,31.1
					"/>
				<path id="Fill-24" class="st4" d="M15.1,26.1l-6-3.5v6.9l6,3.5V26.1z M12,14c-3.9,0.2-6.9,1.9-9,5.2v10.4
					c5.6,5.1,11.6,8.6,18.1,10.4c1.2-3.5,1.2-7,0-10.4C19.5,23.9,16.5,18.7,12,14L12,14z"/>
				<path id="Fill-26" class="st84" d="M3,29v3.5L21.2,43c1-1.2,1-2.4,0-3.5L3,29z"/>
				<path id="Fill-28_1_" class="st88" d="M21,29.5V40c3.9-0.3,6.9-2,9-5.2v-6.1l6-3.5v6.1c1.3-0.1,2.3-0.7,3-1.7V19L21,29.5z"/>
				<polygon id="Fill-30" class="st89" points="21,40.4 21,44 30,38.6 30,35 				"/>
				<polygon id="Fill-32" class="st89" points="36,31.7 36,35 39,33.3 39,30 				"/>
				<path id="Fill-34_1_" class="st84" d="M3,18.8L0,17l12-7c6.8,6.1,10.7,13.1,12,21l-3-1.7l-9-15.8L3,18.8z"/>
				<polygon id="Fill-36" class="st89" points="30,0 12,10.3 24,31 42,20.7 				"/>
				<polygon id="Fill-38" class="st90" points="33.6,11 20,18.6 21.4,21 35,13.4 				"/>
				<polygon id="Fill-40_1_" class="st91" points="34,11 34,14 35,13.3 				"/>
				<path id="Fill-42" class="st92" d="M26.5,5.7c-3,1.7-5.5,5.9-5.5,9.4c0,3.5,2.5,4.9,5.5,3.1c3-1.7,5.5-5.9,5.5-9.4
					C32,5.4,29.5,4,26.5,5.7"/>
				<polygon id="Fill-44" class="st92" points="23.7,20 22,19.1 22.3,19 24,19.9 				"/>
				<polygon id="Fill-46_1_" class="st92" points="31.7,6 30,5.1 30.3,5 32,5.9 				"/>
				<path id="Fill-48" class="st92" d="M27.8,6.7c-2.6,1.6-4.8,5.5-4.8,8.7c0,3.2,2.1,4.5,4.8,2.9c2.6-1.6,5.2-5.8,5.2-9
					C33,6.2,30.4,5.1,27.8,6.7"/>
				<path id="Fill-50" class="st93" d="M27,6.7c-2.8,1.6-5,5.5-5,8.7c0,3.2,2.2,4.5,5,2.9c2.8-1.6,5-5.5,5-8.7
					C32,6.4,29.8,5.1,27,6.7"/>
				<path id="Fill-52_1_" class="st86" d="M27.5,7.5c-2.7,1.5-4.8,5.2-4.8,8.2c0,3,2.2,4.3,4.8,2.7c2.7-1.5,4.8-5.2,4.8-8.2
					S30.2,6,27.5,7.5 M27.5,6.7c-3,1.7-5.5,5.9-5.5,9.4c0,3.5,2.5,4.9,5.5,3.1c3-1.7,5.5-5.9,5.5-9.4C33,6.4,30.5,5,27.5,6.7"/>
				<path id="Fill-54_1_" class="st87" d="M29,12.5c-1.3,0.9-3.4,0.4-2.9-0.4c0,0,0,0,0.4,0c0.2,0,0.4-0.1,0.5-0.1
					c0.1,0,0.5-0.1,0.8-0.1c0.2,0,0.4,0,0.6,0.1C28.5,12.2,29,12.5,29,12.5"/>
				<path id="Fill-56" class="st87" d="M28.6,10L28,9.6c0,0,0.4-0.3,0.8-0.4C29.1,9.1,29.3,9,29.4,9L30,9.4
					C29.6,9.9,29.2,10.1,28.6,10"/>
				<path id="Fill-58" class="st87" d="M25.8,13l-0.4-0.2c-0.1,0-0.2-0.1-0.3-0.2C25,12.5,25,12.3,25,12.1c0-0.4,0.1-0.7,0.4-1.1
					c0.2-0.4,0.6-0.7,1.1-1l1.5,0C26.3,10.5,25.7,12.1,25.8,13"/>
				<path id="Fill-60" class="st94" d="M27.8,17L27,16.8V16l0.8,0.2C28.1,16.5,28.1,16.7,27.8,17"/>
				<path id="Fill-62" class="st94" d="M25.6,16L25,15.8l0.3-0.8c0.3,0.1,0.5,0.1,0.6,0.2C26.1,15.6,25.9,15.8,25.6,16"/>
				<path id="Fill-64" class="st87" d="M28.7,14.1c-0.8,1.2-3.2,0.8-3.2,0.8L25,14.7c0.2,0,0.4,0,0.7-0.1c0.3,0,0.6-0.1,1-0.3
					c0.4-0.2,0.7-0.3,0.9-0.5c0.2-0.2,0.2-0.3,0.2-0.5c0-0.2-0.1-0.3-0.1-0.3S29.8,12.6,28.7,14.1"/>
				<path id="Fill-66" class="st94" d="M27.8,9.2C27.7,9.1,27.4,9,27,9v0.8l0.8,0.2C28.1,9.7,28.1,9.5,27.8,9.2"/>
				<path id="Fill-68" class="st87" d="M27.4,9L27,8.6L27.6,8L28,8.4C27.9,8.8,27.6,9,27.4,9"/>
				<path id="Fill-70" class="st86" d="M27.6,15.8c-0.4,0.2-0.8,0.3-1,0.4c-0.3,0-0.4,0.1-0.6,0.1l0.3-1.1c0.2,0,0.4,0,0.7-0.1
					c0.3-0.1,0.6-0.2,0.9-0.4c0.4-0.2,0.7-0.4,0.8-0.7c0.2-0.2,0.2-0.4,0.2-0.7c0-0.1,0-0.3-0.1-0.3c-0.1-0.1-0.2-0.1-0.3-0.1
					c-0.1,0-0.3,0-0.4,0c-0.2,0-0.3,0-0.5,0.1c-0.2,0-0.4,0-0.5,0.1c-0.2,0-0.3,0-0.5-0.1c-0.1-0.1-0.3-0.1-0.3-0.3
					c-0.1-0.1-0.1-0.3-0.1-0.6c0-0.4,0.1-0.9,0.4-1.3c0.2-0.4,0.6-0.8,1.1-1.2V8.5L28.5,8v1c0.3-0.1,0.5-0.2,0.7-0.3
					c0.2-0.1,0.4-0.1,0.5-0.1l-0.2,1.1c-0.2,0-0.4,0.1-0.6,0.1c-0.2,0.1-0.5,0.2-0.8,0.3c-0.3,0.2-0.5,0.4-0.7,0.6
					c-0.2,0.2-0.2,0.4-0.2,0.6c0,0.1,0,0.2,0.1,0.3c0,0.1,0.1,0.1,0.2,0.1s0.2,0,0.3,0c0.1,0,0.3,0,0.4-0.1c0.2,0,0.5,0,0.7-0.1
					c0.2,0,0.4,0,0.5,0.1s0.3,0.2,0.4,0.3c0.1,0.2,0.1,0.4,0.1,0.7c0,0.4-0.1,0.9-0.4,1.3s-0.6,0.9-1.2,1.2v1.2L27.6,17V15.8z"/>
				<polygon id="Fill-72" class="st89" points="34.3,13 27.7,16.8 21,20.7 24.7,27 38,19.3 				"/>
			</g>
		</g>
	</g>
</g>
</svg>
