<?xml version="1.0" encoding="UTF-8"?>
<svg width="138px" height="67px" viewBox="0 0 138 67" version="1.1" xmlns="http://www.w3.org/2000/svg" xmlns:xlink="http://www.w3.org/1999/xlink">
    <title>Group 6</title>
    <defs>
        <polygon id="path-1" points="0.0721982039 0.115770075 59.8872908 0.115770075 59.8872908 26.9326409 0.0721982039 26.9326409"></polygon>
    </defs>
    <g id="Page-1" stroke="none" stroke-width="1" fill="none" fill-rule="evenodd">
        <g id="設計稿-" transform="translate(-287.000000, -4725.000000)">
            <g id="Group-6" transform="translate(287.000000, 4725.000000)">
                <g id="Group-3" transform="translate(78.000000, 0.000000)">
                    <mask id="mask-2" fill="white">
                        <use xlink:href="#path-1"></use>
                    </mask>
                    <g id="Clip-2"></g>
                    <path d="M33.3901554,26.9326409 C33.3901554,26.9326409 3.63744622,26.5851626 0.31461753,20.4183626 C-3.00809163,14.2515626 28.847008,22.7953017 33.3901554,23.6755017 C33.3901554,23.6755017 8.23617131,18.5207322 7.58884064,10.8256148 C6.84051394,1.92888 31.08649,18.8791278 31.08649,18.8791278 C31.08649,18.8791278 18.1858924,7.15995391 29.7042191,1.79822348 C41.2226653,-3.56350696 39.8405139,15.9427017 38.919,18.6943539 C38.919,18.6943539 47.2122669,-4.28851565 49.5159323,0.870362609 C51.8195976,6.02924087 48.5944183,18.3627235 44.4478446,20.4183626 C44.4478446,20.4183626 50.9933426,16.9080104 57.3961315,13.5242061 C63.7988008,10.1404017 56.8878048,26.2368626 47.6730239,26.4109539 C38.458243,26.5851626 33.3901554,26.9326409 33.3901554,26.9326409" id="Fill-1" fill="#FCF2AF" mask="url(#mask-2)"></path>
                </g>
                <path d="M48.7295747,66.7033267 C35.6738173,67.3210809 4.11804072,68.9441697 0,47.1969893 C0,47.1969893 27.7193397,54.9704646 36.1832448,60.9566259 C36.1832448,60.9566259 12.137102,41.0805765 9.15699249,24.0905147 C6.17700171,7.10057044 34.4831744,44.3891761 38.8609745,52.2492898 C38.8609745,52.2492898 16.4720441,27.4885741 24.3647873,12.5373949 C32.2576492,-2.41390179 49.415895,50.505589 48.7295747,52.2492898 C48.7295747,52.2492898 41.1799323,1.78435791 51.4749747,9.87922987 C61.7698984,17.9741018 66.3761158,48.4263848 63.7118015,56.711344 C63.7118015,56.711344 73.6303828,22.731338 78.681444,29.5273392 C83.7325052,36.3233404 68.3989859,60.4445541 63.7118015,60.9566259 C63.7118015,60.9566259 83.783911,57.9811786 88.5625098,52.2492898 C88.5625098,52.2492898 96.0865087,64.4624837 48.7295747,66.7033267" id="Fill-4" fill="#FAEEA0"></path>
            </g>
        </g>
    </g>
</svg>