<?xml version="1.0" encoding="UTF-8"?>
<svg width="112px" height="26px" viewBox="0 0 112 26" version="1.1" xmlns="http://www.w3.org/2000/svg" xmlns:xlink="http://www.w3.org/1999/xlink">
    <title>Group 61</title>
    <defs>
        <polygon id="path-1" points="0 0.418627065 110.713284 0.418627065 110.713284 12.6860067 0 12.6860067"></polygon>
        <polygon id="path-3" points="0.277117647 0.154617647 13.8464118 0.154617647 13.8464118 14 0.277117647 14"></polygon>
    </defs>
    <g id="切圖" stroke="none" stroke-width="1" fill="none" fill-rule="evenodd">
        <g id="設計稿--v1-1" transform="translate(-543.000000, -2857.000000)">
            <g id="Group-61" transform="translate(543.000000, 2857.000000)">
                <g id="Group-3" transform="translate(0.910706, 0.229951)">
                    <mask id="mask-2" fill="white">
                        <use xlink:href="#path-1"></use>
                    </mask>
                    <g id="Clip-2"></g>
                    <path d="M55.3566011,12.6860067 C31.2310993,12.6860067 9.52752731,7.98910667 0.0646749077,0.719506667 C-0.00536568266,0.665773333 -0.0209302583,0.561773333 0.0298594096,0.487673333 C0.0806490775,0.412706667 0.178951661,0.39624 0.248992251,0.45084 C9.66187417,7.68144 31.292948,12.35364 55.3566011,12.35364 C79.4202542,12.35364 101.051328,7.68144 110.46421,0.45084 C110.533841,0.39624 110.632144,0.412706667 110.683343,0.487673333 C110.734542,0.561773333 110.718568,0.665773333 110.648527,0.719506667 C101.185675,7.98910667 79.482103,12.6860067 55.3566011,12.6860067" id="Fill-1" fill="#395064" mask="url(#mask-2)"></path>
                </g>
                <g id="Group-6" transform="translate(49.259694, 11.497585)">
                    <mask id="mask-4" fill="white">
                        <use xlink:href="#path-3"></use>
                    </mask>
                    <g id="Clip-5"></g>
                    <polygon id="Fill-4" fill="#F35939" mask="url(#mask-4)" points="13.8464118 0.154617647 7.06176471 14.0002059 0.277117647 0.154617647"></polygon>
                </g>
                <path d="M52.2769012,13.1406884 L51.5494885,13.1406884 C51.4740264,13.1406884 51.4129381,13.0216884 51.4129381,12.8756884 C51.4129381,12.7286884 51.4740264,12.6106884 51.5494885,12.6106884 L52.2769012,12.6106884 C52.3518498,12.6106884 52.4129381,12.7286884 52.4129381,12.8756884 C52.4129381,13.0216884 52.3518498,13.1406884 52.2769012,13.1406884" id="Fill-7" fill="#FFFFFF"></path>
                <path d="M53.522036,13.9179682 L52.4118953,13.9179682 C52.3484957,13.9179682 52.2976034,13.7989682 52.2976034,13.6529682 C52.2976034,13.5059682 52.3484957,13.3879682 52.4118953,13.3879682 L53.522036,13.3879682 C53.5850044,13.3879682 53.6363279,13.5059682 53.6363279,13.6529682 C53.6363279,13.7989682 53.5850044,13.9179682 53.522036,13.9179682 M55.7423174,13.9179682 L54.6321767,13.9179682 C54.5692084,13.9179682 54.5178849,13.7989682 54.5178849,13.6529682 C54.5178849,13.5059682 54.5692084,13.3879682 54.6321767,13.3879682 L55.7423174,13.3879682 C55.8057171,13.3879682 55.8570406,13.5059682 55.8570406,13.6529682 C55.8570406,13.7989682 55.8057171,13.9179682 55.7423174,13.9179682 M57.9630301,13.9179682 L56.8528894,13.9179682 C56.7894898,13.9179682 56.7385976,13.7989682 56.7385976,13.6529682 C56.7385976,13.5059682 56.7894898,13.3879682 56.8528894,13.3879682 L57.9630301,13.3879682 C58.0259985,13.3879682 58.077322,13.5059682 58.077322,13.6529682 C58.077322,13.7989682 58.0259985,13.9179682 57.9630301,13.9179682 M60.1833116,13.9179682 L59.0731709,13.9179682 C59.0102025,13.9179682 58.958879,13.7989682 58.958879,13.6529682 C58.958879,13.5059682 59.0102025,13.3879682 59.0731709,13.3879682 L60.1833116,13.3879682 C60.2467112,13.3879682 60.2976034,13.5059682 60.2976034,13.6529682 C60.2976034,13.7989682 60.2467112,13.9179682 60.1833116,13.9179682" id="Fill-9" fill="#FFFFFF"></path>
                <path d="M61.4961339,13.2165078 L60.7687211,13.2165078 C60.6932591,13.2165078 60.6321708,13.0975078 60.6321708,12.9515078 C60.6321708,12.8045078 60.6932591,12.6865078 60.7687211,12.6865078 L61.4961339,12.6865078 C61.5710825,12.6865078 61.6321708,12.8045078 61.6321708,12.9515078 C61.6321708,13.0975078 61.5710825,13.2165078 61.4961339,13.2165078" id="Fill-11" fill="#FFFFFF"></path>
                <polygon id="Fill-13" fill="#73C4E3" points="78.987185 10.1124755 73.5955894 24.1124755 65.987185 11.2138517"></polygon>
                <path d="M66.8396925,13.6504329 C66.7696909,13.6504329 66.7099837,13.5454329 66.7038071,13.4074329 C66.6976305,13.2614329 66.7537347,13.1334329 66.8288834,13.1214329 L67.5556644,13.0034329 C67.6241219,12.9984329 67.696697,13.0994329 67.7028736,13.2454329 C67.7090502,13.3904329 67.6534607,13.5194329 67.578312,13.5314329 L66.8510163,13.6494329 C66.8474133,13.6504329 66.8438102,13.6504329 66.8396925,13.6504329" id="Fill-15" fill="#FFFFFF"></path>
                <path d="M74.5879747,13.2314224 C74.5291251,13.2314224 74.4789299,13.1797119 74.4737373,13.1117494 C74.4685447,13.0398471 74.5157109,12.9768095 74.5788876,12.9708997 L75.6888075,12.8650161 C75.7480897,12.8605838 75.8069393,12.9127868 75.8125646,12.9846892 C75.8177572,13.056099 75.7710238,13.1191366 75.707847,13.1255389 L74.5974944,13.2309299 C74.5944654,13.2314224 74.5914364,13.2314224 74.5879747,13.2314224 M72.3677022,13.442697 C72.3088527,13.442697 72.2586574,13.3909864 72.2534648,13.323024 C72.2482722,13.2511217 72.2954384,13.188084 72.3586151,13.1816818 L73.468535,13.0762907 C73.5273846,13.0733358 73.5870996,13.123569 73.5922922,13.1954713 C73.5974848,13.2673736 73.5507513,13.3304112 73.4875746,13.336321 L72.3776547,13.4422045 C72.374193,13.4422045 72.3711639,13.442697 72.3677022,13.442697 M70.1478625,13.6534791 C70.0890129,13.6534791 70.0388177,13.6017686 70.0336251,13.5338061 C70.0284325,13.4623963 70.0751659,13.3988662 70.1383427,13.3929564 L71.2486953,13.2875653 C71.3071121,13.2860879 71.3672598,13.3348436 71.3724524,13.4067459 C71.377645,13.4781557 71.3309116,13.5416858 71.2677348,13.5475956 L70.1573822,13.6529866 C70.1543532,13.6534791 70.1513242,13.6534791 70.1478625,13.6534791 M67.92759,13.8647537 C67.8687404,13.8647537 67.8185452,13.8130432 67.8133526,13.7450807 C67.80816,13.6731784 67.8548935,13.6101407 67.9180702,13.604231 L69.0284228,13.4983474 C69.0864069,13.4944076 69.1469873,13.5461181 69.1521799,13.6180205 C69.1573726,13.6894303 69.1106391,13.7529604 69.0474624,13.7588702 L67.9371098,13.8642612 C67.9340808,13.8647537 67.9310517,13.8647537 67.92759,13.8647537" id="Fill-17" fill="#FFFFFF"></path>
                <path d="M77.2582463,12.977133 C77.1882447,12.977133 77.1285375,12.872133 77.1223609,12.734133 C77.1161843,12.588133 77.1722885,12.460133 77.2474373,12.448133 L77.9742182,12.330133 C78.0452493,12.319133 78.1152508,12.426133 78.1214274,12.572133 C78.127604,12.717133 78.0720146,12.846133 77.9968658,12.858133 L77.2695701,12.976133 C77.2659671,12.977133 77.2623641,12.977133 77.2582463,12.977133" id="Fill-19" fill="#FFFFFF"></path>
                <polygon id="Fill-21" fill="#66E0A4" points="34.2070556 9.9595833 39.5986513 23.9595833 47.2070556 11.0609594"></polygon>
                <path d="M45.0060954,13.57336 C45.0019776,13.57336 44.9983746,13.57336 44.9947716,13.57236 L44.2674759,13.45436 C44.1923271,13.44236 44.1367376,13.31336 44.1429142,13.16836 C44.1490909,13.02236 44.2201219,12.92136 44.2901234,12.92636 L45.0169044,13.04436 C45.0920532,13.05636 45.1481574,13.18436 45.1419808,13.33036 C45.1358041,13.46836 45.0760969,13.57336 45.0060954,13.57336" id="Fill-23" fill="#FFFFFF"></path>
                <path d="M37.2578132,13.0785302 C37.2543515,13.0785302 37.2513224,13.0785302 37.2482934,13.0780377 L36.1379408,12.9726467 C36.0747641,12.9662444 36.0280306,12.9032068 36.0332232,12.8317969 C36.0384158,12.7598946 36.1007271,12.7076916 36.1569804,12.7121239 L37.2669003,12.8180074 C37.330077,12.8239172 37.3772432,12.8869549 37.3720506,12.9588572 C37.366858,13.0268196 37.3166627,13.0785302 37.2578132,13.0785302 M39.4780857,13.2898048 C39.4746239,13.2898048 39.4715949,13.2893123 39.4681332,13.2893123 L38.3582133,13.1834288 C38.2950366,13.177519 38.2483031,13.1144813 38.2534957,13.042579 C38.2586883,12.9706767 38.3209996,12.9204436 38.3772528,12.9233985 L39.4871727,13.0287896 C39.5503494,13.0351918 39.5975156,13.0982295 39.592323,13.1701318 C39.5871304,13.2380942 39.5369352,13.2898048 39.4780857,13.2898048 M41.6979254,13.5005869 C41.6944637,13.5005869 41.6914346,13.5005869 41.6884056,13.5000944 L40.578053,13.3947034 C40.5148763,13.3887936 40.4681428,13.3252635 40.4733354,13.2538536 C40.4789608,13.1819513 40.5417048,13.1331956 40.5970926,13.1346731 L41.7074452,13.2400641 C41.7706219,13.2459739 41.8173554,13.309504 41.8121628,13.3809139 C41.8069702,13.4488763 41.756775,13.5005869 41.6979254,13.5005869 M43.9181979,13.7118615 C43.9147361,13.7118615 43.9117071,13.7118615 43.9086781,13.711369 L42.7983255,13.605978 C42.7351488,13.6000682 42.6884153,13.536538 42.6936079,13.4651282 C42.6992332,13.3932259 42.7619772,13.3415153 42.8173651,13.3454552 L43.9277177,13.4513387 C43.9908944,13.4572485 44.0376278,13.5202862 44.0324352,13.5921885 C44.0272426,13.6601509 43.9770474,13.7118615 43.9181979,13.7118615" id="Fill-25" fill="#FFFFFF"></path>
                <path d="M35.0374437,12.2985193 C35.0333259,12.2985193 35.0297229,12.2985193 35.0261199,12.2975193 L34.2988242,12.1795193 C34.2236754,12.1675193 34.1680859,12.0385193 34.1742625,11.8935193 C34.1804392,11.7475193 34.2540437,11.6405193 34.3214717,11.6515193 L35.0482527,11.7695193 C35.1234015,11.7815193 35.1795057,11.9095193 35.1733291,12.0555193 C35.1671524,12.1935193 35.1074452,12.2985193 35.0374437,12.2985193" id="Fill-27" fill="#FFFFFF"></path>
                <polygon id="Fill-29" fill="#FFD54D" points="94.8399668 7.62770599 90.911678 22.627706 81.8399668 10.2300686"></polygon>
                <path d="M82.5814844,12.2285629 C82.5169626,12.2285629 82.4592052,12.1405629 82.4461968,12.0135629 C82.4316273,11.8705629 82.4810593,11.7305629 82.5554675,11.7035629 L83.2797765,11.4335629 C83.3526237,11.4105629 83.4265115,11.4995629 83.441081,11.6435629 C83.4556504,11.7875629 83.4067387,11.9265629 83.3318102,11.9545629 L82.6080215,12.2235629 C82.5991758,12.2265629 82.5903301,12.2285629 82.5814844,12.2285629" id="Fill-31" fill="#FFFFFF"></path>
                <path d="M91.6388041,10.1453354 C91.584361,10.1453354 91.5356257,10.1008644 91.5246493,10.0366847 C91.5123557,9.96441934 91.5540661,9.89367004 91.6168513,9.88002554 L92.7267874,9.63240301 C92.7891335,9.62077992 92.8506014,9.6652509 92.862895,9.73852695 C92.8751886,9.8107923 92.8339173,9.88154159 92.7706931,9.8951861 L91.661196,10.1428086 C91.6537321,10.1443247 91.6462681,10.1453354 91.6388041,10.1453354 M89.419371,10.6405804 C89.3649279,10.6405804 89.3161926,10.5961094 89.3056552,10.5319297 C89.2933616,10.4596644 89.3341939,10.3889151 89.3978572,10.3752706 L90.5073542,10.1271427 C90.5692613,10.116025 90.6311683,10.1604959 90.6434619,10.2332666 C90.6557555,10.3060373 90.6144841,10.3762813 90.5512599,10.3904311 L89.4417629,10.6380537 C89.4342989,10.6395697 89.4268349,10.6405804 89.419371,10.6405804 M87.2003769,11.1353201 C87.1459338,11.1353201 87.0971985,11.0913545 87.0862221,11.0271748 C87.0743675,10.9544041 87.1156389,10.8841601 87.178424,10.8700103 L88.2883601,10.6223878 C88.3511453,10.61127 88.4121742,10.655741 88.4244678,10.7285117 C88.4367614,10.8012824 88.3954901,10.8715263 88.3322658,10.8856762 L87.2227688,11.1332987 C87.2153048,11.1348148 87.2078409,11.1353201 87.2003769,11.1353201 M84.9809438,11.6305652 C84.9265007,11.6305652 84.8782044,11.5865995 84.867228,11.5224198 C84.8549344,11.4496491 84.8962058,11.3794052 84.95943,11.3652553 L86.068927,11.1176328 C86.1312731,11.1060097 86.1927411,11.150986 86.2054737,11.2237567 C86.2173283,11.2965274 86.1760569,11.3667714 86.1132718,11.3809212 L85.0033357,11.6285438 C84.9958717,11.6300598 84.9888468,11.6305652 84.9809438,11.6305652" id="Fill-33" fill="#FFFFFF"></path>
                <path d="M92.2506217,10.3559005 C92.1860987,10.3559005 92.1283403,10.2679005 92.1153316,10.1409005 C92.1007619,9.99790049 92.1501948,9.85790049 92.2246044,9.83090049 L92.9489268,9.56090049 C93.022816,9.53590049 93.0961848,9.62690049 93.1102342,9.77090049 C93.1248039,9.91490049 93.075371,10.0539005 93.0014818,10.0819005 L92.2771594,10.3509005 C92.2683135,10.3539005 92.2594676,10.3559005 92.2506217,10.3559005" id="Fill-35" fill="#FFFFFF"></path>
                <polygon id="Fill-37" fill="#FF8AB3" points="109.418862 1.76992414 108.153382 17.7699241 96.4188616 6.95451397"></polygon>
                <path d="M98.7775437,8.88293489 C98.7201928,8.88293489 98.6660881,8.82300563 98.6439052,8.72312354 C98.6146887,8.59375244 98.6514799,8.44725869 98.7245211,8.39589076 L99.4381614,7.90123656 C99.5106616,7.84891736 99.5945238,7.91265165 99.6237403,8.04297401 C99.6529568,8.17234511 99.6167067,8.31883885 99.5431244,8.37020679 L98.8300252,8.86486099 C98.8121707,8.87722734 98.7943161,8.88293489 98.7775437,8.88293489" id="Fill-39" fill="#FFFFFF"></path>
                <path d="M106.129342,5.47944662 C106.086839,5.47944662 106.04636,5.45300015 106.029764,5.4089227 C106.007905,5.3518319 106.035026,5.28718498 106.090077,5.26451657 L107.059546,4.86781952 C107.114597,4.84431155 107.176935,4.87327673 107.198794,4.93078731 C107.220247,4.9878781 107.193531,5.05252503 107.138075,5.07519343 L106.168606,5.4714707 C106.155653,5.4769279 106.142295,5.47944662 106.129342,5.47944662 M104.190808,6.27284072 C104.147901,6.27284072 104.107827,6.24639425 104.090826,6.2023168 C104.068967,6.145226 104.096493,6.08057908 104.151139,6.05791067 L105.121013,5.66121362 C105.175659,5.63770565 105.237592,5.66667083 105.259855,5.72418141 C105.281309,5.7812722 105.254593,5.84591913 105.199542,5.86816775 L104.230478,6.26528458 C104.21712,6.270322 104.203762,6.27284072 104.190808,6.27284072 M102.25187,7.06623482 C102.209368,7.06623482 102.168889,7.03936856 102.152292,6.9957109 C102.130434,6.9386201 102.15715,6.87397318 102.212606,6.85130477 L103.18248,6.45460772 C103.236721,6.43151954 103.299464,6.46006493 103.321322,6.51757551 C103.343181,6.5746663 103.31606,6.63931323 103.260604,6.66156185 L102.29154,7.0582589 C102.278586,7.0637161 102.265228,7.06623482 102.25187,7.06623482 M100.313742,7.85962892 C100.27043,7.85962892 100.230355,7.83276266 100.213759,7.789105 C100.191901,7.7320142 100.219021,7.66736728 100.274073,7.64469887 L101.243542,7.24800182 C101.298188,7.22491364 101.36093,7.25345903 101.382384,7.31096961 C101.404243,7.3680604 101.377122,7.43270733 101.322071,7.45537573 L100.352602,7.851653 C100.339648,7.8571102 100.32629,7.85962892 100.313742,7.85962892" id="Fill-41" fill="#FFFFFF"></path>
                <path d="M107.921718,4.83632294 C107.864916,4.83632294 107.810819,4.7764173 107.788639,4.67657457 C107.759426,4.54725447 107.795672,4.40081847 107.869244,4.34947078 L108.582786,3.85501156 C108.655276,3.8017621 108.739127,3.86642215 108.76834,3.99669314 C108.797552,4.12601325 108.761848,4.27244925 108.687735,4.32379693 L107.974733,4.81825616 C107.956881,4.83061764 107.939029,4.83632294 107.921718,4.83632294" id="Fill-43" fill="#FFFFFF"></path>
                <polygon id="Fill-45" fill="#F38F39" points="3.02721357 1.76114956 4.29269279 17.7611496 16.0272136 6.94573939"></polygon>
                <path d="M14.3436587,8.72502861 C14.3263506,8.72502861 14.3085016,8.71932106 14.2911935,8.70695471 L13.5777757,8.21230051 C13.5042163,8.16093257 13.4679775,8.01443883 13.4971849,7.88506773 C13.5263923,7.75474537 13.6086057,7.69101108 13.6832469,7.74333028 L14.3961238,8.23798448 C14.4696832,8.28935241 14.505922,8.43584616 14.4772555,8.56521726 C14.4545386,8.66509935 14.4004508,8.72502861 14.3436587,8.72502861" id="Fill-47" fill="#FFFFFF"></path>
                <path d="M6.91697802,5.24572098 C6.90402468,5.24572098 6.89066656,5.24320227 6.87771322,5.23774506 L5.9082372,4.84146779 C5.85318553,4.81879939 5.82606449,4.75415246 5.84751845,4.69706167 C5.8693772,4.63955109 5.93131032,4.61058591 5.98676678,4.63409389 L6.95624281,5.03079094 C7.01129447,5.05345934 7.03841551,5.11810626 7.01696156,5.17519706 C7.0003651,5.21927451 6.95948114,5.24572098 6.91697802,5.24572098 M8.85552527,6.03911508 C8.84257194,6.03911508 8.82921382,6.03659637 8.81626048,6.03155894 L7.84678446,5.63444211 C7.79173279,5.61219349 7.76461175,5.54754656 7.7864705,5.49045577 C7.80832925,5.43294519 7.87026237,5.40398001 7.92571883,5.42748798 L8.89479006,5.82418503 C8.94984173,5.84685344 8.97696277,5.91150036 8.95550881,5.96859116 C8.93850756,6.01266861 8.89843319,6.03911508 8.85552527,6.03911508 M10.7944773,6.83250918 C10.7811192,6.83250918 10.7677611,6.82999046 10.7548077,6.82453326 L9.78533172,6.42783621 C9.73028005,6.40558759 9.70315901,6.34094066 9.72501776,6.28384987 C9.74647172,6.22633929 9.80880963,6.1977939 9.86426609,6.22088208 L10.8337421,6.61757913 C10.8887938,6.64024754 10.9159148,6.70489446 10.8940561,6.76198526 C10.8774596,6.80564292 10.8369804,6.83250918 10.7944773,6.83250918 M12.7330246,7.62590328 C12.7196665,7.62590328 12.7063083,7.62338456 12.6937598,7.61792736 L11.7242838,7.22165009 C11.6692321,7.19898169 11.6421111,7.13433476 11.6639698,7.07724397 C11.6854238,7.01973339 11.7477617,6.991188 11.8028133,7.01427618 L12.7722894,7.41097323 C12.827341,7.43364164 12.8544621,7.49828856 12.8326033,7.55537936 C12.8160069,7.59903702 12.7755277,7.62590328 12.7330246,7.62590328" id="Fill-49" fill="#FFFFFF"></path>
                <path d="M4.82490907,5.501148 C4.80760098,5.501148 4.78975202,5.49544271 4.77244393,5.48308122 L4.05902609,4.988622 C3.98546671,4.93727431 3.9492279,4.79083831 3.9784353,4.66151821 C4.0076427,4.53124722 4.09039701,4.46658717 4.16449727,4.51983662 L4.87737422,5.01429585 C4.95093361,5.06564353 4.98717242,5.21207953 4.95850589,5.34139964 C4.93578903,5.44124237 4.88170125,5.501148 4.82490907,5.501148" id="Fill-51" fill="#FFFFFF"></path>
                <polygon id="Fill-53" fill="#9E9ED8" points="18.054757 8.29629159 21.9830458 23.2962916 31.054757 10.8986542"></polygon>
                <path d="M29.9391567,12.2235488 C29.9303109,12.2235488 29.9214652,12.2215488 29.9126195,12.2185488 L29.1888308,11.9495488 C29.1139023,11.9215488 29.0649906,11.7825488 29.0795601,11.6385488 C29.0941295,11.4945488 29.167497,11.4055488 29.2408645,11.4285488 L29.9651735,11.6985488 C30.0395817,11.7255488 30.0890137,11.8655488 30.0744443,12.0085488 C30.0614358,12.1355488 30.0036784,12.2235488 29.9391567,12.2235488" id="Fill-55" fill="#FFFFFF"></path>
                <path d="M21.5566901,9.61486977 C21.5492261,9.61486977 21.5417621,9.61385925 21.5342982,9.61234347 L20.4248011,9.36476594 C20.3615769,9.35061866 20.3203056,9.28038748 20.3325992,9.20763 C20.3453318,9.13487253 20.408117,9.09040962 20.4687068,9.10152535 L21.5786429,9.34960813 C21.6418671,9.36325016 21.6831385,9.4339866 21.6708449,9.50623881 C21.6598685,9.57040687 21.6111331,9.61486977 21.5566901,9.61486977 M23.7761232,10.1100248 C23.7686592,10.1100248 23.7611953,10.1090143 23.7537313,10.1074985 L22.6442343,9.85992099 C22.5810101,9.8457737 22.5397387,9.77554253 22.5520323,9.70278505 C22.5643259,9.63002757 22.6262329,9.58556467 22.68814,9.5966804 L23.797637,9.84476318 C23.8613003,9.85840521 23.9021326,9.92914164 23.889839,10.0013939 C23.8793016,10.0655619 23.8305663,10.1100248 23.7761232,10.1100248 M25.9951173,10.6046746 C25.9876533,10.6046746 25.9801894,10.6041693 25.9727254,10.6026536 L24.8632283,10.355076 C24.8000041,10.3409288 24.7587328,10.2706976 24.7710264,10.1979401 C24.78332,10.1251826 24.8461051,10.0807197 24.907134,10.0918354 L26.0170701,10.339413 C26.0798553,10.3535603 26.1211266,10.4237914 26.1092721,10.4965489 C26.0982957,10.560717 26.0495604,10.6046746 25.9951173,10.6046746 M28.2145504,11.0998297 C28.2066474,11.0998297 28.1996225,11.0993244 28.1921585,11.0978086 L27.0822224,10.8502311 C27.0194373,10.8360838 26.9781659,10.7658526 26.9900205,10.6930951 C27.0027531,10.6203377 27.0655383,10.5753695 27.1265672,10.5869905 L28.2360642,10.834568 C28.2992884,10.8487153 28.3405598,10.9189465 28.3282662,10.991704 C28.3172898,11.055872 28.2689935,11.0998297 28.2145504,11.0998297" id="Fill-57" fill="#FFFFFF"></path>
                <path d="M19.970505,10.9486667 C19.9616592,10.9486667 19.9528135,10.9466667 19.9439678,10.9436667 L19.2201791,10.6746667 C19.1452506,10.6466667 19.0963389,10.5076667 19.1109084,10.3636667 C19.1254778,10.2196667 19.199886,10.1286667 19.2722128,10.1536667 L19.9965218,10.4236667 C20.07093,10.4506667 20.120362,10.5906667 20.1057926,10.7336667 C20.0927841,10.8606667 20.0350267,10.9486667 19.970505,10.9486667" id="Fill-59" fill="#FFFFFF"></path>
            </g>
        </g>
    </g>
</svg>